<?xml version="1.0" encoding="UTF-8"?>
<svg id="Capa_2" data-name="Capa 2" xmlns="http://www.w3.org/2000/svg" viewBox="0 0 430.65 158.59">
  <defs>
    <style>
      .cls-1 {
        fill: #f4b117;
      }

      .cls-1, .cls-2, .cls-3, .cls-4, .cls-5 {
        stroke-width: 0px;
      }

      .cls-2 {
        fill: #183861;
      }

      .cls-3 {
        fill: #14395f;
      }

      .cls-4 {
        fill: #1fb8d0;
      }

      .cls-5 {
        fill: #fff;
      }
    </style>
  </defs>
  <g id="Capa_1-2" data-name="Capa 1">
    <g>
      <path class="cls-3" d="M139.68,43.93h174.76v51.15c0,10.84-8.8,19.64-19.64,19.64H120.04v-51.15c0-10.84,8.8-19.64,19.64-19.64Z"/>
      <path class="cls-4" d="M138.96,43.93h171.68v48.09c0,10.44-8.48,18.92-18.92,18.92H120.04v-48.09c0-10.44,8.48-18.92,18.92-18.92Z"/>
      <g>
        <g>
          <path class="cls-3" d="M176.77,97.6v-14.46h13.09c.02.45.04.9.06,1.4h1.39v4.35h-1.38v2.95h1.38v4.35h-1.4v1.42h-13.15ZM185.5,86.05h-2.87v2.8h2.87v-2.8ZM185.48,94.72v-2.84h-2.85v2.84h2.85Z"/>
          <path class="cls-3" d="M258.16,84.59v13.01h-5.82v-5.73h-2.92v5.75h-5.83v-13.05h1.38c.02-.52.04-.95.07-1.42h11.68v1.37c.51.03.96.05,1.45.07ZM252.27,88.87v-2.82h-2.81v2.82h2.81Z"/>
          <path class="cls-3" d="M193.48,84.56h1.37c.03-.48.05-.93.08-1.42h11.68v1.38c.51.02.96.05,1.44.07v13.01h-5.83v-5.73h-2.9v5.73h-5.85v-13.04ZM199.35,86.03v2.83h2.8v-2.83h-2.8Z"/>
          <path class="cls-3" d="M224.72,84.52v13.09h-5.79v-11.56h-2.94v11.56h-5.82v-13.03h1.42v-1.42h11.71v1.37h1.43Z"/>
          <path class="cls-3" d="M232.76,94.76h8.69v2.85h-13.11v-1.38h-1.44v-11.64c.43-.02.88-.04,1.38-.06v-1.37h13.15v2.83h-8.68v8.77Z"/>
        </g>
        <g>
          <path class="cls-3" d="M244.4,62.48v1.36h1.42v13.1h-5.79v-11.58h-2.92v11.57h-5.83v-11.56h-2.96v11.57h-5.8v-13.05h1.39v-1.4h20.5Z"/>
          <path class="cls-3" d="M287.22,76.95h-5.81v-13.06h1.4v-1.42h11.69v1.37h1.41v13.08h-5.76v-5.72h-2.94v5.75ZM290.09,68.19v-2.82h-2.84v2.82h2.84Z"/>
          <path class="cls-3" d="M273.42,76.92v-5.7h-2.9v5.72h-5.84v-14.48h13.12c.02.44.04.87.06,1.38h1.37v4.35c-.46.02-.89.04-1.36.06v2.91h1.37v5.77h-5.83ZM273.37,68.22v-2.85h-2.81v2.85h2.81Z"/>
          <path class="cls-3" d="M212.44,68.21h-1.38v2.94h1.39v5.78h-5.8v-5.71h-2.91v5.71h-5.86v-14.46h13.1v1.36h1.46v4.37ZM206.6,65.36h-2.85v2.84h2.85v-2.84Z"/>
          <path class="cls-3" d="M181.18,62.46h13.1v1.39h1.41v5.83c-.43.02-.88.04-1.38.06v1.4h-7.33v5.81h-5.8v-14.48ZM189.86,68.19v-2.82h-2.85v2.82h2.85Z"/>
          <path class="cls-3" d="M262.58,62.46v2.83h-8.69v2.92h4.27v2.93h-4.28v2.92h8.68v2.89h-13.12v-1.39h-1.41v-11.65h1.38v-1.44h13.18Z"/>
          <path class="cls-3" d="M214.58,66.42h5.78v10.53h-5.78v-10.53Z"/>
          <path class="cls-3" d="M214.55,65.27v-2.79h5.81v2.79h-5.81Z"/>
        </g>
        <g>
          <path class="cls-3" d="M146.29,65.38v11.54h-5.84v-13.03h1.37c.03-.51.05-.96.08-1.43h20.45v1.4h1.44v13.06h-5.81v-11.55h-2.91v11.56h-5.87v-11.55h-2.91Z"/>
          <path class="cls-3" d="M171.67,76.94h-5.77v-10.49h5.77v10.49Z"/>
          <path class="cls-3" d="M171.66,65.29h-5.76v-2.83h5.76v2.83Z"/>
        </g>
      </g>
      <g>
        <g>
          <path class="cls-5" d="M174.89,96.11v-14.46h13.09c.02.45.04.9.06,1.4h1.39v4.35h-1.38v2.95h1.38v4.35h-1.4v1.42h-13.15ZM183.62,84.57h-2.87v2.8h2.87v-2.8ZM183.6,93.23v-2.84h-2.85v2.84h2.85Z"/>
          <path class="cls-5" d="M256.28,83.1v13.01h-5.82v-5.73h-2.92v5.75h-5.83v-13.05h1.38c.02-.52.04-.95.07-1.42h11.68v1.37c.51.03.96.05,1.45.07ZM250.39,87.38v-2.82h-2.81v2.82h2.81Z"/>
          <path class="cls-5" d="M191.59,83.07h1.37c.03-.48.05-.93.08-1.42h11.68v1.38c.51.02.96.05,1.44.07v13.01h-5.83v-5.73h-2.9v5.73h-5.85v-13.04ZM197.47,84.54v2.83h2.8v-2.83h-2.8Z"/>
          <path class="cls-5" d="M222.84,83.04v13.09h-5.79v-11.56h-2.94v11.56h-5.82v-13.03h1.42v-1.42h11.71v1.37h1.43Z"/>
          <path class="cls-5" d="M230.87,93.27h8.69v2.85h-13.11v-1.38h-1.44v-11.64c.43-.02.88-.04,1.38-.06v-1.37h13.15v2.83h-8.68v8.77Z"/>
        </g>
        <g>
          <path class="cls-5" d="M242.52,60.99v1.36h1.42v13.1h-5.79v-11.58h-2.92v11.57h-5.83v-11.56h-2.96v11.57h-5.8v-13.05h1.39v-1.4h20.5Z"/>
          <path class="cls-5" d="M285.34,75.47h-5.81v-13.06h1.4v-1.42h11.69v1.37h1.41v13.08h-5.76v-5.72h-2.94v5.75ZM288.21,66.7v-2.82h-2.84v2.82h2.84Z"/>
          <path class="cls-5" d="M271.54,75.44v-5.7h-2.9v5.72h-5.84v-14.48h13.12c.02.44.04.87.06,1.38h1.37v4.35c-.46.02-.89.04-1.36.06v2.91h1.37v5.77h-5.83ZM271.49,66.74v-2.85h-2.81v2.85h2.81Z"/>
          <path class="cls-5" d="M210.56,66.72h-1.38v2.94h1.39v5.78h-5.8v-5.71h-2.91v5.71h-5.86v-14.46h13.1v1.36h1.46v4.37ZM204.72,63.87h-2.85v2.84h2.85v-2.84Z"/>
          <path class="cls-5" d="M179.29,60.97h13.1v1.39h1.41v5.83c-.43.02-.88.04-1.38.06v1.4h-7.33v5.81h-5.8v-14.48ZM187.97,66.71v-2.82h-2.85v2.82h2.85Z"/>
          <path class="cls-5" d="M260.69,60.97v2.83h-8.69v2.92h4.27v2.93h-4.28v2.92h8.68v2.89h-13.12v-1.39h-1.41v-11.65h1.38v-1.44h13.18Z"/>
          <path class="cls-5" d="M212.69,64.93h5.78v10.53h-5.78v-10.53Z"/>
          <path class="cls-5" d="M212.67,63.78v-2.79h5.81v2.79h-5.81Z"/>
        </g>
        <g>
          <path class="cls-5" d="M144.41,63.9v11.54h-5.84v-13.03h1.37c.03-.51.05-.96.08-1.43h20.45v1.4h1.44v13.06h-5.81v-11.55h-2.91v11.56h-5.87v-11.55h-2.91Z"/>
          <path class="cls-5" d="M169.78,75.45h-5.77v-10.49h5.77v10.49Z"/>
          <path class="cls-5" d="M169.78,63.8h-5.76v-2.83h5.76v2.83Z"/>
        </g>
      </g>
      <path class="cls-2" d="M340.65,44.32h-30.39V9.78c0-5.39,5.15-9.78,11.47-9.78h106.25l-90,.77h-16.25c-5.9,0-10.7,4.04-10.7,9.01v33.77h119.62l-90,.77Z"/>
      <path class="cls-1" d="M110.26,158.59H1.13v-.77h109.13c5.18,0,9.4-4.22,9.4-9.4v-37.09H0v-.77h120.43v37.86c0,5.61-4.56,10.17-10.17,10.17Z"/>
    </g>
  </g>
</svg>