<?xml version="1.0" encoding="UTF-8"?>
<svg id="Capa_2" data-name="Capa 2" xmlns="http://www.w3.org/2000/svg" viewBox="0 0 129.96 62.57">
  <defs>
    <style>
      .cls-1 {
        fill: #fdcd00;
      }

      .cls-1, .cls-2, .cls-3, .cls-4, .cls-5, .cls-6 {
        stroke-width: 0px;
      }

      .cls-2 {
        fill: #f2a317;
      }

      .cls-3 {
        fill: #312614;
      }

      .cls-4 {
        fill: #1d1d1b;
      }

      .cls-5 {
        fill: #faf1ce;
      }

      .cls-6 {
        fill: #fff;
      }
    </style>
  </defs>
  <g id="Capa_1-2" data-name="Capa 1">
    <g>
      <path class="cls-3" d="M15.82,30.15v-2.46h14.73v19.64h4.91v4.91h-4.91v9.82h-9.82v-9.82H1.09v-9.82h4.91v-4.91h4.91v-4.91h4.91v-2.45ZM20.73,42.42v-4.91h-4.91v4.91h-4.91v4.91h9.82v-4.91Z"/>
      <path class="cls-3" d="M50.18,30.15v-2.46h14.73v4.91h4.91v4.91h4.91v14.73h-4.91v4.91h-4.91v4.91h-14.73v-4.91h-4.91v-4.91h-4.91v-14.73h4.91v-4.91h4.91v-2.45ZM60,35.06v-2.46h-9.82v19.64h4.91v4.91h9.82v-19.64h-4.91v-2.45Z"/>
    </g>
    <g>
      <rect class="cls-2" x="120.39" y="57.84" width="1.27" height="1.18"/>
      <rect class="cls-2" x="121.66" y="54.3" width="1.26" height="1.18"/>
      <rect class="cls-5" x="96.36" y="42.49" width="1.26" height="1.18"/>
      <polygon class="cls-2" points="126.71 38.95 125.45 38.95 124.18 38.95 122.92 38.95 122.92 40.13 122.92 41.31 122.92 42.49 122.92 43.67 122.92 44.85 122.92 46.03 122.92 47.21 122.92 48.39 122.92 49.58 122.92 50.76 122.92 51.94 121.66 51.94 121.66 53.12 121.66 54.3 122.92 54.3 122.92 55.48 121.66 55.48 121.66 54.3 120.39 54.3 120.39 55.48 119.13 55.48 119.13 56.66 117.86 56.66 117.86 57.84 117.86 59.02 116.6 59.02 115.33 59.02 115.33 60.2 114.07 60.2 114.07 61.39 112.8 61.39 111.54 61.39 111.54 62.57 112.8 62.57 114.07 62.57 115.33 62.57 116.6 62.57 116.6 61.39 117.86 61.39 119.13 61.39 119.13 60.2 120.39 60.2 120.39 59.02 120.39 57.84 121.66 57.84 121.66 59.02 122.92 59.02 122.92 57.84 122.92 56.66 124.18 56.66 124.18 55.48 125.45 55.48 125.45 54.3 125.45 53.12 126.71 53.12 126.71 51.94 126.71 50.76 127.98 50.76 127.98 49.58 127.98 48.39 127.98 47.21 127.98 46.03 127.98 44.85 127.98 43.67 127.98 42.49 127.98 41.31 127.98 40.13 127.98 38.95 126.71 38.95"/>
      <polygon class="cls-4" points="114.07 61.36 114.07 61.39 111.54 61.39 111.54 62.57 116.6 62.57 116.6 61.39 119.13 61.39 119.13 61.36 114.07 61.36"/>
      <rect class="cls-6" x="120.39" y="35.4" width="1.27" height="1.18"/>
      <g>
        <path class="cls-1" d="M120.39,38.95v-3.54h-1.26v-1.18h-1.26v-1.18h-1.26v-1.18h-1.26v-1.18h-1.26v-1.18h-2.53v-1.18h-10.12v1.18h-2.53v1.18h-1.26v1.18h-1.26v1.18h-1.26v1.18h-1.26v2.36h-1.27v2.36h-1.26v11.81h1.26v2.36h1.27v2.36h1.26v1.18h1.26v1.18h1.26v1.18h1.26v1.18h2.53v1.18h10.12v-1.18h2.53v-1.18h1.26v-1.18h1.26v-1.18h1.26v-1.18h1.26v-1.18h1.26v-2.36h1.27v-12.99h-1.27ZM96.36,40.13v-2.36h1.26v-1.18h1.26v-1.18h1.26v-1.18h1.26v-1.18h10.12v1.18h1.26v1.18h1.26v1.18h1.26v1.18h1.26v2.36h1.26v9.45h-1.26v2.36h-1.26v1.18h-1.26v1.18h-1.26v1.18h-1.26v1.18h-10.12v-1.18h-1.26v-1.18h-1.26v-1.18h-1.26v-1.18h-1.26v-2.36h-1.26v-9.45h1.26Z"/>
        <polygon class="cls-1" points="98.89 38.95 97.62 38.95 97.62 40.13 97.62 41.31 97.62 42.49 97.62 43.67 97.62 44.85 97.62 46.03 97.62 47.21 97.62 48.39 98.89 48.39 98.89 49.58 98.89 50.76 100.15 50.76 100.15 51.94 101.42 51.94 101.42 53.12 102.68 53.12 103.95 53.12 103.95 54.3 105.21 54.3 106.48 54.3 107.74 54.3 109.01 54.3 110.27 54.3 110.27 53.12 111.54 53.12 112.8 53.12 112.8 51.94 114.07 51.94 114.07 50.76 115.33 50.76 115.33 49.58 115.33 48.39 116.6 48.39 116.6 47.21 116.6 46.03 116.6 44.85 116.6 43.67 116.6 42.49 116.6 41.31 115.33 41.31 115.33 40.13 115.33 38.95 115.33 37.77 114.07 37.77 114.07 36.59 112.8 36.59 112.8 35.4 111.54 35.4 110.27 35.4 110.27 34.22 109.01 34.22 107.74 34.22 106.48 34.22 105.21 34.22 103.95 34.22 102.68 34.22 102.68 35.4 101.42 35.4 100.15 35.4 100.15 36.59 98.89 36.59 98.89 37.77 98.89 38.95"/>
      </g>
      <g>
        <polygon class="cls-2" points="125.45 35.4 125.45 34.22 125.45 33.04 124.18 33.04 124.18 34.22 122.92 34.22 121.66 34.22 121.66 35.4 121.66 36.59 121.66 37.77 122.92 37.77 122.92 36.59 124.18 36.59 125.45 36.59 125.45 37.77 125.45 38.95 126.71 38.95 126.71 37.77 126.71 36.59 126.71 35.4 125.45 35.4"/>
        <polygon class="cls-2" points="122.92 31.86 122.92 30.68 121.66 30.68 120.39 30.68 120.39 29.5 119.13 29.5 119.13 28.32 117.86 28.32 116.6 28.32 116.6 27.14 115.33 27.14 114.07 27.14 112.8 27.14 111.54 27.14 111.54 28.32 112.8 28.32 114.07 28.32 114.07 29.5 115.33 29.5 115.33 30.68 116.6 30.68 116.6 31.86 117.86 31.86 117.86 33.04 119.13 33.04 120.39 33.04 121.66 33.04 122.92 33.04 124.18 33.04 124.18 31.86 122.92 31.86"/>
      </g>
      <polygon class="cls-2" points="125.45 35.4 125.45 34.22 125.45 33.04 124.18 33.04 124.18 34.22 122.92 34.22 121.66 34.22 121.66 35.4 121.66 36.59 121.66 37.77 122.92 37.77 122.92 36.59 124.18 36.59 125.45 36.59 125.45 37.77 125.45 38.95 126.71 38.95 126.71 37.77 126.71 36.59 126.71 35.4 125.45 35.4"/>
      <polygon class="cls-4" points="125.45 35.4 125.45 34.22 125.45 33.04 124.18 33.04 124.18 33.04 124.18 33.04 124.18 34.22 124.18 35.4 125.45 35.4 125.45 36.59 125.45 36.59 125.45 37.77 125.45 38.95 126.71 38.95 126.71 37.77 126.71 36.59 126.71 35.4 125.45 35.4"/>
      <g>
        <rect class="cls-4" x="119.13" y="29.5" width="1.26" height="1.18"/>
        <polygon class="cls-4" points="120.39 31.86 121.66 31.86 122.92 31.86 122.92 30.68 121.66 30.68 120.39 30.68 120.39 31.86"/>
        <polygon class="cls-4" points="117.86 29.5 119.13 29.5 119.13 28.32 117.86 28.32 116.6 28.32 116.6 29.5 117.86 29.5"/>
        <rect class="cls-4" x="122.92" y="31.86" width="1.26" height="1.18"/>
        <polygon class="cls-4" points="112.8 28.32 112.8 28.32 114.07 28.32 114.07 28.32 115.33 28.32 116.6 28.32 116.6 27.14 115.33 27.14 114.07 27.14 112.8 27.14 111.54 27.14 111.54 28.32 111.54 28.32 112.8 28.32"/>
      </g>
      <g>
        <polygon class="cls-4" points="121.66 54.3 120.39 54.3 120.39 55.48 120.39 55.48 120.39 55.48 121.66 55.48 121.66 54.3"/>
        <polygon class="cls-4" points="126.71 38.95 125.45 38.95 125.45 38.95 125.45 38.95 126.71 38.95 126.71 40.13 126.71 41.31 126.71 42.49 126.71 43.67 126.71 44.85 126.71 46.03 126.71 47.21 126.71 48.39 126.71 49.58 126.71 50.76 127.98 50.76 127.98 49.58 127.98 48.39 127.98 47.21 127.98 46.03 127.98 44.85 127.98 43.67 127.98 42.49 127.98 41.31 127.98 40.13 127.98 38.95 126.71 38.95"/>
        <polygon class="cls-4" points="121.66 56.66 121.66 57.84 121.66 57.84 121.66 59.02 122.92 59.02 122.92 57.84 122.92 56.66 121.66 56.66"/>
        <rect class="cls-4" x="122.92" y="55.48" width="1.26" height="1.18"/>
        <polygon class="cls-4" points="125.45 50.76 125.45 51.94 125.45 53.12 124.18 53.12 124.18 54.3 124.18 55.48 125.45 55.48 125.45 54.3 125.45 53.12 126.71 53.12 126.71 51.94 126.71 50.76 125.45 50.76"/>
        <polygon class="cls-4" points="116.6 61.39 115.33 61.39 115.33 62.57 116.6 62.57 116.6 61.39 116.6 61.39"/>
        <polygon class="cls-4" points="120.39 59.02 120.39 57.84 119.13 57.84 119.13 59.02 119.13 60.2 120.39 60.2 120.39 59.02 120.39 59.02"/>
        <rect class="cls-4" x="117.86" y="60.2" width="1.26" height="1.18"/>
      </g>
      <g>
        <polygon class="cls-4" points="111.54 60.2 111.54 61.39 110.27 61.39 109.01 61.39 107.74 61.39 106.48 61.39 105.21 61.39 103.95 61.39 102.68 61.39 101.42 61.39 101.42 62.57 102.68 62.57 103.95 62.57 105.21 62.57 106.48 62.57 107.74 62.57 109.01 62.57 110.27 62.57 111.54 62.57 111.54 61.39 112.8 61.39 114.07 61.39 114.07 60.2 112.8 60.2 111.54 60.2"/>
        <rect class="cls-4" x="114.07" y="59.02" width="1.26" height="1.18"/>
        <polygon class="cls-4" points="116.6 57.84 115.33 57.84 115.33 59.02 116.6 59.02 117.86 59.02 117.86 57.84 117.86 56.66 116.6 56.66 116.6 57.84"/>
        <rect class="cls-4" x="117.86" y="55.48" width="1.26" height="1.18"/>
        <rect class="cls-4" x="119.13" y="54.3" width="1.26" height="1.18"/>
        <polygon class="cls-4" points="120.39 53.12 120.39 54.3 121.66 54.3 121.66 53.12 121.66 51.94 120.39 51.94 120.39 53.12"/>
        <polygon class="cls-4" points="121.66 40.13 121.66 41.31 121.66 42.49 121.66 43.67 121.66 44.85 121.66 46.03 121.66 47.21 121.66 48.39 121.66 49.58 121.66 50.76 121.66 51.94 122.92 51.94 122.92 50.76 122.92 49.58 122.92 48.39 122.92 47.21 122.92 46.03 122.92 44.85 122.92 43.67 122.92 42.49 122.92 41.31 122.92 40.13 121.66 40.13"/>
        <polygon class="cls-4" points="120.39 37.77 120.39 38.95 121.66 38.95 121.66 37.77 121.66 36.59 120.39 36.59 120.39 37.77"/>
        <rect class="cls-4" x="119.13" y="34.22" width="1.26" height="1.18"/>
        <rect class="cls-4" x="112.8" y="53.12" width="1.26" height="1.18"/>
        <polygon class="cls-4" points="115.33 40.13 115.33 41.31 116.6 41.31 116.6 41.31 116.6 42.49 116.6 43.67 116.6 44.85 116.6 46.03 116.6 47.21 116.6 48.39 116.6 48.39 115.33 48.39 115.33 49.58 115.33 50.76 114.07 50.76 114.07 51.94 114.07 53.12 115.33 53.12 115.33 51.94 116.6 51.94 116.6 50.76 116.6 49.58 117.86 49.58 117.86 48.39 117.86 47.21 117.86 46.03 117.86 44.85 117.86 43.67 117.86 42.49 117.86 41.31 117.86 40.13 116.6 40.13 116.6 40.13 116.6 38.95 116.6 37.77 115.33 37.77 115.33 38.95 115.33 40.13"/>
        <rect class="cls-4" x="114.07" y="36.59" width="1.26" height="1.18"/>
        <rect class="cls-4" x="112.8" y="35.4" width="1.26" height="1.18"/>
        <rect class="cls-4" x="117.86" y="33.04" width="1.26" height="1.18"/>
        <rect class="cls-4" x="116.6" y="31.86" width="1.26" height="1.18"/>
        <rect class="cls-4" x="115.33" y="30.68" width="1.26" height="1.18"/>
        <rect class="cls-4" x="114.07" y="29.5" width="1.26" height="1.18"/>
        <polygon class="cls-4" points="111.54 29.5 112.8 29.5 114.07 29.5 114.07 28.32 112.8 28.32 111.54 28.32 111.54 29.5"/>
        <polygon class="cls-4" points="100.15 60.2 98.89 60.2 98.89 61.39 100.15 61.39 101.42 61.39 101.42 60.2 100.15 60.2"/>
        <rect class="cls-4" x="97.62" y="59.02" width="1.26" height="1.18"/>
        <polygon class="cls-4" points="96.36 57.84 96.36 56.66 95.09 56.66 95.09 57.84 95.09 59.02 96.36 59.02 97.62 59.02 97.62 57.84 96.36 57.84"/>
        <rect class="cls-4" x="93.83" y="55.48" width="1.26" height="1.18"/>
        <polygon class="cls-4" points="102.68 56.66 103.95 56.66 105.21 56.66 106.48 56.66 107.74 56.66 109.01 56.66 110.27 56.66 111.54 56.66 111.54 55.48 112.8 55.48 112.8 54.3 111.54 54.3 110.27 54.3 110.27 55.48 109.01 55.48 107.74 55.48 106.48 55.48 105.21 55.48 103.95 55.48 102.68 55.48 102.68 54.3 101.42 54.3 100.15 54.3 100.15 55.48 101.42 55.48 101.42 56.66 102.68 56.66"/>
        <rect class="cls-4" x="98.89" y="53.12" width="1.26" height="1.18"/>
        <polygon class="cls-4" points="93.83 53.12 92.56 53.12 92.56 54.3 92.56 55.48 93.83 55.48 93.83 54.3 93.83 53.12"/>
        <polygon class="cls-4" points="92.56 50.76 91.3 50.76 91.3 51.94 91.3 53.12 92.56 53.12 92.56 51.94 92.56 50.76"/>
        <polygon class="cls-4" points="91.3 48.39 91.3 47.21 91.3 46.03 91.3 44.85 91.3 43.67 91.3 42.49 91.3 41.31 91.3 40.13 90.03 40.13 90.03 41.31 90.03 42.49 90.03 43.67 90.03 44.85 90.03 46.03 90.03 47.21 90.03 48.39 90.03 49.58 91.3 49.58 91.3 48.39"/>
        <polygon class="cls-4" points="98.89 50.76 97.62 50.76 97.62 49.58 97.62 48.39 96.36 48.39 96.36 47.21 96.36 46.03 96.36 44.85 96.36 43.67 96.36 42.49 96.36 41.31 97.62 41.31 97.62 40.13 97.62 38.95 98.89 38.95 98.89 37.77 98.89 36.59 97.62 36.59 97.62 37.77 96.36 37.77 96.36 38.95 96.36 40.13 95.09 40.13 95.09 41.31 95.09 42.49 95.09 43.67 95.09 44.85 95.09 46.03 95.09 47.21 95.09 48.39 95.09 49.58 96.36 49.58 96.36 50.76 96.36 51.94 97.62 51.94 97.62 53.12 98.89 53.12 98.89 51.94 98.89 50.76"/>
        <polygon class="cls-4" points="92.56 37.77 92.56 36.59 91.3 36.59 91.3 37.77 91.3 38.95 92.56 38.95 92.56 37.77"/>
        <rect class="cls-4" x="98.89" y="35.4" width="1.26" height="1.18"/>
        <polygon class="cls-4" points="93.83 35.4 93.83 34.22 92.56 34.22 92.56 35.4 92.56 36.59 93.83 36.59 93.83 35.4"/>
        <polygon class="cls-4" points="102.68 35.4 102.68 34.22 103.95 34.22 105.21 34.22 106.48 34.22 107.74 34.22 109.01 34.22 110.27 34.22 110.27 35.4 111.54 35.4 112.8 35.4 112.8 34.22 111.54 34.22 111.54 33.04 110.27 33.04 109.01 33.04 107.74 33.04 106.48 33.04 105.21 33.04 103.95 33.04 102.68 33.04 101.42 33.04 101.42 34.22 100.15 34.22 100.15 35.4 101.42 35.4 102.68 35.4"/>
        <rect class="cls-4" x="93.83" y="33.04" width="1.26" height="1.18"/>
        <rect class="cls-4" x="95.09" y="31.86" width="1.26" height="1.18"/>
        <rect class="cls-4" x="96.36" y="30.68" width="1.26" height="1.18"/>
        <rect class="cls-4" x="97.62" y="29.5" width="1.26" height="1.18"/>
        <polygon class="cls-4" points="101.42 29.5 101.42 28.32 100.15 28.32 98.89 28.32 98.89 29.5 100.15 29.5 101.42 29.5"/>
        <polygon class="cls-4" points="103.95 28.32 105.21 28.32 106.48 28.32 107.74 28.32 109.01 28.32 110.27 28.32 111.54 28.32 111.54 27.14 110.27 27.14 109.01 27.14 107.74 27.14 106.48 27.14 105.21 27.14 103.95 27.14 102.68 27.14 101.42 27.14 101.42 28.32 102.68 28.32 103.95 28.32"/>
      </g>
      <g>
        <polygon class="cls-6" points="124.18 36.59 122.92 36.59 122.92 37.77 121.66 37.77 121.66 38.95 121.66 40.13 122.92 40.13 122.92 38.95 124.18 38.95 125.45 38.95 125.45 37.77 125.45 36.59 124.18 36.59"/>
        <polygon class="cls-6" points="122.92 33.04 121.66 33.04 120.39 33.04 119.13 33.04 119.13 34.22 120.39 34.22 120.39 35.4 121.66 35.4 121.66 34.22 122.92 34.22 124.18 34.22 124.18 33.04 122.92 33.04"/>
        <polygon class="cls-6" points="107.74 54.3 106.48 54.3 105.21 54.3 103.95 54.3 103.95 53.12 102.68 53.12 101.42 53.12 101.42 51.94 100.15 51.94 100.15 50.76 98.89 50.76 98.89 51.94 98.89 53.12 100.15 53.12 100.15 54.3 101.42 54.3 102.68 54.3 102.68 55.48 103.95 55.48 105.21 55.48 106.48 55.48 107.74 55.48 109.01 55.48 110.27 55.48 110.27 54.3 109.01 54.3 107.74 54.3"/>
        <polygon class="cls-6" points="110.27 53.12 110.27 54.3 111.54 54.3 112.8 54.3 112.8 53.12 111.54 53.12 110.27 53.12"/>
        <rect class="cls-6" x="112.8" y="51.94" width="1.26" height="1.18"/>
        <polygon class="cls-6" points="98.89 48.39 97.62 48.39 97.62 49.58 97.62 50.76 98.89 50.76 98.89 49.58 98.89 48.39"/>
        <polygon class="cls-6" points="97.62 46.03 97.62 44.85 97.62 43.67 96.36 43.67 96.36 44.85 96.36 46.03 96.36 47.21 96.36 48.39 97.62 48.39 97.62 47.21 97.62 46.03"/>
        <rect class="cls-6" x="96.36" y="41.31" width="1.26" height="1.18"/>
      </g>
    </g>
    <g>
      <path class="cls-4" d="M5.3,6.67c.07.16.13.32.2.49.06-.17.13-.33.2-.5.07-.16.15-.32.22-.47L8.92.58c.04-.07.08-.13.12-.17s.08-.07.13-.09.1-.03.17-.04c.06,0,.13,0,.22,0h1.42v10.12h-1.66V3.86c0-.12,0-.25.01-.4,0-.15.02-.29.03-.44l-3.06,5.74c-.07.13-.16.23-.27.3-.11.07-.24.11-.39.11h-.26c-.15,0-.28-.04-.39-.11-.11-.07-.2-.17-.27-.3L1.61,3c.02.15.03.3.04.45,0,.15,0,.28,0,.41v6.54H0V.28h1.42c.08,0,.16,0,.22,0,.06,0,.12.02.16.04s.09.05.14.09.08.1.12.17l3.02,5.62c.08.15.15.3.22.47Z"/>
      <path class="cls-4" d="M15.99,3.11c.54,0,1.02.09,1.46.26s.81.42,1.12.74c.31.32.55.7.71,1.16.17.46.25.97.25,1.53s-.08,1.08-.25,1.54c-.17.46-.41.85-.71,1.17-.31.32-.68.57-1.12.74-.44.17-.92.26-1.46.26s-1.02-.09-1.46-.26c-.44-.17-.81-.42-1.12-.74-.31-.32-.55-.71-.72-1.17-.17-.46-.26-.97-.26-1.54s.08-1.08.26-1.53c.17-.46.41-.84.72-1.16s.68-.56,1.12-.74c.44-.17.93-.26,1.46-.26ZM15.99,9.18c.6,0,1.04-.2,1.33-.6s.43-.99.43-1.76-.14-1.37-.43-1.77c-.29-.41-.73-.61-1.33-.61s-1.05.2-1.34.61c-.29.41-.43,1-.43,1.77s.14,1.36.43,1.76c.29.4.74.61,1.34.61Z"/>
      <path class="cls-4" d="M20.88,10.4V3.22h1.06c.22,0,.37.1.44.31l.12.57c.14-.15.3-.29.46-.41.16-.12.33-.23.51-.32.18-.09.37-.16.58-.2.21-.05.43-.07.67-.07.39,0,.74.07,1.04.2.3.13.56.32.76.56s.36.53.46.86c.11.33.16.7.16,1.1v4.57h-1.73v-4.57c0-.44-.1-.78-.3-1.02-.2-.24-.51-.36-.91-.36-.3,0-.58.07-.84.2-.26.14-.51.32-.74.55v5.19h-1.73Z"/>
      <path class="cls-4" d="M31.81,3.11c.45,0,.87.07,1.25.22.38.14.71.36.98.63s.49.62.64,1.02c.15.4.23.87.23,1.38,0,.13,0,.24-.02.33-.01.09-.03.15-.06.2-.03.05-.07.08-.12.11-.05.02-.12.03-.2.03h-4.44c.05.74.25,1.28.59,1.62s.8.52,1.37.52c.28,0,.52-.03.72-.1s.38-.14.53-.22c.15-.08.28-.15.4-.22s.23-.1.33-.1c.07,0,.13.01.18.04.05.03.1.07.13.12l.5.63c-.19.22-.41.41-.64.56-.24.15-.49.27-.75.36-.26.09-.52.16-.79.19-.27.04-.53.06-.78.06-.5,0-.96-.08-1.39-.25s-.8-.41-1.12-.74c-.32-.32-.57-.73-.75-1.2-.18-.48-.27-1.03-.27-1.66,0-.49.08-.95.24-1.38.16-.43.39-.81.68-1.13.3-.32.66-.57,1.08-.76s.91-.28,1.45-.28ZM31.84,4.35c-.5,0-.9.14-1.18.43-.29.28-.47.69-.55,1.21h3.25c0-.22-.03-.44-.09-.63-.06-.2-.15-.37-.28-.52s-.29-.27-.48-.35c-.19-.09-.42-.13-.67-.13Z"/>
      <path class="cls-4" d="M41.38,10.4c-.22,0-.37-.11-.44-.32l-.14-.69c-.15.17-.31.32-.47.46-.16.13-.34.25-.53.35-.19.1-.39.17-.61.23-.22.05-.45.08-.7.08-.39,0-.75-.08-1.08-.25-.33-.16-.61-.4-.84-.71-.24-.31-.42-.69-.55-1.15-.13-.46-.19-.98-.19-1.57,0-.53.07-1.03.22-1.48.15-.46.35-.85.62-1.19s.6-.6.97-.79c.38-.19.8-.28,1.27-.28.4,0,.74.06,1.03.19.28.13.54.3.76.51V0h1.73v10.4h-1.06ZM39.07,9.14c.36,0,.67-.08.92-.22s.49-.36.71-.64v-3.22c-.2-.24-.41-.41-.64-.5-.23-.1-.48-.15-.75-.15s-.5.05-.71.15c-.21.1-.39.25-.54.44-.15.2-.26.45-.34.76s-.12.67-.12,1.08.03.78.1,1.07c.07.29.16.53.29.71.13.18.28.32.46.4.18.08.38.12.61.12Z"/>
      <path class="cls-4" d="M49.93,10.4h-.78c-.16,0-.29-.02-.39-.07-.09-.05-.16-.15-.21-.3l-.15-.51c-.18.16-.36.31-.54.43-.17.12-.36.23-.54.31s-.38.15-.6.19c-.21.04-.44.06-.7.06-.3,0-.58-.04-.84-.12-.26-.08-.48-.21-.66-.37-.18-.16-.33-.37-.43-.61-.1-.24-.15-.53-.15-.85,0-.27.07-.54.21-.8s.38-.5.71-.72c.33-.21.77-.39,1.32-.53.55-.14,1.23-.21,2.05-.21v-.42c0-.48-.1-.84-.3-1.08-.2-.23-.5-.35-.89-.35-.28,0-.51.03-.7.1s-.35.14-.49.22c-.14.08-.26.16-.38.22-.12.07-.25.1-.39.1-.12,0-.22-.03-.3-.09s-.15-.13-.2-.22l-.31-.55c.83-.76,1.82-1.13,2.99-1.13.42,0,.79.07,1.12.21s.61.33.84.57c.23.25.4.54.52.88.12.34.18.71.18,1.12v4.54ZM46.57,9.32c.18,0,.34-.02.49-.05s.29-.08.42-.14c.13-.06.26-.14.38-.24.12-.09.25-.21.38-.33v-1.2c-.5,0-.93.03-1.26.09-.34.06-.61.14-.82.24-.21.1-.35.21-.44.35-.09.13-.13.28-.13.43,0,.3.09.52.27.66s.41.2.7.2Z"/>
      <path class="cls-4" d="M55.89,4.62c-.05.08-.1.13-.15.16-.05.03-.12.04-.2.04-.08,0-.17-.02-.27-.07-.1-.05-.21-.1-.33-.16s-.27-.11-.43-.16-.35-.07-.57-.07c-.34,0-.61.07-.81.22-.2.15-.29.33-.29.57,0,.15.05.28.15.39.1.1.23.2.4.28s.35.15.56.21c.21.06.42.13.64.21.22.08.43.16.64.26s.4.22.56.36c.17.15.3.32.4.53.1.21.15.45.15.74,0,.35-.06.66-.19.96s-.31.54-.55.76c-.24.21-.54.38-.9.5-.36.12-.77.18-1.23.18-.25,0-.49-.02-.72-.07-.24-.04-.46-.11-.68-.19-.22-.08-.42-.17-.6-.28s-.35-.22-.49-.35l.4-.66c.05-.08.11-.14.18-.18s.16-.06.27-.06.21.03.3.09.21.13.33.2c.13.07.27.13.44.2.17.06.39.09.65.09.21,0,.38-.02.53-.07.15-.05.27-.11.36-.19.1-.08.17-.17.21-.28.04-.1.07-.21.07-.33,0-.17-.05-.31-.15-.41s-.23-.2-.4-.28c-.17-.08-.35-.15-.57-.21-.21-.06-.43-.13-.65-.21-.22-.07-.44-.16-.65-.26-.21-.1-.4-.23-.57-.38-.17-.15-.3-.34-.4-.57s-.15-.49-.15-.81c0-.29.06-.57.17-.84.12-.27.29-.5.51-.7s.51-.36.85-.48c.34-.12.73-.18,1.17-.18.5,0,.95.08,1.35.25.41.16.74.38,1.01.64l-.39.62Z"/>
      <path class="cls-4" d="M65.5,10.4c-.22,0-.37-.11-.44-.32l-.14-.69c-.15.17-.31.32-.47.46-.16.13-.34.25-.53.35-.19.1-.39.17-.61.23-.22.05-.45.08-.7.08-.39,0-.75-.08-1.08-.25-.33-.16-.61-.4-.84-.71-.24-.31-.42-.69-.55-1.15-.13-.46-.19-.98-.19-1.57,0-.53.07-1.03.22-1.48.15-.46.35-.85.62-1.19s.6-.6.97-.79c.38-.19.8-.28,1.27-.28.4,0,.74.06,1.03.19.28.13.54.3.76.51V0h1.73v10.4h-1.06ZM63.2,9.14c.36,0,.67-.08.92-.22s.49-.36.71-.64v-3.22c-.2-.24-.41-.41-.64-.5-.23-.1-.48-.15-.75-.15s-.5.05-.71.15c-.21.1-.39.25-.54.44-.15.2-.26.45-.34.76s-.12.67-.12,1.08.03.78.1,1.07c.07.29.16.53.29.71.13.18.28.32.46.4.18.08.38.12.61.12Z"/>
      <path class="cls-4" d="M70.53,1.13c0,.15-.03.29-.09.42-.06.13-.14.25-.24.34-.1.1-.22.18-.35.23s-.28.09-.43.09-.29-.03-.42-.09-.25-.14-.35-.23c-.1-.1-.18-.21-.23-.34-.06-.13-.09-.27-.09-.42s.03-.3.09-.43.14-.25.23-.35.21-.18.35-.24c.13-.06.27-.09.42-.09s.3.03.43.09c.14.06.25.14.35.24.1.1.18.21.24.35s.09.28.09.43ZM70.27,3.22v7.18h-1.73V3.22h1.73Z"/>
      <path class="cls-4" d="M76.49,4.62c-.05.08-.1.13-.15.16-.05.03-.12.04-.2.04-.08,0-.17-.02-.27-.07-.1-.05-.21-.1-.33-.16s-.27-.11-.43-.16-.35-.07-.57-.07c-.34,0-.61.07-.81.22-.2.15-.29.33-.29.57,0,.15.05.28.15.39.1.1.23.2.4.28s.35.15.56.21c.21.06.42.13.64.21.22.08.43.16.64.26s.4.22.56.36c.17.15.3.32.4.53.1.21.15.45.15.74,0,.35-.06.66-.19.96s-.31.54-.55.76c-.24.21-.54.38-.9.5-.36.12-.77.18-1.23.18-.25,0-.49-.02-.72-.07-.24-.04-.46-.11-.68-.19-.22-.08-.42-.17-.6-.28s-.35-.22-.49-.35l.4-.66c.05-.08.11-.14.18-.18s.16-.06.27-.06.21.03.3.09.21.13.33.2c.13.07.27.13.44.2.17.06.39.09.65.09.21,0,.38-.02.53-.07.15-.05.27-.11.36-.19.1-.08.17-.17.21-.28.04-.1.07-.21.07-.33,0-.17-.05-.31-.15-.41s-.23-.2-.4-.28c-.17-.08-.35-.15-.57-.21-.21-.06-.43-.13-.65-.21-.22-.07-.44-.16-.65-.26-.21-.1-.4-.23-.57-.38-.17-.15-.3-.34-.4-.57s-.15-.49-.15-.81c0-.29.06-.57.17-.84.12-.27.29-.5.51-.7s.51-.36.85-.48c.34-.12.73-.18,1.17-.18.5,0,.95.08,1.35.25.41.16.74.38,1.01.64l-.39.62Z"/>
      <path class="cls-4" d="M78.34,12.75V3.22h1.06c.11,0,.21.03.29.08.08.05.13.13.15.24l.14.67c.29-.33.62-.6,1-.8s.82-.31,1.32-.31c.39,0,.75.08,1.07.25.32.16.6.4.84.71.24.31.42.69.55,1.15.13.46.19.98.19,1.56,0,.54-.07,1.03-.22,1.49-.15.46-.35.85-.62,1.19s-.59.6-.97.79c-.38.19-.81.28-1.28.28-.41,0-.75-.06-1.03-.19-.28-.12-.54-.3-.76-.51v2.94h-1.73ZM81.7,4.45c-.36,0-.67.08-.92.23-.25.15-.49.37-.71.64v3.22c.2.24.41.41.64.51.23.1.48.14.75.14s.5-.05.71-.15c.21-.1.39-.25.54-.45.15-.2.26-.45.34-.76s.12-.67.12-1.08-.03-.78-.1-1.07c-.07-.29-.16-.53-.29-.71-.13-.18-.28-.32-.46-.4s-.38-.13-.61-.13Z"/>
      <path class="cls-4" d="M89.33,3.11c.54,0,1.02.09,1.46.26s.81.42,1.12.74c.31.32.55.7.71,1.16.17.46.25.97.25,1.53s-.08,1.08-.25,1.54c-.17.46-.41.85-.71,1.17-.31.32-.68.57-1.12.74-.44.17-.92.26-1.46.26s-1.02-.09-1.46-.26c-.44-.17-.81-.42-1.12-.74-.31-.32-.55-.71-.72-1.17-.17-.46-.26-.97-.26-1.54s.08-1.08.26-1.53c.17-.46.41-.84.72-1.16s.68-.56,1.12-.74c.44-.17.93-.26,1.46-.26ZM89.33,9.18c.6,0,1.04-.2,1.33-.6s.43-.99.43-1.76-.14-1.37-.43-1.77c-.29-.41-.73-.61-1.33-.61s-1.05.2-1.34.61c-.29.41-.43,1-.43,1.77s.14,1.36.43,1.76c.29.4.74.61,1.34.61Z"/>
      <path class="cls-4" d="M94.22,10.4V3.22h1.06c.22,0,.37.1.44.31l.12.57c.14-.15.3-.29.46-.41.16-.12.33-.23.51-.32.18-.09.37-.16.58-.2.21-.05.43-.07.67-.07.39,0,.74.07,1.04.2.3.13.56.32.76.56s.36.53.46.86c.11.33.16.7.16,1.1v4.57h-1.73v-4.57c0-.44-.1-.78-.3-1.02-.2-.24-.51-.36-.91-.36-.3,0-.58.07-.84.2-.26.14-.51.32-.74.55v5.19h-1.73Z"/>
      <path class="cls-4" d="M104.28,1.13c0,.15-.03.29-.09.42-.06.13-.14.25-.24.34-.1.1-.22.18-.35.23s-.28.09-.43.09-.29-.03-.42-.09-.25-.14-.35-.23c-.1-.1-.18-.21-.23-.34-.06-.13-.09-.27-.09-.42s.03-.3.09-.43.14-.25.23-.35.21-.18.35-.24c.13-.06.27-.09.42-.09s.3.03.43.09c.14.06.25.14.35.24.1.1.18.21.24.35s.09.28.09.43ZM104.02,3.22v7.18h-1.73V3.22h1.73Z"/>
      <path class="cls-4" d="M105.99,10.4V0h1.73v4.1c.29-.3.61-.54.97-.72s.78-.27,1.26-.27c.39,0,.75.08,1.07.24s.6.4.84.7c.24.31.42.69.55,1.14.13.45.19.97.19,1.56,0,.54-.07,1.03-.22,1.49-.14.46-.35.85-.62,1.19-.27.34-.59.6-.97.79-.38.19-.81.28-1.28.28-.22,0-.42-.02-.6-.07-.18-.04-.35-.11-.5-.19-.15-.08-.29-.18-.42-.29-.13-.11-.25-.24-.37-.38l-.08.48c-.03.12-.08.21-.14.26-.07.05-.16.08-.28.08h-1.14ZM109.35,4.45c-.36,0-.67.08-.92.23-.25.15-.49.37-.71.64v3.22c.2.24.41.41.64.51.23.1.48.14.75.14s.5-.05.71-.15c.21-.1.39-.25.54-.45.15-.2.26-.45.34-.76.08-.31.12-.67.12-1.08s-.03-.78-.1-1.07c-.07-.29-.16-.53-.29-.71-.13-.18-.28-.32-.46-.4-.18-.08-.38-.13-.61-.13Z"/>
      <path class="cls-4" d="M115.79,0v10.4h-1.73V0h1.73Z"/>
      <path class="cls-4" d="M120.71,3.11c.45,0,.87.07,1.25.22.38.14.71.36.98.63s.49.62.64,1.02c.15.4.23.87.23,1.38,0,.13,0,.24-.02.33-.01.09-.03.15-.06.2-.03.05-.07.08-.12.11-.05.02-.12.03-.2.03h-4.44c.05.74.25,1.28.59,1.62s.8.52,1.37.52c.28,0,.52-.03.72-.1s.38-.14.53-.22c.15-.08.28-.15.4-.22s.23-.1.33-.1c.07,0,.13.01.18.04.05.03.1.07.13.12l.5.63c-.19.22-.41.41-.64.56-.24.15-.49.27-.75.36-.26.09-.52.16-.79.19-.27.04-.53.06-.78.06-.5,0-.96-.08-1.39-.25s-.8-.41-1.12-.74c-.32-.32-.57-.73-.75-1.2-.18-.48-.27-1.03-.27-1.66,0-.49.08-.95.24-1.38.16-.43.39-.81.68-1.13.3-.32.66-.57,1.08-.76s.91-.28,1.45-.28ZM120.75,4.35c-.5,0-.9.14-1.18.43-.29.28-.47.69-.55,1.21h3.25c0-.22-.03-.44-.09-.63-.06-.2-.15-.37-.28-.52s-.29-.27-.48-.35c-.19-.09-.42-.13-.67-.13Z"/>
      <path class="cls-4" d="M129.49,4.62c-.05.08-.1.13-.15.16-.05.03-.12.04-.2.04-.08,0-.17-.02-.27-.07-.1-.05-.21-.1-.33-.16s-.27-.11-.43-.16-.35-.07-.57-.07c-.34,0-.61.07-.81.22-.2.15-.29.33-.29.57,0,.15.05.28.15.39.1.1.23.2.4.28s.35.15.56.21c.21.06.42.13.64.21.22.08.43.16.64.26s.4.22.56.36c.17.15.3.32.4.53.1.21.15.45.15.74,0,.35-.06.66-.19.96s-.31.54-.55.76c-.24.21-.54.38-.9.5-.36.12-.77.18-1.23.18-.25,0-.49-.02-.72-.07-.24-.04-.46-.11-.68-.19-.22-.08-.42-.17-.6-.28s-.35-.22-.49-.35l.4-.66c.05-.08.11-.14.18-.18s.16-.06.27-.06.21.03.3.09.21.13.33.2c.13.07.27.13.44.2.17.06.39.09.65.09.21,0,.38-.02.53-.07.15-.05.27-.11.36-.19.1-.08.17-.17.21-.28.04-.1.07-.21.07-.33,0-.17-.05-.31-.15-.41s-.23-.2-.4-.28c-.17-.08-.35-.15-.57-.21-.21-.06-.43-.13-.65-.21-.22-.07-.44-.16-.65-.26-.21-.1-.4-.23-.57-.38-.17-.15-.3-.34-.4-.57s-.15-.49-.15-.81c0-.29.06-.57.17-.84.12-.27.29-.5.51-.7s.51-.36.85-.48c.34-.12.73-.18,1.17-.18.5,0,.95.08,1.35.25.41.16.74.38,1.01.64l-.39.62Z"/>
    </g>
  </g>
</svg>