<?xml version="1.0" encoding="UTF-8"?>
<svg id="Capa_2" data-name="Capa 2" xmlns="http://www.w3.org/2000/svg" viewBox="0 0 319.03 54.6">
  <defs>
    <style>
      .cls-1 {
        fill: #1d1d1b;
      }

      .cls-1, .cls-2, .cls-3, .cls-4 {
        stroke-width: 0px;
      }

      .cls-2 {
        fill: #b3b2b2;
      }

      .cls-3 {
        fill: #55b25c;
      }

      .cls-4 {
        fill: #fff;
      }
    </style>
  </defs>
  <g id="Capa_1-2" data-name="Capa 1">
    <g>
      <path class="cls-3" d="M35.47,29.78c-7.18-4.27-19.03-4.66-25.89-2.58-1.1.33-2.27-.29-2.6-1.39-.33-1.1.29-2.27,1.39-2.6,7.87-2.39,20.96-1.93,29.23,2.98.99.59,1.32,1.87.73,2.86-.59.99-1.87,1.32-2.86.73M35.24,36.1c-.5.82-1.57,1.07-2.39.57-5.99-3.68-15.12-4.75-22.21-2.6-.92.28-1.89-.24-2.17-1.16-.28-.92.24-1.89,1.16-2.17,8.09-2.46,18.16-1.27,25.04,2.96.82.5,1.07,1.57.57,2.39M32.51,42.17c-.4.65-1.25.86-1.91.46,0,0,0,0,0,0-5.23-3.2-11.82-3.92-19.58-2.15-.75.17-1.49-.3-1.66-1.04,0,0,0,0,0,0-.17-.75.29-1.49,1.04-1.66,0,0,0,0,0,0,8.49-1.94,15.77-1.11,21.65,2.48.65.4.86,1.25.46,1.91,0,0,0,0,0,0M22.29,10.03C9.98,10.03,0,20,0,32.31s9.98,22.29,22.29,22.29,22.29-9.98,22.29-22.29-9.98-22.29-22.29-22.29"/>
      <rect class="cls-4" x="61.06" y="14.64" width="229.11" height="37.14" rx="18.57" ry="18.57"/>
      <g>
        <path class="cls-1" d="M132.36,38.78h-1.9v-4.42h-4.75v4.42h-1.9v-10.12h1.9v4.35h4.75v-4.35h1.9v10.12Z"/>
        <path class="cls-1" d="M140.79,28.66v1.5h-4.49v3h3.79v1.5h-3.79v4.12h-1.9v-10.12h6.38Z"/>
        <path class="cls-1" d="M151.98,33.72c0,.45-.05.88-.14,1.3-.09.41-.23.8-.4,1.16s-.39.69-.64.99-.54.57-.86.79l2.57,2.8h-1.55c-.22,0-.43-.03-.61-.09s-.34-.17-.49-.34l-1.48-1.64c-.24.07-.48.11-.73.15-.25.03-.51.05-.78.05-.77,0-1.46-.13-2.1-.39-.63-.26-1.17-.62-1.62-1.08s-.8-1.01-1.05-1.64c-.25-.63-.37-1.32-.37-2.06s.12-1.43.37-2.06c.25-.63.6-1.18,1.05-1.64s.99-.82,1.62-1.08c.63-.26,1.33-.39,2.1-.39s1.46.13,2.09.39c.63.26,1.17.62,1.62,1.08.45.46.79,1.01,1.04,1.64.25.63.37,1.32.37,2.06ZM150.04,33.72c0-.56-.07-1.05-.22-1.5-.15-.44-.36-.82-.63-1.12-.28-.31-.61-.54-1-.71s-.84-.25-1.33-.25-.94.08-1.34.25c-.4.16-.73.4-1.01.71-.28.31-.49.68-.64,1.12-.15.44-.22.94-.22,1.5s.08,1.05.22,1.49c.15.44.36.81.64,1.12.28.31.61.54,1.01.7.4.16.84.25,1.34.25s.94-.08,1.33-.25.73-.4,1-.7.49-.68.63-1.12c.15-.44.22-.94.22-1.49Z"/>
        <path class="cls-1" d="M152.52,28.66h1.58c.16,0,.3.04.41.12.11.08.18.18.22.31l1.72,6.06c.04.15.08.31.12.49s.07.36.1.56c.04-.2.08-.38.12-.56s.09-.34.14-.49l1.99-6.06c.04-.11.11-.21.22-.29.11-.09.24-.13.4-.13h.55c.16,0,.3.04.41.12s.18.18.22.31l1.97,6.06c.1.3.19.63.27.99.03-.18.07-.36.1-.52s.07-.32.11-.47l1.72-6.06c.03-.12.11-.22.22-.3.11-.08.25-.13.41-.13h1.48l-3.14,10.12h-1.7l-2.21-6.92c-.03-.09-.06-.18-.09-.29s-.06-.21-.09-.33c-.03.12-.06.23-.09.33s-.06.2-.09.29l-2.23,6.92h-1.7l-3.14-10.12Z"/>
        <path class="cls-1" d="M171.41,35.18c0,.57-.07,1.08-.21,1.54-.14.46-.35.85-.63,1.17-.28.32-.62.57-1.04.74-.42.17-.9.26-1.45.26-.25,0-.5-.02-.74-.05-.24-.03-.5-.08-.76-.14l.1-1.12c0-.1.05-.19.12-.25.07-.06.17-.09.3-.09.08,0,.18.02.31.05.13.03.29.05.49.05.27,0,.5-.04.71-.12.21-.08.38-.2.51-.37s.24-.39.31-.65c.07-.27.1-.59.1-.98v-6.57h1.88v6.52Z"/>
        <path class="cls-1" d="M177.95,34.85v3.93h-1.88v-3.93l-3.69-6.19h1.66c.16,0,.29.04.39.12s.18.18.24.3l1.85,3.38c.11.2.2.39.28.57.08.18.15.36.22.53.06-.18.13-.36.21-.54s.17-.37.28-.56l1.84-3.38c.05-.1.13-.2.23-.29.1-.09.23-.13.39-.13h1.67l-3.68,6.19Z"/>
        <path class="cls-1" d="M184.5,37.23h4.05v1.55h-5.94v-10.12h1.88v8.57Z"/>
        <path class="cls-1" d="M195.28,30.5c-.05.1-.11.17-.18.22s-.15.06-.24.06-.2-.04-.32-.11-.25-.15-.41-.24c-.16-.09-.34-.17-.56-.24-.21-.07-.46-.11-.75-.11-.26,0-.49.03-.68.09-.19.06-.36.15-.49.26-.13.11-.23.25-.3.4-.06.16-.1.33-.1.51,0,.24.07.44.2.59.13.16.31.29.53.41.22.11.47.21.75.3.28.09.57.18.86.28.29.1.58.22.86.35.28.13.53.3.75.5.22.2.4.45.53.75s.2.65.2,1.07c0,.46-.08.89-.23,1.28-.16.4-.38.75-.69,1.04-.3.3-.67.53-1.1.7-.43.17-.93.26-1.49.26-.32,0-.64-.03-.95-.09-.31-.06-.61-.15-.9-.27s-.56-.26-.8-.42c-.25-.16-.47-.35-.67-.55l.55-.9c.05-.07.11-.12.19-.16.07-.04.15-.07.24-.07.12,0,.24.05.38.14.14.1.3.2.48.32.18.12.4.22.65.32s.55.14.9.14c.54,0,.95-.13,1.25-.38.29-.25.44-.62.44-1.1,0-.27-.07-.48-.2-.65-.13-.17-.31-.31-.53-.42-.22-.11-.47-.21-.75-.29-.28-.08-.56-.17-.85-.26-.29-.09-.57-.21-.85-.34-.28-.13-.53-.3-.75-.51-.22-.21-.4-.47-.53-.79-.13-.32-.2-.7-.2-1.17,0-.37.07-.73.22-1.08.15-.35.36-.66.64-.93s.63-.49,1.04-.65c.41-.16.88-.25,1.41-.25.6,0,1.15.09,1.65.28s.93.45,1.29.78l-.46.89Z"/>
        <path class="cls-1" d="M203.27,29.39c0,.25-.08.45-.23.6s-.42.23-.78.23h-2.79l-.36,2.11c.46-.09.88-.14,1.25-.14.53,0,1,.08,1.4.24.4.16.74.38,1.02.66.28.28.48.61.62.98.14.38.21.78.21,1.21,0,.54-.09,1.03-.28,1.47-.19.44-.45.82-.79,1.14-.34.32-.73.56-1.19.73-.46.17-.96.26-1.5.26-.32,0-.62-.03-.9-.1-.28-.07-.55-.15-.8-.26-.25-.11-.48-.24-.69-.38-.21-.14-.4-.29-.57-.45l.53-.74c.11-.16.26-.24.45-.24.12,0,.23.04.35.11.12.08.26.16.42.25.16.09.34.17.55.25.21.08.46.11.76.11.32,0,.6-.05.84-.15.24-.1.44-.25.61-.43.16-.18.28-.4.36-.66.08-.25.12-.53.12-.83,0-.55-.16-.98-.48-1.29-.32-.31-.79-.47-1.41-.47-.49,0-.98.09-1.48.27l-1.08-.31.84-4.91h5v.74Z"/>
        <path class="cls-1" d="M206.35,37.49h2.05v-5.9c0-.23,0-.47.02-.72l-1.46,1.22c-.06.05-.12.09-.19.11-.06.02-.12.03-.19.03-.09,0-.18-.02-.26-.06-.08-.04-.13-.08-.17-.14l-.55-.75,3.09-2.62h1.42v8.84h1.82v1.29h-5.6v-1.29Z"/>
        <path class="cls-1" d="M220.35,33.72c0,.88-.09,1.65-.28,2.3-.19.65-.45,1.19-.78,1.61-.33.42-.73.74-1.18.95-.46.21-.95.31-1.47.31s-1.02-.1-1.47-.31c-.45-.21-.84-.52-1.17-.95-.33-.42-.59-.96-.78-1.61-.19-.65-.28-1.42-.28-2.3s.09-1.65.28-2.3c.19-.65.45-1.18.78-1.61.33-.42.72-.74,1.17-.95.45-.21.94-.31,1.47-.31s1.02.1,1.47.31c.46.21.85.52,1.18.95.33.42.6.96.78,1.61.19.65.28,1.42.28,2.3ZM218.57,33.72c0-.73-.05-1.34-.16-1.82s-.25-.86-.43-1.15c-.18-.28-.39-.48-.62-.6-.23-.11-.48-.17-.73-.17s-.49.06-.72.17c-.23.12-.43.31-.61.6-.18.29-.32.67-.42,1.15-.11.48-.16,1.09-.16,1.82s.05,1.34.16,1.82c.1.48.25.86.42,1.15.18.28.38.48.61.6.23.11.47.17.72.17s.5-.06.73-.17c.23-.11.44-.31.62-.6.18-.29.32-.67.43-1.15s.16-1.09.16-1.82Z"/>
      </g>
      <g>
        <path class="cls-2" d="M316.26,21.59c.15.04.3.07.46.12,1.38.38,2.32,1.62,2.32,3.05,0,3.99,0,7.98,0,11.97,0,.41-.29.76-.68.8-.41.05-.78-.19-.89-.59-.02-.09-.02-.2-.02-.29,0-3.92,0-7.85,0-11.77,0-.81-.45-1.44-1.18-1.63-.18-.05-.36-.06-.55-.06-2.85,0-5.71,0-8.56,0-.49,0-.8-.28-.88-.64-.09-.4.12-.74.56-.93.01,0,.02-.02.03-.03,3.13,0,6.27,0,9.4,0Z"/>
        <path class="cls-2" d="M301.94,33.35c0-1.78,0-3.57,0-5.35,0-1.79,1.4-3.19,3.19-3.19,2.51,0,5.02,0,7.53,0,1.66,0,3,1.2,3.19,2.84.01.11,0,.22,0,.34,0,3.57,0,7.15,0,10.72,0,1.78-1.41,3.18-3.18,3.18-2.52,0-5.05,0-7.57,0-1.76,0-3.17-1.41-3.17-3.17,0-1.79,0-3.58,0-5.37ZM303.53,33.35c0,1.75,0,3.5,0,5.25,0,1.03.67,1.7,1.7,1.71,2.45,0,4.9,0,7.36,0,1.01,0,1.7-.68,1.7-1.69,0-3.52,0-7.03,0-10.55,0-.17-.02-.34-.06-.51-.19-.73-.81-1.18-1.61-1.18-2.45,0-4.89,0-7.34,0-1.08,0-1.74.66-1.74,1.75,0,1.74,0,3.48,0,5.21Z"/>
      </g>
      <g>
        <path class="cls-1" d="M92.63,2.85c0-.09.02-.17.05-.25.03-.08.08-.14.13-.2s.12-.1.2-.13c.08-.03.16-.05.25-.05s.17.02.24.05c.08.03.14.08.2.13s.1.12.13.2.05.16.05.25c0,.09-.02.17-.05.24-.03.08-.08.14-.13.2s-.12.1-.2.13c-.07.03-.16.05-.24.05s-.17-.02-.25-.05c-.08-.03-.14-.08-.2-.13s-.1-.12-.13-.2c-.03-.08-.05-.16-.05-.24ZM92.85,9.08v-2.71c0-.15,0-.3,0-.44s.01-.29.02-.43c0-.15.02-.29.04-.45.01-.15.03-.32.05-.49h.61c.02.17.04.34.05.49.01.15.03.3.04.45,0,.14.02.29.02.43s0,.29,0,.44v2.71h-.85Z"/>
        <path class="cls-1" d="M98.63,6.6c.3,0,.56-.05.79-.15s.43-.24.59-.42c.16-.18.28-.4.37-.65s.13-.52.13-.82V.2h.96v4.36c0,.41-.07.8-.2,1.15s-.32.66-.57.92c-.25.26-.54.46-.9.61s-.75.22-1.19.22-.84-.07-1.19-.22-.65-.35-.9-.61c-.25-.26-.44-.56-.57-.92-.13-.35-.2-.74-.2-1.15V.2h.96v4.35c0,.3.04.58.13.83s.21.46.37.65c.16.18.36.32.59.42.24.1.5.15.8.15Z"/>
        <path class="cls-1" d="M103,7.37V2.3h.53c.13,0,.21.06.24.19l.07.55c.22-.24.47-.44.74-.59s.59-.22.94-.22c.28,0,.52.04.73.14s.39.22.53.39c.14.17.25.37.32.61.07.24.11.5.11.79v3.22h-.89v-3.22c0-.38-.09-.68-.26-.89-.18-.21-.44-.32-.8-.32-.26,0-.51.06-.74.19-.23.13-.44.3-.63.51v3.73h-.89Z"/>
        <path class="cls-1" d="M110.49,7.37V2.3h.53c.13,0,.21.06.24.19l.07.52c.19-.23.4-.42.63-.56s.5-.22.81-.22c.34,0,.62.09.83.28.21.19.36.45.46.77.07-.18.16-.34.28-.48.12-.13.24-.24.39-.33.14-.09.3-.15.46-.19.16-.04.33-.06.49-.06.27,0,.5.04.71.13.21.08.39.21.53.37.15.16.26.36.33.6.08.24.11.51.11.82v3.22h-.89v-3.22c0-.4-.09-.7-.26-.9-.17-.2-.43-.31-.75-.31-.15,0-.29.03-.42.08s-.25.13-.35.23-.18.23-.24.38c-.06.15-.09.33-.09.53v3.22h-.89v-3.22c0-.41-.08-.71-.25-.91s-.4-.3-.71-.3c-.22,0-.42.06-.61.18-.19.12-.36.28-.52.48v3.78h-.89Z"/>
        <path class="cls-1" d="M120.71,2.22c.3,0,.58.05.84.15s.48.25.67.44c.19.19.33.43.44.71.1.28.16.6.16.96,0,.14-.01.23-.04.28-.03.05-.09.07-.17.07h-3.37c0,.32.05.6.13.83.08.24.19.43.33.59s.31.28.5.36c.19.08.41.12.65.12.22,0,.42-.03.58-.08.16-.05.3-.11.42-.17.12-.06.21-.12.29-.17.08-.05.15-.08.2-.08.07,0,.13.03.17.08l.25.33c-.11.13-.24.25-.39.35s-.32.18-.49.24c-.18.06-.36.11-.54.14s-.37.05-.55.05c-.35,0-.67-.06-.97-.18s-.55-.29-.76-.52c-.21-.23-.38-.51-.5-.85-.12-.34-.18-.72-.18-1.16,0-.35.05-.68.16-.99s.26-.57.47-.8c.2-.22.45-.4.75-.53.29-.13.62-.19.99-.19ZM120.73,2.88c-.43,0-.77.12-1.01.37-.25.25-.4.59-.46,1.03h2.75c0-.21-.03-.4-.08-.57s-.14-.32-.25-.45c-.11-.12-.24-.22-.4-.29-.16-.07-.34-.1-.54-.1Z"/>
        <path class="cls-1" d="M126.84,3.13c-.04.07-.1.11-.18.11-.05,0-.11-.02-.17-.05-.06-.04-.14-.08-.23-.12-.09-.04-.2-.09-.33-.12-.13-.04-.28-.06-.45-.06-.15,0-.28.02-.4.06-.12.04-.22.09-.31.16-.08.07-.15.14-.2.23-.04.09-.07.18-.07.29,0,.13.04.24.11.33s.17.16.3.22c.12.06.26.12.42.17.16.05.32.1.48.16.17.05.33.12.48.18.16.07.3.15.42.25.12.1.22.22.3.37.08.14.11.32.11.52,0,.23-.04.45-.12.65s-.21.37-.37.51c-.16.15-.36.26-.6.34-.24.08-.51.12-.82.12-.35,0-.67-.06-.96-.17-.29-.11-.53-.26-.73-.44l.21-.34s.06-.08.1-.1c.04-.02.08-.04.14-.04s.12.02.19.07c.07.05.15.1.24.16s.21.11.34.16c.14.05.3.07.51.07.17,0,.33-.02.46-.07.13-.04.24-.11.33-.18.09-.08.15-.17.19-.27.04-.1.06-.21.06-.32,0-.14-.04-.26-.11-.35s-.17-.17-.3-.24-.26-.12-.42-.17c-.16-.05-.32-.1-.48-.15-.17-.05-.33-.11-.49-.18s-.3-.15-.42-.26c-.12-.1-.22-.23-.3-.38-.08-.15-.11-.34-.11-.55,0-.19.04-.38.12-.56.08-.18.2-.33.35-.47.15-.14.34-.24.57-.32.22-.08.48-.12.76-.12.33,0,.63.05.9.16.26.1.49.25.69.43l-.2.32Z"/>
        <path class="cls-1" d="M133.78,7.37c-.13,0-.21-.06-.24-.18l-.08-.62c-.22.26-.46.47-.74.63-.28.16-.6.24-.96.24-.29,0-.55-.06-.79-.17-.24-.11-.44-.28-.61-.49s-.29-.49-.38-.81c-.09-.32-.13-.69-.13-1.11,0-.37.05-.72.15-1.04.1-.32.24-.6.43-.84.19-.24.42-.42.69-.56.27-.14.58-.2.92-.2.31,0,.58.05.79.16.22.1.42.25.59.44V0h.89v7.37h-.53ZM132.05,6.71c.29,0,.54-.07.76-.2.22-.13.42-.32.6-.57v-2.45c-.16-.22-.34-.37-.54-.46-.2-.09-.41-.13-.65-.13-.47,0-.84.17-1.09.5-.25.34-.38.82-.38,1.44,0,.33.03.61.08.85.06.24.14.43.25.58.11.15.25.26.4.33.16.07.34.1.55.1Z"/>
        <path class="cls-1" d="M137.81,2.22c.3,0,.58.05.84.15s.48.25.67.44c.19.19.33.43.44.71.1.28.16.6.16.96,0,.14-.01.23-.04.28-.03.05-.09.07-.17.07h-3.37c0,.32.05.6.13.83.08.24.19.43.33.59s.31.28.5.36c.19.08.41.12.65.12.22,0,.42-.03.58-.08.16-.05.3-.11.42-.17.12-.06.21-.12.29-.17.08-.05.15-.08.2-.08.07,0,.13.03.17.08l.25.33c-.11.13-.24.25-.39.35s-.32.18-.49.24c-.18.06-.36.11-.54.14s-.37.05-.55.05c-.35,0-.67-.06-.97-.18s-.55-.29-.76-.52c-.21-.23-.38-.51-.5-.85-.12-.34-.18-.72-.18-1.16,0-.35.05-.68.16-.99s.26-.57.47-.8c.2-.22.45-.4.75-.53.29-.13.62-.19.99-.19ZM137.83,2.88c-.43,0-.77.12-1.01.37-.25.25-.4.59-.46,1.03h2.75c0-.21-.03-.4-.08-.57s-.14-.32-.25-.45c-.11-.12-.24-.22-.4-.29-.16-.07-.34-.1-.54-.1Z"/>
        <path class="cls-1" d="M146.78,1.32s-.06.09-.09.11c-.03.03-.08.04-.13.04-.06,0-.12-.03-.2-.09-.07-.06-.17-.12-.29-.19-.11-.07-.25-.13-.41-.19-.16-.06-.36-.08-.59-.08-.22,0-.41.03-.58.09s-.31.14-.42.24c-.11.1-.2.22-.25.35s-.08.28-.08.44c0,.2.05.37.15.5s.23.24.39.34c.16.09.35.17.55.24s.42.14.63.21.42.16.63.25.39.21.55.35c.16.14.29.31.39.52.1.2.15.45.15.75,0,.31-.05.61-.16.88-.11.28-.26.51-.47.72s-.46.36-.75.48c-.3.12-.64.17-1.02.17-.46,0-.89-.08-1.27-.25-.38-.17-.71-.4-.98-.68l.28-.46s.06-.07.1-.09c.04-.03.08-.04.13-.04.07,0,.15.04.24.11.09.07.2.16.34.25.14.09.3.17.49.25.19.08.43.11.7.11.23,0,.43-.03.61-.1.18-.06.33-.15.46-.27.12-.11.22-.25.29-.41s.1-.34.1-.54c0-.22-.05-.39-.15-.53-.1-.14-.23-.25-.39-.35-.16-.09-.34-.17-.55-.24-.21-.07-.42-.13-.63-.2s-.42-.15-.63-.24-.39-.21-.55-.35c-.16-.14-.29-.32-.39-.54-.1-.21-.15-.48-.15-.8,0-.25.05-.5.15-.73.1-.24.24-.45.43-.63.19-.18.42-.33.69-.44.28-.11.59-.17.95-.17.4,0,.76.06,1.09.19.33.13.62.31.87.55l-.24.46Z"/>
        <path class="cls-1" d="M148.27,9.08V2.3h.53c.13,0,.21.06.24.19l.08.6c.22-.26.46-.47.74-.63s.6-.24.96-.24c.29,0,.55.06.79.17.24.11.44.28.6.5.17.22.29.49.38.81.09.32.14.69.14,1.11,0,.37-.05.72-.15,1.04s-.24.6-.43.83-.42.42-.69.55c-.27.14-.58.2-.92.2-.31,0-.58-.05-.8-.16s-.42-.25-.59-.44v2.24h-.89ZM150.53,2.93c-.29,0-.54.07-.76.2-.22.13-.42.32-.6.57v2.45c.16.22.34.38.54.46.2.09.41.13.65.13.47,0,.83-.17,1.08-.5.25-.34.38-.82.38-1.44,0-.33-.03-.61-.09-.85s-.14-.43-.25-.58c-.11-.15-.24-.26-.4-.33s-.34-.1-.54-.1Z"/>
        <path class="cls-1" d="M155.84,2.22c.37,0,.7.06,1,.18.3.12.55.3.76.53.21.23.37.5.48.82.11.32.17.68.17,1.08s-.06.76-.17,1.08-.27.59-.48.82c-.21.23-.46.4-.76.52-.3.12-.63.18-1,.18s-.7-.06-1-.18c-.3-.12-.55-.3-.76-.52s-.37-.5-.48-.82-.17-.68-.17-1.08.06-.76.17-1.08c.11-.32.27-.6.48-.82.21-.23.46-.4.76-.53.3-.12.63-.18,1-.18ZM155.84,6.74c.5,0,.87-.17,1.12-.5.25-.33.37-.8.37-1.4s-.12-1.07-.37-1.41c-.25-.34-.62-.5-1.12-.5-.25,0-.47.04-.66.13-.19.09-.34.21-.47.38-.12.16-.22.36-.28.6-.06.24-.09.51-.09.81s.03.57.09.81c.06.24.16.44.28.6.12.16.28.29.47.37s.41.13.66.13Z"/>
        <path class="cls-1" d="M160.88,7.45c-.4,0-.71-.11-.92-.33s-.32-.54-.32-.96v-3.1h-.61c-.05,0-.1-.02-.13-.05-.04-.03-.06-.08-.06-.15v-.36l.83-.1.21-1.57s.03-.09.07-.12c.04-.03.08-.05.14-.05h.45v1.75h1.45v.64h-1.45v3.04c0,.21.05.37.16.48.1.1.24.15.4.15.09,0,.17-.01.24-.04s.13-.05.18-.08c.05-.03.09-.06.13-.08s.07-.04.09-.04c.05,0,.09.03.12.08l.26.42c-.15.14-.34.26-.56.34-.22.08-.44.12-.67.12Z"/>
        <path class="cls-1" d="M164.27.71c0,.09-.02.17-.05.24-.04.07-.08.14-.14.2-.06.06-.13.1-.2.14-.08.03-.16.05-.25.05s-.17-.02-.24-.05c-.07-.03-.14-.08-.2-.14-.06-.06-.1-.12-.14-.2-.03-.08-.05-.16-.05-.24s.02-.17.05-.25.08-.15.14-.21c.06-.06.12-.1.2-.14.08-.03.16-.05.24-.05s.17.02.25.05c.08.03.14.08.2.14s.1.13.14.21.05.16.05.25ZM164.07,2.3v5.07h-.89V2.3h.89Z"/>
        <path class="cls-1" d="M165.84,7.37V3.06l-.56-.07c-.07-.02-.13-.04-.17-.08s-.07-.09-.07-.15v-.37h.8v-.49c0-.29.04-.55.12-.77.08-.22.2-.42.35-.57.15-.15.33-.27.55-.35.21-.08.45-.12.72-.12.23,0,.44.03.63.1l-.02.45c0,.07-.03.11-.08.12-.05.01-.13.02-.23.02h-.15c-.15,0-.29.02-.42.06s-.23.11-.32.2-.16.21-.21.36c-.05.15-.07.33-.07.54v.46h1.46v.64h-1.43v4.32h-.9Z"/>
        <path class="cls-1" d="M170.49,8.86c-.03.07-.07.12-.11.16s-.11.06-.21.06h-.66l.92-2.01-2.09-4.77h.77c.08,0,.14.02.18.06.04.04.08.08.1.13l1.35,3.19c.03.07.06.15.08.22.02.07.04.15.06.22.02-.08.05-.15.07-.22s.05-.15.08-.23l1.32-3.18c.02-.05.05-.1.1-.13.05-.04.1-.05.16-.05h.71l-2.83,6.56Z"/>
        <path class="cls-1" d="M177.26,4.69v2.68h-.96V.2h2.12c.45,0,.85.05,1.18.16.33.11.61.25.83.45.22.19.38.43.49.7.11.27.16.58.16.92s-.06.64-.17.92c-.12.28-.29.52-.51.71-.22.2-.5.36-.84.47-.33.11-.72.17-1.15.17h-1.15ZM177.26,3.92h1.15c.28,0,.52-.04.73-.11s.39-.18.53-.31c.14-.13.25-.29.33-.47s.11-.38.11-.61c0-.46-.14-.81-.42-1.07-.28-.26-.71-.39-1.28-.39h-1.15v2.95Z"/>
        <path class="cls-1" d="M182.17,7.37V2.3h.51c.1,0,.16.02.2.06s.06.1.07.19l.06.79c.17-.35.39-.63.64-.83s.55-.3.9-.3c.14,0,.27.02.38.05s.22.08.31.13l-.11.67c-.02.08-.08.12-.16.12-.05,0-.12-.02-.21-.05s-.23-.05-.41-.05c-.31,0-.57.09-.78.27-.21.18-.38.44-.52.79v3.22h-.89Z"/>
        <path class="cls-1" d="M188.2,2.22c.3,0,.58.05.84.15s.48.25.67.44c.19.19.33.43.44.71.1.28.16.6.16.96,0,.14-.01.23-.04.28-.03.05-.09.07-.17.07h-3.37c0,.32.05.6.13.83.08.24.19.43.33.59s.31.28.5.36c.19.08.41.12.65.12.22,0,.42-.03.58-.08.16-.05.3-.11.42-.17.12-.06.21-.12.29-.17.08-.05.15-.08.2-.08.07,0,.13.03.17.08l.25.33c-.11.13-.24.25-.39.35s-.32.18-.49.24c-.18.06-.36.11-.54.14s-.37.05-.55.05c-.35,0-.67-.06-.97-.18s-.55-.29-.76-.52c-.21-.23-.38-.51-.5-.85-.12-.34-.18-.72-.18-1.16,0-.35.05-.68.16-.99s.26-.57.47-.8c.2-.22.45-.4.75-.53.29-.13.62-.19.99-.19ZM188.22,2.88c-.43,0-.77.12-1.01.37-.25.25-.4.59-.46,1.03h2.75c0-.21-.03-.4-.08-.57s-.14-.32-.25-.45c-.11-.12-.24-.22-.4-.29-.16-.07-.34-.1-.54-.1Z"/>
        <path class="cls-1" d="M191.44,7.37V2.3h.53c.13,0,.21.06.24.19l.07.52c.19-.23.4-.42.63-.56s.5-.22.81-.22c.34,0,.62.09.83.28.21.19.36.45.46.77.07-.18.16-.34.28-.48.12-.13.24-.24.39-.33.14-.09.3-.15.46-.19.16-.04.33-.06.49-.06.27,0,.5.04.71.13.21.08.39.21.53.37.15.16.26.36.33.6.08.24.11.51.11.82v3.22h-.89v-3.22c0-.4-.09-.7-.26-.9-.17-.2-.43-.31-.75-.31-.15,0-.29.03-.42.08s-.25.13-.35.23-.18.23-.24.38c-.06.15-.09.33-.09.53v3.22h-.89v-3.22c0-.41-.08-.71-.25-.91s-.4-.3-.71-.3c-.22,0-.42.06-.61.18-.19.12-.36.28-.52.48v3.78h-.89Z"/>
        <path class="cls-1" d="M200.84.71c0,.09-.02.17-.05.24-.04.07-.08.14-.14.2-.06.06-.13.1-.2.14-.08.03-.16.05-.25.05s-.17-.02-.24-.05c-.07-.03-.14-.08-.2-.14-.06-.06-.1-.12-.14-.2-.03-.08-.05-.16-.05-.24s.02-.17.05-.25.08-.15.14-.21c.06-.06.12-.1.2-.14.08-.03.16-.05.24-.05s.17.02.25.05c.08.03.14.08.2.14s.1.13.14.21.05.16.05.25ZM200.64,2.3v5.07h-.89V2.3h.89Z"/>
        <path class="cls-1" d="M202.98,2.3v3.23c0,.38.09.68.26.89s.44.32.8.32c.26,0,.5-.06.73-.19.23-.12.44-.29.63-.51v-3.74h.89v5.07h-.53c-.13,0-.21-.06-.24-.18l-.07-.55c-.22.24-.47.44-.74.59s-.59.22-.94.22c-.28,0-.52-.05-.73-.14s-.39-.22-.53-.39c-.14-.17-.25-.37-.32-.6-.07-.24-.11-.5-.11-.79v-3.23h.89Z"/>
        <path class="cls-1" d="M207.77,7.37V2.3h.53c.13,0,.21.06.24.19l.07.52c.19-.23.4-.42.63-.56s.5-.22.81-.22c.34,0,.62.09.83.28.21.19.36.45.46.77.07-.18.16-.34.28-.48.12-.13.24-.24.39-.33.14-.09.3-.15.46-.19.16-.04.33-.06.49-.06.27,0,.5.04.71.13.21.08.39.21.53.37.15.16.26.36.33.6.08.24.11.51.11.82v3.22h-.89v-3.22c0-.4-.09-.7-.26-.9-.17-.2-.43-.31-.75-.31-.15,0-.29.03-.42.08s-.25.13-.35.23-.18.23-.24.38c-.06.15-.09.33-.09.53v3.22h-.89v-3.22c0-.41-.08-.71-.25-.91s-.4-.3-.71-.3c-.22,0-.42.06-.61.18-.19.12-.36.28-.52.48v3.78h-.89Z"/>
        <path class="cls-1" d="M219.91,2.22c.3,0,.58.05.84.15s.48.25.67.44c.19.19.33.43.44.71.1.28.16.6.16.96,0,.14-.01.23-.04.28-.03.05-.09.07-.17.07h-3.37c0,.32.05.6.13.83.08.24.19.43.33.59s.31.28.5.36c.19.08.41.12.65.12.22,0,.42-.03.58-.08.16-.05.3-.11.42-.17.12-.06.21-.12.29-.17.08-.05.15-.08.2-.08.07,0,.13.03.17.08l.25.33c-.11.13-.24.25-.39.35s-.32.18-.49.24c-.18.06-.36.11-.54.14s-.37.05-.55.05c-.35,0-.67-.06-.97-.18s-.55-.29-.76-.52c-.21-.23-.38-.51-.5-.85-.12-.34-.18-.72-.18-1.16,0-.35.05-.68.16-.99s.26-.57.47-.8c.2-.22.45-.4.75-.53.29-.13.62-.19.99-.19ZM219.93,2.88c-.43,0-.77.12-1.01.37-.25.25-.4.59-.46,1.03h2.75c0-.21-.03-.4-.08-.57s-.14-.32-.25-.45c-.11-.12-.24-.22-.4-.29-.16-.07-.34-.1-.54-.1Z"/>
        <path class="cls-1" d="M226.05,3.13c-.04.07-.1.11-.18.11-.05,0-.11-.02-.17-.05-.06-.04-.14-.08-.23-.12-.09-.04-.2-.09-.33-.12-.13-.04-.28-.06-.45-.06-.15,0-.28.02-.4.06-.12.04-.22.09-.31.16-.08.07-.15.14-.2.23-.04.09-.07.18-.07.29,0,.13.04.24.11.33s.17.16.3.22c.12.06.26.12.42.17.16.05.32.1.48.16.17.05.33.12.48.18.16.07.3.15.42.25.12.1.22.22.3.37.08.14.11.32.11.52,0,.23-.04.45-.12.65s-.21.37-.37.51c-.16.15-.36.26-.6.34-.24.08-.51.12-.82.12-.35,0-.67-.06-.96-.17-.29-.11-.53-.26-.73-.44l.21-.34s.06-.08.1-.1c.04-.02.08-.04.14-.04s.12.02.19.07c.07.05.15.1.24.16s.21.11.34.16c.14.05.3.07.51.07.17,0,.33-.02.46-.07.13-.04.24-.11.33-.18.09-.08.15-.17.19-.27.04-.1.06-.21.06-.32,0-.14-.04-.26-.11-.35s-.17-.17-.3-.24-.26-.12-.42-.17c-.16-.05-.32-.1-.48-.15-.17-.05-.33-.11-.49-.18s-.3-.15-.42-.26c-.12-.1-.22-.23-.3-.38-.08-.15-.11-.34-.11-.55,0-.19.04-.38.12-.56.08-.18.2-.33.35-.47.15-.14.34-.24.57-.32.22-.08.48-.12.76-.12.33,0,.63.05.9.16.26.1.49.25.69.43l-.2.32Z"/>
        <path class="cls-1" d="M230.95,7.45c-.4,0-.71-.11-.92-.33s-.32-.54-.32-.96v-3.1h-.61c-.05,0-.1-.02-.13-.05-.04-.03-.06-.08-.06-.15v-.36l.83-.1.21-1.57s.03-.09.07-.12c.04-.03.08-.05.14-.05h.45v1.75h1.45v.64h-1.45v3.04c0,.21.05.37.16.48.1.1.24.15.4.15.09,0,.17-.01.24-.04s.13-.05.18-.08c.05-.03.09-.06.13-.08s.07-.04.09-.04c.05,0,.09.03.12.08l.26.42c-.15.14-.34.26-.56.34-.22.08-.44.12-.67.12Z"/>
        <path class="cls-1" d="M233.92,2.3v3.23c0,.38.09.68.26.89s.44.32.8.32c.26,0,.5-.06.73-.19.23-.12.44-.29.63-.51v-3.74h.89v5.07h-.53c-.13,0-.21-.06-.24-.18l-.07-.55c-.22.24-.47.44-.74.59s-.59.22-.94.22c-.28,0-.52-.05-.73-.14s-.39-.22-.53-.39c-.14-.17-.25-.37-.32-.6-.07-.24-.11-.5-.11-.79v-3.23h.89Z"/>
        <path class="cls-1" d="M240.19,8.86c-.03.07-.07.12-.11.16s-.11.06-.21.06h-.66l.92-2.01-2.09-4.77h.77c.08,0,.14.02.18.06.04.04.08.08.1.13l1.35,3.19c.03.07.06.15.08.22.02.07.04.15.06.22.02-.08.05-.15.07-.22s.05-.15.08-.23l1.32-3.18c.02-.05.05-.1.1-.13.05-.04.1-.05.16-.05h.71l-2.83,6.56Z"/>
        <path class="cls-1" d="M245.75,2.22c.37,0,.7.06,1,.18.3.12.55.3.76.53.21.23.37.5.48.82.11.32.17.68.17,1.08s-.06.76-.17,1.08-.27.59-.48.82c-.21.23-.46.4-.76.52-.3.12-.63.18-1,.18s-.7-.06-1-.18c-.3-.12-.55-.3-.76-.52s-.37-.5-.48-.82-.17-.68-.17-1.08.06-.76.17-1.08c.11-.32.27-.6.48-.82.21-.23.46-.4.76-.53.3-.12.63-.18,1-.18ZM245.75,6.74c.5,0,.87-.17,1.12-.5.25-.33.37-.8.37-1.4s-.12-1.07-.37-1.41c-.25-.34-.62-.5-1.12-.5-.25,0-.47.04-.66.13-.19.09-.34.21-.47.38-.12.16-.22.36-.28.6-.06.24-.09.51-.09.81s.03.57.09.81c.06.24.16.44.28.6.12.16.28.29.47.37s.41.13.66.13Z"/>
        <path class="cls-1" d="M249.62,6.82c0-.09.02-.17.05-.25.03-.08.08-.14.13-.2s.12-.1.2-.13c.08-.03.16-.05.25-.05s.17.02.25.05c.08.03.14.08.2.13s.1.12.13.2c.03.08.05.16.05.25s-.02.17-.05.25c-.03.08-.08.14-.13.2-.06.06-.12.1-.2.13-.08.03-.16.05-.25.05s-.17-.02-.25-.05c-.08-.03-.14-.08-.2-.13-.05-.06-.1-.12-.13-.2-.03-.08-.05-.16-.05-.25ZM250.68.2v2.86c0,.15,0,.3,0,.44,0,.14-.01.29-.02.43,0,.15-.02.29-.04.45-.01.15-.03.31-.05.49h-.61c-.02-.17-.04-.34-.05-.49-.01-.15-.03-.3-.04-.45,0-.14-.02-.29-.02-.43,0-.14,0-.29,0-.44V.2h.85Z"/>
      </g>
    </g>
  </g>
</svg>