<?xml version="1.0" encoding="UTF-8"?>
<svg id="Capa_2" data-name="Capa 2" xmlns="http://www.w3.org/2000/svg" viewBox="0 0 326.79 58.84">
  <defs>
    <style>
      .cls-1 {
        fill: #b01917;
      }

      .cls-1, .cls-2, .cls-3, .cls-4, .cls-5, .cls-6, .cls-7, .cls-8, .cls-9, .cls-10 {
        stroke-width: 0px;
      }

      .cls-2 {
        fill: #010101;
      }

      .cls-3 {
        fill: #991915;
      }

      .cls-4 {
        fill: #e4131a;
      }

      .cls-5 {
        fill: #841811;
      }

      .cls-6 {
        fill: #1d1d1b;
      }

      .cls-7 {
        fill: #b11917;
      }

      .cls-8 {
        fill: #b3b2b2;
      }

      .cls-9 {
        fill: #fff;
      }

      .cls-10 {
        fill: #9a1915;
      }
    </style>
  </defs>
  <g id="Capa_1-2" data-name="Capa 1">
    <g>
      <g>
        <rect class="cls-2" y="4.99" width="53.85" height="53.85" rx="5.77" ry="5.77"/>
        <g>
          <path class="cls-4" d="M17.1,14.23s-.01-.08-.02-.13c-.02-.08.01-.11.09-.11.06,0,.12,0,.18,0,2.07,0,4.15,0,6.22,0,.18,0,.39-.04.53.05.15.09.15.32.21.49,1.57,4.42,3.13,8.84,4.7,13.26.24.66.47,1.33.7,1.99.28.79.56,1.59.84,2.38.43,1.21.85,2.41,1.28,3.62.54,1.54,1.08,3.08,1.62,4.62.3.85.6,1.7.9,2.55.54,1.54,1.08,3.08,1.62,4.62.23.66.46,1.31.7,1.97.02.06.02.12.09.15.01.19.01.21-.15.19-.38-.03-.75-.08-1.13-.12-.61-.06-1.21-.13-1.82-.19-1.14-.11-2.28-.17-3.42-.24-.16-.01-.33-.02-.49-.02-.17,0-.24-.07-.29-.22-.37-1.05-.74-2.09-1.11-3.14-1.12-3.17-2.25-6.33-3.37-9.5-.27-.75-.53-1.51-.79-2.26-.42-1.19-.84-2.38-1.26-3.57-.26-.73-.51-1.46-.77-2.19-.56-1.59-1.13-3.17-1.69-4.76-.27-.75-.52-1.51-.79-2.26-.56-1.59-1.13-3.17-1.69-4.76-.26-.74-.52-1.49-.78-2.24-.02-.06-.04-.13-.11-.17Z"/>
          <path class="cls-1" d="M29.77,28.27c0-.09,0-.19,0-.28,0-4.26,0-8.52.01-12.78,0-.34.02-.67.02-1.01,0-.13.05-.19.18-.18.05,0,.1,0,.15,0,2.11,0,4.22,0,6.32,0,.04,0,.09,0,.13,0q.19,0,.2.21s0,.09,0,.13c0,10.99,0,21.97,0,32.96,0,.17,0,.34,0,.52-.14.02-.17-.09-.2-.19-.16-.45-.3-.89-.46-1.34-.43-1.22-.84-2.45-1.26-3.67-.35-1.03-.71-2.06-1.06-3.09-.36-1.03-.71-2.06-1.07-3.09-.33-.96-.67-1.93-1-2.89-.34-.97-.67-1.95-1.01-2.92-.23-.68-.47-1.36-.7-2.04-.03-.08-.07-.16-.1-.23-.03-.06-.07-.09-.14-.1Z"/>
          <path class="cls-7" d="M24.12,37c0,.09,0,.19,0,.28,0,3.3,0,6.61-.01,9.91,0,.61-.02,1.22-.04,1.83,0,.24-.01.25-.25.26-.95.02-1.9.11-2.86.18-.77.05-1.54.16-2.31.23-.47.05-.94.08-1.41.13-.14.02-.16-.03-.16-.15,0-.47,0-.95,0-1.42-.06-9.69-.02-19.37-.03-29.06,0-.61.02-1.22.03-1.83.17.03.18.19.23.31.21.59.4,1.19.61,1.78.41,1.16.8,2.32,1.2,3.48.34.99.68,1.98,1.03,2.97.35,1.01.69,2.01,1.04,3.02.31.88.61,1.77.92,2.65.33.96.66,1.91.99,2.87.24.71.48,1.41.72,2.12.04.11.08.21.12.31.03.08.08.13.17.12Z"/>
          <path class="cls-3" d="M29.77,28.27c.07,0,.11.04.14.1.04.08.08.15.1.23.23.68.47,1.36.7,2.04.33.97.67,1.95,1.01,2.92.33.96.67,1.93,1,2.89.36,1.03.71,2.06,1.07,3.09.36,1.03.71,2.06,1.06,3.09.42,1.22.83,2.45,1.26,3.67.16.44.3.89.46,1.34.03.1.06.2.2.19.01.61.03,1.21-.02,1.82-.07-.02-.07-.09-.09-.15-.23-.66-.46-1.31-.7-1.97-.54-1.54-1.08-3.08-1.62-4.62-.3-.85-.6-1.7-.9-2.55-.54-1.54-1.08-3.08-1.62-4.62-.42-1.21-.85-2.41-1.28-3.62-.28-.79-.56-1.59-.84-2.38.09-.07.05-.17.05-.26,0-.41,0-.83.01-1.24Z"/>
          <path class="cls-10" d="M24.12,37c-.09,0-.14-.04-.17-.12-.04-.1-.08-.21-.12-.31-.24-.71-.48-1.41-.72-2.12-.33-.96-.66-1.92-.99-2.87-.31-.88-.61-1.77-.92-2.65-.35-1.01-.69-2.01-1.04-3.02-.34-.99-.68-1.98-1.03-2.97-.4-1.16-.79-2.33-1.2-3.48-.21-.59-.4-1.19-.61-1.78-.04-.12-.06-.28-.23-.31,0-.57,0-1.13,0-1.7.13.01.15.12.18.22.25.73.51,1.46.76,2.19.43,1.25.86,2.5,1.29,3.75.36,1.06.73,2.11,1.09,3.16.37,1.06.73,2.13,1.1,3.19.3.88.61,1.75.91,2.63.33.96.66,1.91.99,2.87.17.5.34,1.01.52,1.51.03.1.06.2.19.22.01.53.02,1.07,0,1.6Z"/>
          <path class="cls-5" d="M24.12,35.4c-.13-.01-.16-.12-.19-.22-.17-.5-.35-1.01-.52-1.51-.33-.96-.66-1.92-.99-2.87-.3-.88-.61-1.75-.91-2.63-.37-1.06-.73-2.13-1.1-3.19-.36-1.06-.73-2.11-1.09-3.16-.43-1.25-.86-2.5-1.29-3.75-.25-.73-.51-1.46-.76-2.19-.03-.1-.05-.21-.18-.22-.05-.12-.03-.25-.03-.38,0-.28,0-.56,0-.84,0-.07-.02-.15.04-.22.07.03.08.11.11.17.26.75.52,1.49.78,2.24.56,1.59,1.13,3.17,1.69,4.76.27.75.52,1.51.79,2.26.56,1.59,1.13,3.17,1.69,4.76.26.73.51,1.46.77,2.19.42,1.19.84,2.38,1.26,3.57-.08.07-.04.16-.04.24,0,.33,0,.66-.01.99Z"/>
        </g>
      </g>
      <rect class="cls-9" x="68.82" y="13.31" width="229.11" height="37.14" rx="18.57" ry="18.57"/>
      <g>
        <path class="cls-6" d="M136.1,35.89h4.05v1.55h-5.94v-10.12h1.88v8.57Z"/>
        <path class="cls-6" d="M141.45,37.45v-10.12h3.49c.66,0,1.23.06,1.7.19.47.13.85.31,1.15.54.3.23.52.52.66.85.14.33.21.7.21,1.12,0,.24-.04.46-.11.68-.07.22-.18.42-.33.61-.15.19-.33.36-.56.51-.23.15-.5.29-.81.39,1.39.31,2.09,1.06,2.09,2.25,0,.43-.08.83-.25,1.19-.16.36-.4.68-.71.94-.31.26-.7.47-1.16.62s-.98.22-1.57.22h-3.82ZM143.34,31.71h1.5c.64,0,1.12-.12,1.46-.35.33-.23.5-.6.5-1.11s-.15-.9-.45-1.13-.77-.34-1.4-.34h-1.61v2.93ZM143.34,33.01v2.97h1.91c.35,0,.64-.04.88-.13s.42-.2.57-.34c.14-.14.25-.3.31-.49.06-.19.09-.38.09-.59s-.04-.42-.11-.59c-.07-.17-.18-.32-.33-.45-.15-.12-.34-.22-.57-.28s-.52-.1-.85-.1h-1.9Z"/>
        <path class="cls-6" d="M151.77,27.34c.06,0,.11.02.15.04.04.02.09.05.13.09s.09.09.14.16l5.31,6.77c-.02-.16-.03-.32-.04-.48,0-.16,0-.3,0-.44v-6.15h1.66v10.12h-.97c-.15,0-.27-.02-.37-.07-.1-.05-.19-.13-.29-.25l-5.29-6.74c.01.15.02.3.03.45,0,.15,0,.28,0,.4v6.22h-1.66v-10.12h.99c.08,0,.15,0,.21.01Z"/>
        <path class="cls-6" d="M165.66,33.51v3.93h-1.88v-3.93l-3.69-6.19h1.66c.16,0,.29.04.39.12s.18.18.24.3l1.85,3.38c.11.2.2.39.28.57.08.18.15.36.22.53.06-.18.13-.36.21-.54s.17-.37.28-.56l1.84-3.38c.05-.1.13-.2.23-.29.1-.09.23-.13.39-.13h1.67l-3.68,6.19Z"/>
        <path class="cls-6" d="M172.27,33.49v3.96h-1.88v-10.12h3.09c.69,0,1.28.07,1.77.21s.9.34,1.21.6c.32.26.55.56.69.92.15.36.22.75.22,1.18,0,.34-.05.66-.15.97-.1.3-.25.58-.43.83-.19.25-.42.46-.7.65-.28.19-.59.34-.95.45.24.14.44.33.62.58l2.53,3.74h-1.69c-.16,0-.3-.03-.42-.1-.12-.07-.21-.16-.29-.28l-2.13-3.24c-.08-.12-.17-.21-.26-.26s-.24-.08-.42-.08h-.81ZM172.27,32.14h1.18c.36,0,.66-.04.93-.13.26-.09.48-.21.65-.37.17-.16.3-.34.38-.56.08-.21.13-.45.13-.71,0-.51-.17-.91-.51-1.18-.34-.28-.86-.41-1.55-.41h-1.2v3.36Z"/>
        <path class="cls-6" d="M181.61,37.45h-1.89v-10.12h1.89v10.12Z"/>
        <path class="cls-6" d="M189.31,29.17c-.05.1-.11.17-.18.22s-.15.06-.24.06-.2-.04-.32-.11-.25-.15-.41-.24c-.16-.09-.34-.17-.56-.24-.21-.07-.46-.11-.75-.11-.26,0-.49.03-.68.09-.19.06-.36.15-.49.26-.13.11-.23.25-.3.4-.06.16-.1.33-.1.51,0,.24.07.44.2.59.13.16.31.29.53.41.22.11.47.21.75.3.28.09.57.18.86.28.29.1.58.22.86.35.28.13.53.3.75.5.22.2.4.45.53.75s.2.65.2,1.07c0,.46-.08.89-.23,1.28-.16.4-.38.75-.69,1.04-.3.3-.67.53-1.1.7-.43.17-.93.26-1.49.26-.32,0-.64-.03-.95-.09-.31-.06-.61-.15-.9-.27s-.56-.26-.8-.42c-.25-.16-.47-.35-.67-.55l.55-.9c.05-.07.11-.12.19-.16.07-.04.15-.07.24-.07.12,0,.24.05.38.14.14.1.3.2.48.32.18.12.4.22.65.32s.55.14.9.14c.54,0,.95-.13,1.25-.38.29-.25.44-.62.44-1.1,0-.27-.07-.48-.2-.65-.13-.17-.31-.31-.53-.42-.22-.11-.47-.21-.75-.29-.28-.08-.56-.17-.85-.26-.29-.09-.57-.21-.85-.34-.28-.13-.53-.3-.75-.51-.22-.21-.4-.47-.53-.79-.13-.32-.2-.7-.2-1.17,0-.37.07-.73.22-1.08.15-.35.36-.66.64-.93s.63-.49,1.04-.65c.41-.16.88-.25,1.41-.25.6,0,1.15.09,1.65.28s.93.45,1.29.78l-.46.89Z"/>
        <path class="cls-6" d="M201.11,32.39c0,.74-.12,1.43-.37,2.06-.25.63-.6,1.18-1.04,1.64-.45.46-.99.82-1.62,1.08s-1.33.39-2.09.39-1.46-.13-2.1-.39c-.63-.26-1.17-.62-1.62-1.08s-.8-1.01-1.05-1.64c-.25-.63-.37-1.32-.37-2.06s.12-1.43.37-2.06c.25-.63.6-1.18,1.05-1.64s.99-.82,1.62-1.08c.63-.26,1.33-.39,2.1-.39s1.46.13,2.09.39c.63.26,1.17.62,1.62,1.08.45.46.79,1.01,1.04,1.64.25.63.37,1.32.37,2.06ZM199.18,32.39c0-.56-.07-1.05-.22-1.5-.15-.44-.36-.82-.63-1.12-.28-.31-.61-.54-1-.71s-.84-.25-1.33-.25-.94.08-1.34.25c-.4.16-.73.4-1.01.71-.28.31-.49.68-.64,1.12-.15.44-.22.94-.22,1.5s.08,1.05.22,1.49c.15.44.36.81.64,1.12.28.31.61.54,1.01.7.4.16.84.25,1.34.25s.94-.08,1.33-.25.73-.4,1-.7.49-.68.63-1.12c.15-.44.22-.94.22-1.49Z"/>
        <path class="cls-6" d="M208.98,27.33v1.5h-4.49v2.81h3.54v1.45h-3.54v2.86h4.49v1.5h-6.38v-10.12h6.38Z"/>
        <path class="cls-6" d="M217.35,32.39c0,.88-.09,1.65-.28,2.3-.19.65-.45,1.19-.78,1.61-.33.42-.73.74-1.18.95-.46.21-.95.31-1.47.31s-1.02-.1-1.47-.31c-.45-.21-.84-.52-1.17-.95-.33-.42-.59-.96-.78-1.61-.19-.65-.28-1.42-.28-2.3s.09-1.65.28-2.3c.19-.65.45-1.18.78-1.61.33-.42.72-.74,1.17-.95.45-.21.94-.31,1.47-.31s1.02.1,1.47.31c.46.21.85.52,1.18.95.33.42.6.96.78,1.61.19.65.28,1.42.28,2.3ZM215.57,32.39c0-.73-.05-1.34-.16-1.82s-.25-.86-.43-1.15c-.18-.28-.39-.48-.62-.6-.23-.11-.48-.17-.73-.17s-.49.06-.72.17c-.23.12-.43.31-.61.6-.18.29-.32.67-.42,1.15-.11.48-.16,1.09-.16,1.82s.05,1.34.16,1.82c.1.48.25.86.42,1.15.18.28.38.48.61.6.23.11.47.17.72.17s.5-.06.73-.17c.23-.11.44-.31.62-.6.18-.29.32-.67.43-1.15s.16-1.09.16-1.82Z"/>
        <path class="cls-6" d="M224.63,28.06c0,.25-.08.45-.23.6s-.42.23-.78.23h-2.79l-.36,2.11c.46-.09.88-.14,1.25-.14.53,0,1,.08,1.4.24.4.16.74.38,1.02.66.28.28.48.61.62.98.14.38.21.78.21,1.21,0,.54-.09,1.03-.28,1.47-.19.44-.45.82-.79,1.14-.34.32-.73.56-1.19.73-.46.17-.96.26-1.5.26-.32,0-.62-.03-.9-.1-.28-.07-.55-.15-.8-.26-.25-.11-.48-.24-.69-.38-.21-.14-.4-.29-.57-.45l.53-.74c.11-.16.26-.24.45-.24.12,0,.23.04.35.11.12.08.26.16.42.25.16.09.34.17.55.25.21.08.46.11.76.11.32,0,.6-.05.84-.15.24-.1.44-.25.61-.43.16-.18.28-.4.36-.66.08-.25.12-.53.12-.83,0-.55-.16-.98-.48-1.29-.32-.31-.79-.47-1.41-.47-.49,0-.98.09-1.48.27l-1.08-.31.84-4.91h5v.74Z"/>
      </g>
      <g>
        <path class="cls-8" d="M324.02,20.25c.15.04.3.07.46.12,1.38.38,2.32,1.62,2.32,3.05,0,3.99,0,7.98,0,11.97,0,.41-.29.76-.68.8-.41.05-.78-.19-.89-.59-.02-.09-.02-.2-.02-.29,0-3.92,0-7.85,0-11.77,0-.81-.45-1.44-1.18-1.63-.18-.05-.36-.06-.55-.06-2.85,0-5.71,0-8.56,0-.49,0-.8-.28-.88-.64-.09-.4.12-.74.56-.93.01,0,.02-.02.03-.03,3.13,0,6.27,0,9.4,0Z"/>
        <path class="cls-8" d="M309.7,32.01c0-1.78,0-3.57,0-5.35,0-1.79,1.4-3.19,3.19-3.19,2.51,0,5.02,0,7.53,0,1.66,0,3,1.2,3.19,2.84.01.11,0,.22,0,.34,0,3.57,0,7.15,0,10.72,0,1.78-1.41,3.18-3.18,3.18-2.52,0-5.05,0-7.57,0-1.76,0-3.17-1.41-3.17-3.17,0-1.79,0-3.58,0-5.37ZM311.28,32.01c0,1.75,0,3.5,0,5.25,0,1.03.67,1.7,1.7,1.71,2.45,0,4.9,0,7.36,0,1.01,0,1.7-.68,1.7-1.69,0-3.52,0-7.03,0-10.55,0-.17-.02-.34-.06-.51-.19-.73-.81-1.18-1.61-1.18-2.45,0-4.89,0-7.34,0-1.08,0-1.74.66-1.74,1.75,0,1.74,0,3.48,0,5.21Z"/>
      </g>
      <g>
        <path class="cls-6" d="M121.86,2.85c0-.09.02-.17.05-.25.03-.08.08-.14.13-.2s.12-.1.2-.13c.08-.03.16-.05.25-.05s.17.02.24.05c.08.03.14.08.2.13s.1.12.13.2.05.16.05.25c0,.09-.02.17-.05.24-.03.08-.08.14-.13.2s-.12.1-.2.13c-.07.03-.16.05-.24.05s-.17-.02-.25-.05c-.08-.03-.14-.08-.2-.13s-.1-.12-.13-.2c-.03-.08-.05-.16-.05-.24ZM122.08,9.08v-2.71c0-.15,0-.3,0-.44s.01-.29.02-.43c0-.15.02-.29.04-.45.01-.15.03-.32.05-.49h.61c.02.17.04.34.05.49.01.15.03.3.04.45,0,.14.02.29.02.43s0,.29,0,.44v2.71h-.85Z"/>
        <path class="cls-6" d="M127.86,6.6c.3,0,.56-.05.79-.15s.43-.24.59-.42c.16-.18.28-.4.37-.65s.13-.52.13-.82V.2h.96v4.36c0,.41-.07.8-.2,1.15s-.32.66-.57.92c-.25.26-.54.46-.9.61s-.75.22-1.19.22-.84-.07-1.19-.22-.65-.35-.9-.61c-.25-.26-.44-.56-.57-.92-.13-.35-.2-.74-.2-1.15V.2h.96v4.35c0,.3.04.58.13.83s.21.46.37.65c.16.18.36.32.59.42.24.1.5.15.8.15Z"/>
        <path class="cls-6" d="M132.23,7.37V2.3h.53c.13,0,.21.06.24.19l.07.55c.22-.24.47-.44.74-.59s.59-.22.94-.22c.28,0,.52.04.73.14s.39.22.53.39c.14.17.25.37.32.61.07.24.11.5.11.79v3.22h-.89v-3.22c0-.38-.09-.68-.26-.89-.18-.21-.44-.32-.8-.32-.26,0-.51.06-.74.19-.23.13-.44.3-.63.51v3.73h-.89Z"/>
        <path class="cls-6" d="M139.72,7.37V2.3h.53c.13,0,.21.06.24.19l.07.52c.19-.23.4-.42.63-.56s.5-.22.81-.22c.34,0,.62.09.83.28.21.19.36.45.46.77.07-.18.16-.34.28-.48.12-.13.24-.24.39-.33.14-.09.3-.15.46-.19.16-.04.33-.06.49-.06.27,0,.5.04.71.13.21.08.39.21.53.37.15.16.26.36.33.6.08.24.11.51.11.82v3.22h-.89v-3.22c0-.4-.09-.7-.26-.9-.17-.2-.43-.31-.75-.31-.15,0-.29.03-.42.08s-.25.13-.35.23-.18.23-.24.38c-.06.15-.09.33-.09.53v3.22h-.89v-3.22c0-.41-.08-.71-.25-.91s-.4-.3-.71-.3c-.22,0-.42.06-.61.18-.19.12-.36.28-.52.48v3.78h-.89Z"/>
        <path class="cls-6" d="M149.93,2.22c.3,0,.58.05.84.15s.48.25.67.44c.19.19.33.43.44.71.1.28.16.6.16.96,0,.14-.01.23-.04.28-.03.05-.09.07-.17.07h-3.37c0,.32.05.6.13.83.08.24.19.43.33.59s.31.28.5.36c.19.08.41.12.65.12.22,0,.42-.03.58-.08.16-.05.3-.11.42-.17.12-.06.21-.12.29-.17.08-.05.15-.08.2-.08.07,0,.13.03.17.08l.25.33c-.11.13-.24.25-.39.35s-.32.18-.49.24c-.18.06-.36.11-.54.14s-.37.05-.55.05c-.35,0-.67-.06-.97-.18s-.55-.29-.76-.52c-.21-.23-.38-.51-.5-.85-.12-.34-.18-.72-.18-1.16,0-.35.05-.68.16-.99s.26-.57.47-.8c.2-.22.45-.4.75-.53.29-.13.62-.19.99-.19ZM149.95,2.88c-.43,0-.77.12-1.01.37-.25.25-.4.59-.46,1.03h2.75c0-.21-.03-.4-.08-.57s-.14-.32-.25-.45c-.11-.12-.24-.22-.4-.29-.16-.07-.34-.1-.54-.1Z"/>
        <path class="cls-6" d="M156.07,3.13c-.04.07-.1.11-.18.11-.05,0-.11-.02-.17-.05-.06-.04-.14-.08-.23-.12-.09-.04-.2-.09-.33-.12-.13-.04-.28-.06-.45-.06-.15,0-.28.02-.4.06-.12.04-.22.09-.31.16-.08.07-.15.14-.2.23-.04.09-.07.18-.07.29,0,.13.04.24.11.33s.17.16.3.22c.12.06.26.12.42.17.16.05.32.1.48.16.17.05.33.12.48.18.16.07.3.15.42.25.12.1.22.22.3.37.08.14.11.32.11.52,0,.23-.04.45-.12.65s-.21.37-.37.51c-.16.15-.36.26-.6.34-.24.08-.51.12-.82.12-.35,0-.67-.06-.96-.17-.29-.11-.53-.26-.73-.44l.21-.34s.06-.08.1-.1c.04-.02.08-.04.14-.04s.12.02.19.07c.07.05.15.1.24.16s.21.11.34.16c.14.05.3.07.51.07.17,0,.33-.02.46-.07.13-.04.24-.11.33-.18.09-.08.15-.17.19-.27.04-.1.06-.21.06-.32,0-.14-.04-.26-.11-.35s-.17-.17-.3-.24-.26-.12-.42-.17c-.16-.05-.32-.1-.48-.15-.17-.05-.33-.11-.49-.18s-.3-.15-.42-.26c-.12-.1-.22-.23-.3-.38-.08-.15-.11-.34-.11-.55,0-.19.04-.38.12-.56.08-.18.2-.33.35-.47.15-.14.34-.24.57-.32.22-.08.48-.12.76-.12.33,0,.63.05.9.16.26.1.49.25.69.43l-.2.32Z"/>
        <path class="cls-6" d="M163,7.37c-.13,0-.21-.06-.24-.18l-.08-.62c-.22.26-.46.47-.74.63-.28.16-.6.24-.96.24-.29,0-.55-.06-.79-.17-.24-.11-.44-.28-.61-.49s-.29-.49-.38-.81c-.09-.32-.13-.69-.13-1.11,0-.37.05-.72.15-1.04.1-.32.24-.6.43-.84.19-.24.42-.42.69-.56.27-.14.58-.2.92-.2.31,0,.58.05.79.16.22.1.42.25.59.44V0h.89v7.37h-.53ZM161.28,6.71c.29,0,.54-.07.76-.2.22-.13.42-.32.6-.57v-2.45c-.16-.22-.34-.37-.54-.46-.2-.09-.41-.13-.65-.13-.47,0-.84.17-1.09.5-.25.34-.38.82-.38,1.44,0,.33.03.61.08.85.06.24.14.43.25.58.11.15.25.26.4.33.16.07.34.1.55.1Z"/>
        <path class="cls-6" d="M167.03,2.22c.3,0,.58.05.84.15s.48.25.67.44c.19.19.33.43.44.71.1.28.16.6.16.96,0,.14-.01.23-.04.28-.03.05-.09.07-.17.07h-3.37c0,.32.05.6.13.83.08.24.19.43.33.59s.31.28.5.36c.19.08.41.12.65.12.22,0,.42-.03.58-.08.16-.05.3-.11.42-.17.12-.06.21-.12.29-.17.08-.05.15-.08.2-.08.07,0,.13.03.17.08l.25.33c-.11.13-.24.25-.39.35s-.32.18-.49.24c-.18.06-.36.11-.54.14s-.37.05-.55.05c-.35,0-.67-.06-.97-.18s-.55-.29-.76-.52c-.21-.23-.38-.51-.5-.85-.12-.34-.18-.72-.18-1.16,0-.35.05-.68.16-.99s.26-.57.47-.8c.2-.22.45-.4.75-.53.29-.13.62-.19.99-.19ZM167.05,2.88c-.43,0-.77.12-1.01.37-.25.25-.4.59-.46,1.03h2.75c0-.21-.03-.4-.08-.57s-.14-.32-.25-.45c-.11-.12-.24-.22-.4-.29-.16-.07-.34-.1-.54-.1Z"/>
        <path class="cls-6" d="M173.03.23s.09.07.14.13l4.15,5.4c-.01-.09-.02-.17-.02-.25s0-.16,0-.24V.2h.85v7.17h-.49c-.08,0-.14-.01-.19-.04s-.1-.07-.15-.13l-4.14-5.4c0,.08.01.17.01.25,0,.08,0,.15,0,.22v5.11h-.85V.2h.5c.09,0,.15.01.19.03Z"/>
        <path class="cls-6" d="M181.76,2.22c.3,0,.58.05.84.15s.48.25.67.44c.19.19.33.43.44.71.1.28.16.6.16.96,0,.14-.01.23-.04.28-.03.05-.09.07-.17.07h-3.37c0,.32.05.6.13.83.08.24.19.43.33.59s.31.28.5.36c.19.08.41.12.65.12.22,0,.42-.03.58-.08.16-.05.3-.11.42-.17.12-.06.21-.12.29-.17.08-.05.15-.08.2-.08.07,0,.13.03.17.08l.25.33c-.11.13-.24.25-.39.35s-.32.18-.49.24c-.18.06-.36.11-.54.14s-.37.05-.55.05c-.35,0-.67-.06-.97-.18s-.55-.29-.76-.52c-.21-.23-.38-.51-.5-.85-.12-.34-.18-.72-.18-1.16,0-.35.05-.68.16-.99s.26-.57.47-.8c.2-.22.45-.4.75-.53.29-.13.62-.19.99-.19ZM181.78,2.88c-.43,0-.77.12-1.01.37-.25.25-.4.59-.46,1.03h2.75c0-.21-.03-.4-.08-.57s-.14-.32-.25-.45c-.11-.12-.24-.22-.4-.29-.16-.07-.34-.1-.54-.1Z"/>
        <path class="cls-6" d="M186.53,7.45c-.4,0-.71-.11-.92-.33s-.32-.54-.32-.96v-3.1h-.61c-.05,0-.1-.02-.13-.05-.04-.03-.06-.08-.06-.15v-.36l.83-.1.21-1.57s.03-.09.07-.12c.04-.03.08-.05.14-.05h.45v1.75h1.45v.64h-1.45v3.04c0,.21.05.37.16.48.1.1.24.15.4.15.09,0,.17-.01.24-.04s.13-.05.18-.08c.05-.03.09-.06.13-.08s.07-.04.09-.04c.05,0,.09.03.12.08l.26.42c-.15.14-.34.26-.56.34-.22.08-.44.12-.67.12Z"/>
        <path class="cls-6" d="M188.93,7.37V3.06l-.56-.07c-.07-.02-.13-.04-.17-.08s-.07-.09-.07-.15v-.37h.8v-.27c0-.28.04-.55.13-.8.09-.25.22-.47.39-.66.17-.19.39-.33.65-.44.26-.11.56-.17.91-.17.28,0,.54.01.8.03s.5.03.74.03h.5v7.24h-.89V.74h-1.02c-.43,0-.77.12-1,.37-.23.25-.35.59-.35,1.03v.27h1.32v.64h-1.29v4.32h-.9Z"/>
        <path class="cls-6" d="M195.86.71c0,.09-.02.17-.05.24-.04.07-.08.14-.14.2-.06.06-.13.1-.2.14-.08.03-.16.05-.25.05s-.17-.02-.24-.05c-.07-.03-.14-.08-.2-.14-.06-.06-.1-.12-.14-.2-.03-.08-.05-.16-.05-.24s.02-.17.05-.25.08-.15.14-.21c.06-.06.12-.1.2-.14.08-.03.16-.05.24-.05s.17.02.25.05c.08.03.14.08.2.14s.1.13.14.21.05.16.05.25ZM195.66,2.3v5.07h-.89V2.3h.89Z"/>
        <path class="cls-6" d="M198.41,4.77l-1.71-2.47h.86c.07,0,.13.01.16.04s.06.06.09.1l1.24,1.9c.03-.09.07-.19.13-.28l1.09-1.6s.07-.08.1-.11.08-.04.12-.04h.82l-1.71,2.42,1.77,2.64h-.85c-.07,0-.13-.02-.17-.06s-.08-.08-.1-.13l-1.27-1.99c-.02.1-.06.18-.11.26l-1.18,1.73s-.07.09-.11.13c-.04.04-.09.06-.16.06h-.79l1.78-2.59Z"/>
        <path class="cls-6" d="M206.2,2.22c.3,0,.58.05.84.15s.48.25.67.44c.19.19.33.43.44.71.1.28.16.6.16.96,0,.14-.01.23-.04.28-.03.05-.09.07-.17.07h-3.37c0,.32.05.6.13.83.08.24.19.43.33.59s.31.28.5.36c.19.08.41.12.65.12.22,0,.42-.03.58-.08.16-.05.3-.11.42-.17.12-.06.21-.12.29-.17.08-.05.15-.08.2-.08.07,0,.13.03.17.08l.25.33c-.11.13-.24.25-.39.35s-.32.18-.49.24c-.18.06-.36.11-.54.14s-.37.05-.55.05c-.35,0-.67-.06-.97-.18s-.55-.29-.76-.52c-.21-.23-.38-.51-.5-.85-.12-.34-.18-.72-.18-1.16,0-.35.05-.68.16-.99s.26-.57.47-.8c.2-.22.45-.4.75-.53.29-.13.62-.19.99-.19ZM206.22,2.88c-.43,0-.77.12-1.01.37-.25.25-.4.59-.46,1.03h2.75c0-.21-.03-.4-.08-.57s-.14-.32-.25-.45c-.11-.12-.24-.22-.4-.29-.16-.07-.34-.1-.54-.1Z"/>
        <path class="cls-6" d="M212.34,3.13c-.04.07-.1.11-.18.11-.05,0-.11-.02-.17-.05-.06-.04-.14-.08-.23-.12-.09-.04-.2-.09-.33-.12-.13-.04-.28-.06-.45-.06-.15,0-.28.02-.4.06-.12.04-.22.09-.31.16-.08.07-.15.14-.2.23-.04.09-.07.18-.07.29,0,.13.04.24.11.33s.17.16.3.22c.12.06.26.12.42.17.16.05.32.1.48.16.17.05.33.12.48.18.16.07.3.15.42.25.12.1.22.22.3.37.08.14.11.32.11.52,0,.23-.04.45-.12.65s-.21.37-.37.51c-.16.15-.36.26-.6.34-.24.08-.51.12-.82.12-.35,0-.67-.06-.96-.17-.29-.11-.53-.26-.73-.44l.21-.34s.06-.08.1-.1c.04-.02.08-.04.14-.04s.12.02.19.07c.07.05.15.1.24.16s.21.11.34.16c.14.05.3.07.51.07.17,0,.33-.02.46-.07.13-.04.24-.11.33-.18.09-.08.15-.17.19-.27.04-.1.06-.21.06-.32,0-.14-.04-.26-.11-.35s-.17-.17-.3-.24-.26-.12-.42-.17c-.16-.05-.32-.1-.48-.15-.17-.05-.33-.11-.49-.18s-.3-.15-.42-.26c-.12-.1-.22-.23-.3-.38-.08-.15-.11-.34-.11-.55,0-.19.04-.38.12-.56.08-.18.2-.33.35-.47.15-.14.34-.24.57-.32.22-.08.48-.12.76-.12.33,0,.63.05.9.16.26.1.49.25.69.43l-.2.32Z"/>
        <path class="cls-6" d="M217.24,7.45c-.4,0-.71-.11-.92-.33s-.32-.54-.32-.96v-3.1h-.61c-.05,0-.1-.02-.13-.05-.04-.03-.06-.08-.06-.15v-.36l.83-.1.21-1.57s.03-.09.07-.12c.04-.03.08-.05.14-.05h.45v1.75h1.45v.64h-1.45v3.04c0,.21.05.37.16.48.1.1.24.15.4.15.09,0,.17-.01.24-.04s.13-.05.18-.08c.05-.03.09-.06.13-.08s.07-.04.09-.04c.05,0,.09.03.12.08l.26.42c-.15.14-.34.26-.56.34-.22.08-.44.12-.67.12Z"/>
        <path class="cls-6" d="M220.21,2.3v3.23c0,.38.09.68.26.89s.44.32.8.32c.26,0,.5-.06.73-.19.23-.12.44-.29.63-.51v-3.74h.89v5.07h-.53c-.13,0-.21-.06-.24-.18l-.07-.55c-.22.24-.47.44-.74.59s-.59.22-.94.22c-.28,0-.52-.05-.73-.14s-.39-.22-.53-.39c-.14-.17-.25-.37-.32-.6-.07-.24-.11-.5-.11-.79v-3.23h.89Z"/>
        <path class="cls-6" d="M226.48,8.86c-.03.07-.07.12-.11.16s-.11.06-.21.06h-.66l.92-2.01-2.09-4.77h.77c.08,0,.14.02.18.06.04.04.08.08.1.13l1.35,3.19c.03.07.06.15.08.22.02.07.04.15.06.22.02-.08.05-.15.07-.22s.05-.15.08-.23l1.32-3.18c.02-.05.05-.1.1-.13.05-.04.1-.05.16-.05h.71l-2.83,6.56Z"/>
        <path class="cls-6" d="M232.04,2.22c.37,0,.7.06,1,.18.3.12.55.3.76.53.21.23.37.5.48.82.11.32.17.68.17,1.08s-.06.76-.17,1.08-.27.59-.48.82c-.21.23-.46.4-.76.52-.3.12-.63.18-1,.18s-.7-.06-1-.18c-.3-.12-.55-.3-.76-.52s-.37-.5-.48-.82-.17-.68-.17-1.08.06-.76.17-1.08c.11-.32.27-.6.48-.82.21-.23.46-.4.76-.53.3-.12.63-.18,1-.18ZM232.04,6.74c.5,0,.87-.17,1.12-.5.25-.33.37-.8.37-1.4s-.12-1.07-.37-1.41c-.25-.34-.62-.5-1.12-.5-.25,0-.47.04-.66.13-.19.09-.34.21-.47.38-.12.16-.22.36-.28.6-.06.24-.09.51-.09.81s.03.57.09.81c.06.24.16.44.28.6.12.16.28.29.47.37s.41.13.66.13Z"/>
        <path class="cls-6" d="M235.91,6.82c0-.09.02-.17.05-.25.03-.08.08-.14.13-.2s.12-.1.2-.13c.08-.03.16-.05.25-.05s.17.02.25.05c.08.03.14.08.2.13s.1.12.13.2c.03.08.05.16.05.25s-.02.17-.05.25c-.03.08-.08.14-.13.2-.06.06-.12.1-.2.13-.08.03-.16.05-.25.05s-.17-.02-.25-.05c-.08-.03-.14-.08-.2-.13-.05-.06-.1-.12-.13-.2-.03-.08-.05-.16-.05-.25ZM236.97.2v2.86c0,.15,0,.3,0,.44,0,.14-.01.29-.02.43,0,.15-.02.29-.04.45-.01.15-.03.31-.05.49h-.61c-.02-.17-.04-.34-.05-.49-.01-.15-.03-.3-.04-.45,0-.14-.02-.29-.02-.43,0-.14,0-.29,0-.44V.2h.85Z"/>
      </g>
    </g>
  </g>
</svg>