<?xml version="1.0" encoding="UTF-8"?>
<svg id="Capa_2" data-name="Capa 2" xmlns="http://www.w3.org/2000/svg" viewBox="0 0 294.05 51.21">
  <defs>
    <style>
      .cls-1 {
        fill: #070708;
      }

      .cls-1, .cls-2, .cls-3, .cls-4 {
        stroke-width: 0px;
      }

      .cls-2 {
        fill: #1d1d1b;
      }

      .cls-3 {
        fill: #a8a7a7;
      }

      .cls-4 {
        fill: #fff;
      }
    </style>
  </defs>
  <g id="Capa_1-2" data-name="Capa 1">
    <g>
      <rect class="cls-4" x="64.94" y="14.06" width="229.11" height="37.14" rx="18.57" ry="18.57"/>
      <g>
        <path class="cls-2" d="M134.84,28.09c.06,0,.11.02.15.04.04.02.09.05.13.09s.09.09.14.16l5.31,6.77c-.02-.16-.03-.32-.04-.48,0-.16,0-.3,0-.44v-6.15h1.66v10.12h-.97c-.15,0-.27-.02-.37-.07-.1-.05-.19-.13-.29-.25l-5.29-6.74c.01.15.02.3.03.45,0,.15,0,.28,0,.4v6.22h-1.66v-10.12h.99c.08,0,.15,0,.21.01Z"/>
        <path class="cls-2" d="M147.2,30.91c.54,0,1.02.09,1.46.26s.81.42,1.12.74c.31.32.55.7.71,1.16.17.46.25.97.25,1.53s-.08,1.08-.25,1.54c-.17.46-.41.85-.71,1.17-.31.32-.68.57-1.12.74-.44.17-.92.26-1.46.26s-1.02-.09-1.46-.26c-.44-.17-.81-.42-1.12-.74-.31-.32-.55-.71-.72-1.17-.17-.46-.26-.97-.26-1.54s.08-1.08.26-1.53c.17-.46.41-.84.72-1.16s.68-.56,1.12-.74c.44-.17.93-.26,1.46-.26ZM147.2,36.98c.6,0,1.04-.2,1.33-.6s.43-.99.43-1.76-.14-1.37-.43-1.77c-.29-.41-.73-.61-1.33-.61s-1.05.2-1.34.61c-.29.41-.43,1-.43,1.77s.14,1.36.43,1.76c.29.4.74.61,1.34.61Z"/>
        <path class="cls-2" d="M159.84,38.21c-.22,0-.37-.11-.44-.32l-.14-.69c-.15.17-.31.32-.47.46-.16.13-.34.25-.53.35-.19.1-.39.17-.61.23-.22.05-.45.08-.7.08-.39,0-.75-.08-1.08-.25-.33-.16-.61-.4-.84-.71-.24-.31-.42-.69-.55-1.15-.13-.46-.19-.98-.19-1.57,0-.53.07-1.03.22-1.48.15-.46.35-.85.62-1.19s.6-.6.97-.79c.38-.19.8-.28,1.27-.28.4,0,.74.06,1.03.19.28.13.54.3.76.51v-3.79h1.73v10.4h-1.06ZM157.54,36.94c.36,0,.67-.08.92-.22s.49-.36.71-.64v-3.22c-.2-.24-.41-.41-.64-.5-.23-.1-.48-.15-.75-.15s-.5.05-.71.15c-.21.1-.39.25-.54.44-.15.2-.26.45-.34.76s-.12.67-.12,1.08.03.78.1,1.07c.07.29.16.53.29.71.13.18.28.32.46.4.18.08.38.12.61.12Z"/>
        <path class="cls-2" d="M164.87,28.93c0,.15-.03.29-.09.42-.06.13-.14.25-.24.34-.1.1-.22.18-.35.23s-.28.09-.43.09-.29-.03-.42-.09-.25-.14-.35-.23c-.1-.1-.18-.21-.23-.34-.06-.13-.09-.27-.09-.42s.03-.3.09-.43.14-.25.23-.35.21-.18.35-.24c.13-.06.27-.09.42-.09s.3.03.43.09c.14.06.25.14.35.24.1.1.18.21.24.35s.09.28.09.43ZM164.61,31.02v7.18h-1.73v-7.18h1.73Z"/>
        <path class="cls-2" d="M170.83,32.42c-.05.08-.1.13-.15.16-.05.03-.12.04-.2.04-.08,0-.17-.02-.27-.07-.1-.05-.21-.1-.33-.16s-.27-.11-.43-.16-.35-.07-.57-.07c-.34,0-.61.07-.81.22-.2.15-.29.33-.29.57,0,.15.05.28.15.39.1.1.23.2.4.28s.35.15.56.21c.21.06.42.13.64.21.22.08.43.16.64.26s.4.22.56.36c.17.15.3.32.4.53.1.21.15.45.15.74,0,.35-.06.66-.19.96s-.31.54-.55.76c-.24.21-.54.38-.9.5-.36.12-.77.18-1.23.18-.25,0-.49-.02-.72-.07-.24-.04-.46-.11-.68-.19-.22-.08-.42-.17-.6-.28s-.35-.22-.49-.35l.4-.66c.05-.08.11-.14.18-.18s.16-.06.27-.06.21.03.3.09.21.13.33.2c.13.07.27.13.44.2.17.06.39.09.65.09.21,0,.38-.02.53-.07.15-.05.27-.11.36-.19.1-.08.17-.17.21-.28.04-.1.07-.21.07-.33,0-.17-.05-.31-.15-.41s-.23-.2-.4-.28c-.17-.08-.35-.15-.57-.21-.21-.06-.43-.13-.65-.21-.22-.07-.44-.16-.65-.26-.21-.1-.4-.23-.57-.38-.17-.15-.3-.34-.4-.57s-.15-.49-.15-.81c0-.29.06-.57.17-.84.12-.27.29-.5.51-.7s.51-.36.85-.48c.34-.12.73-.18,1.17-.18.5,0,.95.08,1.35.25.41.16.74.38,1.01.64l-.39.62Z"/>
        <path class="cls-2" d="M172.68,40.55v-9.53h1.06c.11,0,.21.03.29.08.08.05.13.13.15.24l.14.67c.29-.33.62-.6,1-.8s.82-.31,1.32-.31c.39,0,.75.08,1.07.25.32.16.6.4.84.71.24.31.42.69.55,1.15.13.46.19.98.19,1.56,0,.54-.07,1.03-.22,1.49-.15.46-.35.85-.62,1.19s-.59.6-.97.79c-.38.19-.81.28-1.28.28-.41,0-.75-.06-1.03-.19-.28-.12-.54-.3-.76-.51v2.94h-1.73ZM176.04,32.26c-.36,0-.67.08-.92.23-.25.15-.49.37-.71.64v3.22c.2.24.41.41.64.51.23.1.48.14.75.14s.5-.05.71-.15c.21-.1.39-.25.54-.45.15-.2.26-.45.34-.76s.12-.67.12-1.08-.03-.78-.1-1.07c-.07-.29-.16-.53-.29-.71-.13-.18-.28-.32-.46-.4s-.38-.13-.61-.13Z"/>
        <path class="cls-2" d="M183.67,30.91c.54,0,1.02.09,1.46.26s.81.42,1.12.74c.31.32.55.7.71,1.16.17.46.25.97.25,1.53s-.08,1.08-.25,1.54c-.17.46-.41.85-.71,1.17-.31.32-.68.57-1.12.74-.44.17-.92.26-1.46.26s-1.02-.09-1.46-.26c-.44-.17-.81-.42-1.12-.74-.31-.32-.55-.71-.72-1.17-.17-.46-.26-.97-.26-1.54s.08-1.08.26-1.53c.17-.46.41-.84.72-1.16s.68-.56,1.12-.74c.44-.17.93-.26,1.46-.26ZM183.67,36.98c.6,0,1.04-.2,1.33-.6s.43-.99.43-1.76-.14-1.37-.43-1.77c-.29-.41-.73-.61-1.33-.61s-1.05.2-1.34.61c-.29.41-.43,1-.43,1.77s.14,1.36.43,1.76c.29.4.74.61,1.34.61Z"/>
        <path class="cls-2" d="M188.56,38.21v-7.18h1.06c.22,0,.37.1.44.31l.12.57c.14-.15.3-.29.46-.41.16-.12.33-.23.51-.32.18-.09.37-.16.58-.2.21-.05.43-.07.67-.07.39,0,.74.07,1.04.2.3.13.56.32.76.56s.36.53.46.86c.11.33.16.7.16,1.1v4.57h-1.73v-4.57c0-.44-.1-.78-.3-1.02-.2-.24-.51-.36-.91-.36-.3,0-.58.07-.84.2-.26.14-.51.32-.74.55v5.19h-1.73Z"/>
        <path class="cls-2" d="M198.62,28.93c0,.15-.03.29-.09.42-.06.13-.14.25-.24.34-.1.1-.22.18-.35.23s-.28.09-.43.09-.29-.03-.42-.09-.25-.14-.35-.23c-.1-.1-.18-.21-.23-.34-.06-.13-.09-.27-.09-.42s.03-.3.09-.43.14-.25.23-.35.21-.18.35-.24c.13-.06.27-.09.42-.09s.3.03.43.09c.14.06.25.14.35.24.1.1.18.21.24.35s.09.28.09.43ZM198.36,31.02v7.18h-1.73v-7.18h1.73Z"/>
        <path class="cls-2" d="M200.33,38.21v-10.4h1.73v4.1c.29-.3.61-.54.97-.72s.78-.27,1.26-.27c.39,0,.75.08,1.07.24s.6.4.84.7c.24.31.42.69.55,1.14.13.45.19.97.19,1.56,0,.54-.07,1.03-.22,1.49-.14.46-.35.85-.62,1.19-.27.34-.59.6-.97.79-.38.19-.81.28-1.28.28-.22,0-.42-.02-.6-.07-.18-.04-.35-.11-.5-.19-.15-.08-.29-.18-.42-.29-.13-.11-.25-.24-.37-.38l-.08.48c-.03.12-.08.21-.14.26-.07.05-.16.08-.28.08h-1.14ZM203.69,32.26c-.36,0-.67.08-.92.23-.25.15-.49.37-.71.64v3.22c.2.24.41.41.64.51.23.1.48.14.75.14s.5-.05.71-.15c.21-.1.39-.25.54-.45.15-.2.26-.45.34-.76.08-.31.12-.67.12-1.08s-.03-.78-.1-1.07c-.07-.29-.16-.53-.29-.71-.13-.18-.28-.32-.46-.4-.18-.08-.38-.13-.61-.13Z"/>
        <path class="cls-2" d="M210.13,27.8v10.4h-1.73v-10.4h1.73Z"/>
        <path class="cls-2" d="M215.05,30.91c.45,0,.87.07,1.25.22.38.14.71.36.98.63s.49.62.64,1.02c.15.4.23.87.23,1.38,0,.13,0,.24-.02.33-.01.09-.03.15-.06.2-.03.05-.07.08-.12.11-.05.02-.12.03-.2.03h-4.44c.05.74.25,1.28.59,1.62s.8.52,1.37.52c.28,0,.52-.03.72-.1s.38-.14.53-.22c.15-.08.28-.15.4-.22s.23-.1.33-.1c.07,0,.13.01.18.04.05.03.1.07.13.12l.5.63c-.19.22-.41.41-.64.56-.24.15-.49.27-.75.36-.26.09-.52.16-.79.19-.27.04-.53.06-.78.06-.5,0-.96-.08-1.39-.25s-.8-.41-1.12-.74c-.32-.32-.57-.73-.75-1.2-.18-.48-.27-1.03-.27-1.66,0-.49.08-.95.24-1.38.16-.43.39-.81.68-1.13.3-.32.66-.57,1.08-.76s.91-.28,1.45-.28ZM215.09,32.15c-.5,0-.9.14-1.18.43-.29.28-.47.69-.55,1.21h3.25c0-.22-.03-.44-.09-.63-.06-.2-.15-.37-.28-.52s-.29-.27-.48-.35c-.19-.09-.42-.13-.67-.13Z"/>
      </g>
      <g>
        <path class="cls-1" d="M33.96,23.75c-.01,1.45.03,3.27-.02,5.09-.05,1.62.51,3.05,1.53,4.31.16.19.31.39.45.6.36.56.32.96-.18,1.4-.71.62-1.43,1.22-2.14,1.82-.5.42-.99.85-1.49,1.26-.69.56-1.09.56-1.79.01-.95-.75-1.69-1.69-2.36-2.69-.25-.37-.27-.37-.6-.06-.98.95-1.99,1.86-3.26,2.39-2.67,1.11-5.39,1.33-8.14.33-2.36-.86-3.72-2.59-4.24-5-.36-1.64-.41-3.28.08-4.9.79-2.63,2.5-4.46,5-5.56,1.45-.64,2.99-.97,4.55-1.22,1.66-.26,3.34-.41,5.01-.56.15-.01.29-.05.28-.23-.01-.85.06-1.71-.08-2.56-.27-1.59-1.03-2.39-2.61-2.7-1.14-.22-2.24-.04-3.25.54-.92.52-1.42,1.35-1.68,2.36-.2.77-.48.99-1.27.92-1.51-.14-3.01-.3-4.52-.47-.75-.08-1.03-.51-.87-1.24.75-3.57,3-5.73,6.39-6.82,2.08-.67,4.22-.93,6.4-.71,1.96.2,3.87.64,5.55,1.73,1.79,1.15,2.77,2.82,3.09,4.9.17,1.09.14,2.19.15,3.28,0,1.13,0,2.27,0,3.78ZM26.66,26.86c0-.48,0-.97,0-1.45,0-.32-.08-.4-.39-.38-.44.03-.89.05-1.33.09-1.07.09-2.12.23-3.11.66-1.2.52-2.13,1.32-2.55,2.6-.35,1.06-.33,2.15-.01,3.21.27.89.84,1.54,1.71,1.9.96.39,1.89.25,2.79-.2,1.28-.64,1.98-1.75,2.45-3.04.4-1.09.41-2.24.44-3.38Z"/>
        <path class="cls-3" d="M23.08,47.96c-1.57,0-3.13-.1-4.69-.3-1.16-.15-2.31-.34-3.45-.6-.88-.2-1.75-.45-2.61-.72-1.31-.41-2.57-.91-3.82-1.47-2.06-.94-4-2.08-5.83-3.4-.84-.61-1.65-1.24-2.4-1.95-.16-.15-.36-.32-.24-.59.1-.23.35-.28.64-.13.94.48,1.88.98,2.84,1.43,1.81.87,3.67,1.6,5.59,2.21.95.3,1.91.59,2.87.83,1.11.28,2.23.52,3.36.72,1.22.22,2.45.4,3.69.52,2.09.19,4.19.27,6.29.17.93-.05,1.85-.1,2.78-.19,1.01-.1,2.03-.23,3.03-.41.84-.15,1.67-.31,2.5-.51.9-.22,1.79-.44,2.68-.7,1.06-.31,2.11-.66,3.15-1.06.5-.19.99-.42,1.5-.56.52-.15.89-.1,1.06.38.09.25-.02.43-.15.61-.24.32-.59.49-.92.7-.93.61-1.91,1.14-2.91,1.63-1.23.6-2.49,1.11-3.78,1.54-.82.28-1.65.53-2.49.74-.92.23-1.85.42-2.79.6-1.45.28-2.92.4-4.39.52-.5.04-1,0-1.51,0Z"/>
        <path class="cls-3" d="M41.42,39.62c-1.16-.03-2.27.15-3.39.24-.19.02-.42.1-.52-.12-.12-.26.07-.42.28-.56.75-.49,1.56-.82,2.43-1.03,1.03-.25,2.07-.35,3.12-.31.77.03,1.54.1,2.26.41.33.14.5.4.5.76-.02,1.99-.54,3.83-1.68,5.47-.33.48-.71.92-1.13,1.32-.08.08-.17.14-.26.2-.17.12-.36.21-.53.05-.16-.14-.07-.3,0-.48.44-1.13.91-2.26,1.22-3.44.11-.43.22-.87.24-1.31.03-.77-.27-.93-.97-1.11-.52-.13-1.05-.11-1.55-.11Z"/>
      </g>
      <g>
        <path class="cls-2" d="M111.48,2.85c0-.09.02-.17.05-.25.03-.08.08-.14.13-.2s.12-.1.2-.13c.08-.03.16-.05.25-.05s.17.02.24.05c.08.03.14.08.2.13s.1.12.13.2.05.16.05.25c0,.09-.02.17-.05.24-.03.08-.08.14-.13.2s-.12.1-.2.13c-.07.03-.16.05-.24.05s-.17-.02-.25-.05c-.08-.03-.14-.08-.2-.13s-.1-.12-.13-.2c-.03-.08-.05-.16-.05-.24ZM111.7,9.08v-2.71c0-.15,0-.3,0-.44s.01-.29.02-.43c0-.15.02-.29.04-.45.01-.15.03-.32.05-.49h.61c.02.17.04.34.05.49.01.15.03.3.04.45,0,.14.02.29.02.43s0,.29,0,.44v2.71h-.85Z"/>
        <path class="cls-2" d="M117.45,4.52v2.85h-.96v-2.85l-2.62-4.32h.85c.09,0,.16.02.21.07.05.04.09.1.13.16l1.64,2.79c.07.12.12.23.17.33s.09.21.12.31c.04-.1.08-.21.12-.31.04-.1.1-.21.17-.33l1.63-2.79c.03-.05.07-.1.12-.15.05-.05.12-.07.2-.07h.86l-2.63,4.32Z"/>
        <path class="cls-2" d="M123.92,7.37h-.4c-.09,0-.16-.01-.21-.04-.05-.03-.09-.08-.1-.17l-.1-.47c-.13.12-.26.23-.39.32s-.26.17-.4.24c-.14.06-.29.11-.45.15s-.33.05-.53.05-.38-.03-.55-.08c-.17-.05-.32-.14-.45-.25s-.23-.25-.3-.42-.11-.37-.11-.6c0-.2.05-.39.17-.58.11-.19.29-.35.53-.5.25-.14.57-.26.96-.35s.88-.14,1.46-.14v-.4c0-.4-.08-.7-.25-.9-.17-.2-.42-.3-.75-.3-.22,0-.4.03-.55.08s-.28.12-.38.18c-.11.07-.2.13-.28.19s-.16.08-.23.08c-.06,0-.11-.02-.16-.05-.04-.03-.08-.07-.11-.12l-.16-.28c.28-.27.58-.47.91-.61.32-.13.68-.2,1.07-.2.28,0,.54.05.76.14.22.09.4.22.55.39.15.17.26.37.34.61.08.24.12.5.12.78v3.24ZM121.61,6.82c.16,0,.3-.02.43-.05.13-.03.25-.08.37-.13s.22-.13.33-.21c.1-.08.21-.18.31-.28v-1.04c-.41,0-.76.03-1.04.08-.29.05-.52.12-.7.2s-.31.18-.39.3-.12.24-.12.38.02.25.06.35c.04.1.1.18.17.24.07.06.16.11.26.14.1.03.21.04.32.04Z"/>
        <path class="cls-2" d="M130.65,3.2s-.05.07-.08.08c-.03.02-.07.03-.12.03s-.1-.02-.16-.06c-.06-.04-.13-.09-.22-.14-.09-.05-.2-.1-.33-.14-.13-.04-.29-.06-.47-.06-.25,0-.46.04-.65.13-.19.09-.35.22-.48.38-.13.17-.23.37-.29.6-.07.24-.1.5-.1.79s.04.58.1.82c.07.24.17.44.29.6.13.16.28.29.46.37s.39.13.61.13.4-.03.54-.08.26-.11.35-.17c.09-.06.17-.12.23-.17.06-.05.12-.08.18-.08.08,0,.13.03.17.08l.25.33c-.22.27-.49.47-.82.59s-.68.19-1.04.19c-.32,0-.61-.06-.88-.18-.27-.12-.51-.29-.71-.51-.2-.22-.36-.49-.47-.82-.12-.32-.17-.69-.17-1.11,0-.38.05-.72.16-1.04.11-.32.26-.6.46-.83.2-.23.45-.41.75-.54.3-.13.64-.19,1.02-.19.35,0,.67.06.94.17s.51.28.72.49l-.24.32Z"/>
        <path class="cls-2" d="M135.59,7.37h-.4c-.09,0-.16-.01-.21-.04-.05-.03-.09-.08-.1-.17l-.1-.47c-.13.12-.26.23-.39.32s-.26.17-.4.24c-.14.06-.29.11-.45.15s-.33.05-.53.05-.38-.03-.55-.08c-.17-.05-.32-.14-.45-.25s-.23-.25-.3-.42-.11-.37-.11-.6c0-.2.05-.39.17-.58.11-.19.29-.35.53-.5.25-.14.57-.26.96-.35s.88-.14,1.46-.14v-.4c0-.4-.08-.7-.25-.9-.17-.2-.42-.3-.75-.3-.22,0-.4.03-.55.08s-.28.12-.38.18c-.11.07-.2.13-.28.19s-.16.08-.23.08c-.06,0-.11-.02-.16-.05-.04-.03-.08-.07-.11-.12l-.16-.28c.28-.27.58-.47.91-.61.32-.13.68-.2,1.07-.2.28,0,.54.05.76.14.22.09.4.22.55.39.15.17.26.37.34.61.08.24.12.5.12.78v3.24ZM133.28,6.82c.16,0,.3-.02.43-.05.13-.03.25-.08.37-.13s.22-.13.33-.21c.1-.08.21-.18.31-.28v-1.04c-.41,0-.76.03-1.04.08-.29.05-.52.12-.7.2s-.31.18-.39.3-.12.24-.12.38.02.25.06.35c.04.1.1.18.17.24.07.06.16.11.26.14.1.03.21.04.32.04Z"/>
        <path class="cls-2" d="M139.84,3.13c-.04.07-.1.11-.18.11-.05,0-.11-.02-.17-.05-.06-.04-.14-.08-.23-.12-.09-.04-.2-.09-.33-.12-.13-.04-.28-.06-.45-.06-.15,0-.28.02-.4.06-.12.04-.22.09-.31.16-.08.07-.15.14-.2.23-.04.09-.07.18-.07.29,0,.13.04.24.11.33s.17.16.3.22c.12.06.26.12.42.17.16.05.32.1.48.16.17.05.33.12.48.18.16.07.3.15.42.25.12.1.22.22.3.37.08.14.11.32.11.52,0,.23-.04.45-.12.65s-.21.37-.37.51c-.16.15-.36.26-.6.34-.24.08-.51.12-.82.12-.35,0-.67-.06-.96-.17-.29-.11-.53-.26-.73-.44l.21-.34s.06-.08.1-.1c.04-.02.08-.04.14-.04s.12.02.19.07c.07.05.15.1.24.16s.21.11.34.16c.14.05.3.07.51.07.17,0,.33-.02.46-.07.13-.04.24-.11.33-.18.09-.08.15-.17.19-.27.04-.1.06-.21.06-.32,0-.14-.04-.26-.11-.35s-.17-.17-.3-.24-.26-.12-.42-.17c-.16-.05-.32-.1-.48-.15-.17-.05-.33-.11-.49-.18s-.3-.15-.42-.26c-.12-.1-.22-.23-.3-.38-.08-.15-.11-.34-.11-.55,0-.19.04-.38.12-.56.08-.18.2-.33.35-.47.15-.14.34-.24.57-.32.22-.08.48-.12.76-.12.33,0,.63.05.9.16.26.1.49.25.69.43l-.2.32Z"/>
        <path class="cls-2" d="M142.47.71c0,.09-.02.17-.05.24-.04.07-.08.14-.14.2-.06.06-.13.1-.2.14-.08.03-.16.05-.25.05s-.17-.02-.24-.05c-.07-.03-.14-.08-.2-.14-.06-.06-.1-.12-.14-.2-.03-.08-.05-.16-.05-.24s.02-.17.05-.25.08-.15.14-.21c.06-.06.12-.1.2-.14.08-.03.16-.05.24-.05s.17.02.25.05c.08.03.14.08.2.14s.1.13.14.21.05.16.05.25ZM142.27,2.3v5.07h-.89V2.3h.89Z"/>
        <path class="cls-2" d="M144.2,6.82c0-.09.02-.17.05-.25.03-.08.08-.14.13-.2s.12-.1.2-.13c.08-.03.16-.05.25-.05s.17.02.25.05c.08.03.14.08.2.13s.1.12.13.2c.03.08.05.16.05.25s-.02.17-.05.25c-.03.08-.08.14-.13.2-.06.06-.12.1-.2.13-.08.03-.16.05-.25.05s-.17-.02-.25-.05c-.08-.03-.14-.08-.2-.13-.05-.06-.1-.12-.13-.2-.03-.08-.05-.16-.05-.25ZM145.26.2v2.86c0,.15,0,.3,0,.44,0,.14-.01.29-.02.43,0,.15-.02.29-.04.45-.01.15-.03.31-.05.49h-.61c-.02-.17-.04-.34-.05-.49-.01-.15-.03-.3-.04-.45,0-.14-.02-.29-.02-.43,0-.14,0-.29,0-.44V.2h.85Z"/>
        <path class="cls-2" d="M154.22.2v.82h-2.32v6.35h-.97V1.02h-2.33V.2h5.61Z"/>
        <path class="cls-2" d="M156.05,2.22c.3,0,.58.05.84.15s.48.25.67.44c.19.19.33.43.44.71.1.28.16.6.16.96,0,.14-.01.23-.04.28-.03.05-.09.07-.17.07h-3.37c0,.32.05.6.13.83.08.24.19.43.33.59s.31.28.5.36c.19.08.41.12.65.12.22,0,.42-.03.58-.08.16-.05.3-.11.42-.17.12-.06.21-.12.29-.17.08-.05.15-.08.2-.08.07,0,.13.03.17.08l.25.33c-.11.13-.24.25-.39.35s-.32.18-.49.24c-.18.06-.36.11-.54.14s-.37.05-.55.05c-.35,0-.67-.06-.97-.18s-.55-.29-.76-.52c-.21-.23-.38-.51-.5-.85-.12-.34-.18-.72-.18-1.16,0-.35.05-.68.16-.99s.26-.57.47-.8c.2-.22.45-.4.75-.53.29-.13.62-.19.99-.19ZM156.07,2.88c-.43,0-.77.12-1.01.37-.25.25-.4.59-.46,1.03h2.75c0-.21-.03-.4-.08-.57s-.14-.32-.25-.45c-.11-.12-.24-.22-.4-.29-.16-.07-.34-.1-.54-.1Z"/>
        <path class="cls-2" d="M161.42,7.37V3.06l-.56-.07c-.07-.02-.13-.04-.17-.08s-.07-.09-.07-.15v-.37h.8v-.49c0-.29.04-.55.12-.77.08-.22.2-.42.35-.57.15-.15.33-.27.55-.35.21-.08.45-.12.72-.12.23,0,.44.03.63.1l-.02.45c0,.07-.03.11-.08.12-.05.01-.13.02-.23.02h-.15c-.15,0-.29.02-.42.06s-.23.11-.32.2-.16.21-.21.36c-.05.15-.07.33-.07.54v.46h1.46v.64h-1.43v4.32h-.9Z"/>
        <path class="cls-2" d="M168.31,7.37h-.4c-.09,0-.16-.01-.21-.04-.05-.03-.09-.08-.1-.17l-.1-.47c-.13.12-.26.23-.39.32s-.26.17-.4.24c-.14.06-.29.11-.45.15s-.33.05-.53.05-.38-.03-.55-.08c-.17-.05-.32-.14-.45-.25s-.23-.25-.3-.42-.11-.37-.11-.6c0-.2.05-.39.17-.58.11-.19.29-.35.53-.5.25-.14.57-.26.96-.35s.88-.14,1.46-.14v-.4c0-.4-.08-.7-.25-.9-.17-.2-.42-.3-.75-.3-.22,0-.4.03-.55.08s-.28.12-.38.18c-.11.07-.2.13-.28.19s-.16.08-.23.08c-.06,0-.11-.02-.16-.05-.04-.03-.08-.07-.11-.12l-.16-.28c.28-.27.58-.47.91-.61.32-.13.68-.2,1.07-.2.28,0,.54.05.76.14.22.09.4.22.55.39.15.17.26.37.34.61.08.24.12.5.12.78v3.24ZM166,6.82c.16,0,.3-.02.43-.05.13-.03.25-.08.37-.13s.22-.13.33-.21c.1-.08.21-.18.31-.28v-1.04c-.41,0-.76.03-1.04.08-.29.05-.52.12-.7.2s-.31.18-.39.3-.12.24-.12.38.02.25.06.35c.04.1.1.18.17.24.07.06.16.11.26.14.1.03.21.04.32.04Z"/>
        <path class="cls-2" d="M170.65,0v7.37h-.89V0h.89Z"/>
        <path class="cls-2" d="M173.75,7.45c-.4,0-.71-.11-.92-.33s-.32-.54-.32-.96v-3.1h-.61c-.05,0-.1-.02-.13-.05-.04-.03-.06-.08-.06-.15v-.36l.83-.1.21-1.57s.03-.09.07-.12c.04-.03.08-.05.14-.05h.45v1.75h1.45v.64h-1.45v3.04c0,.21.05.37.16.48.1.1.24.15.4.15.09,0,.17-.01.24-.04s.13-.05.18-.08c.05-.03.09-.06.13-.08s.07-.04.09-.04c.05,0,.09.03.12.08l.26.42c-.15.14-.34.26-.56.34-.22.08-.44.12-.67.12Z"/>
        <path class="cls-2" d="M179.67,7.37h-.4c-.09,0-.16-.01-.21-.04-.05-.03-.09-.08-.1-.17l-.1-.47c-.13.12-.26.23-.39.32s-.26.17-.4.24c-.14.06-.29.11-.45.15s-.33.05-.53.05-.38-.03-.55-.08c-.17-.05-.32-.14-.45-.25s-.23-.25-.3-.42-.11-.37-.11-.6c0-.2.05-.39.17-.58.11-.19.29-.35.53-.5.25-.14.57-.26.96-.35s.88-.14,1.46-.14v-.4c0-.4-.08-.7-.25-.9-.17-.2-.42-.3-.75-.3-.22,0-.4.03-.55.08s-.28.12-.38.18c-.11.07-.2.13-.28.19s-.16.08-.23.08c-.06,0-.11-.02-.16-.05-.04-.03-.08-.07-.11-.12l-.16-.28c.28-.27.58-.47.91-.61.32-.13.68-.2,1.07-.2.28,0,.54.05.76.14.22.09.4.22.55.39.15.17.26.37.34.61.08.24.12.5.12.78v3.24ZM177.36,6.82c.16,0,.3-.02.43-.05.13-.03.25-.08.37-.13s.22-.13.33-.21c.1-.08.21-.18.31-.28v-1.04c-.41,0-.76.03-1.04.08-.29.05-.52.12-.7.2s-.31.18-.39.3-.12.24-.12.38.02.25.06.35c.04.1.1.18.17.24.07.06.16.11.26.14.1.03.21.04.32.04Z"/>
        <path class="cls-2" d="M181.02,7.37V2.3h.53c.13,0,.21.06.24.19l.07.55c.22-.24.47-.44.74-.59s.59-.22.94-.22c.28,0,.52.04.73.14s.39.22.53.39c.14.17.25.37.32.61.07.24.11.5.11.79v3.22h-.89v-3.22c0-.38-.09-.68-.26-.89-.18-.21-.44-.32-.8-.32-.26,0-.51.06-.74.19-.23.13-.44.3-.63.51v3.73h-.89Z"/>
        <path class="cls-2" d="M190.78.12c.3,0,.59.04.85.13.26.09.49.22.68.39.19.17.34.38.45.63.11.25.17.53.17.84,0,.27-.04.51-.12.74s-.19.44-.33.65-.29.41-.47.6c-.18.2-.37.39-.57.6l-1.88,1.93c.13-.04.27-.07.41-.09.14-.02.27-.03.39-.03h2.4c.1,0,.17.03.23.08s.08.13.08.22v.54h-4.78v-.3c0-.06.01-.13.04-.2.02-.07.07-.13.12-.18l2.29-2.31c.19-.19.36-.38.52-.56.16-.18.29-.36.4-.54s.2-.36.26-.55c.06-.18.09-.38.09-.59s-.03-.39-.1-.55c-.07-.16-.16-.29-.27-.39-.12-.1-.25-.18-.41-.23s-.33-.08-.5-.08-.35.03-.5.08c-.15.05-.29.13-.41.22-.12.1-.22.21-.3.34-.08.13-.14.27-.17.43-.03.1-.07.17-.12.21-.05.04-.12.07-.21.07-.02,0-.03,0-.05,0-.02,0-.04,0-.06,0l-.46-.08c.05-.33.14-.62.27-.87.13-.25.3-.46.51-.63s.44-.3.71-.39c.26-.09.55-.13.86-.13Z"/>
        <path class="cls-2" d="M199.08,3.79c0,.63-.07,1.17-.2,1.63-.14.46-.32.84-.55,1.14-.23.3-.51.52-.83.67-.32.15-.66.22-1.02.22s-.71-.07-1.02-.22c-.31-.15-.59-.37-.82-.67-.23-.3-.42-.68-.55-1.14-.13-.46-.2-1-.2-1.63s.07-1.17.2-1.63c.13-.46.32-.84.55-1.14s.51-.53.82-.67c.32-.15.66-.22,1.02-.22s.71.07,1.02.22c.32.15.59.37.83.67s.42.68.55,1.14c.13.46.2,1,.2,1.63ZM198.15,3.79c0-.55-.05-1.01-.14-1.38-.09-.37-.21-.67-.37-.9-.16-.23-.33-.39-.54-.49-.2-.1-.42-.15-.64-.15s-.43.05-.63.15c-.2.1-.38.26-.54.49-.15.23-.28.53-.37.9-.09.37-.14.83-.14,1.38s.05,1,.14,1.38.21.67.37.9c.15.23.33.39.54.49.2.1.42.15.63.15s.43-.05.64-.15c.2-.1.38-.26.54-.49.16-.23.28-.53.37-.9s.14-.83.14-1.38Z"/>
        <path class="cls-2" d="M202.04,7.37V2.3h.53c.13,0,.21.06.24.19l.07.52c.19-.23.4-.42.63-.56s.5-.22.81-.22c.34,0,.62.09.83.28.21.19.36.45.46.77.07-.18.16-.34.28-.48.12-.13.24-.24.39-.33.14-.09.3-.15.46-.19.16-.04.33-.06.49-.06.27,0,.5.04.71.13.21.08.39.21.53.37.15.16.26.36.33.6.08.24.11.51.11.82v3.22h-.89v-3.22c0-.4-.09-.7-.26-.9-.17-.2-.43-.31-.75-.31-.15,0-.29.03-.42.08s-.25.13-.35.23-.18.23-.24.38c-.06.15-.09.33-.09.53v3.22h-.89v-3.22c0-.41-.08-.71-.25-.91s-.4-.3-.71-.3c-.22,0-.42.06-.61.18-.19.12-.36.28-.52.48v3.78h-.89Z"/>
        <path class="cls-2" d="M212.3,2.22c.37,0,.7.06,1,.18.3.12.55.3.76.53.21.23.37.5.48.82.11.32.17.68.17,1.08s-.06.76-.17,1.08-.27.59-.48.82c-.21.23-.46.4-.76.52-.3.12-.63.18-1,.18s-.7-.06-1-.18c-.3-.12-.55-.3-.76-.52s-.37-.5-.48-.82-.17-.68-.17-1.08.06-.76.17-1.08c.11-.32.27-.6.48-.82.21-.23.46-.4.76-.53.3-.12.63-.18,1-.18ZM212.3,6.74c.5,0,.87-.17,1.12-.5.25-.33.37-.8.37-1.4s-.12-1.07-.37-1.41c-.25-.34-.62-.5-1.12-.5-.25,0-.47.04-.66.13-.19.09-.34.21-.47.38-.12.16-.22.36-.28.6-.06.24-.09.51-.09.81s.03.57.09.81c.06.24.16.44.28.6.12.16.28.29.47.37s.41.13.66.13Z"/>
        <path class="cls-2" d="M215.81,7.37V2.3h.53c.13,0,.21.06.24.19l.07.55c.22-.24.47-.44.74-.59s.59-.22.94-.22c.28,0,.52.04.73.14s.39.22.53.39c.14.17.25.37.32.61.07.24.11.5.11.79v3.22h-.89v-3.22c0-.38-.09-.68-.26-.89-.18-.21-.44-.32-.8-.32-.26,0-.51.06-.74.19-.23.13-.44.3-.63.51v3.73h-.89Z"/>
        <path class="cls-2" d="M223.37,2.22c.3,0,.58.05.84.15s.48.25.67.44c.19.19.33.43.44.71.1.28.16.6.16.96,0,.14-.01.23-.04.28-.03.05-.09.07-.17.07h-3.37c0,.32.05.6.13.83.08.24.19.43.33.59s.31.28.5.36c.19.08.41.12.65.12.22,0,.42-.03.58-.08.16-.05.3-.11.42-.17.12-.06.21-.12.29-.17.08-.05.15-.08.2-.08.07,0,.13.03.17.08l.25.33c-.11.13-.24.25-.39.35s-.32.18-.49.24c-.18.06-.36.11-.54.14s-.37.05-.55.05c-.35,0-.67-.06-.97-.18s-.55-.29-.76-.52c-.21-.23-.38-.51-.5-.85-.12-.34-.18-.72-.18-1.16,0-.35.05-.68.16-.99s.26-.57.47-.8c.2-.22.45-.4.75-.53.29-.13.62-.19.99-.19ZM223.39,2.88c-.43,0-.77.12-1.01.37-.25.25-.4.59-.46,1.03h2.75c0-.21-.03-.4-.08-.57s-.14-.32-.25-.45c-.11-.12-.24-.22-.4-.29-.16-.07-.34-.1-.54-.1Z"/>
        <path class="cls-2" d="M230.17,7.37c-.13,0-.21-.06-.24-.18l-.08-.62c-.22.26-.46.47-.74.63-.28.16-.6.24-.96.24-.29,0-.55-.06-.79-.17-.24-.11-.44-.28-.61-.49s-.29-.49-.38-.81c-.09-.32-.13-.69-.13-1.11,0-.37.05-.72.15-1.04.1-.32.24-.6.43-.84.19-.24.42-.42.69-.56.27-.14.58-.2.92-.2.31,0,.58.05.79.16.22.1.42.25.59.44V0h.89v7.37h-.53ZM228.45,6.71c.29,0,.54-.07.76-.2.22-.13.42-.32.6-.57v-2.45c-.16-.22-.34-.37-.54-.46-.2-.09-.41-.13-.65-.13-.47,0-.84.17-1.09.5-.25.34-.38.82-.38,1.44,0,.33.03.61.08.85.06.24.14.43.25.58.11.15.25.26.4.33.16.07.34.1.55.1Z"/>
        <path class="cls-2" d="M235.92,7.37h-.4c-.09,0-.16-.01-.21-.04-.05-.03-.09-.08-.1-.17l-.1-.47c-.13.12-.26.23-.39.32s-.26.17-.4.24c-.14.06-.29.11-.45.15s-.33.05-.53.05-.38-.03-.55-.08c-.17-.05-.32-.14-.45-.25s-.23-.25-.3-.42-.11-.37-.11-.6c0-.2.05-.39.17-.58.11-.19.29-.35.53-.5.25-.14.57-.26.96-.35s.88-.14,1.46-.14v-.4c0-.4-.08-.7-.25-.9-.17-.2-.42-.3-.75-.3-.22,0-.4.03-.55.08s-.28.12-.38.18c-.11.07-.2.13-.28.19s-.16.08-.23.08c-.06,0-.11-.02-.16-.05-.04-.03-.08-.07-.11-.12l-.16-.28c.28-.27.58-.47.91-.61.32-.13.68-.2,1.07-.2.28,0,.54.05.76.14.22.09.4.22.55.39.15.17.26.37.34.61.08.24.12.5.12.78v3.24ZM233.61,6.82c.16,0,.3-.02.43-.05.13-.03.25-.08.37-.13s.22-.13.33-.21c.1-.08.21-.18.31-.28v-1.04c-.41,0-.76.03-1.04.08-.29.05-.52.12-.7.2s-.31.18-.39.3-.12.24-.12.38.02.25.06.35c.04.1.1.18.17.24.07.06.16.11.26.14.1.03.21.04.32.04Z"/>
        <path class="cls-2" d="M240.17,3.13c-.04.07-.1.11-.18.11-.05,0-.11-.02-.17-.05-.06-.04-.14-.08-.23-.12-.09-.04-.2-.09-.33-.12-.13-.04-.28-.06-.45-.06-.15,0-.28.02-.4.06-.12.04-.22.09-.31.16-.08.07-.15.14-.2.23-.04.09-.07.18-.07.29,0,.13.04.24.11.33s.17.16.3.22c.12.06.26.12.42.17.16.05.32.1.48.16.17.05.33.12.48.18.16.07.3.15.42.25.12.1.22.22.3.37.08.14.11.32.11.52,0,.23-.04.45-.12.65s-.21.37-.37.51c-.16.15-.36.26-.6.34-.24.08-.51.12-.82.12-.35,0-.67-.06-.96-.17-.29-.11-.53-.26-.73-.44l.21-.34s.06-.08.1-.1c.04-.02.08-.04.14-.04s.12.02.19.07c.07.05.15.1.24.16s.21.11.34.16c.14.05.3.07.51.07.17,0,.33-.02.46-.07.13-.04.24-.11.33-.18.09-.08.15-.17.19-.27.04-.1.06-.21.06-.32,0-.14-.04-.26-.11-.35s-.17-.17-.3-.24-.26-.12-.42-.17c-.16-.05-.32-.1-.48-.15-.17-.05-.33-.11-.49-.18s-.3-.15-.42-.26c-.12-.1-.22-.23-.3-.38-.08-.15-.11-.34-.11-.55,0-.19.04-.38.12-.56.08-.18.2-.33.35-.47.15-.14.34-.24.57-.32.22-.08.48-.12.76-.12.33,0,.63.05.9.16.26.1.49.25.69.43l-.2.32Z"/>
      </g>
    </g>
  </g>
</svg>