<?xml version="1.0" encoding="UTF-8"?>
<svg id="Capa_2" data-name="Capa 2" xmlns="http://www.w3.org/2000/svg" viewBox="0 0 277.66 59.15">
  <defs>
    <style>
      .cls-1 {
        fill: #fdcd00;
      }

      .cls-1, .cls-2, .cls-3, .cls-4, .cls-5, .cls-6, .cls-7, .cls-8 {
        stroke-width: 0px;
      }

      .cls-2 {
        fill: #f2a317;
      }

      .cls-3 {
        fill: #f4b117;
      }

      .cls-4 {
        fill: #fff1c2;
      }

      .cls-5 {
        fill: #312614;
      }

      .cls-6 {
        fill: #1d1d1b;
      }

      .cls-7 {
        fill: #faf1ce;
      }

      .cls-8 {
        fill: #fff;
      }
    </style>
  </defs>
  <g id="Capa_1-2" data-name="Capa 1">
    <g>
      <g>
        <polygon class="cls-5" points="273.19 8.87 273.19 14.79 273.19 14.79 273.19 11.83 273.19 8.87 273.19 5.91 270.95 5.91 268.71 5.91 268.71 2.96 264.23 2.96 264.23 0 259.75 0 98.53 0 98.53 0 98.53 0 94.05 0 89.57 0 85.09 0 80.61 0 76.13 0 71.66 0 67.18 0 62.7 0 58.22 0 53.74 0 49.26 0 44.78 0 40.31 0 35.83 0 31.35 0 26.87 0 22.39 0 17.91 0 13.44 0 13.44 2.96 8.96 2.96 8.96 5.91 4.48 5.91 4.48 8.87 0 8.87 0 50.28 4.48 50.28 4.48 44.36 4.48 44.36 4.48 47.32 4.48 50.27 4.48 53.23 6.72 53.23 8.96 53.23 8.96 56.19 13.44 56.19 13.44 59.15 17.91 59.15 80.61 59.15 80.61 59.15 80.61 59.15 85.09 59.15 89.57 59.15 94.05 59.15 98.53 59.15 103 59.15 107.48 59.15 210.49 59.15 214.97 59.15 219.44 59.15 223.92 59.15 228.4 59.15 232.88 59.15 237.36 59.15 241.84 59.15 246.31 59.15 250.79 59.15 255.27 59.15 259.75 59.15 264.23 59.15 264.23 56.19 268.71 56.19 268.71 53.23 273.19 53.23 273.19 50.28 277.66 50.28 277.66 8.87 273.19 8.87"/>
        <polygon class="cls-4" points="266.47 11.83 264.23 11.83 264.23 8.87 259.75 8.87 259.75 5.91 255.27 5.91 103 5.91 103 5.91 103 5.91 98.53 5.91 94.05 5.91 89.57 5.91 85.09 5.91 80.61 5.91 76.13 5.91 71.66 5.91 67.18 5.91 62.7 5.91 58.22 5.91 53.74 5.91 49.26 5.91 44.78 5.91 40.31 5.91 35.83 5.91 31.35 5.91 26.87 5.91 22.39 5.91 17.91 5.91 17.91 8.87 13.44 8.87 13.44 11.83 8.96 11.83 8.96 14.79 8.96 17.74 8.96 20.7 8.96 23.66 8.96 44.36 8.96 47.32 13.44 47.32 13.44 50.27 17.91 50.27 17.91 50.88 17.91 53.23 22.39 53.23 26.87 53.23 31.35 53.23 35.83 53.23 40.31 53.23 44.78 53.23 49.26 53.23 53.74 53.23 53.74 53.23 76.13 53.23 80.61 53.23 85.09 53.23 89.57 53.23 94.05 53.23 98.53 53.23 103 53.23 103 53.23 255.27 53.23 259.75 53.23 259.75 50.27 264.23 50.27 264.23 47.32 266.47 47.32 268.71 47.32 268.71 44.36 268.71 23.66 268.71 20.7 268.71 17.74 268.71 14.79 268.71 11.83 266.47 11.83"/>
        <polygon class="cls-8" points="35.49 53.23 35.49 53.23 32.53 53.23 35.49 53.23"/>
        <polygon class="cls-3" points="259.75 8.87 259.75 5.91 255.27 5.91 250.79 5.91 250.79 8.87 255.27 8.87 259.75 8.87 259.75 11.83 264.23 11.83 264.23 8.87 259.75 8.87"/>
        <polygon class="cls-3" points="259.75 50.28 255.27 50.28 250.79 50.28 250.79 53.23 255.27 53.23 259.75 53.23 259.75 50.28 264.23 50.28 264.23 47.32 259.75 47.32 259.75 50.28"/>
        <g>
          <rect class="cls-3" x="13.44" y="8.87" width="4.48" height="2.96"/>
          <polygon class="cls-3" points="8.96 14.79 8.96 17.74 8.96 20.7 8.96 41.4 8.96 44.36 8.96 47.32 13.44 47.32 13.44 44.36 13.44 41.4 13.44 20.7 13.44 17.74 13.44 14.79 13.44 11.83 8.96 11.83 8.96 14.79"/>
          <rect class="cls-3" x="13.44" y="47.32" width="4.48" height="2.96"/>
          <polygon class="cls-3" points="264.23 11.83 264.23 14.79 264.23 17.74 264.23 20.7 264.23 41.4 264.23 44.36 264.23 47.32 268.71 47.32 268.71 44.36 268.71 41.4 268.71 20.7 268.71 17.74 268.71 14.79 268.71 11.83 264.23 11.83"/>
          <polygon class="cls-3" points="241.84 5.91 237.36 5.91 232.88 5.91 228.4 5.91 223.92 5.91 219.44 5.91 67.18 5.91 62.7 5.91 58.22 5.91 53.74 5.91 49.26 5.91 44.78 5.91 40.31 5.91 35.83 5.91 31.35 5.91 26.87 5.91 22.39 5.91 17.91 5.91 17.91 8.87 22.39 8.87 26.87 8.87 31.35 8.87 35.83 8.87 40.31 8.87 44.78 8.87 49.26 8.87 53.74 8.87 58.22 8.87 62.7 8.87 67.18 8.87 219.44 8.87 223.92 8.87 228.4 8.87 232.88 8.87 237.36 8.87 241.84 8.87 246.31 8.87 250.79 8.87 250.79 5.91 246.31 5.91 241.84 5.91"/>
          <polygon class="cls-3" points="22.39 53.23 26.87 53.23 31.35 53.23 35.83 53.23 40.31 53.23 44.78 53.23 49.26 53.23 53.74 53.23 219.44 53.23 223.92 53.23 228.4 53.23 230.64 53.23 232.88 53.23 237.36 53.23 241.84 53.23 246.31 53.23 250.79 53.23 250.79 50.28 246.31 50.28 241.84 50.28 237.36 50.28 232.88 50.28 230.64 50.28 228.4 50.28 223.92 50.28 219.44 50.28 53.74 50.28 49.26 50.28 44.78 50.28 40.31 50.28 35.83 50.28 31.35 50.28 26.87 50.28 22.39 50.28 17.91 50.28 17.91 53.23 22.39 53.23"/>
        </g>
      </g>
      <g>
        <rect class="cls-2" x="252.6" y="38.01" width=".72" height=".67"/>
        <rect class="cls-2" x="253.32" y="35.99" width=".72" height=".67"/>
        <rect class="cls-7" x="238.87" y="29.24" width=".72" height=".68"/>
        <polygon class="cls-2" points="256.21 27.21 255.49 27.21 254.77 27.21 254.05 27.21 254.05 27.89 254.05 28.56 254.05 29.24 254.05 29.91 254.05 30.59 254.05 31.26 254.05 31.94 254.05 32.61 254.05 33.29 254.05 33.96 254.05 34.64 253.32 34.64 253.32 35.31 253.32 35.99 254.05 35.99 254.05 36.66 253.32 36.66 253.32 35.99 252.6 35.99 252.6 36.66 251.88 36.66 251.88 37.34 251.15 37.34 251.15 38.01 251.15 38.68 250.43 38.68 249.71 38.68 249.71 39.36 248.99 39.36 248.99 40.03 248.26 40.03 247.54 40.03 247.54 40.71 248.26 40.71 248.99 40.71 249.71 40.71 250.43 40.71 250.43 40.03 251.15 40.03 251.88 40.03 251.88 39.36 252.6 39.36 252.6 38.68 252.6 38.01 253.32 38.01 253.32 38.68 254.05 38.68 254.05 38.01 254.05 37.34 254.77 37.34 254.77 36.66 255.49 36.66 255.49 35.99 255.49 35.31 256.21 35.31 256.21 34.64 256.21 33.96 256.94 33.96 256.94 33.29 256.94 32.61 256.94 31.94 256.94 31.26 256.94 30.59 256.94 29.91 256.94 29.24 256.94 28.56 256.94 27.89 256.94 27.21 256.21 27.21"/>
        <polygon class="cls-6" points="248.99 40.02 248.99 40.03 247.54 40.03 247.54 40.71 250.43 40.71 250.43 40.03 251.88 40.03 251.88 40.02 248.99 40.02"/>
        <rect class="cls-8" x="252.6" y="25.19" width=".72" height=".67"/>
        <g>
          <path class="cls-1" d="M252.6,27.21v-2.02h-.72v-.67h-.72v-.68h-.72v-.67h-.72v-.67h-.72v-.68h-1.45v-.68h-5.78v.68h-1.45v.68h-.72v.67h-.72v.67h-.72v.68h-.72v1.35h-.72v1.35h-.72v6.75h.72v1.35h.72v1.35h.72v.67h.72v.68h.72v.67h.72v.67h1.45v.68h5.78v-.68h1.45v-.67h.72v-.67h.72v-.68h.72v-.67h.72v-.67h.72v-1.35h.72v-7.42h-.72ZM238.87,27.89v-1.35h.72v-.68h.72v-.67h.72v-.67h.72v-.68h5.78v.68h.72v.67h.72v.67h.72v.68h.72v1.35h.72v5.4h-.72v1.35h-.72v.68h-.72v.68h-.72v.67h-.72v.67h-5.78v-.67h-.72v-.67h-.72v-.68h-.72v-.68h-.72v-1.35h-.72v-5.4h.72Z"/>
          <polygon class="cls-1" points="240.31 27.21 239.59 27.21 239.59 27.89 239.59 28.56 239.59 29.24 239.59 29.91 239.59 30.59 239.59 31.26 239.59 31.94 239.59 32.61 240.31 32.61 240.31 33.29 240.31 33.96 241.04 33.96 241.04 34.64 241.76 34.64 241.76 35.31 242.48 35.31 243.2 35.31 243.2 35.99 243.93 35.99 244.65 35.99 245.37 35.99 246.1 35.99 246.82 35.99 246.82 35.31 247.54 35.31 248.26 35.31 248.26 34.64 248.99 34.64 248.99 33.96 249.71 33.96 249.71 33.29 249.71 32.61 250.43 32.61 250.43 31.94 250.43 31.26 250.43 30.59 250.43 29.91 250.43 29.24 250.43 28.56 249.71 28.56 249.71 27.89 249.71 27.21 249.71 26.54 248.99 26.54 248.99 25.86 248.26 25.86 248.26 25.19 247.54 25.19 246.82 25.19 246.82 24.51 246.1 24.51 245.37 24.51 244.65 24.51 243.93 24.51 243.2 24.51 242.48 24.51 242.48 25.19 241.76 25.19 241.04 25.19 241.04 25.86 240.31 25.86 240.31 26.54 240.31 27.21"/>
        </g>
        <g>
          <polygon class="cls-2" points="255.49 25.19 255.49 24.51 255.49 23.84 254.77 23.84 254.77 24.51 254.05 24.51 253.32 24.51 253.32 25.19 253.32 25.86 253.32 26.54 254.05 26.54 254.05 25.86 254.77 25.86 255.49 25.86 255.49 26.54 255.49 27.21 256.21 27.21 256.21 26.54 256.21 25.86 256.21 25.19 255.49 25.19"/>
          <polygon class="cls-2" points="254.05 23.16 254.05 22.49 253.32 22.49 252.6 22.49 252.6 21.81 251.88 21.81 251.88 21.14 251.15 21.14 250.43 21.14 250.43 20.46 249.71 20.46 248.99 20.46 248.26 20.46 247.54 20.46 247.54 21.14 248.26 21.14 248.99 21.14 248.99 21.81 249.71 21.81 249.71 22.49 250.43 22.49 250.43 23.16 251.15 23.16 251.15 23.84 251.88 23.84 252.6 23.84 253.32 23.84 254.05 23.84 254.77 23.84 254.77 23.16 254.05 23.16"/>
        </g>
        <polygon class="cls-2" points="255.49 25.19 255.49 24.51 255.49 23.84 254.77 23.84 254.77 24.51 254.05 24.51 253.32 24.51 253.32 25.19 253.32 25.86 253.32 26.54 254.05 26.54 254.05 25.86 254.77 25.86 255.49 25.86 255.49 26.54 255.49 27.21 256.21 27.21 256.21 26.54 256.21 25.86 256.21 25.19 255.49 25.19"/>
        <polygon class="cls-6" points="255.49 25.19 255.49 24.51 255.49 23.84 254.77 23.84 254.77 23.84 254.77 23.84 254.77 24.51 254.77 25.19 255.49 25.19 255.49 25.86 255.49 25.86 255.49 26.54 255.49 27.21 256.21 27.21 256.21 26.54 256.21 25.86 256.21 25.19 255.49 25.19"/>
        <g>
          <rect class="cls-6" x="251.88" y="21.81" width=".72" height=".67"/>
          <polygon class="cls-6" points="252.6 23.16 253.32 23.16 254.05 23.16 254.05 22.49 253.32 22.49 252.6 22.49 252.6 23.16"/>
          <polygon class="cls-6" points="251.15 21.81 251.88 21.81 251.88 21.14 251.15 21.14 250.43 21.14 250.43 21.81 251.15 21.81"/>
          <rect class="cls-6" x="254.05" y="23.16" width=".72" height=".67"/>
          <polygon class="cls-6" points="248.26 21.14 248.26 21.14 248.99 21.14 248.99 21.14 249.71 21.14 250.43 21.14 250.43 20.46 249.71 20.46 248.99 20.46 248.26 20.46 247.54 20.46 247.54 21.14 247.54 21.14 248.26 21.14"/>
        </g>
        <g>
          <polygon class="cls-6" points="253.32 35.99 252.6 35.99 252.6 36.66 252.6 36.66 252.6 36.66 253.32 36.66 253.32 35.99"/>
          <polygon class="cls-6" points="256.21 27.21 255.49 27.21 255.49 27.21 255.49 27.21 256.21 27.21 256.21 27.89 256.21 28.56 256.21 29.24 256.21 29.91 256.21 30.59 256.21 31.26 256.21 31.94 256.21 32.61 256.21 33.29 256.21 33.96 256.94 33.96 256.94 33.29 256.94 32.61 256.94 31.94 256.94 31.26 256.94 30.59 256.94 29.91 256.94 29.24 256.94 28.56 256.94 27.89 256.94 27.21 256.21 27.21"/>
          <polygon class="cls-6" points="253.32 37.34 253.32 38.01 253.32 38.01 253.32 38.68 254.05 38.68 254.05 38.01 254.05 37.34 253.32 37.34"/>
          <rect class="cls-6" x="254.05" y="36.66" width=".72" height=".67"/>
          <polygon class="cls-6" points="255.49 33.96 255.49 34.64 255.49 35.31 254.77 35.31 254.77 35.99 254.77 36.66 255.49 36.66 255.49 35.99 255.49 35.31 256.21 35.31 256.21 34.64 256.21 33.96 255.49 33.96"/>
          <polygon class="cls-6" points="250.43 40.03 249.71 40.03 249.71 40.71 250.43 40.71 250.43 40.03 250.43 40.03"/>
          <polygon class="cls-6" points="252.6 38.68 252.6 38.01 251.88 38.01 251.88 38.68 251.88 39.36 252.6 39.36 252.6 38.68 252.6 38.68"/>
          <rect class="cls-6" x="251.15" y="39.36" width=".72" height=".68"/>
        </g>
        <g>
          <polygon class="cls-6" points="247.54 39.36 247.54 40.03 246.82 40.03 246.1 40.03 245.37 40.03 244.65 40.03 243.93 40.03 243.2 40.03 242.48 40.03 241.76 40.03 241.76 40.71 242.48 40.71 243.2 40.71 243.93 40.71 244.65 40.71 245.37 40.71 246.1 40.71 246.82 40.71 247.54 40.71 247.54 40.03 248.26 40.03 248.99 40.03 248.99 39.36 248.26 39.36 247.54 39.36"/>
          <rect class="cls-6" x="248.99" y="38.68" width=".72" height=".67"/>
          <polygon class="cls-6" points="250.43 38.01 249.71 38.01 249.71 38.68 250.43 38.68 251.15 38.68 251.15 38.01 251.15 37.34 250.43 37.34 250.43 38.01"/>
          <rect class="cls-6" x="251.15" y="36.66" width=".72" height=".67"/>
          <rect class="cls-6" x="251.88" y="35.99" width=".72" height=".67"/>
          <polygon class="cls-6" points="252.6 35.31 252.6 35.99 253.32 35.99 253.32 35.31 253.32 34.64 252.6 34.64 252.6 35.31"/>
          <polygon class="cls-6" points="253.32 27.89 253.32 28.56 253.32 29.24 253.32 29.91 253.32 30.59 253.32 31.26 253.32 31.94 253.32 32.61 253.32 33.29 253.32 33.96 253.32 34.64 254.05 34.64 254.05 33.96 254.05 33.29 254.05 32.61 254.05 31.94 254.05 31.26 254.05 30.59 254.05 29.91 254.05 29.24 254.05 28.56 254.05 27.89 253.32 27.89"/>
          <polygon class="cls-6" points="252.6 26.54 252.6 27.21 253.32 27.21 253.32 26.54 253.32 25.86 252.6 25.86 252.6 26.54"/>
          <rect class="cls-6" x="251.88" y="24.51" width=".72" height=".67"/>
          <rect class="cls-6" x="248.26" y="35.31" width=".72" height=".68"/>
          <polygon class="cls-6" points="249.71 27.89 249.71 28.56 250.43 28.56 250.43 28.56 250.43 29.24 250.43 29.91 250.43 30.59 250.43 31.26 250.43 31.94 250.43 32.61 250.43 32.61 249.71 32.61 249.71 33.29 249.71 33.96 248.99 33.96 248.99 34.64 248.99 35.31 249.71 35.31 249.71 34.64 250.43 34.64 250.43 33.96 250.43 33.29 251.15 33.29 251.15 32.61 251.15 31.94 251.15 31.26 251.15 30.59 251.15 29.91 251.15 29.24 251.15 28.56 251.15 27.89 250.43 27.89 250.43 27.89 250.43 27.21 250.43 26.54 249.71 26.54 249.71 27.21 249.71 27.89"/>
          <rect class="cls-6" x="248.99" y="25.86" width=".72" height=".68"/>
          <rect class="cls-6" x="248.26" y="25.19" width=".72" height=".67"/>
          <rect class="cls-6" x="251.15" y="23.84" width=".72" height=".68"/>
          <rect class="cls-6" x="250.43" y="23.16" width=".72" height=".67"/>
          <rect class="cls-6" x="249.71" y="22.49" width=".72" height=".68"/>
          <rect class="cls-6" x="248.99" y="21.81" width=".72" height=".67"/>
          <polygon class="cls-6" points="247.54 21.81 248.26 21.81 248.99 21.81 248.99 21.14 248.26 21.14 247.54 21.14 247.54 21.81"/>
          <polygon class="cls-6" points="241.04 39.36 240.31 39.36 240.31 40.03 241.04 40.03 241.76 40.03 241.76 39.36 241.04 39.36"/>
          <rect class="cls-6" x="239.59" y="38.68" width=".72" height=".67"/>
          <polygon class="cls-6" points="238.87 38.01 238.87 37.34 238.14 37.34 238.14 38.01 238.14 38.68 238.87 38.68 239.59 38.68 239.59 38.01 238.87 38.01"/>
          <rect class="cls-6" x="237.42" y="36.66" width=".72" height=".67"/>
          <polygon class="cls-6" points="242.48 37.34 243.2 37.34 243.93 37.34 244.65 37.34 245.37 37.34 246.1 37.34 246.82 37.34 247.54 37.34 247.54 36.66 248.26 36.66 248.26 35.99 247.54 35.99 246.82 35.99 246.82 36.66 246.1 36.66 245.37 36.66 244.65 36.66 243.93 36.66 243.2 36.66 242.48 36.66 242.48 35.99 241.76 35.99 241.04 35.99 241.04 36.66 241.76 36.66 241.76 37.34 242.48 37.34"/>
          <rect class="cls-6" x="240.31" y="35.31" width=".72" height=".68"/>
          <polygon class="cls-6" points="237.42 35.31 236.7 35.31 236.7 35.99 236.7 36.66 237.42 36.66 237.42 35.99 237.42 35.31"/>
          <polygon class="cls-6" points="236.7 33.96 235.98 33.96 235.98 34.64 235.98 35.31 236.7 35.31 236.7 34.64 236.7 33.96"/>
          <polygon class="cls-6" points="235.98 32.61 235.98 31.94 235.98 31.26 235.98 30.59 235.98 29.91 235.98 29.24 235.98 28.56 235.98 27.89 235.25 27.89 235.25 28.56 235.25 29.24 235.25 29.91 235.25 30.59 235.25 31.26 235.25 31.94 235.25 32.61 235.25 33.29 235.98 33.29 235.98 32.61"/>
          <polygon class="cls-6" points="240.31 33.96 239.59 33.96 239.59 33.29 239.59 32.61 238.87 32.61 238.87 31.94 238.87 31.26 238.87 30.59 238.87 29.91 238.87 29.24 238.87 28.56 239.59 28.56 239.59 27.89 239.59 27.21 240.31 27.21 240.31 26.54 240.31 25.86 239.59 25.86 239.59 26.54 238.87 26.54 238.87 27.21 238.87 27.89 238.14 27.89 238.14 28.56 238.14 29.24 238.14 29.91 238.14 30.59 238.14 31.26 238.14 31.94 238.14 32.61 238.14 33.29 238.87 33.29 238.87 33.96 238.87 34.64 239.59 34.64 239.59 35.31 240.31 35.31 240.31 34.64 240.31 33.96"/>
          <polygon class="cls-6" points="236.7 26.54 236.7 25.86 235.98 25.86 235.98 26.54 235.98 27.21 236.7 27.21 236.7 26.54"/>
          <rect class="cls-6" x="240.31" y="25.19" width=".72" height=".67"/>
          <polygon class="cls-6" points="237.42 25.19 237.42 24.51 236.7 24.51 236.7 25.19 236.7 25.86 237.42 25.86 237.42 25.19"/>
          <polygon class="cls-6" points="242.48 25.19 242.48 24.51 243.2 24.51 243.93 24.51 244.65 24.51 245.37 24.51 246.1 24.51 246.82 24.51 246.82 25.19 247.54 25.19 248.26 25.19 248.26 24.51 247.54 24.51 247.54 23.84 246.82 23.84 246.1 23.84 245.37 23.84 244.65 23.84 243.93 23.84 243.2 23.84 242.48 23.84 241.76 23.84 241.76 24.51 241.04 24.51 241.04 25.19 241.76 25.19 242.48 25.19"/>
          <rect class="cls-6" x="237.42" y="23.84" width=".72" height=".68"/>
          <rect class="cls-6" x="238.14" y="23.16" width=".72" height=".67"/>
          <rect class="cls-6" x="238.87" y="22.49" width=".72" height=".67"/>
          <rect class="cls-6" x="239.59" y="21.81" width=".72" height=".68"/>
          <polygon class="cls-6" points="241.76 21.81 241.76 21.14 241.04 21.14 240.31 21.14 240.31 21.81 241.04 21.81 241.76 21.81"/>
          <polygon class="cls-6" points="243.2 21.14 243.93 21.14 244.65 21.14 245.37 21.14 246.1 21.14 246.82 21.14 247.54 21.14 247.54 20.46 246.82 20.46 246.1 20.46 245.37 20.46 244.65 20.46 243.93 20.46 243.2 20.46 242.48 20.46 241.76 20.46 241.76 21.14 242.48 21.14 243.2 21.14"/>
        </g>
        <g>
          <polygon class="cls-8" points="254.77 25.86 254.05 25.86 254.05 26.54 253.32 26.54 253.32 27.21 253.32 27.89 254.05 27.89 254.05 27.21 254.77 27.21 255.49 27.21 255.49 26.54 255.49 25.86 254.77 25.86"/>
          <polygon class="cls-8" points="254.05 23.84 253.32 23.84 252.6 23.84 251.88 23.84 251.88 24.51 252.6 24.51 252.6 25.19 253.32 25.19 253.32 24.51 254.05 24.51 254.77 24.51 254.77 23.84 254.05 23.84"/>
          <polygon class="cls-8" points="245.37 35.99 244.65 35.99 243.93 35.99 243.2 35.99 243.2 35.31 242.48 35.31 241.76 35.31 241.76 34.64 241.04 34.64 241.04 33.96 240.31 33.96 240.31 34.64 240.31 35.31 241.04 35.31 241.04 35.99 241.76 35.99 242.48 35.99 242.48 36.66 243.2 36.66 243.93 36.66 244.65 36.66 245.37 36.66 246.1 36.66 246.82 36.66 246.82 35.99 246.1 35.99 245.37 35.99"/>
          <polygon class="cls-8" points="246.82 35.31 246.82 35.99 247.54 35.99 248.26 35.99 248.26 35.31 247.54 35.31 246.82 35.31"/>
          <rect class="cls-8" x="248.26" y="34.64" width=".72" height=".68"/>
          <polygon class="cls-8" points="240.31 32.61 239.59 32.61 239.59 33.29 239.59 33.96 240.31 33.96 240.31 33.29 240.31 32.61"/>
          <polygon class="cls-8" points="239.59 31.26 239.59 30.59 239.59 29.91 238.87 29.91 238.87 30.59 238.87 31.26 238.87 31.94 238.87 32.61 239.59 32.61 239.59 31.94 239.59 31.26"/>
          <rect class="cls-8" x="238.87" y="28.56" width=".72" height=".67"/>
        </g>
      </g>
      <g>
        <path class="cls-5" d="M25.05,26.12v-.77h6.16v1.54h1.54v1.54h-3.08v-1.54h-3.08v1.54h-1.54v4.62h1.54v1.54h3.08v-1.54h3.08v1.54h-1.54v1.54h-6.16v-1.54h-1.54v-1.54h-1.54v-4.62h1.54v-1.54h1.54v-.77Z"/>
        <path class="cls-5" d="M40.46,26.12v-.77h1.54v1.54h-1.54v1.54h3.08v1.54h1.54v4.62h-1.54v1.54h-7.71v-1.54h-1.54v-4.62h1.54v-1.54h3.08v-1.54h1.54v-.77ZM42,32.28v-2.31h-4.62v4.62h4.62v-2.31Z"/>
        <path class="cls-5" d="M46.63,32.28v-3.85h9.25v1.54h1.54v6.16h-3.08v-6.16h-1.54v6.16h-3.08v-6.16h-1.54v6.16h-1.54v-3.85Z"/>
        <path class="cls-5" d="M60.5,29.2v-.77h7.71v1.54h1.54v4.62h-1.54v1.54h-7.71v-1.54h-1.54v-4.62h1.54v-.77ZM66.66,32.28v-2.31h-4.62v4.62h4.62v-2.31Z"/>
      </g>
      <g>
        <path class="cls-5" d="M78.29,29.2v-.77h9.25v7.71h-1.54v1.54h-7.71v-1.54h6.16v-1.54h-6.16v-1.54h-1.54v-3.08h1.54v-.77ZM84.45,31.51v-1.54h-4.62v3.08h4.62v-1.54Z"/>
        <path class="cls-5" d="M90.62,29.2v-.77h7.71v1.54h1.54v6.16h-9.25v-1.54h-1.54v-1.54h1.54v-1.54h6.16v-1.54h-6.16v-.77ZM96.78,33.82v-.77h-4.62v1.54h4.62v-.77Z"/>
        <path class="cls-5" d="M101.4,32.28v-3.85h9.25v1.54h1.54v6.16h-3.08v-6.16h-4.62v6.16h-3.08v-3.85Z"/>
        <path class="cls-5" d="M115.27,29.2v-.77h7.71v1.54h1.54v6.16h-9.25v-1.54h-1.54v-1.54h1.54v-1.54h6.16v-1.54h-6.16v-.77ZM121.44,33.82v-.77h-4.62v1.54h4.62v-.77Z"/>
        <path class="cls-5" d="M127.6,32.28v-3.85h3.08v1.54h1.54v-1.54h4.62v1.54h-4.62v1.54h-1.54v4.62h-3.08v-3.85Z"/>
      </g>
      <g>
        <path class="cls-5" d="M143.06,32.28v-3.85h9.25v1.54h1.54v6.16h-3.08v-6.16h-1.54v6.16h-3.08v-6.16h-1.54v6.16h-1.54v-3.85Z"/>
        <path class="cls-5" d="M156.93,29.2v-.77h7.71v1.54h1.54v4.62h-1.54v1.54h-7.71v-1.54h-1.54v-4.62h1.54v-.77ZM163.1,32.28v-2.31h-4.62v4.62h4.62v-2.31Z"/>
        <path class="cls-5" d="M167.72,32.28v-3.85h9.25v1.54h1.54v6.16h-3.08v-6.16h-4.62v6.16h-3.08v-3.85Z"/>
        <path class="cls-5" d="M181.59,29.2v-.77h7.71v1.54h1.54v3.08h-7.71v1.54h6.16v1.54h-7.71v-1.54h-1.54v-4.62h1.54v-.77ZM187.75,30.74v-.77h-4.62v1.54h4.62v-.77Z"/>
        <path class="cls-5" d="M200.08,26.89v-1.54h3.08v10.79h-9.25v-1.54h-1.54v-4.62h1.54v-1.54h6.16v-1.54ZM200.08,32.28v-2.31h-4.62v4.62h4.62v-2.31Z"/>
        <path class="cls-5" d="M206.24,29.2v-.77h7.71v1.54h1.54v6.16h-9.25v-1.54h-1.54v-1.54h1.54v-1.54h6.16v-1.54h-6.16v-.77ZM212.41,33.82v-.77h-4.62v1.54h4.62v-.77Z"/>
        <path class="cls-5" d="M218.57,29.2v-.77h7.71v1.54h-6.16v1.54h6.16v1.54h1.54v1.54h-1.54v1.54h-9.25v-1.54h7.71v-1.54h-6.16v-1.54h-1.54v-1.54h1.54v-.77Z"/>
      </g>
    </g>
  </g>
</svg>