<?xml version="1.0" encoding="UTF-8"?>
<svg id="Capa_2" data-name="Capa 2" xmlns="http://www.w3.org/2000/svg" viewBox="0 0 183.36 59.15">
  <defs>
    <style>
      .cls-1 {
        fill: #f4b117;
      }

      .cls-1, .cls-2, .cls-3, .cls-4 {
        stroke-width: 0px;
      }

      .cls-2 {
        fill: #fff1c2;
      }

      .cls-3 {
        fill: #312614;
      }

      .cls-4 {
        fill: #fff;
      }
    </style>
  </defs>
  <g id="Capa_1-2" data-name="Capa 1">
    <g>
      <polygon class="cls-3" points="180.4 8.87 180.4 14.79 180.4 14.79 180.4 11.83 180.4 8.87 180.4 5.91 178.92 5.91 177.44 5.91 177.44 2.96 174.48 2.96 174.48 0 171.53 0 65.06 0 65.06 0 65.06 0 62.1 0 59.15 0 56.19 0 53.23 0 50.28 0 47.32 0 44.36 0 41.4 0 38.45 0 35.49 0 32.53 0 29.57 0 26.62 0 23.66 0 20.7 0 17.74 0 14.79 0 11.83 0 8.87 0 8.87 2.96 5.91 2.96 5.91 5.91 2.96 5.91 2.96 8.87 0 8.87 0 50.28 2.96 50.28 2.96 44.36 2.96 44.36 2.96 47.32 2.96 50.27 2.96 53.23 4.44 53.23 5.91 53.23 5.91 56.19 8.87 56.19 8.87 59.15 11.83 59.15 53.23 59.15 53.23 59.15 53.23 59.15 56.19 59.15 59.15 59.15 62.1 59.15 65.06 59.15 68.02 59.15 70.98 59.15 139 59.15 141.95 59.15 144.91 59.15 147.87 59.15 150.83 59.15 153.78 59.15 156.74 59.15 159.7 59.15 162.66 59.15 165.61 59.15 168.57 59.15 171.53 59.15 174.48 59.15 174.48 56.19 177.44 56.19 177.44 53.23 180.4 53.23 180.4 50.28 183.36 50.28 183.36 8.87 180.4 8.87"/>
      <polygon class="cls-2" points="175.96 11.83 174.48 11.83 174.48 8.87 171.53 8.87 171.53 5.91 168.57 5.91 68.02 5.91 68.02 5.91 68.02 5.91 65.06 5.91 62.1 5.91 59.15 5.91 56.19 5.91 53.23 5.91 50.28 5.91 47.32 5.91 44.36 5.91 41.4 5.91 38.45 5.91 35.49 5.91 32.53 5.91 29.57 5.91 26.62 5.91 23.66 5.91 20.7 5.91 17.74 5.91 14.79 5.91 11.83 5.91 11.83 8.87 8.87 8.87 8.87 11.83 5.91 11.83 5.91 14.79 5.91 17.74 5.91 20.7 5.91 23.66 5.91 44.36 5.91 47.32 8.87 47.32 8.87 50.27 11.83 50.27 11.83 50.88 11.83 53.23 14.79 53.23 17.74 53.23 20.7 53.23 23.66 53.23 26.62 53.23 29.57 53.23 32.53 53.23 35.49 53.23 35.49 53.23 50.28 53.23 53.23 53.23 56.19 53.23 59.15 53.23 62.1 53.23 65.06 53.23 68.02 53.23 68.02 53.23 168.57 53.23 171.53 53.23 171.53 50.27 174.48 50.27 174.48 47.32 175.96 47.32 177.44 47.32 177.44 44.36 177.44 23.66 177.44 20.7 177.44 17.74 177.44 14.79 177.44 11.83 175.96 11.83"/>
      <polygon class="cls-4" points="35.49 53.23 35.49 53.23 32.53 53.23 35.49 53.23"/>
      <polygon class="cls-1" points="171.53 8.87 171.53 5.91 168.57 5.91 165.61 5.91 165.61 8.87 168.57 8.87 171.53 8.87 171.53 11.83 174.48 11.83 174.48 8.87 171.53 8.87"/>
      <polygon class="cls-1" points="171.53 50.28 168.57 50.28 165.61 50.28 165.61 53.23 168.57 53.23 171.53 53.23 171.53 50.28 174.48 50.28 174.48 47.32 171.53 47.32 171.53 50.28"/>
      <g>
        <rect class="cls-1" x="8.87" y="8.87" width="2.96" height="2.96"/>
        <polygon class="cls-1" points="5.91 14.79 5.91 17.74 5.91 20.7 5.91 41.4 5.91 44.36 5.91 47.32 8.87 47.32 8.87 44.36 8.87 41.4 8.87 20.7 8.87 17.74 8.87 14.79 8.87 11.83 5.91 11.83 5.91 14.79"/>
        <rect class="cls-1" x="8.87" y="47.32" width="2.96" height="2.96"/>
        <polygon class="cls-1" points="174.48 11.83 174.48 14.79 174.48 17.74 174.48 20.7 174.48 41.4 174.48 44.36 174.48 47.32 177.44 47.32 177.44 44.36 177.44 41.4 177.44 20.7 177.44 17.74 177.44 14.79 177.44 11.83 174.48 11.83"/>
        <polygon class="cls-1" points="159.7 5.91 156.74 5.91 153.78 5.91 150.83 5.91 147.87 5.91 144.91 5.91 44.36 5.91 41.4 5.91 38.45 5.91 35.49 5.91 32.53 5.91 29.57 5.91 26.62 5.91 23.66 5.91 20.7 5.91 17.74 5.91 14.79 5.91 11.83 5.91 11.83 8.87 14.79 8.87 17.74 8.87 20.7 8.87 23.66 8.87 26.62 8.87 29.57 8.87 32.53 8.87 35.49 8.87 38.45 8.87 41.4 8.87 44.36 8.87 144.91 8.87 147.87 8.87 150.83 8.87 153.78 8.87 156.74 8.87 159.7 8.87 162.66 8.87 165.61 8.87 165.61 5.91 162.66 5.91 159.7 5.91"/>
        <polygon class="cls-1" points="14.79 53.23 17.74 53.23 20.7 53.23 23.66 53.23 26.62 53.23 29.57 53.23 32.53 53.23 35.49 53.23 144.91 53.23 147.87 53.23 150.83 53.23 152.3 53.23 153.78 53.23 156.74 53.23 159.7 53.23 162.66 53.23 165.61 53.23 165.61 50.28 162.66 50.28 159.7 50.28 156.74 50.28 153.78 50.28 152.3 50.28 150.83 50.28 147.87 50.28 144.91 50.28 35.49 50.28 32.53 50.28 29.57 50.28 26.62 50.28 23.66 50.28 20.7 50.28 17.74 50.28 14.79 50.28 11.83 50.28 11.83 53.23 14.79 53.23"/>
      </g>
      <g>
        <path class="cls-3" d="M23.81,23.41v-1.04h8.34v2.09h2.09v2.09h-4.17v-2.09h-4.17v2.09h-2.09v6.26h2.09v2.09h4.17v-2.09h4.17v2.09h-2.09v2.08h-8.34v-2.08h-2.08v-2.09h-2.09v-6.26h2.09v-2.09h2.08v-1.04Z"/>
        <path class="cls-3" d="M38.41,27.58v-1.04h10.43v2.08h2.09v6.26h-2.09v2.08h-10.43v-2.08h-2.09v-6.26h2.09v-1.04ZM46.75,31.75v-3.13h-6.26v6.26h6.26v-3.13Z"/>
        <path class="cls-3" d="M53.01,31.75v-5.21h12.51v2.08h2.09v8.34h-4.17v-8.34h-2.09v8.34h-4.17v-8.34h-2.08v8.34h-2.09v-5.21Z"/>
        <path class="cls-3" d="M71.78,27.58v-1.04h10.43v2.08h2.09v4.17h-10.43v2.09h8.34v2.08h-10.43v-2.08h-2.09v-6.26h2.09v-1.04ZM80.12,29.66v-1.04h-6.26v2.09h6.26v-1.04Z"/>
        <path class="cls-3" d="M86.38,31.75v-5.21h12.51v2.08h2.09v8.34h-4.17v-8.34h-6.26v8.34h-4.17v-5.21Z"/>
        <path class="cls-3" d="M103.06,27.58v-1.04h14.6v2.08h-2.09v2.09h-2.08v2.09h-2.09v2.09h6.26v2.08h-14.6v-2.08h2.09v-2.09h2.08v-2.09h2.09v-2.09h-6.26v-1.04Z"/>
        <path class="cls-3" d="M121.83,27.58v-1.04h10.43v2.08h2.09v8.34h-12.51v-2.08h-2.09v-2.09h2.09v-2.09h8.34v-2.09h-8.34v-1.04ZM130.18,33.83v-1.04h-6.26v2.09h6.26v-1.04Z"/>
        <path class="cls-3" d="M138.52,31.75v-5.21h4.17v2.08h2.09v-2.08h6.26v2.08h-6.26v2.09h-2.09v6.26h-4.17v-5.21Z"/>
      </g>
      <g>
        <polygon class="cls-1" points="167.01 30.29 167.01 28.41 165.13 28.41 165.13 26.53 163.25 26.53 163.25 24.65 161.37 24.65 161.37 22.77 159.49 22.77 159.49 24.65 157.61 24.65 157.61 37.81 159.49 37.81 159.49 39.69 161.37 39.69 161.37 37.81 163.25 37.81 163.25 35.93 165.13 35.93 165.13 34.05 167.01 34.05 167.01 32.17 168.89 32.17 168.89 30.29 167.01 30.29"/>
        <g>
          <rect class="cls-3" x="167.01" y="30.29" width="1.88" height="1.88"/>
          <rect class="cls-3" x="165.13" y="28.41" width="1.88" height="1.88"/>
          <rect class="cls-3" x="165.13" y="32.17" width="1.88" height="1.88"/>
          <rect class="cls-3" x="163.25" y="34.05" width="1.88" height="1.88"/>
          <rect class="cls-3" x="161.37" y="35.93" width="1.88" height="1.88"/>
          <rect class="cls-3" x="163.25" y="26.53" width="1.88" height="1.88"/>
          <rect class="cls-3" x="161.37" y="24.65" width="1.88" height="1.88"/>
          <rect class="cls-3" x="159.49" y="22.77" width="1.88" height="1.88"/>
          <rect class="cls-3" x="159.49" y="37.81" width="1.88" height="1.88"/>
          <rect class="cls-3" x="157.61" y="24.65" width="1.88" height="13.16"/>
        </g>
      </g>
    </g>
  </g>
</svg>