<?xml version="1.0" encoding="UTF-8"?>
<svg id="Capa_2" data-name="Capa 2" xmlns="http://www.w3.org/2000/svg" viewBox="0 0 319.98 86.95">
  <defs>
    <style>
      .cls-1 {
        fill: #fdcd00;
      }

      .cls-1, .cls-2, .cls-3, .cls-4, .cls-5, .cls-6, .cls-7, .cls-8, .cls-9, .cls-10, .cls-11, .cls-12, .cls-13 {
        stroke-width: 0px;
      }

      .cls-2 {
        fill: #f2a317;
      }

      .cls-3 {
        fill: #312614;
      }

      .cls-4 {
        fill: #f3cd02;
      }

      .cls-5 {
        fill: #1d1d1b;
      }

      .cls-6 {
        fill: #f3dd85;
      }

      .cls-7 {
        fill: #dcdcdc;
      }

      .cls-8 {
        fill: #000;
      }

      .cls-9 {
        fill: #faf1ce;
      }

      .cls-10 {
        fill: #1fb8d0;
      }

      .cls-11 {
        fill: #c4b094;
      }

      .cls-12 {
        fill: #fff;
      }

      .cls-13 {
        fill: #eba518;
      }
    </style>
  </defs>
  <g id="Capa_1-2" data-name="Capa 1">
    <rect class="cls-7" x="1.73" y="61.71" width="316.63" height="9.9" rx="4.95" ry="4.95"/>
    <g>
      <rect class="cls-13" x="318.36" y="40.68" width=".81" height=".81"/>
      <rect class="cls-13" x="317.55" y="39.87" width=".81" height=".81"/>
      <polygon class="cls-13" points="313.49 40.68 313.49 41.49 313.49 42.3 313.49 43.12 313.49 43.93 312.68 43.93 312.68 44.74 311.86 44.74 311.86 45.55 311.05 45.55 311.05 46.36 310.24 46.36 310.24 47.18 311.05 47.18 311.86 47.18 312.68 47.18 313.49 47.18 313.49 46.36 314.3 46.36 314.3 45.55 315.11 45.55 315.11 44.74 315.92 44.74 315.92 43.93 315.92 43.12 315.92 42.3 315.92 41.49 315.92 40.68 315.92 39.87 315.92 39.06 315.11 39.06 314.3 39.06 313.49 39.06 313.49 39.87 313.49 40.68"/>
      <polygon class="cls-13" points="313.49 52.86 312.68 52.86 312.68 53.67 313.49 53.67 314.3 53.67 315.11 53.67 315.11 52.86 314.3 52.86 313.49 52.86"/>
      <polygon class="cls-13" points="312.68 50.43 312.68 49.61 312.68 48.8 312.68 47.99 311.86 47.99 311.86 48.8 311.86 49.61 311.86 50.43 311.86 51.24 311.86 52.05 312.68 52.05 313.49 52.05 313.49 51.24 312.68 51.24 312.68 50.43"/>
      <rect class="cls-13" x="306.99" y="45.55" width=".81" height=".81"/>
      <rect class="cls-13" x="306.18" y="44.74" width=".81" height=".81"/>
      <polygon class="cls-4" points="319.17 43.12 319.17 42.3 319.17 41.49 318.36 41.49 318.36 42.3 318.36 43.12 318.36 43.93 318.36 44.74 319.17 44.74 319.17 43.93 319.17 43.12"/>
      <rect class="cls-4" x="317.55" y="40.68" width=".81" height=".81"/>
      <polygon class="cls-4" points="317.55 44.74 316.74 44.74 316.74 45.55 315.92 45.55 315.92 46.36 316.74 46.36 317.55 46.36 317.55 45.55 318.36 45.55 318.36 44.74 317.55 44.74"/>
      <polygon class="cls-4" points="309.43 39.87 308.61 39.87 308.61 40.68 308.61 41.49 308.61 42.3 308.61 43.12 308.61 43.93 309.43 43.93 309.43 44.74 310.24 44.74 310.24 45.55 310.24 46.36 311.05 46.36 311.05 45.55 311.86 45.55 311.86 44.74 312.68 44.74 312.68 43.93 313.49 43.93 313.49 43.12 313.49 42.3 313.49 41.49 313.49 40.68 313.49 39.87 313.49 39.06 312.68 39.06 311.86 39.06 311.05 39.06 310.24 39.06 310.24 39.87 309.43 39.87"/>
      <polygon class="cls-4" points="311.05 53.67 311.86 53.67 312.68 53.67 312.68 52.86 311.86 52.86 311.05 52.86 310.24 52.86 310.24 53.67 311.05 53.67"/>
      <rect class="cls-4" x="311.05" y="50.43" width=".81" height=".81"/>
      <polygon class="cls-4" points="311.86 48.8 311.86 47.99 311.05 47.99 311.05 48.8 311.05 49.61 311.86 49.61 311.86 48.8"/>
      <rect class="cls-4" x="306.18" y="45.55" width=".81" height=".81"/>
      <rect class="cls-4" x="306.18" y="39.87" width=".81" height=".81"/>
      <polygon class="cls-4" points="306.18 44.74 306.18 43.93 305.37 43.93 305.37 43.12 304.55 43.12 304.55 43.93 304.55 44.74 305.37 44.74 305.37 45.55 306.18 45.55 306.18 44.74"/>
      <rect class="cls-4" x="305.37" y="40.68" width=".81" height=".81"/>
      <rect class="cls-6" x="316.74" y="39.87" width=".81" height=".81"/>
      <rect class="cls-6" x="311.05" y="49.61" width=".81" height=".81"/>
      <polygon class="cls-6" points="311.05 52.05 311.86 52.05 311.86 51.24 311.05 51.24 310.24 51.24 310.24 52.05 311.05 52.05"/>
      <polygon class="cls-6" points="309.43 53.67 310.24 53.67 310.24 52.86 309.43 52.86 308.61 52.86 308.61 53.67 309.43 53.67"/>
      <polygon class="cls-6" points="308.61 45.55 309.43 45.55 309.43 46.36 310.24 46.36 310.24 45.55 310.24 44.74 309.43 44.74 309.43 43.93 308.61 43.93 308.61 43.12 308.61 42.3 308.61 41.49 308.61 40.68 308.61 39.87 309.43 39.87 310.24 39.87 310.24 39.06 309.43 39.06 308.61 39.06 307.8 39.06 307.8 39.87 307.8 40.68 307.8 41.49 307.8 42.3 307.8 43.12 307.8 43.93 307.8 44.74 308.61 44.74 308.61 45.55"/>
      <rect class="cls-6" x="305.37" y="39.87" width=".81" height=".81"/>
      <polygon class="cls-6" points="304.55 42.3 304.55 43.12 305.37 43.12 305.37 42.3 305.37 41.49 305.37 40.68 304.55 40.68 304.55 41.49 304.55 42.3"/>
      <rect class="cls-8" x="318.36" y="44.74" width=".81" height=".81"/>
      <rect class="cls-8" x="318.36" y="39.87" width=".81" height=".81"/>
      <rect class="cls-8" x="317.55" y="45.55" width=".81" height=".81"/>
      <path class="cls-8" d="M306.99,39.87v.81h-.81v.81h.81v2.44h-.81v.81h.81v.81h.81v.81h-1.62v.81h3.25v.81h.81v3.25h.81v-3.25h1.62v3.25h.81v-3.25h.81v-.81h3.25v-.81h-1.62v-.81h.81v-.81h1.62v-3.25h-.81v2.44h-.81v-2.44h.81v-.81h-.81v-.81h1.62v-.81h-1.62v-.81h-9.75v.81h-1.62v.81h1.62ZM307.8,43.93v-4.87h8.12v5.68h-.81v.81h-.81v.81h-.81v.81h-3.25v-.81h-.81v-.81h-.81v-.81h-.81v-.81Z"/>
      <polygon class="cls-8" points="314.3 53.67 313.49 53.67 312.68 53.67 311.86 53.67 311.05 53.67 310.24 53.67 309.43 53.67 308.61 53.67 308.61 52.86 307.8 52.86 307.8 53.67 307.8 53.9 307.8 54.49 308.61 54.49 309.43 54.49 310.24 54.49 311.05 54.49 311.86 54.49 312.68 54.49 313.49 54.49 314.3 54.49 315.11 54.49 315.92 54.49 315.92 53.9 315.92 53.67 315.92 52.86 315.11 52.86 315.11 53.67 314.3 53.67"/>
      <polygon class="cls-8" points="312.68 52.05 311.86 52.05 311.05 52.05 310.24 52.05 310.24 51.24 309.43 51.24 309.43 52.05 308.61 52.05 308.61 52.86 309.43 52.86 310.24 52.86 311.05 52.86 311.86 52.86 312.68 52.86 313.49 52.86 314.3 52.86 315.11 52.86 315.11 52.05 314.3 52.05 314.3 51.24 313.49 51.24 313.49 52.05 312.68 52.05"/>
      <rect class="cls-8" x="305.37" y="45.55" width=".81" height=".81"/>
      <polygon class="cls-8" points="306.18 43.93 306.18 43.12 306.18 42.3 306.18 41.49 305.37 41.49 305.37 42.3 305.37 43.12 305.37 43.93 306.18 43.93"/>
      <rect class="cls-8" x="304.55" y="44.74" width=".81" height=".81"/>
      <rect class="cls-8" x="304.55" y="39.87" width=".81" height=".81"/>
      <polygon class="cls-8" points="303.74 42.3 303.74 43.12 303.74 43.93 303.74 44.74 304.55 44.74 304.55 43.93 304.55 43.12 304.55 42.3 304.55 41.49 304.55 40.68 303.74 40.68 303.74 41.48 303.74 41.49 303.74 42.3"/>
      <polygon class="cls-8" points="319.17 42.3 319.17 43.12 319.17 43.93 319.17 44.74 319.98 44.74 319.98 43.93 319.98 43.12 319.98 42.3 319.98 41.49 319.98 40.68 319.17 40.68 319.17 41.48 319.17 41.49 319.17 42.3"/>
    </g>
    <g>
      <rect class="cls-2" x="160.76" y="21.06" width=".87" height=".81"/>
      <rect class="cls-2" x="161.63" y="18.63" width=".87" height=".81"/>
      <rect class="cls-9" x="144.28" y="10.53" width=".87" height=".81"/>
      <polygon class="cls-2" points="165.1 8.1 164.23 8.1 163.36 8.1 162.5 8.1 162.5 8.91 162.5 9.72 162.5 10.53 162.5 11.34 162.5 12.15 162.5 12.96 162.5 13.77 162.5 14.58 162.5 15.39 162.5 16.2 162.5 17.01 161.63 17.01 161.63 17.82 161.63 18.63 162.5 18.63 162.5 19.44 161.63 19.44 161.63 18.63 160.76 18.63 160.76 19.44 159.89 19.44 159.89 20.25 159.03 20.25 159.03 21.06 159.03 21.87 158.16 21.87 157.29 21.87 157.29 22.68 156.42 22.68 156.42 23.49 155.56 23.49 154.69 23.49 154.69 24.3 155.56 24.3 156.42 24.3 157.29 24.3 158.16 24.3 158.16 23.49 159.03 23.49 159.89 23.49 159.89 22.68 160.76 22.68 160.76 21.87 160.76 21.06 161.63 21.06 161.63 21.87 162.5 21.87 162.5 21.06 162.5 20.25 163.36 20.25 163.36 19.44 164.23 19.44 164.23 18.63 164.23 17.82 165.1 17.82 165.1 17.01 165.1 16.2 165.96 16.2 165.96 15.39 165.96 14.58 165.96 13.77 165.96 12.96 165.96 12.15 165.96 11.34 165.96 10.53 165.96 9.72 165.96 8.91 165.96 8.1 165.1 8.1"/>
      <polygon class="cls-5" points="156.42 23.47 156.42 23.49 154.69 23.49 154.69 24.3 158.16 24.3 158.16 23.49 159.89 23.49 159.89 23.47 156.42 23.47"/>
      <rect class="cls-12" x="160.76" y="5.67" width=".87" height=".81"/>
      <g>
        <path class="cls-1" d="M160.76,8.1v-2.43h-.87v-.81h-.87v-.81h-.87v-.81h-.87v-.81h-.87v-.81h-1.73v-.81h-6.94v.81h-1.73v.81h-.87v.81h-.87v.81h-.87v.81h-.87v1.62h-.87v1.62h-.87v8.1h.87v1.62h.87v1.62h.87v.81h.87v.81h.87v.81h.87v.81h1.73v.81h6.94v-.81h1.73v-.81h.87v-.81h.87v-.81h.87v-.81h.87v-.81h.87v-1.62h.87v-8.91h-.87ZM144.28,8.91v-1.62h.87v-.81h.87v-.81h.87v-.81h.87v-.81h6.94v.81h.87v.81h.87v.81h.87v.81h.87v1.62h.87v6.48h-.87v1.62h-.87v.81h-.87v.81h-.87v.81h-.87v.81h-6.94v-.81h-.87v-.81h-.87v-.81h-.87v-.81h-.87v-1.62h-.87v-6.48h.87Z"/>
        <polygon class="cls-1" points="146.01 8.1 145.15 8.1 145.15 8.91 145.15 9.72 145.15 10.53 145.15 11.34 145.15 12.15 145.15 12.96 145.15 13.77 145.15 14.58 146.01 14.58 146.01 15.39 146.01 16.2 146.88 16.2 146.88 17.01 147.75 17.01 147.75 17.82 148.62 17.82 149.48 17.82 149.48 18.63 150.35 18.63 151.22 18.63 152.09 18.63 152.95 18.63 153.82 18.63 153.82 17.82 154.69 17.82 155.56 17.82 155.56 17.01 156.42 17.01 156.42 16.2 157.29 16.2 157.29 15.39 157.29 14.58 158.16 14.58 158.16 13.77 158.16 12.96 158.16 12.15 158.16 11.34 158.16 10.53 158.16 9.72 157.29 9.72 157.29 8.91 157.29 8.1 157.29 7.29 156.42 7.29 156.42 6.48 155.56 6.48 155.56 5.67 154.69 5.67 153.82 5.67 153.82 4.86 152.95 4.86 152.09 4.86 151.22 4.86 150.35 4.86 149.48 4.86 148.62 4.86 148.62 5.67 147.75 5.67 146.88 5.67 146.88 6.48 146.01 6.48 146.01 7.29 146.01 8.1"/>
      </g>
      <g>
        <polygon class="cls-2" points="164.23 5.67 164.23 4.86 164.23 4.05 163.36 4.05 163.36 4.86 162.5 4.86 161.63 4.86 161.63 5.67 161.63 6.48 161.63 7.29 162.5 7.29 162.5 6.48 163.36 6.48 164.23 6.48 164.23 7.29 164.23 8.1 165.1 8.1 165.1 7.29 165.1 6.48 165.1 5.67 164.23 5.67"/>
        <polygon class="cls-2" points="162.5 3.24 162.5 2.43 161.63 2.43 160.76 2.43 160.76 1.62 159.89 1.62 159.89 .81 159.03 .81 158.16 .81 158.16 0 157.29 0 156.42 0 155.56 0 154.69 0 154.69 .81 155.56 .81 156.42 .81 156.42 1.62 157.29 1.62 157.29 2.43 158.16 2.43 158.16 3.24 159.03 3.24 159.03 4.05 159.89 4.05 160.76 4.05 161.63 4.05 162.5 4.05 163.36 4.05 163.36 3.24 162.5 3.24"/>
      </g>
      <polygon class="cls-2" points="164.23 5.67 164.23 4.86 164.23 4.05 163.36 4.05 163.36 4.86 162.5 4.86 161.63 4.86 161.63 5.67 161.63 6.48 161.63 7.29 162.5 7.29 162.5 6.48 163.36 6.48 164.23 6.48 164.23 7.29 164.23 8.1 165.1 8.1 165.1 7.29 165.1 6.48 165.1 5.67 164.23 5.67"/>
      <polygon class="cls-5" points="164.23 5.67 164.23 4.86 164.23 4.05 163.36 4.05 163.36 4.05 163.36 4.05 163.36 4.86 163.36 5.67 164.23 5.67 164.23 6.48 164.23 6.48 164.23 7.29 164.23 8.1 165.1 8.1 165.1 7.29 165.1 6.48 165.1 5.67 164.23 5.67"/>
      <g>
        <rect class="cls-5" x="159.89" y="1.62" width=".87" height=".81"/>
        <polygon class="cls-5" points="160.76 3.24 161.63 3.24 162.5 3.24 162.5 2.43 161.63 2.43 160.76 2.43 160.76 3.24"/>
        <polygon class="cls-5" points="159.03 1.62 159.89 1.62 159.89 .81 159.03 .81 158.16 .81 158.16 1.62 159.03 1.62"/>
        <rect class="cls-5" x="162.5" y="3.24" width=".87" height=".81"/>
        <polygon class="cls-5" points="155.56 .81 155.56 .81 156.42 .81 156.42 .81 157.29 .81 158.16 .81 158.16 0 157.29 0 156.42 0 155.56 0 154.69 0 154.69 .81 154.69 .81 155.56 .81"/>
      </g>
      <g>
        <polygon class="cls-5" points="161.63 18.63 160.76 18.63 160.76 19.44 160.76 19.44 160.76 19.44 161.63 19.44 161.63 18.63"/>
        <polygon class="cls-5" points="165.1 8.1 164.23 8.1 164.23 8.1 164.23 8.1 165.1 8.1 165.1 8.91 165.1 9.72 165.1 10.53 165.1 11.34 165.1 12.15 165.1 12.96 165.1 13.77 165.1 14.58 165.1 15.39 165.1 16.2 165.96 16.2 165.96 15.39 165.96 14.58 165.96 13.77 165.96 12.96 165.96 12.15 165.96 11.34 165.96 10.53 165.96 9.72 165.96 8.91 165.96 8.1 165.1 8.1"/>
        <polygon class="cls-5" points="161.63 20.25 161.63 21.06 161.63 21.06 161.63 21.87 162.5 21.87 162.5 21.06 162.5 20.25 161.63 20.25"/>
        <rect class="cls-5" x="162.5" y="19.44" width=".87" height=".81"/>
        <polygon class="cls-5" points="164.23 16.2 164.23 17.01 164.23 17.82 163.36 17.82 163.36 18.63 163.36 19.44 164.23 19.44 164.23 18.63 164.23 17.82 165.1 17.82 165.1 17.01 165.1 16.2 164.23 16.2"/>
        <polygon class="cls-5" points="158.16 23.49 157.29 23.49 157.29 24.3 158.16 24.3 158.16 23.49 158.16 23.49"/>
        <polygon class="cls-5" points="160.76 21.87 160.76 21.06 159.89 21.06 159.89 21.87 159.89 22.68 160.76 22.68 160.76 21.87 160.76 21.87"/>
        <rect class="cls-5" x="159.03" y="22.68" width=".87" height=".81"/>
      </g>
      <g>
        <polygon class="cls-5" points="154.69 22.68 154.69 23.49 153.82 23.49 152.95 23.49 152.09 23.49 151.22 23.49 150.35 23.49 149.48 23.49 148.62 23.49 147.75 23.49 147.75 24.3 148.62 24.3 149.48 24.3 150.35 24.3 151.22 24.3 152.09 24.3 152.95 24.3 153.82 24.3 154.69 24.3 154.69 23.49 155.56 23.49 156.42 23.49 156.42 22.68 155.56 22.68 154.69 22.68"/>
        <rect class="cls-5" x="156.42" y="21.87" width=".87" height=".81"/>
        <polygon class="cls-5" points="158.16 21.06 157.29 21.06 157.29 21.87 158.16 21.87 159.03 21.87 159.03 21.06 159.03 20.25 158.16 20.25 158.16 21.06"/>
        <rect class="cls-5" x="159.03" y="19.44" width=".87" height=".81"/>
        <rect class="cls-5" x="159.89" y="18.63" width=".87" height=".81"/>
        <polygon class="cls-5" points="160.76 17.82 160.76 18.63 161.63 18.63 161.63 17.82 161.63 17.01 160.76 17.01 160.76 17.82"/>
        <polygon class="cls-5" points="161.63 8.91 161.63 9.72 161.63 10.53 161.63 11.34 161.63 12.15 161.63 12.96 161.63 13.77 161.63 14.58 161.63 15.39 161.63 16.2 161.63 17.01 162.5 17.01 162.5 16.2 162.5 15.39 162.5 14.58 162.5 13.77 162.5 12.96 162.5 12.15 162.5 11.34 162.5 10.53 162.5 9.72 162.5 8.91 161.63 8.91"/>
        <polygon class="cls-5" points="160.76 7.29 160.76 8.1 161.63 8.1 161.63 7.29 161.63 6.48 160.76 6.48 160.76 7.29"/>
        <rect class="cls-5" x="159.89" y="4.86" width=".87" height=".81"/>
        <rect class="cls-5" x="155.56" y="17.82" width=".87" height=".81"/>
        <polygon class="cls-5" points="157.29 8.91 157.29 9.72 158.16 9.72 158.16 9.72 158.16 10.53 158.16 11.34 158.16 12.15 158.16 12.96 158.16 13.77 158.16 14.58 158.16 14.58 157.29 14.58 157.29 15.39 157.29 16.2 156.42 16.2 156.42 17.01 156.42 17.82 157.29 17.82 157.29 17.01 158.16 17.01 158.16 16.2 158.16 15.39 159.03 15.39 159.03 14.58 159.03 13.77 159.03 12.96 159.03 12.15 159.03 11.34 159.03 10.53 159.03 9.72 159.03 8.91 158.16 8.91 158.16 8.91 158.16 8.1 158.16 7.29 157.29 7.29 157.29 8.1 157.29 8.91"/>
        <rect class="cls-5" x="156.42" y="6.48" width=".87" height=".81"/>
        <rect class="cls-5" x="155.56" y="5.67" width=".87" height=".81"/>
        <rect class="cls-5" x="159.03" y="4.05" width=".87" height=".81"/>
        <rect class="cls-5" x="158.16" y="3.24" width=".87" height=".81"/>
        <rect class="cls-5" x="157.29" y="2.43" width=".87" height=".81"/>
        <rect class="cls-5" x="156.42" y="1.62" width=".87" height=".81"/>
        <polygon class="cls-5" points="154.69 1.62 155.56 1.62 156.42 1.62 156.42 .81 155.56 .81 154.69 .81 154.69 1.62"/>
        <polygon class="cls-5" points="146.88 22.68 146.01 22.68 146.01 23.49 146.88 23.49 147.75 23.49 147.75 22.68 146.88 22.68"/>
        <rect class="cls-5" x="145.15" y="21.87" width=".87" height=".81"/>
        <polygon class="cls-5" points="144.28 21.06 144.28 20.25 143.41 20.25 143.41 21.06 143.41 21.87 144.28 21.87 145.15 21.87 145.15 21.06 144.28 21.06"/>
        <rect class="cls-5" x="142.55" y="19.44" width=".87" height=".81"/>
        <polygon class="cls-5" points="148.62 20.25 149.48 20.25 150.35 20.25 151.22 20.25 152.09 20.25 152.95 20.25 153.82 20.25 154.69 20.25 154.69 19.44 155.56 19.44 155.56 18.63 154.69 18.63 153.82 18.63 153.82 19.44 152.95 19.44 152.09 19.44 151.22 19.44 150.35 19.44 149.48 19.44 148.62 19.44 148.62 18.63 147.75 18.63 146.88 18.63 146.88 19.44 147.75 19.44 147.75 20.25 148.62 20.25"/>
        <rect class="cls-5" x="146.01" y="17.82" width=".87" height=".81"/>
        <polygon class="cls-5" points="142.55 17.82 141.68 17.82 141.68 18.63 141.68 19.44 142.55 19.44 142.55 18.63 142.55 17.82"/>
        <polygon class="cls-5" points="141.68 16.2 140.81 16.2 140.81 17.01 140.81 17.82 141.68 17.82 141.68 17.01 141.68 16.2"/>
        <polygon class="cls-5" points="140.81 14.58 140.81 13.77 140.81 12.96 140.81 12.15 140.81 11.34 140.81 10.53 140.81 9.72 140.81 8.91 139.94 8.91 139.94 9.72 139.94 10.53 139.94 11.34 139.94 12.15 139.94 12.96 139.94 13.77 139.94 14.58 139.94 15.39 140.81 15.39 140.81 14.58"/>
        <polygon class="cls-5" points="146.01 16.2 145.15 16.2 145.15 15.39 145.15 14.58 144.28 14.58 144.28 13.77 144.28 12.96 144.28 12.15 144.28 11.34 144.28 10.53 144.28 9.72 145.15 9.72 145.15 8.91 145.15 8.1 146.01 8.1 146.01 7.29 146.01 6.48 145.15 6.48 145.15 7.29 144.28 7.29 144.28 8.1 144.28 8.91 143.41 8.91 143.41 9.72 143.41 10.53 143.41 11.34 143.41 12.15 143.41 12.96 143.41 13.77 143.41 14.58 143.41 15.39 144.28 15.39 144.28 16.2 144.28 17.01 145.15 17.01 145.15 17.82 146.01 17.82 146.01 17.01 146.01 16.2"/>
        <polygon class="cls-5" points="141.68 7.29 141.68 6.48 140.81 6.48 140.81 7.29 140.81 8.1 141.68 8.1 141.68 7.29"/>
        <rect class="cls-5" x="146.01" y="5.67" width=".87" height=".81"/>
        <polygon class="cls-5" points="142.55 5.67 142.55 4.86 141.68 4.86 141.68 5.67 141.68 6.48 142.55 6.48 142.55 5.67"/>
        <polygon class="cls-5" points="148.62 5.67 148.62 4.86 149.48 4.86 150.35 4.86 151.22 4.86 152.09 4.86 152.95 4.86 153.82 4.86 153.82 5.67 154.69 5.67 155.56 5.67 155.56 4.86 154.69 4.86 154.69 4.05 153.82 4.05 152.95 4.05 152.09 4.05 151.22 4.05 150.35 4.05 149.48 4.05 148.62 4.05 147.75 4.05 147.75 4.86 146.88 4.86 146.88 5.67 147.75 5.67 148.62 5.67"/>
        <rect class="cls-5" x="142.55" y="4.05" width=".87" height=".81"/>
        <rect class="cls-5" x="143.41" y="3.24" width=".87" height=".81"/>
        <rect class="cls-5" x="144.28" y="2.43" width=".87" height=".81"/>
        <rect class="cls-5" x="145.15" y="1.62" width=".87" height=".81"/>
        <polygon class="cls-5" points="147.75 1.62 147.75 .81 146.88 .81 146.01 .81 146.01 1.62 146.88 1.62 147.75 1.62"/>
        <polygon class="cls-5" points="149.48 .81 150.35 .81 151.22 .81 152.09 .81 152.95 .81 153.82 .81 154.69 .81 154.69 0 153.82 0 152.95 0 152.09 0 151.22 0 150.35 0 149.48 0 148.62 0 147.75 0 147.75 .81 148.62 .81 149.48 .81"/>
      </g>
      <g>
        <polygon class="cls-12" points="163.36 6.48 162.5 6.48 162.5 7.29 161.63 7.29 161.63 8.1 161.63 8.91 162.5 8.91 162.5 8.1 163.36 8.1 164.23 8.1 164.23 7.29 164.23 6.48 163.36 6.48"/>
        <polygon class="cls-12" points="162.5 4.05 161.63 4.05 160.76 4.05 159.89 4.05 159.89 4.86 160.76 4.86 160.76 5.67 161.63 5.67 161.63 4.86 162.5 4.86 163.36 4.86 163.36 4.05 162.5 4.05"/>
        <polygon class="cls-12" points="152.09 18.63 151.22 18.63 150.35 18.63 149.48 18.63 149.48 17.82 148.62 17.82 147.75 17.82 147.75 17.01 146.88 17.01 146.88 16.2 146.01 16.2 146.01 17.01 146.01 17.82 146.88 17.82 146.88 18.63 147.75 18.63 148.62 18.63 148.62 19.44 149.48 19.44 150.35 19.44 151.22 19.44 152.09 19.44 152.95 19.44 153.82 19.44 153.82 18.63 152.95 18.63 152.09 18.63"/>
        <polygon class="cls-12" points="153.82 17.82 153.82 18.63 154.69 18.63 155.56 18.63 155.56 17.82 154.69 17.82 153.82 17.82"/>
        <rect class="cls-12" x="155.56" y="17.01" width=".87" height=".81"/>
        <polygon class="cls-12" points="146.01 14.58 145.15 14.58 145.15 15.39 145.15 16.2 146.01 16.2 146.01 15.39 146.01 14.58"/>
        <polygon class="cls-12" points="145.15 12.96 145.15 12.15 145.15 11.34 144.28 11.34 144.28 12.15 144.28 12.96 144.28 13.77 144.28 14.58 145.15 14.58 145.15 13.77 145.15 12.96"/>
        <rect class="cls-12" x="144.28" y="9.72" width=".87" height=".81"/>
      </g>
    </g>
    <g>
      <path class="cls-11" d="M3.71,8.35v-.93h9.28v1.86h-7.43v1.86h-1.86v5.57h1.86v1.86h3.71v-3.71h-1.86v-1.86h5.57v7.43H3.71v-1.86h-1.86v-1.86H0v-5.57h1.86v-1.86h1.86v-.93Z"/>
      <path class="cls-11" d="M16.71,12.06v-.93h9.28v1.86h1.86v7.43h-11.14v-1.86h-1.86v-1.86h1.86v-1.86h7.43v-1.86h-7.43v-.93ZM24.13,17.63v-.93h-5.57v1.86h5.57v-.93Z"/>
      <path class="cls-11" d="M29.7,15.77v-4.64h11.14v1.86h1.86v7.43h-3.71v-7.43h-5.57v7.43h-3.71v-4.64Z"/>
      <path class="cls-11" d="M46.41,12.06v-.93h9.28v1.86h1.86v7.43h-11.14v-1.86h-1.86v-1.86h1.86v-1.86h7.43v-1.86h-7.43v-.93ZM53.84,17.63v-.93h-5.57v1.86h5.57v-.93Z"/>
      <path class="cls-11" d="M61.26,12.06v-.93h9.28v1.86h-7.43v1.86h7.43v1.86h1.86v1.86h-1.86v1.86h-11.14v-1.86h9.28v-1.86h-7.43v-1.86h-1.86v-1.86h1.86v-.93Z"/>
      <path class="cls-11" d="M79.83,9.28v-1.86h3.71v3.71h3.71v1.86h-3.71v7.43h-3.71v-7.43h-3.71v-1.86h3.71v-1.86Z"/>
      <path class="cls-11" d="M90.96,12.06v-.93h9.28v1.86h1.86v3.71h-9.28v1.86h7.43v1.86h-9.28v-1.86h-1.86v-5.57h1.86v-.93ZM98.39,13.92v-.93h-5.57v1.86h5.57v-.93Z"/>
      <path class="cls-11" d="M120.67,8.35v-.93h7.43v1.86h1.86v3.71h-1.86v1.86h3.71v3.71h-1.86v1.86h-9.28v-1.86h-1.86v-3.71h1.86v-1.86h-1.86v-3.71h1.86v-.93ZM124.38,15.77v-.93h-3.71v3.71h7.43v-1.86h-3.71v-.93ZM128.09,11.13v-1.86h-5.57v1.86h1.86v1.86h3.71v-1.86Z"/>
    </g>
    <g>
      <path class="cls-3" d="M5.46,7.03v-.93h9.28v1.86h-7.43v1.86h-1.86v5.57h1.86v1.86h3.71v-3.71h-1.86v-1.86h5.57v7.43H5.46v-1.86h-1.86v-1.86h-1.86v-5.57h1.86v-1.86h1.86v-.93Z"/>
      <path class="cls-3" d="M18.45,10.74v-.93h9.28v1.86h1.86v7.43h-11.14v-1.86h-1.86v-1.86h1.86v-1.86h7.43v-1.86h-7.43v-.93ZM25.88,16.31v-.93h-5.57v1.86h5.57v-.93Z"/>
      <path class="cls-3" d="M31.45,14.45v-4.64h11.14v1.86h1.86v7.43h-3.71v-7.43h-5.57v7.43h-3.71v-4.64Z"/>
      <path class="cls-3" d="M48.15,10.74v-.93h9.28v1.86h1.86v7.43h-11.14v-1.86h-1.86v-1.86h1.86v-1.86h7.43v-1.86h-7.43v-.93ZM55.58,16.31v-.93h-5.57v1.86h5.57v-.93Z"/>
      <path class="cls-3" d="M63.01,10.74v-.93h9.28v1.86h-7.43v1.86h7.43v1.86h1.86v1.86h-1.86v1.86h-11.14v-1.86h9.28v-1.86h-7.43v-1.86h-1.86v-1.86h1.86v-.93Z"/>
      <path class="cls-3" d="M81.57,7.95v-1.86h3.71v3.71h3.71v1.86h-3.71v7.43h-3.71v-7.43h-3.71v-1.86h3.71v-1.86Z"/>
      <path class="cls-3" d="M92.71,10.74v-.93h9.28v1.86h1.86v3.71h-9.28v1.86h7.43v1.86h-9.28v-1.86h-1.86v-5.57h1.86v-.93ZM100.13,12.6v-.93h-5.57v1.86h5.57v-.93Z"/>
      <path class="cls-3" d="M122.41,7.03v-.93h7.43v1.86h1.86v3.71h-1.86v1.86h3.71v3.71h-1.86v1.86h-9.28v-1.86h-1.86v-3.71h1.86v-1.86h-1.86v-3.71h1.86v-.93ZM126.12,14.45v-.93h-3.71v3.71h7.43v-1.86h-3.71v-.93ZM129.84,9.81v-1.86h-5.57v1.86h1.86v1.86h3.71v-1.86Z"/>
    </g>
    <circle class="cls-10" cx="223.11" cy="67.52" r="12.81"/>
    <rect class="cls-10" x="1.73" y="61.71" width="226" height="9.9" rx="4.18" ry="4.18"/>
    <g>
      <path class="cls-5" d="M4.23,83.72c.53-.48.94-.94,1.21-1.36.28-.42.41-.84.41-1.25,0-.44-.14-.77-.43-1-.28-.22-.68-.34-1.18-.34-.34,0-.71.05-1.1.16-.39.1-.77.24-1.14.42l.47-1.78c.36-.15.74-.27,1.14-.37.4-.09.79-.14,1.18-.14.58,0,1.09.1,1.53.31s.79.5,1.04.88.38.83.38,1.36c0,.88-.34,1.7-1.01,2.45-.68.76-1.58,1.49-2.72,2.19h4.01l-.19,1.57H2.12l-.1-1.3c.94-.73,1.68-1.33,2.21-1.82Z"/>
      <path class="cls-5" d="M9.98,86.87c-.45-.06-.8-.12-1.04-.2l-.23-1.58c.34.11.71.2,1.11.28.4.07.76.11,1.1.11.59,0,1.07-.11,1.43-.33.36-.22.55-.55.55-.99,0-.58-.33-.99-1-1.24s-1.64-.38-2.91-.38v-4.33h5.2l.2,1.57h-3.56v1.97c1.28.04,2.26.28,2.94.72.68.44,1.02,1.07,1.02,1.9s-.33,1.47-.98,1.93c-.65.45-1.51.68-2.59.68-.38,0-.79-.03-1.24-.08Z"/>
    </g>
    <g>
      <path class="cls-5" d="M304.59,86.75c-.45-.06-.8-.12-1.04-.2l-.23-1.58c.34.11.71.2,1.11.28.4.07.76.11,1.1.11.59,0,1.07-.11,1.43-.33.36-.22.55-.55.55-.99,0-.58-.33-.99-1-1.24s-1.64-.38-2.91-.38v-4.33h5.2l.2,1.57h-3.56v1.97c1.28.04,2.26.28,2.94.72.68.44,1.02,1.07,1.02,1.9s-.33,1.47-.98,1.93c-.65.45-1.51.68-2.59.68-.38,0-.79-.03-1.24-.08Z"/>
      <path class="cls-5" d="M311.73,86.28c-.51-.36-.9-.87-1.16-1.53s-.4-1.42-.4-2.29.13-1.66.4-2.34.66-1.21,1.19-1.6c.53-.38,1.17-.58,1.93-.58,1.09,0,1.93.39,2.51,1.17s.88,1.84.88,3.19c0,.88-.13,1.66-.39,2.34-.26.68-.65,1.21-1.17,1.6-.52.39-1.16.58-1.92.58s-1.36-.18-1.87-.55ZM312.41,84.48c.28.48.69.73,1.24.73,1.07,0,1.61-.95,1.61-2.86,0-.91-.13-1.6-.38-2.08-.25-.47-.65-.71-1.21-.71s-1,.25-1.27.74c-.27.5-.41,1.18-.41,2.06s.14,1.62.41,2.11Z"/>
    </g>
  </g>
</svg>