<?xml version="1.0" encoding="UTF-8"?>
<svg id="Capa_1" data-name="Capa 1" xmlns="http://www.w3.org/2000/svg" viewBox="0 0 159.61 39.04">
  <defs>
    <style>
      .cls-1 {
        fill: #fdf1c7;
      }

      .cls-1, .cls-2, .cls-3 {
        stroke-width: 0px;
      }

      .cls-4 {
        fill: #010101;
        font-family: PressStart2P, 'Press Start 2P';
        font-size: 10.1px;
        letter-spacing: -.04em;
      }

      .cls-2 {
        fill: #eab442;
      }

      .cls-3 {
        fill: #2f2616;
      }
    </style>
  </defs>
  <polygon class="cls-3" points="15.51 33.23 143.32 33.23 143.32 25.67 146.53 25.67 146.53 18.11 146.53 17.89 146.53 10.33 143.32 10.33 143.32 2.55 15.51 2.55 15.51 10.33 12.31 10.33 12.31 17.89 12.31 18.11 12.31 25.67 15.51 25.67 15.51 33.23"/>
  <polygon class="cls-2" points="18.23 29.41 140.6 29.41 140.6 23.54 143.67 23.54 143.67 17.66 143.67 17.5 143.67 11.62 140.6 11.62 140.6 5.58 18.23 5.58 18.23 11.62 15.16 11.62 15.16 17.5 15.16 17.66 15.16 23.54 18.23 23.54 18.23 29.41"/>
  <polygon class="cls-1" points="18.23 32.4 140.6 32.4 140.6 26.52 143.67 26.52 143.67 20.65 143.67 20.48 143.67 14.61 140.6 14.61 140.6 8.56 18.23 8.56 18.23 14.61 15.16 14.61 15.16 20.48 15.16 20.65 15.16 26.52 18.23 26.52 18.23 32.4"/>
  <text class="cls-4" transform="translate(47.64 25.98) scale(.98 1)"><tspan x="0" y="0">Ingresa</tspan></text>
</svg>