<svg width="32" height="32" viewBox="0 0 32 32" fill="none" xmlns="http://www.w3.org/2000/svg">
<path fill-rule="evenodd" clip-rule="evenodd" d="M7 11H25C26.65 11 28 9.65 28 8C28 6.35 26.65 5 25 5H7C5.35 5 4 6.35 4 8C4 9.65 5.35 11 7 11ZM6 8C6 7.45 6.45 7 7 7H25C25.55 7 26 7.45 26 8C26 8.55 25.55 9 25 9H7C6.45 9 6 8.55 6 8ZM25 19H7C5.35 19 4 17.65 4 16C4 14.35 5.35 13 7 13H25C26.65 13 28 14.35 28 16C28 17.65 26.65 19 25 19ZM7 15C6.45 15 6 15.45 6 16C6 16.55 6.45 17 7 17H25C25.55 17 26 16.55 26 16C26 15.45 25.55 15 25 15H7ZM25 27H7C5.35 27 4 25.65 4 24C4 22.35 5.35 21 7 21H25C26.65 21 28 22.35 28 24C28 25.65 26.65 27 25 27ZM7 23C6.45 23 6 23.45 6 24C6 24.55 6.45 25 7 25H25C25.55 25 26 24.55 26 24C26 23.45 25.55 23 25 23H7Z" fill="#003765"/>
</svg>
