<?xml version="1.0" encoding="UTF-8"?>
<svg id="Capa_2" data-name="Capa 2" xmlns="http://www.w3.org/2000/svg" viewBox="0 0 285.67 162.6">
  <defs>
    <style>
      .cls-1 {
        fill: #fdcd00;
      }

      .cls-1, .cls-2, .cls-3, .cls-4, .cls-5, .cls-6, .cls-7, .cls-8, .cls-9, .cls-10 {
        stroke-width: 0px;
      }

      .cls-2 {
        fill: #f2a317;
      }

      .cls-3 {
        fill: #010101;
      }

      .cls-4 {
        fill: #f4b117;
      }

      .cls-5 {
        fill: #fff1c2;
      }

      .cls-6 {
        fill: #312614;
      }

      .cls-7 {
        fill: #1d1d1b;
      }

      .cls-8 {
        fill: #14395f;
      }

      .cls-9 {
        fill: #faf1ce;
      }

      .cls-10 {
        fill: #fff;
      }
    </style>
  </defs>
  <g id="Capa_1-2" data-name="Capa 1">
    <g>
      <path class="cls-8" d="M37.13,50.72c-.61.38-.92.9-.92,1.54,0,.52.19.94.58,1.26s.9.47,1.55.47c.82,0,1.69-.22,2.61-.67l-.61,2.16c-.86.41-1.75.61-2.67.61-.81,0-1.52-.15-2.14-.46-.61-.3-1.08-.72-1.41-1.26s-.49-1.14-.49-1.82c0-.9.27-1.65.82-2.26s1.23-1.08,2.06-1.42c.83-.33,1.7-.54,2.61-.62l.27,1.74c-.9.11-1.65.35-2.26.74ZM36.82,44.65c.26-.24.61-.36,1.06-.36s.76.11,1,.34c.24.22.36.54.36.94s-.13.74-.38.98c-.26.24-.61.36-1.06.36s-.76-.11-1-.34-.36-.55-.36-.95.13-.73.38-.97Z"/>
      <path class="cls-8" d="M43.77,52.89c-.83-.39-1.49-1.01-1.98-1.86-.49-.85-.74-1.94-.74-3.27s.26-2.51.78-3.43c.52-.92,1.21-1.6,2.06-2.04.85-.44,1.78-.66,2.79-.66.88,0,1.65.16,2.32.48l.19,2.32c-.37-.15-.73-.27-1.06-.35-.33-.08-.68-.13-1.06-.13-1,0-1.83.31-2.48.92-.65.61-.98,1.54-.98,2.79,0,1.17.3,2.05.9,2.62.6.58,1.43.86,2.47.86.38,0,.79-.04,1.22-.12s.81-.2,1.14-.36l-.3,2.4c-.75.27-1.57.4-2.48.4-1.05,0-1.98-.19-2.81-.58Z"/>
      <path class="cls-8" d="M52.58,52.94c-.65-.36-1.14-.87-1.5-1.54-.35-.67-.53-1.47-.53-2.38s.17-1.72.52-2.44.85-1.29,1.51-1.7c.66-.41,1.45-.62,2.37-.62.86,0,1.62.19,2.26.57.65.38,1.14.91,1.5,1.6.35.69.53,1.49.53,2.39s-.17,1.7-.51,2.4c-.34.7-.84,1.26-1.5,1.66-.66.4-1.45.6-2.37.6s-1.63-.18-2.28-.54ZM53.6,50.86c.31.44.75.66,1.31.66s1.03-.23,1.32-.7c.29-.46.44-1.13.44-1.99s-.14-1.49-.43-1.94-.72-.68-1.3-.68-1.05.23-1.35.7c-.3.47-.46,1.13-.46,1.98s.16,1.52.46,1.96ZM55.55,39.81h2.82l-2.69,3.31h-1.62l1.49-3.31Z"/>
      <path class="cls-8" d="M61.12,44.42h1.74l.7,2.56v6.34h-2.45v-8.9ZM72.01,46.72c-.24-.32-.65-.48-1.24-.48s-1.13.25-1.58.74c.01.06.02.17.02.32v6.02h-2.45v-5.18c0-.62-.12-1.09-.36-1.41-.24-.32-.65-.48-1.24-.48s-1.13.25-1.58.74c.2-.82.57-1.48,1.1-1.98.53-.5,1.18-.74,1.96-.74s1.39.24,1.82.72c.44.48.68,1.14.74,1.98.21-.82.58-1.48,1.1-1.97.52-.49,1.17-.74,1.95-.74.83,0,1.47.27,1.91.82.44.54.66,1.29.66,2.22v6.02h-2.45v-5.18c0-.62-.12-1.09-.36-1.41Z"/>
      <path class="cls-8" d="M78.5,52.94c-.65-.36-1.14-.87-1.5-1.54-.35-.67-.53-1.47-.53-2.38s.17-1.72.52-2.44.85-1.29,1.51-1.7c.66-.41,1.45-.62,2.37-.62.86,0,1.62.19,2.26.57.65.38,1.14.91,1.5,1.6.35.69.53,1.49.53,2.39s-.17,1.7-.51,2.4c-.34.7-.84,1.26-1.5,1.66-.66.4-1.45.6-2.37.6s-1.63-.18-2.28-.54ZM79.52,50.86c.31.44.75.66,1.31.66s1.03-.23,1.32-.7c.29-.46.44-1.13.44-1.99s-.14-1.49-.43-1.94-.72-.68-1.3-.68-1.05.23-1.35.7c-.3.47-.46,1.13-.46,1.98s.16,1.52.46,1.96Z"/>
      <path class="cls-8" d="M90.45,56.38c-.75-.3-1.12-.76-1.12-1.37,0-.45.21-.82.64-1.13.43-.3,1.01-.49,1.76-.55-.17.18-.26.39-.26.62,0,.45.18.77.53.96.35.19.88.29,1.6.29s1.29-.09,1.71-.28c.43-.19.64-.47.64-.84,0-.48-.4-.72-1.2-.72h-2.46c-.65,0-1.19-.13-1.62-.38s-.64-.63-.64-1.12c0-.46.17-.84.52-1.14s.75-.49,1.22-.58c-.11.17-.16.33-.16.48,0,.32.09.54.26.67s.47.19.89.19h2.26c.99,0,1.76.21,2.31.62.55.41.82.97.82,1.69,0,.6-.2,1.12-.59,1.58-.39.46-.96.82-1.7,1.07-.74.26-1.62.38-2.63.38-1.11,0-2.04-.15-2.78-.46ZM90.32,45.79c.34-.49.8-.86,1.38-1.13.58-.27,1.22-.4,1.92-.4.4,0,.76.04,1.07.11.23-.3.46-.7.68-1.19.22-.5.4-.98.55-1.46l2.21.38c-.15.64-.47,1.18-.96,1.61-.49.43-1.16.67-2,.71-.15,0-.26,0-.34-.02.76.2,1.36.57,1.81,1.1.45.53.67,1.16.67,1.88,0,.61-.16,1.14-.49,1.6-.33.46-.78.81-1.35,1.06-.58.25-1.24.38-1.98.38-1.1,0-1.99-.26-2.66-.79-.68-.53-1.02-1.25-1.02-2.17,0-.63.17-1.19.51-1.67ZM92.43,48.54c.28.28.66.42,1.14.42s.87-.15,1.14-.46c.27-.3.4-.7.4-1.18s-.13-.86-.39-1.16c-.26-.3-.63-.46-1.1-.46s-.87.15-1.16.46c-.29.3-.44.71-.44,1.21s.14.88.42,1.16Z"/>
      <path class="cls-8" d="M104.03,51.35v-1.81c-.81.02-1.45.14-1.91.37-.46.22-.7.56-.7,1.01,0,.31.1.54.31.7.21.16.49.23.86.23.44,0,.92-.17,1.44-.5-.25.62-.61,1.13-1.1,1.53-.49.4-1.09.6-1.81.6s-1.23-.19-1.65-.58-.62-.91-.62-1.57c0-.97.46-1.69,1.38-2.15.92-.46,2.19-.75,3.81-.86v-.29c0-.61-.14-1.04-.43-1.3s-.75-.39-1.38-.39c-.51,0-1.05.07-1.62.21-.57.14-1.04.31-1.42.51l.61-2.18c.99-.42,2.01-.62,3.06-.62,1.25,0,2.17.3,2.75.9.59.6.88,1.52.88,2.77v5.39h-1.74l-.7-1.97Z"/>
      <path class="cls-8" d="M108.77,44.42h1.74l.7,2.56v6.34h-2.45v-8.9ZM114.02,46.72c-.24-.32-.65-.48-1.22-.48s-1.09.25-1.58.74c.2-.81.57-1.47,1.1-1.97.53-.5,1.19-.75,1.98-.75s1.45.27,1.89.82c.44.54.66,1.29.66,2.22v6.02h-2.45v-5.18c0-.62-.12-1.09-.36-1.41Z"/>
      <path class="cls-8" d="M123.7,51.35v-1.81c-.81.02-1.45.14-1.91.37-.46.22-.7.56-.7,1.01,0,.31.1.54.31.7.21.16.49.23.86.23.44,0,.92-.17,1.44-.5-.25.62-.61,1.13-1.1,1.53-.49.4-1.09.6-1.81.6s-1.23-.19-1.65-.58-.62-.91-.62-1.57c0-.97.46-1.69,1.38-2.15.92-.46,2.19-.75,3.81-.86v-.29c0-.61-.14-1.04-.43-1.3s-.75-.39-1.38-.39c-.51,0-1.05.07-1.62.21-.57.14-1.04.31-1.42.51l.61-2.18c.99-.42,2.01-.62,3.06-.62,1.25,0,2.17.3,2.75.9.59.6.88,1.52.88,2.77v5.39h-1.74l-.7-1.97Z"/>
      <path class="cls-8" d="M128.43,44.42h1.74l.7,2.56v6.34h-2.45v-8.9ZM131.78,45c.43-.5.98-.74,1.64-.74s1.18.25,1.52.75c.34.5.51,1.16.51,1.98,0,.33-.04.73-.13,1.18l-1.98.38.02-.45c0-.61-.1-1.07-.31-1.39-.21-.32-.54-.48-.98-.48-.41,0-.8.25-1.18.74.17-.82.47-1.48.9-1.98Z"/>
      <path class="cls-8" d="M140.37,44.42h1.74l.7,2.56v6.34h-2.45v-8.9ZM151.26,46.72c-.24-.32-.65-.48-1.24-.48s-1.13.25-1.58.74c.01.06.02.17.02.32v6.02h-2.45v-5.18c0-.62-.12-1.09-.36-1.41-.24-.32-.65-.48-1.24-.48s-1.13.25-1.58.74c.2-.82.57-1.48,1.1-1.98.53-.5,1.18-.74,1.96-.74s1.39.24,1.82.72c.44.48.68,1.14.74,1.98.21-.82.58-1.48,1.1-1.97.52-.49,1.17-.74,1.95-.74.83,0,1.47.27,1.91.82.44.54.66,1.29.66,2.22v6.02h-2.45v-5.18c0-.62-.12-1.09-.36-1.41Z"/>
      <path class="cls-8" d="M157.75,52.94c-.65-.36-1.14-.87-1.5-1.54-.35-.67-.53-1.47-.53-2.38s.17-1.72.52-2.44.85-1.29,1.51-1.7c.66-.41,1.45-.62,2.37-.62.86,0,1.62.19,2.26.57.65.38,1.14.91,1.5,1.6.35.69.53,1.49.53,2.39s-.17,1.7-.51,2.4c-.34.7-.84,1.26-1.5,1.66-.66.4-1.45.6-2.37.6s-1.63-.18-2.28-.54ZM158.77,50.86c.31.44.75.66,1.31.66s1.03-.23,1.32-.7c.29-.46.44-1.13.44-1.99s-.14-1.49-.43-1.94-.72-.68-1.3-.68-1.05.23-1.35.7c-.3.47-.46,1.13-.46,1.98s.16,1.52.46,1.96Z"/>
      <path class="cls-8" d="M166.29,44.42h1.74l.7,2.56v6.34h-2.45v-8.9ZM171.54,46.72c-.24-.32-.65-.48-1.22-.48s-1.09.25-1.58.74c.2-.81.57-1.47,1.1-1.97.53-.5,1.19-.75,1.98-.75s1.45.27,1.89.82c.44.54.66,1.29.66,2.22v6.02h-2.45v-5.18c0-.62-.12-1.09-.36-1.41Z"/>
      <path class="cls-8" d="M177.28,52.28c-.85-.79-1.28-1.91-1.28-3.34,0-.95.19-1.78.58-2.49.38-.71.92-1.25,1.59-1.63.68-.38,1.45-.57,2.31-.57,1.19,0,2.12.35,2.78,1.06.66.71.98,1.67.98,2.87,0,.51-.04.94-.13,1.3h-5.58c.05.69.33,1.21.82,1.54s1.13.5,1.91.5c.98,0,1.88-.24,2.69-.72l-.38,2.06c-.79.39-1.72.59-2.78.59-1.48,0-2.65-.4-3.5-1.19ZM181.97,48.24v-.35c0-.58-.14-1.02-.41-1.34-.27-.31-.66-.47-1.16-.47-.54,0-.99.19-1.34.58s-.53.91-.55,1.58h3.46Z"/>
      <path class="cls-8" d="M187.15,52.95c-.49-.35-.87-.85-1.14-1.49-.27-.64-.4-1.38-.4-2.22,0-.98.19-1.85.56-2.6.37-.75.9-1.34,1.58-1.75.68-.42,1.46-.62,2.36-.62.51,0,1,.07,1.47.21v-3.22l2.45-.38v12.45h-1.73l-.72-1.97v-5.06c-.32-.14-.65-.21-.99-.21-.76,0-1.35.25-1.77.76-.42.51-.63,1.23-.63,2.17,0,.88.18,1.58.54,2.08.36.5.85.75,1.47.75.48,0,.94-.17,1.38-.5-.2.63-.54,1.14-1.01,1.54-.47.39-1.05.59-1.74.59-.63,0-1.19-.18-1.68-.53Z"/>
      <path class="cls-8" d="M201.14,51.35v-1.81c-.81.02-1.45.14-1.91.37-.46.22-.7.56-.7,1.01,0,.31.1.54.31.7.21.16.49.23.86.23.44,0,.92-.17,1.44-.5-.25.62-.61,1.13-1.1,1.53-.49.4-1.09.6-1.81.6s-1.23-.19-1.65-.58-.62-.91-.62-1.57c0-.97.46-1.69,1.38-2.15.92-.46,2.19-.75,3.81-.86v-.29c0-.61-.14-1.04-.43-1.3s-.75-.39-1.38-.39c-.51,0-1.05.07-1.62.21-.57.14-1.04.31-1.42.51l.61-2.18c.99-.42,2.01-.62,3.06-.62,1.25,0,2.17.3,2.75.9.59.6.88,1.52.88,2.77v5.39h-1.74l-.7-1.97Z"/>
      <path class="cls-8" d="M205.55,52.9l-.38-2.21c.49.29,1.04.52,1.65.7.61.18,1.17.26,1.68.26.42,0,.75-.07,1.02-.22.26-.14.39-.36.39-.65s-.14-.52-.41-.66c-.27-.14-.72-.31-1.35-.49-.58-.16-1.06-.33-1.46-.5-.4-.18-.73-.43-1-.78-.27-.34-.4-.78-.4-1.33,0-.59.17-1.09.5-1.5.33-.42.77-.73,1.33-.94.55-.21,1.16-.32,1.81-.32.47,0,.95.05,1.45.16.5.11.91.24,1.26.4l.38,2.16c-.46-.28-.96-.5-1.49-.66s-1.02-.24-1.46-.24-.75.07-1.01.22c-.26.14-.38.35-.38.63,0,.31.14.54.43.7s.74.33,1.36.5c.62.18,1.12.36,1.51.54.39.18.71.44.96.77.25.33.38.76.38,1.28,0,.89-.35,1.57-1.06,2.04-.71.47-1.63.71-2.78.71-1.02,0-1.99-.19-2.91-.58Z"/>
      <path class="cls-8" d="M216.9,47c.61-.38.92-.9.92-1.54,0-.52-.19-.94-.58-1.26-.38-.31-.9-.47-1.55-.47-.82,0-1.69.22-2.61.67l.61-2.16c.86-.41,1.75-.61,2.67-.61.81,0,1.52.15,2.14.46.61.3,1.08.72,1.41,1.26.33.53.49,1.14.49,1.82,0,.9-.27,1.65-.82,2.26s-1.23,1.08-2.06,1.42-1.7.54-2.61.62l-.27-1.74c.9-.11,1.65-.35,2.26-.74ZM215.18,51.16c.26-.24.61-.36,1.06-.36s.76.11,1,.34c.24.23.36.55.36.95s-.13.73-.38.97-.61.36-1.06.36-.76-.11-1-.34c-.24-.22-.36-.54-.36-.94s.13-.74.38-.98Z"/>
    </g>
    <g>
      <rect class="cls-2" x="134.11" y="24" width=".85" height=".79"/>
      <rect class="cls-2" x="134.96" y="21.62" width=".85" height=".79"/>
      <rect class="cls-9" x="117.93" y="13.67" width=".85" height=".8"/>
      <polygon class="cls-2" points="138.37 11.28 137.51 11.28 136.66 11.28 135.81 11.28 135.81 12.08 135.81 12.87 135.81 13.67 135.81 14.46 135.81 15.26 135.81 16.05 135.81 16.85 135.81 17.64 135.81 18.44 135.81 19.23 135.81 20.03 134.96 20.03 134.96 20.82 134.96 21.62 135.81 21.62 135.81 22.41 134.96 22.41 134.96 21.62 134.11 21.62 134.11 22.41 133.26 22.41 133.26 23.21 132.4 23.21 132.4 24 132.4 24.8 131.55 24.8 130.7 24.8 130.7 25.59 129.85 25.59 129.85 26.39 129 26.39 128.15 26.39 128.15 27.18 129 27.18 129.85 27.18 130.7 27.18 131.55 27.18 131.55 26.39 132.4 26.39 133.26 26.39 133.26 25.59 134.11 25.59 134.11 24.8 134.11 24 134.96 24 134.96 24.8 135.81 24.8 135.81 24 135.81 23.21 136.66 23.21 136.66 22.41 137.51 22.41 137.51 21.62 137.51 20.82 138.37 20.82 138.37 20.03 138.37 19.23 139.22 19.23 139.22 18.44 139.22 17.64 139.22 16.85 139.22 16.05 139.22 15.26 139.22 14.46 139.22 13.67 139.22 12.87 139.22 12.08 139.22 11.28 138.37 11.28"/>
      <polygon class="cls-7" points="129.85 26.37 129.85 26.39 128.15 26.39 128.15 27.18 131.55 27.18 131.55 26.39 133.26 26.39 133.26 26.37 129.85 26.37"/>
      <rect class="cls-10" x="134.11" y="8.9" width=".85" height=".79"/>
      <g>
        <path class="cls-1" d="M134.11,11.28v-2.39h-.85v-.79h-.85v-.8h-.85v-.79h-.85v-.79h-.85v-.8h-1.7v-.8h-6.81v.8h-1.7v.8h-.85v.79h-.85v.79h-.85v.8h-.85v1.59h-.85v1.59h-.85v7.95h.85v1.59h.85v1.59h.85v.79h.85v.8h.85v.79h.85v.79h1.7v.8h6.81v-.8h1.7v-.79h.85v-.79h.85v-.8h.85v-.79h.85v-.79h.85v-1.59h.85v-8.75h-.85ZM117.93,12.08v-1.59h.85v-.8h.85v-.79h.85v-.79h.85v-.8h6.81v.8h.85v.79h.85v.79h.85v.8h.85v1.59h.85v6.36h-.85v1.59h-.85v.8h-.85v.8h-.85v.79h-.85v.79h-6.81v-.79h-.85v-.79h-.85v-.8h-.85v-.8h-.85v-1.59h-.85v-6.36h.85Z"/>
        <polygon class="cls-1" points="119.63 11.28 118.78 11.28 118.78 12.08 118.78 12.87 118.78 13.67 118.78 14.46 118.78 15.26 118.78 16.05 118.78 16.85 118.78 17.64 119.63 17.64 119.63 18.44 119.63 19.23 120.48 19.23 120.48 20.03 121.33 20.03 121.33 20.82 122.18 20.82 123.04 20.82 123.04 21.62 123.89 21.62 124.74 21.62 125.59 21.62 126.44 21.62 127.29 21.62 127.29 20.82 128.15 20.82 129 20.82 129 20.03 129.85 20.03 129.85 19.23 130.7 19.23 130.7 18.44 130.7 17.64 131.55 17.64 131.55 16.85 131.55 16.05 131.55 15.26 131.55 14.46 131.55 13.67 131.55 12.87 130.7 12.87 130.7 12.08 130.7 11.28 130.7 10.49 129.85 10.49 129.85 9.69 129 9.69 129 8.9 128.15 8.9 127.29 8.9 127.29 8.1 126.44 8.1 125.59 8.1 124.74 8.1 123.89 8.1 123.04 8.1 122.18 8.1 122.18 8.9 121.33 8.9 120.48 8.9 120.48 9.69 119.63 9.69 119.63 10.49 119.63 11.28"/>
      </g>
      <g>
        <polygon class="cls-2" points="137.51 8.9 137.51 8.1 137.51 7.31 136.66 7.31 136.66 8.1 135.81 8.1 134.96 8.1 134.96 8.9 134.96 9.69 134.96 10.49 135.81 10.49 135.81 9.69 136.66 9.69 137.51 9.69 137.51 10.49 137.51 11.28 138.37 11.28 138.37 10.49 138.37 9.69 138.37 8.9 137.51 8.9"/>
        <polygon class="cls-2" points="135.81 6.51 135.81 5.72 134.96 5.72 134.11 5.72 134.11 4.92 133.26 4.92 133.26 4.12 132.4 4.12 131.55 4.12 131.55 3.33 130.7 3.33 129.85 3.33 129 3.33 128.15 3.33 128.15 4.12 129 4.12 129.85 4.12 129.85 4.92 130.7 4.92 130.7 5.72 131.55 5.72 131.55 6.51 132.4 6.51 132.4 7.31 133.26 7.31 134.11 7.31 134.96 7.31 135.81 7.31 136.66 7.31 136.66 6.51 135.81 6.51"/>
      </g>
      <polygon class="cls-2" points="137.51 8.9 137.51 8.1 137.51 7.31 136.66 7.31 136.66 8.1 135.81 8.1 134.96 8.1 134.96 8.9 134.96 9.69 134.96 10.49 135.81 10.49 135.81 9.69 136.66 9.69 137.51 9.69 137.51 10.49 137.51 11.28 138.37 11.28 138.37 10.49 138.37 9.69 138.37 8.9 137.51 8.9"/>
      <polygon class="cls-7" points="137.51 8.9 137.51 8.1 137.51 7.31 136.66 7.31 136.66 7.31 136.66 7.31 136.66 8.1 136.66 8.9 137.51 8.9 137.51 9.69 137.51 9.69 137.51 10.49 137.51 11.28 138.37 11.28 138.37 10.49 138.37 9.69 138.37 8.9 137.51 8.9"/>
      <g>
        <rect class="cls-7" x="133.26" y="4.92" width=".85" height=".79"/>
        <polygon class="cls-7" points="134.11 6.51 134.96 6.51 135.81 6.51 135.81 5.72 134.96 5.72 134.11 5.72 134.11 6.51"/>
        <polygon class="cls-7" points="132.4 4.92 133.26 4.92 133.26 4.12 132.4 4.12 131.55 4.12 131.55 4.92 132.4 4.92"/>
        <rect class="cls-7" x="135.81" y="6.51" width=".85" height=".79"/>
        <polygon class="cls-7" points="129 4.12 129 4.12 129.85 4.12 129.85 4.12 130.7 4.12 131.55 4.12 131.55 3.33 130.7 3.33 129.85 3.33 129 3.33 128.15 3.33 128.15 4.12 128.15 4.12 129 4.12"/>
      </g>
      <g>
        <polygon class="cls-7" points="134.96 21.62 134.11 21.62 134.11 22.41 134.11 22.41 134.11 22.41 134.96 22.41 134.96 21.62"/>
        <polygon class="cls-7" points="138.37 11.28 137.51 11.28 137.51 11.28 137.51 11.28 138.37 11.28 138.37 12.08 138.37 12.87 138.37 13.67 138.37 14.46 138.37 15.26 138.37 16.05 138.37 16.85 138.37 17.64 138.37 18.44 138.37 19.23 139.22 19.23 139.22 18.44 139.22 17.64 139.22 16.85 139.22 16.05 139.22 15.26 139.22 14.46 139.22 13.67 139.22 12.87 139.22 12.08 139.22 11.28 138.37 11.28"/>
        <polygon class="cls-7" points="134.96 23.21 134.96 24 134.96 24 134.96 24.8 135.81 24.8 135.81 24 135.81 23.21 134.96 23.21"/>
        <rect class="cls-7" x="135.81" y="22.41" width=".85" height=".79"/>
        <polygon class="cls-7" points="137.51 19.23 137.51 20.03 137.51 20.82 136.66 20.82 136.66 21.62 136.66 22.41 137.51 22.41 137.51 21.62 137.51 20.82 138.37 20.82 138.37 20.03 138.37 19.23 137.51 19.23"/>
        <polygon class="cls-7" points="131.55 26.39 130.7 26.39 130.7 27.18 131.55 27.18 131.55 26.39 131.55 26.39"/>
        <polygon class="cls-7" points="134.11 24.8 134.11 24 133.26 24 133.26 24.8 133.26 25.59 134.11 25.59 134.11 24.8 134.11 24.8"/>
        <rect class="cls-7" x="132.4" y="25.59" width=".85" height=".8"/>
      </g>
      <g>
        <polygon class="cls-7" points="128.15 25.59 128.15 26.39 127.29 26.39 126.44 26.39 125.59 26.39 124.74 26.39 123.89 26.39 123.04 26.39 122.18 26.39 121.33 26.39 121.33 27.18 122.18 27.18 123.04 27.18 123.89 27.18 124.74 27.18 125.59 27.18 126.44 27.18 127.29 27.18 128.15 27.18 128.15 26.39 129 26.39 129.85 26.39 129.85 25.59 129 25.59 128.15 25.59"/>
        <rect class="cls-7" x="129.85" y="24.8" width=".85" height=".79"/>
        <polygon class="cls-7" points="131.55 24 130.7 24 130.7 24.8 131.55 24.8 132.4 24.8 132.4 24 132.4 23.21 131.55 23.21 131.55 24"/>
        <rect class="cls-7" x="132.4" y="22.41" width=".85" height=".79"/>
        <rect class="cls-7" x="133.26" y="21.62" width=".85" height=".79"/>
        <polygon class="cls-7" points="134.11 20.82 134.11 21.62 134.96 21.62 134.96 20.82 134.96 20.03 134.11 20.03 134.11 20.82"/>
        <polygon class="cls-7" points="134.96 12.08 134.96 12.87 134.96 13.67 134.96 14.46 134.96 15.26 134.96 16.05 134.96 16.85 134.96 17.64 134.96 18.44 134.96 19.23 134.96 20.03 135.81 20.03 135.81 19.23 135.81 18.44 135.81 17.64 135.81 16.85 135.81 16.05 135.81 15.26 135.81 14.46 135.81 13.67 135.81 12.87 135.81 12.08 134.96 12.08"/>
        <polygon class="cls-7" points="134.11 10.49 134.11 11.28 134.96 11.28 134.96 10.49 134.96 9.69 134.11 9.69 134.11 10.49"/>
        <rect class="cls-7" x="133.26" y="8.1" width=".85" height=".79"/>
        <rect class="cls-7" x="129" y="20.82" width=".85" height=".8"/>
        <polygon class="cls-7" points="130.7 12.08 130.7 12.87 131.55 12.87 131.55 12.87 131.55 13.67 131.55 14.46 131.55 15.26 131.55 16.05 131.55 16.85 131.55 17.64 131.55 17.64 130.7 17.64 130.7 18.44 130.7 19.23 129.85 19.23 129.85 20.03 129.85 20.82 130.7 20.82 130.7 20.03 131.55 20.03 131.55 19.23 131.55 18.44 132.4 18.44 132.4 17.64 132.4 16.85 132.4 16.05 132.4 15.26 132.4 14.46 132.4 13.67 132.4 12.87 132.4 12.08 131.55 12.08 131.55 12.08 131.55 11.28 131.55 10.49 130.7 10.49 130.7 11.28 130.7 12.08"/>
        <rect class="cls-7" x="129.85" y="9.69" width=".85" height=".8"/>
        <rect class="cls-7" x="129" y="8.9" width=".85" height=".79"/>
        <rect class="cls-7" x="132.4" y="7.31" width=".85" height=".8"/>
        <rect class="cls-7" x="131.55" y="6.51" width=".85" height=".79"/>
        <rect class="cls-7" x="130.7" y="5.72" width=".85" height=".8"/>
        <rect class="cls-7" x="129.85" y="4.92" width=".85" height=".79"/>
        <polygon class="cls-7" points="128.15 4.92 129 4.92 129.85 4.92 129.85 4.12 129 4.12 128.15 4.12 128.15 4.92"/>
        <polygon class="cls-7" points="120.48 25.59 119.63 25.59 119.63 26.39 120.48 26.39 121.33 26.39 121.33 25.59 120.48 25.59"/>
        <rect class="cls-7" x="118.78" y="24.8" width=".85" height=".79"/>
        <polygon class="cls-7" points="117.93 24 117.93 23.21 117.07 23.21 117.07 24 117.07 24.8 117.93 24.8 118.78 24.8 118.78 24 117.93 24"/>
        <rect class="cls-7" x="116.22" y="22.41" width=".85" height=".79"/>
        <polygon class="cls-7" points="122.18 23.21 123.04 23.21 123.89 23.21 124.74 23.21 125.59 23.21 126.44 23.21 127.29 23.21 128.15 23.21 128.15 22.41 129 22.41 129 21.62 128.15 21.62 127.29 21.62 127.29 22.41 126.44 22.41 125.59 22.41 124.74 22.41 123.89 22.41 123.04 22.41 122.18 22.41 122.18 21.62 121.33 21.62 120.48 21.62 120.48 22.41 121.33 22.41 121.33 23.21 122.18 23.21"/>
        <rect class="cls-7" x="119.63" y="20.82" width=".85" height=".8"/>
        <polygon class="cls-7" points="116.22 20.82 115.37 20.82 115.37 21.62 115.37 22.41 116.22 22.41 116.22 21.62 116.22 20.82"/>
        <polygon class="cls-7" points="115.37 19.23 114.52 19.23 114.52 20.03 114.52 20.82 115.37 20.82 115.37 20.03 115.37 19.23"/>
        <polygon class="cls-7" points="114.52 17.64 114.52 16.85 114.52 16.05 114.52 15.26 114.52 14.46 114.52 13.67 114.52 12.87 114.52 12.08 113.67 12.08 113.67 12.87 113.67 13.67 113.67 14.46 113.67 15.26 113.67 16.05 113.67 16.85 113.67 17.64 113.67 18.44 114.52 18.44 114.52 17.64"/>
        <polygon class="cls-7" points="119.63 19.23 118.78 19.23 118.78 18.44 118.78 17.64 117.93 17.64 117.93 16.85 117.93 16.05 117.93 15.26 117.93 14.46 117.93 13.67 117.93 12.87 118.78 12.87 118.78 12.08 118.78 11.28 119.63 11.28 119.63 10.49 119.63 9.69 118.78 9.69 118.78 10.49 117.93 10.49 117.93 11.28 117.93 12.08 117.07 12.08 117.07 12.87 117.07 13.67 117.07 14.46 117.07 15.26 117.07 16.05 117.07 16.85 117.07 17.64 117.07 18.44 117.93 18.44 117.93 19.23 117.93 20.03 118.78 20.03 118.78 20.82 119.63 20.82 119.63 20.03 119.63 19.23"/>
        <polygon class="cls-7" points="115.37 10.49 115.37 9.69 114.52 9.69 114.52 10.49 114.52 11.28 115.37 11.28 115.37 10.49"/>
        <rect class="cls-7" x="119.63" y="8.9" width=".85" height=".79"/>
        <polygon class="cls-7" points="116.22 8.9 116.22 8.1 115.37 8.1 115.37 8.9 115.37 9.69 116.22 9.69 116.22 8.9"/>
        <polygon class="cls-7" points="122.18 8.9 122.18 8.1 123.04 8.1 123.89 8.1 124.74 8.1 125.59 8.1 126.44 8.1 127.29 8.1 127.29 8.9 128.15 8.9 129 8.9 129 8.1 128.15 8.1 128.15 7.31 127.29 7.31 126.44 7.31 125.59 7.31 124.74 7.31 123.89 7.31 123.04 7.31 122.18 7.31 121.33 7.31 121.33 8.1 120.48 8.1 120.48 8.9 121.33 8.9 122.18 8.9"/>
        <rect class="cls-7" x="116.22" y="7.31" width=".85" height=".8"/>
        <rect class="cls-7" x="117.07" y="6.51" width=".85" height=".79"/>
        <rect class="cls-7" x="117.93" y="5.72" width=".85" height=".79"/>
        <rect class="cls-7" x="118.78" y="4.92" width=".85" height=".8"/>
        <polygon class="cls-7" points="121.33 4.92 121.33 4.12 120.48 4.12 119.63 4.12 119.63 4.92 120.48 4.92 121.33 4.92"/>
        <polygon class="cls-7" points="123.04 4.12 123.89 4.12 124.74 4.12 125.59 4.12 126.44 4.12 127.29 4.12 128.15 4.12 128.15 3.33 127.29 3.33 126.44 3.33 125.59 3.33 124.74 3.33 123.89 3.33 123.04 3.33 122.18 3.33 121.33 3.33 121.33 4.12 122.18 4.12 123.04 4.12"/>
      </g>
      <g>
        <polygon class="cls-10" points="136.66 9.69 135.81 9.69 135.81 10.49 134.96 10.49 134.96 11.28 134.96 12.08 135.81 12.08 135.81 11.28 136.66 11.28 137.51 11.28 137.51 10.49 137.51 9.69 136.66 9.69"/>
        <polygon class="cls-10" points="135.81 7.31 134.96 7.31 134.11 7.31 133.26 7.31 133.26 8.1 134.11 8.1 134.11 8.9 134.96 8.9 134.96 8.1 135.81 8.1 136.66 8.1 136.66 7.31 135.81 7.31"/>
        <polygon class="cls-10" points="125.59 21.62 124.74 21.62 123.89 21.62 123.04 21.62 123.04 20.82 122.18 20.82 121.33 20.82 121.33 20.03 120.48 20.03 120.48 19.23 119.63 19.23 119.63 20.03 119.63 20.82 120.48 20.82 120.48 21.62 121.33 21.62 122.18 21.62 122.18 22.41 123.04 22.41 123.89 22.41 124.74 22.41 125.59 22.41 126.44 22.41 127.29 22.41 127.29 21.62 126.44 21.62 125.59 21.62"/>
        <polygon class="cls-10" points="127.29 20.82 127.29 21.62 128.15 21.62 129 21.62 129 20.82 128.15 20.82 127.29 20.82"/>
        <rect class="cls-10" x="129" y="20.03" width=".85" height=".8"/>
        <polygon class="cls-10" points="119.63 17.64 118.78 17.64 118.78 18.44 118.78 19.23 119.63 19.23 119.63 18.44 119.63 17.64"/>
        <polygon class="cls-10" points="118.78 16.05 118.78 15.26 118.78 14.46 117.93 14.46 117.93 15.26 117.93 16.05 117.93 16.85 117.93 17.64 118.78 17.64 118.78 16.85 118.78 16.05"/>
        <rect class="cls-10" x="117.93" y="12.87" width=".85" height=".79"/>
      </g>
    </g>
    <g>
      <path class="cls-7" d="M15.77,83.24h-.9c-.1,0-.19-.03-.25-.08-.06-.05-.11-.12-.14-.2l-.8-2.08h-3.86l-.8,2.08c-.03.07-.08.14-.14.19s-.15.08-.25.08h-.9l3.44-8.6h1.18l3.44,8.6ZM10.14,80.05h3.21l-1.35-3.5c-.09-.22-.17-.49-.26-.81-.04.16-.09.32-.13.45s-.08.26-.12.36l-1.35,3.49Z"/>
      <path class="cls-7" d="M17.88,74.41v8.84h-1.07v-8.84h1.07Z"/>
      <path class="cls-7" d="M22.32,83.24v-5.17l-.67-.08c-.08-.02-.15-.05-.21-.09-.05-.04-.08-.1-.08-.18v-.44h.96v-.34c0-.37.06-.71.17-1.02.12-.31.29-.58.52-.8.23-.22.52-.4.87-.52.35-.12.75-.19,1.21-.19.15,0,.31.01.46.03.16.02.29.05.41.09l-.04.56s-.03.08-.07.1-.1.02-.17.02h-.3c-.71,0-1.22.15-1.54.44-.32.29-.48.73-.48,1.33v.3h3.67v5.96h-1.07v-5.18h-2.57v5.18h-1.07Z"/>
      <path class="cls-7" d="M28.92,83.24v-6.08h.64c.15,0,.25.07.29.22l.08.66c.26-.29.56-.53.88-.71.33-.18.7-.27,1.13-.27.33,0,.62.05.88.17.25.11.47.27.64.47s.3.45.39.73c.09.28.13.6.13.94v3.87h-1.07v-3.87c0-.46-.11-.82-.32-1.07-.21-.25-.53-.38-.96-.38-.32,0-.61.08-.88.23-.27.15-.53.36-.76.62v4.48h-1.07Z"/>
      <path class="cls-7" d="M40.05,83.24h-.47c-.1,0-.19-.02-.25-.05-.06-.03-.11-.1-.13-.2l-.12-.56c-.16.14-.32.27-.47.39-.15.11-.31.21-.48.29-.17.08-.35.14-.54.18-.19.04-.4.06-.63.06s-.46-.03-.66-.1c-.21-.07-.38-.17-.54-.3-.15-.13-.27-.3-.36-.5-.09-.2-.13-.44-.13-.72,0-.24.07-.47.2-.7s.34-.42.64-.59c.29-.17.68-.31,1.16-.42s1.06-.17,1.75-.17v-.48c0-.47-.1-.83-.3-1.08-.2-.24-.5-.37-.9-.37-.26,0-.48.03-.66.1-.18.07-.33.14-.46.22s-.24.16-.34.22c-.09.07-.19.1-.28.1-.07,0-.14-.02-.19-.06s-.1-.08-.13-.14l-.19-.34c.34-.32.7-.57,1.09-.73.39-.16.82-.24,1.29-.24.34,0,.64.06.91.17.26.11.49.27.67.47s.32.44.41.73.14.6.14.94v3.89ZM37.28,82.59c.19,0,.36-.02.52-.06s.3-.09.44-.16c.14-.07.27-.16.4-.25s.25-.21.37-.34v-1.25c-.49,0-.91.03-1.25.09-.34.06-.62.14-.84.25s-.37.22-.47.36c-.1.14-.15.29-.15.46s.03.3.08.42c.05.12.12.21.21.29s.19.13.31.16.25.05.39.05Z"/>
      <path class="cls-7" d="M42.86,74.41v8.84h-1.07v-8.84h1.07Z"/>
      <path class="cls-7" d="M46.17,75.26c0,.1-.02.2-.06.29s-.1.17-.17.24c-.07.07-.15.12-.24.17s-.19.06-.29.06-.2-.02-.29-.06-.17-.09-.24-.17-.12-.15-.17-.24-.06-.19-.06-.29.02-.2.06-.3.09-.18.17-.25c.07-.07.15-.12.24-.17s.19-.06.29-.06.2.02.29.06.17.1.24.17c.07.07.13.15.17.25s.06.19.06.3ZM45.94,77.17v6.08h-1.07v-6.08h1.07Z"/>
      <path class="cls-7" d="M52.06,77.62c0,.08-.01.15-.04.22-.03.07-.06.13-.11.19l-3.29,4.38h3.32v.83h-4.58v-.44c0-.05.01-.11.04-.18s.06-.14.11-.2l3.31-4.41h-3.27v-.84h4.51v.46Z"/>
      <path class="cls-7" d="M57.83,83.24h-.47c-.1,0-.19-.02-.25-.05-.06-.03-.11-.1-.13-.2l-.12-.56c-.16.14-.32.27-.47.39-.15.11-.31.21-.48.29-.17.08-.35.14-.54.18-.19.04-.4.06-.63.06s-.46-.03-.66-.1c-.21-.07-.38-.17-.54-.3-.15-.13-.27-.3-.36-.5-.09-.2-.13-.44-.13-.72,0-.24.07-.47.2-.7s.34-.42.64-.59c.29-.17.68-.31,1.16-.42s1.06-.17,1.75-.17v-.48c0-.47-.1-.83-.3-1.08-.2-.24-.5-.37-.9-.37-.26,0-.48.03-.66.1-.18.07-.33.14-.46.22s-.24.16-.34.22c-.09.07-.19.1-.28.1-.07,0-.14-.02-.19-.06s-.1-.08-.13-.14l-.19-.34c.34-.32.7-.57,1.09-.73.39-.16.82-.24,1.29-.24.34,0,.64.06.91.17.26.11.49.27.67.47s.32.44.41.73.14.6.14.94v3.89ZM55.06,82.59c.19,0,.36-.02.52-.06s.3-.09.44-.16c.14-.07.27-.16.4-.25s.25-.21.37-.34v-1.25c-.49,0-.91.03-1.25.09-.34.06-.62.14-.84.25s-.37.22-.47.36c-.1.14-.15.29-.15.46s.03.3.08.42c.05.12.12.21.21.29s.19.13.31.16.25.05.39.05Z"/>
      <path class="cls-7" d="M59.45,83.24v-6.08h.61c.12,0,.2.02.24.07s.07.12.09.23l.07.95c.21-.42.47-.75.77-.99s.67-.36,1.08-.36c.17,0,.32.02.46.06.14.04.26.09.38.16l-.14.8c-.03.1-.09.15-.19.15-.06,0-.14-.02-.26-.06s-.28-.06-.49-.06c-.37,0-.68.11-.93.32-.25.22-.46.53-.63.94v3.87h-1.07Z"/>
      <path class="cls-7" d="M70.75,78.25s-.06.08-.1.1c-.03.02-.08.04-.14.04s-.12-.02-.2-.07c-.07-.05-.16-.11-.27-.17-.11-.06-.24-.12-.39-.17-.15-.05-.34-.08-.57-.08-.3,0-.56.05-.79.16-.23.11-.42.26-.57.46s-.27.44-.35.73-.12.6-.12.95.04.7.13.98c.08.29.2.53.35.72.15.19.34.34.55.44.22.1.46.15.73.15s.47-.03.64-.09c.17-.06.31-.13.42-.21s.2-.14.28-.21c.07-.06.14-.09.22-.09.09,0,.16.03.2.1l.3.39c-.26.32-.59.56-.99.71-.4.15-.81.22-1.25.22-.38,0-.73-.07-1.06-.21-.33-.14-.61-.34-.85-.61-.24-.27-.43-.59-.57-.98-.14-.39-.21-.83-.21-1.33,0-.45.06-.87.19-1.25s.31-.71.55-.99c.24-.28.54-.5.9-.65.36-.16.76-.23,1.22-.23.42,0,.8.07,1.13.21.33.14.62.33.87.58l-.28.38Z"/>
      <path class="cls-7" d="M76.67,83.24h-.47c-.1,0-.19-.02-.25-.05-.06-.03-.11-.1-.13-.2l-.12-.56c-.16.14-.32.27-.47.39-.15.11-.31.21-.48.29-.17.08-.35.14-.54.18-.19.04-.4.06-.63.06s-.46-.03-.66-.1c-.21-.07-.38-.17-.54-.3-.15-.13-.27-.3-.36-.5-.09-.2-.13-.44-.13-.72,0-.24.07-.47.2-.7s.34-.42.64-.59c.29-.17.68-.31,1.16-.42s1.06-.17,1.75-.17v-.48c0-.47-.1-.83-.3-1.08-.2-.24-.5-.37-.9-.37-.26,0-.48.03-.66.1-.18.07-.33.14-.46.22s-.24.16-.34.22c-.09.07-.19.1-.28.1-.07,0-.14-.02-.19-.06s-.1-.08-.13-.14l-.19-.34c.34-.32.7-.57,1.09-.73.39-.16.82-.24,1.29-.24.34,0,.64.06.91.17.26.11.49.27.67.47s.32.44.41.73.14.6.14.94v3.89ZM73.89,82.59c.19,0,.36-.02.52-.06s.3-.09.44-.16c.14-.07.27-.16.4-.25s.25-.21.37-.34v-1.25c-.49,0-.91.03-1.25.09-.34.06-.62.14-.84.25s-.37.22-.47.36c-.1.14-.15.29-.15.46s.03.3.08.42c.05.12.12.21.21.29s.19.13.31.16.25.05.39.05Z"/>
      <path class="cls-7" d="M82.56,83.24c-.15,0-.25-.07-.29-.22l-.1-.74c-.26.32-.56.57-.89.76-.33.19-.72.29-1.15.29-.35,0-.66-.07-.95-.2s-.53-.33-.73-.59-.35-.58-.46-.97c-.11-.39-.16-.83-.16-1.34,0-.45.06-.87.18-1.25.12-.39.29-.72.52-1.01.23-.28.5-.51.83-.67s.69-.24,1.1-.24c.37,0,.69.06.95.19.26.13.5.3.71.53v-3.37h1.07v8.84h-.64ZM80.49,82.46c.35,0,.65-.08.92-.24.26-.16.5-.39.72-.68v-2.94c-.2-.26-.41-.45-.64-.56-.23-.11-.49-.16-.78-.16-.57,0-1,.2-1.31.61-.3.4-.46.98-.46,1.73,0,.4.03.73.1,1.02.07.28.17.51.3.7.13.18.29.31.49.4.19.08.41.13.66.13Z"/>
      <path class="cls-7" d="M89.46,83.24h-.47c-.1,0-.19-.02-.25-.05-.06-.03-.11-.1-.13-.2l-.12-.56c-.16.14-.32.27-.47.39-.15.11-.31.21-.48.29-.17.08-.35.14-.54.18-.19.04-.4.06-.63.06s-.46-.03-.66-.1c-.21-.07-.38-.17-.54-.3-.15-.13-.27-.3-.36-.5-.09-.2-.13-.44-.13-.72,0-.24.07-.47.2-.7s.34-.42.64-.59c.29-.17.68-.31,1.16-.42s1.06-.17,1.75-.17v-.48c0-.47-.1-.83-.3-1.08-.2-.24-.5-.37-.9-.37-.26,0-.48.03-.66.1-.18.07-.33.14-.46.22s-.24.16-.34.22c-.09.07-.19.1-.28.1-.07,0-.14-.02-.19-.06s-.1-.08-.13-.14l-.19-.34c.34-.32.7-.57,1.09-.73.39-.16.82-.24,1.29-.24.34,0,.64.06.91.17.26.11.49.27.67.47s.32.44.41.73.14.6.14.94v3.89ZM86.69,82.59c.19,0,.36-.02.52-.06s.3-.09.44-.16c.14-.07.27-.16.4-.25s.25-.21.37-.34v-1.25c-.49,0-.91.03-1.25.09-.34.06-.62.14-.84.25s-.37.22-.47.36c-.1.14-.15.29-.15.46s.03.3.08.42c.05.12.12.21.21.29s.19.13.31.16.25.05.39.05Z"/>
      <path class="cls-7" d="M92.63,77.17h.88c.08,0,.15.02.21.07.06.04.1.1.12.16l1.54,3.91c.06.14.1.29.13.43.03.14.06.29.09.43.03-.14.07-.28.1-.43.04-.14.08-.29.14-.43l1.56-3.91c.02-.06.06-.12.12-.16s.12-.06.2-.06h.83l-2.48,6.08h-.97l-2.48-6.08Z"/>
      <path class="cls-7" d="M100.96,75.26c0,.1-.02.2-.06.29s-.1.17-.17.24c-.07.07-.15.12-.24.17s-.19.06-.29.06-.2-.02-.29-.06-.17-.09-.24-.17-.12-.15-.17-.24-.06-.19-.06-.29.02-.2.06-.3.09-.18.17-.25c.07-.07.15-.12.24-.17s.19-.06.29-.06.2.02.29.06.17.1.24.17c.07.07.13.15.17.25s.06.19.06.3ZM100.73,77.17v6.08h-1.07v-6.08h1.07Z"/>
      <path class="cls-7" d="M106.89,83.24c-.15,0-.25-.07-.29-.22l-.1-.74c-.26.32-.56.57-.89.76-.33.19-.72.29-1.15.29-.35,0-.66-.07-.95-.2s-.53-.33-.73-.59-.35-.58-.46-.97c-.11-.39-.16-.83-.16-1.34,0-.45.06-.87.18-1.25.12-.39.29-.72.52-1.01.23-.28.5-.51.83-.67s.69-.24,1.1-.24c.37,0,.69.06.95.19.26.13.5.3.71.53v-3.37h1.07v8.84h-.64ZM104.82,82.46c.35,0,.65-.08.92-.24.26-.16.5-.39.72-.68v-2.94c-.2-.26-.41-.45-.64-.56-.23-.11-.49-.16-.78-.16-.57,0-1,.2-1.31.61-.3.4-.46.98-.46,1.73,0,.4.03.73.1,1.02.07.28.17.51.3.7.13.18.29.31.49.4.19.08.41.13.66.13Z"/>
      <path class="cls-7" d="M111.72,77.07c.36,0,.7.06,1.01.18s.57.3.8.53c.22.23.4.51.53.85.13.34.19.72.19,1.16,0,.17-.02.28-.05.34-.04.06-.1.08-.2.08h-4.04c0,.38.06.72.16,1,.1.28.23.52.4.71.17.19.37.33.6.43.23.09.49.14.78.14.27,0,.5-.03.69-.09.19-.06.36-.13.5-.2s.26-.14.35-.2c.09-.06.18-.09.24-.09.09,0,.16.03.2.1l.3.39c-.13.16-.29.3-.47.42-.18.12-.38.21-.59.29-.21.08-.43.13-.65.17-.22.04-.45.06-.67.06-.42,0-.81-.07-1.16-.21-.35-.14-.66-.35-.92-.62-.26-.27-.46-.61-.6-1.02-.14-.4-.22-.87-.22-1.39,0-.42.06-.82.19-1.19.13-.37.32-.69.56-.96.24-.27.54-.48.89-.64.35-.15.75-.23,1.19-.23ZM111.75,77.86c-.52,0-.92.15-1.22.45-.3.3-.48.71-.55,1.24h3.31c0-.25-.03-.47-.1-.68-.07-.21-.17-.38-.3-.53-.13-.15-.29-.27-.48-.35-.19-.08-.41-.12-.65-.12Z"/>
      <path class="cls-7" d="M118.07,77.07c.44,0,.84.07,1.2.22.36.15.66.36.91.63.25.27.44.6.58.99.13.39.2.82.2,1.29s-.07.91-.2,1.3c-.13.38-.33.71-.58.98-.25.27-.55.48-.91.63-.36.15-.76.22-1.2.22s-.84-.07-1.2-.22c-.36-.15-.66-.36-.92-.63-.25-.27-.45-.6-.58-.98s-.2-.82-.2-1.3.07-.91.2-1.29.33-.71.58-.99c.25-.27.56-.48.92-.63.36-.15.76-.22,1.2-.22ZM118.07,82.49c.6,0,1.05-.2,1.34-.6.3-.4.44-.96.44-1.68s-.15-1.29-.44-1.69c-.3-.4-.74-.61-1.34-.61-.3,0-.57.05-.79.16-.22.1-.41.25-.56.45-.15.2-.26.44-.34.72-.07.29-.11.61-.11.97s.04.68.11.97c.07.28.19.52.34.72.15.19.34.34.56.45.22.1.49.16.79.16Z"/>
      <path class="cls-7" d="M121.97,82.51c0-.09.02-.18.05-.26s.08-.15.14-.22.14-.11.23-.15c.09-.04.18-.05.29-.05.12,0,.23.02.32.07s.17.1.23.18c.06.08.11.17.14.27.03.1.05.21.05.33,0,.18-.03.37-.08.56-.05.19-.13.39-.22.58-.1.19-.21.38-.36.55-.14.18-.3.35-.48.5l-.18-.17c-.05-.05-.08-.1-.08-.17,0-.05.03-.11.08-.16.04-.04.09-.1.15-.18.06-.07.12-.16.19-.25.06-.1.12-.2.18-.32.05-.12.09-.24.12-.37h-.08c-.1,0-.2-.02-.28-.05s-.16-.09-.22-.15c-.06-.07-.11-.14-.14-.23-.03-.09-.05-.19-.05-.3Z"/>
      <path class="cls-7" d="M127.14,83.24v-6.08h.61c.12,0,.2.02.24.07s.07.12.09.23l.07.95c.21-.42.47-.75.77-.99s.67-.36,1.08-.36c.17,0,.32.02.46.06.14.04.26.09.38.16l-.14.8c-.03.1-.09.15-.19.15-.06,0-.14-.02-.26-.06s-.28-.06-.49-.06c-.37,0-.68.11-.93.32-.25.22-.46.53-.63.94v3.87h-1.07Z"/>
      <path class="cls-7" d="M134.38,77.07c.36,0,.7.06,1.01.18s.57.3.8.53c.22.23.4.51.53.85.13.34.19.72.19,1.16,0,.17-.02.28-.05.34-.04.06-.1.08-.2.08h-4.04c0,.38.06.72.16,1,.1.28.23.52.4.71.17.19.37.33.6.43.23.09.49.14.78.14.27,0,.5-.03.69-.09.19-.06.36-.13.5-.2s.26-.14.35-.2c.09-.06.18-.09.24-.09.09,0,.16.03.2.1l.3.39c-.13.16-.29.3-.47.42-.18.12-.38.21-.59.29-.21.08-.43.13-.65.17-.22.04-.45.06-.67.06-.42,0-.81-.07-1.16-.21-.35-.14-.66-.35-.92-.62-.26-.27-.46-.61-.6-1.02-.14-.4-.22-.87-.22-1.39,0-.42.06-.82.19-1.19.13-.37.32-.69.56-.96.24-.27.54-.48.89-.64.35-.15.75-.23,1.19-.23ZM134.4,77.86c-.52,0-.92.15-1.22.45-.3.3-.48.71-.55,1.24h3.31c0-.25-.03-.47-.1-.68-.07-.21-.17-.38-.3-.53-.13-.15-.29-.27-.48-.35-.19-.08-.41-.12-.65-.12Z"/>
      <path class="cls-7" d="M142.41,78.25s-.06.08-.1.1c-.03.02-.08.04-.14.04s-.12-.02-.2-.07c-.07-.05-.16-.11-.27-.17-.11-.06-.24-.12-.39-.17-.15-.05-.34-.08-.57-.08-.3,0-.56.05-.79.16-.23.11-.42.26-.57.46s-.27.44-.35.73-.12.6-.12.95.04.7.13.98c.08.29.2.53.35.72.15.19.34.34.55.44.22.1.46.15.73.15s.47-.03.64-.09c.17-.06.31-.13.42-.21s.2-.14.28-.21c.07-.06.14-.09.22-.09.09,0,.16.03.2.1l.3.39c-.26.32-.59.56-.99.71-.4.15-.81.22-1.25.22-.38,0-.73-.07-1.06-.21-.33-.14-.61-.34-.85-.61-.24-.27-.43-.59-.57-.98-.14-.39-.21-.83-.21-1.33,0-.45.06-.87.19-1.25s.31-.71.55-.99c.24-.28.54-.5.9-.65.36-.16.76-.23,1.22-.23.42,0,.8.07,1.13.21.33.14.62.33.87.58l-.28.38Z"/>
      <path class="cls-7" d="M145.29,75.26c0,.1-.02.2-.06.29s-.1.17-.17.24c-.07.07-.15.12-.24.17s-.19.06-.29.06-.2-.02-.29-.06-.17-.09-.24-.17-.12-.15-.17-.24-.06-.19-.06-.29.02-.2.06-.3.09-.18.17-.25c.07-.07.15-.12.24-.17s.19-.06.29-.06.2.02.29.06.17.1.24.17c.07.07.13.15.17.25s.06.19.06.3ZM145.05,77.17v6.08h-1.07v-6.08h1.07Z"/>
      <path class="cls-7" d="M146.97,83.24v-8.84h1.07v3.64c.25-.29.54-.53.87-.71.33-.18.7-.27,1.12-.27.35,0,.67.07.95.2.28.13.53.33.73.59.2.26.35.59.46.97.11.39.16.83.16,1.33,0,.45-.06.87-.18,1.25s-.29.72-.52,1c-.23.28-.5.5-.83.67s-.69.24-1.1.24-.73-.08-1-.23c-.27-.15-.51-.36-.72-.64l-.05.55c-.03.15-.12.23-.28.23h-.69ZM149.69,77.92c-.35,0-.65.08-.92.24s-.5.39-.72.68v2.94c.19.26.4.45.64.56.23.11.5.16.78.16.57,0,1-.2,1.31-.61.3-.4.46-.98.46-1.73,0-.4-.04-.74-.1-1.02-.07-.28-.17-.52-.3-.7-.13-.18-.29-.32-.49-.4-.19-.08-.41-.13-.65-.13Z"/>
      <path class="cls-7" d="M155.07,75.26c0,.1-.02.2-.06.29s-.1.17-.17.24c-.07.07-.15.12-.24.17s-.19.06-.29.06-.2-.02-.29-.06-.17-.09-.24-.17-.12-.15-.17-.24-.06-.19-.06-.29.02-.2.06-.3.09-.18.17-.25c.07-.07.15-.12.24-.17s.19-.06.29-.06.2.02.29.06.17.1.24.17c.07.07.13.15.17.25s.06.19.06.3ZM154.83,77.17v6.08h-1.07v-6.08h1.07Z"/>
      <path class="cls-7" d="M156.72,83.24v-6.08h.61c.12,0,.2.02.24.07s.07.12.09.23l.07.95c.21-.42.47-.75.77-.99s.67-.36,1.08-.36c.17,0,.32.02.46.06.14.04.26.09.38.16l-.14.8c-.03.1-.09.15-.19.15-.06,0-.14-.02-.26-.06s-.28-.06-.49-.06c-.37,0-.68.11-.93.32-.25.22-.46.53-.63.94v3.87h-1.07Z"/>
      <path class="cls-7" d="M165.79,83.24h-.47c-.1,0-.19-.02-.25-.05-.06-.03-.11-.1-.13-.2l-.12-.56c-.16.14-.32.27-.47.39-.15.11-.31.21-.48.29-.17.08-.35.14-.54.18-.19.04-.4.06-.63.06s-.46-.03-.66-.1c-.21-.07-.38-.17-.54-.3-.15-.13-.27-.3-.36-.5-.09-.2-.13-.44-.13-.72,0-.24.07-.47.2-.7s.34-.42.64-.59c.29-.17.68-.31,1.16-.42s1.06-.17,1.75-.17v-.48c0-.47-.1-.83-.3-1.08-.2-.24-.5-.37-.9-.37-.26,0-.48.03-.66.1-.18.07-.33.14-.46.22s-.24.16-.34.22c-.09.07-.19.1-.28.1-.07,0-.14-.02-.19-.06s-.1-.08-.13-.14l-.19-.34c.34-.32.7-.57,1.09-.73.39-.16.82-.24,1.29-.24.34,0,.64.06.91.17.26.11.49.27.67.47s.32.44.41.73.14.6.14.94v3.89ZM163.02,82.59c.19,0,.36-.02.52-.06s.3-.09.44-.16c.14-.07.27-.16.4-.25s.25-.21.37-.34v-1.25c-.49,0-.91.03-1.25.09-.34.06-.62.14-.84.25s-.37.22-.47.36c-.1.14-.15.29-.15.46s.03.3.08.42c.05.12.12.21.21.29s.19.13.31.16.25.05.39.05ZM165.36,74.55l-1.4,1.55c-.06.06-.11.1-.17.13-.05.03-.12.04-.21.04h-.64l.89-1.45c.06-.09.12-.16.18-.2.07-.04.16-.06.29-.06h1.04Z"/>
      <path class="cls-7" d="M170.89,78.17c-.05.09-.12.13-.22.13-.06,0-.13-.02-.2-.07s-.17-.09-.28-.15c-.11-.05-.24-.1-.39-.15s-.33-.07-.54-.07c-.18,0-.34.02-.49.07-.14.05-.27.11-.37.19-.1.08-.18.17-.23.28-.05.11-.08.22-.08.34,0,.16.04.29.13.39.09.1.21.19.36.27.15.08.32.14.5.2.19.06.38.12.58.19.2.07.39.14.58.22.19.08.36.18.5.3.15.12.27.27.36.44.09.17.13.38.13.63,0,.28-.05.54-.15.78s-.25.44-.44.62c-.2.17-.44.31-.72.41-.28.1-.61.15-.98.15-.42,0-.81-.07-1.15-.21-.34-.14-.64-.31-.88-.53l.25-.41c.03-.05.07-.09.11-.12s.1-.04.17-.04.15.03.23.08.18.12.29.19c.11.07.25.13.41.19s.37.08.61.08c.21,0,.39-.03.55-.08s.29-.13.39-.22c.1-.09.18-.2.23-.32s.08-.25.08-.38c0-.17-.04-.31-.14-.42-.09-.11-.21-.2-.36-.28-.15-.08-.32-.15-.51-.2-.19-.06-.38-.12-.58-.18-.2-.06-.39-.14-.58-.22-.19-.08-.36-.19-.51-.31-.15-.12-.27-.28-.36-.46-.09-.18-.13-.4-.13-.66,0-.23.05-.46.14-.67.1-.21.24-.4.42-.56.18-.16.41-.29.68-.39.27-.1.57-.14.92-.14.4,0,.76.06,1.08.19.32.13.59.3.82.52l-.24.39Z"/>
      <path class="cls-7" d="M174.93,83.24v-6.08h.64c.15,0,.25.07.29.22l.08.62c.22-.28.47-.5.75-.68s.6-.26.97-.26c.41,0,.75.11,1,.34.25.23.44.54.55.92.08-.22.19-.41.33-.57.14-.16.29-.29.46-.4.17-.1.35-.18.55-.23.19-.05.39-.07.59-.07.32,0,.61.05.86.15.25.1.46.25.64.45.17.2.31.44.4.72.09.29.14.61.14.98v3.87h-1.07v-3.87c0-.48-.1-.84-.31-1.08s-.51-.37-.91-.37c-.18,0-.34.03-.5.09-.16.06-.3.15-.42.27s-.21.27-.29.45-.11.39-.11.63v3.87h-1.07v-3.87c0-.49-.1-.85-.29-1.09-.2-.24-.48-.36-.86-.36-.26,0-.51.07-.73.21-.23.14-.43.33-.62.58v4.53h-1.07Z"/>
      <path class="cls-7" d="M187.25,77.07c.44,0,.84.07,1.2.22.36.15.66.36.91.63.25.27.44.6.58.99.13.39.2.82.2,1.29s-.07.91-.2,1.3c-.13.38-.33.71-.58.98-.25.27-.55.48-.91.63-.36.15-.76.22-1.2.22s-.84-.07-1.2-.22c-.36-.15-.66-.36-.92-.63-.25-.27-.45-.6-.58-.98s-.2-.82-.2-1.3.07-.91.2-1.29.33-.71.58-.99c.25-.27.56-.48.92-.63.36-.15.76-.22,1.2-.22ZM187.25,82.49c.6,0,1.05-.2,1.34-.6.3-.4.44-.96.44-1.68s-.15-1.29-.44-1.69c-.3-.4-.74-.61-1.34-.61-.3,0-.57.05-.79.16-.22.1-.41.25-.56.45-.15.2-.26.44-.34.72-.07.29-.11.61-.11.97s.04.68.11.97c.07.28.19.52.34.72.15.19.34.34.56.45.22.1.49.16.79.16Z"/>
      <path class="cls-7" d="M191.46,83.24v-6.08h.64c.15,0,.25.07.29.22l.08.66c.26-.29.56-.53.88-.71.33-.18.7-.27,1.13-.27.33,0,.62.05.88.17.25.11.47.27.64.47s.3.45.39.73c.09.28.13.6.13.94v3.87h-1.07v-3.87c0-.46-.11-.82-.32-1.07-.21-.25-.53-.38-.96-.38-.32,0-.61.08-.88.23-.27.15-.53.36-.76.62v4.48h-1.07Z"/>
      <path class="cls-7" d="M200.54,77.07c.36,0,.7.06,1.01.18s.57.3.8.53c.22.23.4.51.53.85.13.34.19.72.19,1.16,0,.17-.02.28-.05.34-.04.06-.1.08-.2.08h-4.04c0,.38.06.72.16,1,.1.28.23.52.4.71.17.19.37.33.6.43.23.09.49.14.78.14.27,0,.5-.03.69-.09.19-.06.36-.13.5-.2s.26-.14.35-.2c.09-.06.18-.09.24-.09.09,0,.16.03.2.1l.3.39c-.13.16-.29.3-.47.42-.18.12-.38.21-.59.29-.21.08-.43.13-.65.17-.22.04-.45.06-.67.06-.42,0-.81-.07-1.16-.21-.35-.14-.66-.35-.92-.62-.26-.27-.46-.61-.6-1.02-.14-.4-.22-.87-.22-1.39,0-.42.06-.82.19-1.19.13-.37.32-.69.56-.96.24-.27.54-.48.89-.64.35-.15.75-.23,1.19-.23ZM200.56,77.86c-.52,0-.92.15-1.22.45-.3.3-.48.71-.55,1.24h3.31c0-.25-.03-.47-.1-.68-.07-.21-.17-.38-.3-.53-.13-.15-.29-.27-.48-.35-.19-.08-.41-.12-.65-.12Z"/>
      <path class="cls-7" d="M208.7,83.24c-.15,0-.25-.07-.29-.22l-.1-.74c-.26.32-.56.57-.89.76-.33.19-.72.29-1.15.29-.35,0-.66-.07-.95-.2s-.53-.33-.73-.59-.35-.58-.46-.97c-.11-.39-.16-.83-.16-1.34,0-.45.06-.87.18-1.25.12-.39.29-.72.52-1.01.23-.28.5-.51.83-.67s.69-.24,1.1-.24c.37,0,.69.06.95.19.26.13.5.3.71.53v-3.37h1.07v8.84h-.64ZM206.62,82.46c.35,0,.65-.08.92-.24.26-.16.5-.39.72-.68v-2.94c-.2-.26-.41-.45-.64-.56-.23-.11-.49-.16-.78-.16-.57,0-1,.2-1.31.61-.3.4-.46.98-.46,1.73,0,.4.03.73.1,1.02.07.28.17.51.3.7.13.18.29.31.49.4.19.08.41.13.66.13Z"/>
      <path class="cls-7" d="M215.59,83.24h-.47c-.1,0-.19-.02-.25-.05-.06-.03-.11-.1-.13-.2l-.12-.56c-.16.14-.32.27-.47.39-.15.11-.31.21-.48.29-.17.08-.35.14-.54.18-.19.04-.4.06-.63.06s-.46-.03-.66-.1c-.21-.07-.38-.17-.54-.3-.15-.13-.27-.3-.36-.5-.09-.2-.13-.44-.13-.72,0-.24.07-.47.2-.7s.34-.42.64-.59c.29-.17.68-.31,1.16-.42s1.06-.17,1.75-.17v-.48c0-.47-.1-.83-.3-1.08-.2-.24-.5-.37-.9-.37-.26,0-.48.03-.66.1-.18.07-.33.14-.46.22s-.24.16-.34.22c-.09.07-.19.1-.28.1-.07,0-.14-.02-.19-.06s-.1-.08-.13-.14l-.19-.34c.34-.32.7-.57,1.09-.73.39-.16.82-.24,1.29-.24.34,0,.64.06.91.17.26.11.49.27.67.47s.32.44.41.73.14.6.14.94v3.89ZM212.82,82.59c.19,0,.36-.02.52-.06s.3-.09.44-.16c.14-.07.27-.16.4-.25s.25-.21.37-.34v-1.25c-.49,0-.91.03-1.25.09-.34.06-.62.14-.84.25s-.37.22-.47.36c-.1.14-.15.29-.15.46s.03.3.08.42c.05.12.12.21.21.29s.19.13.31.16.25.05.39.05Z"/>
      <path class="cls-7" d="M220.69,78.17c-.05.09-.12.13-.22.13-.06,0-.13-.02-.2-.07s-.17-.09-.28-.15c-.11-.05-.24-.1-.39-.15s-.33-.07-.54-.07c-.18,0-.34.02-.49.07-.14.05-.27.11-.37.19-.1.08-.18.17-.23.28-.05.11-.08.22-.08.34,0,.16.04.29.13.39.09.1.21.19.36.27.15.08.32.14.5.2.19.06.38.12.58.19.2.07.39.14.58.22.19.08.36.18.5.3.15.12.27.27.36.44.09.17.13.38.13.63,0,.28-.05.54-.15.78s-.25.44-.44.62c-.2.17-.44.31-.72.41-.28.1-.61.15-.98.15-.42,0-.81-.07-1.15-.21-.34-.14-.64-.31-.88-.53l.25-.41c.03-.05.07-.09.11-.12s.1-.04.17-.04.15.03.23.08.18.12.29.19c.11.07.25.13.41.19s.37.08.61.08c.21,0,.39-.03.55-.08s.29-.13.39-.22c.1-.09.18-.2.23-.32s.08-.25.08-.38c0-.17-.04-.31-.14-.42-.09-.11-.21-.2-.36-.28-.15-.08-.32-.15-.51-.2-.19-.06-.38-.12-.58-.18-.2-.06-.39-.14-.58-.22-.19-.08-.36-.19-.51-.31-.15-.12-.27-.28-.36-.46-.09-.18-.13-.4-.13-.66,0-.23.05-.46.14-.67.1-.21.24-.4.42-.56.18-.16.41-.29.68-.39.27-.1.57-.14.92-.14.4,0,.76.06,1.08.19.32.13.59.3.82.52l-.24.39Z"/>
      <path class="cls-7" d="M229.65,77.17v8.14h-1.07v-2.96c-.26.3-.55.53-.87.71-.33.18-.7.27-1.12.27-.35,0-.66-.07-.95-.2s-.53-.33-.73-.59-.35-.58-.46-.97c-.11-.39-.16-.83-.16-1.34,0-.45.06-.87.18-1.25.12-.39.29-.72.52-1.01.23-.28.5-.51.83-.67s.69-.24,1.1-.24.73.07,1,.21c.27.14.52.34.74.59l.07-.47c.04-.15.14-.22.29-.22h.64ZM226.94,82.46c.35,0,.65-.08.92-.24.26-.16.5-.39.72-.68v-2.94c-.19-.26-.41-.44-.64-.55-.24-.11-.5-.17-.78-.17-.57,0-1,.2-1.31.61-.3.4-.46.98-.46,1.73,0,.4.03.73.1,1.02.07.28.17.51.3.7.13.18.29.31.49.4.19.08.41.13.66.13Z"/>
      <path class="cls-7" d="M232.36,77.17v3.88c0,.46.11.82.32,1.07s.53.38.96.38c.31,0,.61-.07.88-.22.28-.15.53-.35.76-.62v-4.48h1.07v6.08h-.64c-.15,0-.25-.07-.29-.22l-.08-.65c-.26.29-.56.53-.89.71-.33.18-.7.27-1.13.27-.33,0-.62-.05-.88-.17-.25-.11-.47-.26-.64-.46s-.3-.44-.39-.73-.13-.6-.13-.94v-3.88h1.07Z"/>
      <path class="cls-7" d="M240.52,77.07c.36,0,.7.06,1.01.18s.57.3.8.53c.22.23.4.51.53.85.13.34.19.72.19,1.16,0,.17-.02.28-.05.34-.04.06-.1.08-.2.08h-4.04c0,.38.06.72.16,1,.1.28.23.52.4.71.17.19.37.33.6.43.23.09.49.14.78.14.27,0,.5-.03.69-.09.19-.06.36-.13.5-.2s.26-.14.35-.2c.09-.06.18-.09.24-.09.09,0,.16.03.2.1l.3.39c-.13.16-.29.3-.47.42-.18.12-.38.21-.59.29-.21.08-.43.13-.65.17-.22.04-.45.06-.67.06-.42,0-.81-.07-1.16-.21-.35-.14-.66-.35-.92-.62-.26-.27-.46-.61-.6-1.02-.14-.4-.22-.87-.22-1.39,0-.42.06-.82.19-1.19.13-.37.32-.69.56-.96.24-.27.54-.48.89-.64.35-.15.75-.23,1.19-.23ZM240.54,77.86c-.52,0-.92.15-1.22.45-.3.3-.48.71-.55,1.24h3.31c0-.25-.03-.47-.1-.68-.07-.21-.17-.38-.3-.53-.13-.15-.29-.27-.48-.35-.19-.08-.41-.12-.65-.12Z"/>
      <path class="cls-7" d="M0,101.7v-8.14h.64c.15,0,.25.07.29.22l.09.72c.26-.32.56-.57.89-.76.33-.19.72-.29,1.15-.29.35,0,.66.07.95.2.28.13.53.33.73.59.2.26.35.59.46.97.11.39.16.83.16,1.34,0,.45-.06.87-.18,1.25s-.29.72-.52,1c-.22.28-.5.5-.83.67s-.69.24-1.1.24c-.38,0-.7-.06-.96-.19-.27-.12-.5-.3-.71-.53v2.69H0ZM2.71,94.32c-.35,0-.65.08-.92.24s-.5.39-.72.68v2.94c.2.26.41.45.64.56.23.11.5.16.78.16.56,0,1-.2,1.3-.61.3-.4.46-.98.46-1.73,0-.4-.04-.74-.1-1.02-.07-.28-.17-.52-.3-.7s-.29-.32-.49-.4c-.19-.08-.41-.13-.65-.13Z"/>
      <path class="cls-7" d="M9.08,93.47c.44,0,.84.07,1.2.22.36.15.66.36.91.63.25.27.44.6.58.99.13.39.2.82.2,1.29s-.07.91-.2,1.3c-.13.38-.33.71-.58.98-.25.27-.55.48-.91.63-.36.15-.76.22-1.2.22s-.84-.07-1.2-.22c-.36-.15-.66-.36-.92-.63-.25-.27-.45-.6-.58-.98s-.2-.82-.2-1.3.07-.91.2-1.29.33-.71.58-.99c.25-.27.56-.48.92-.63.36-.15.76-.22,1.2-.22ZM9.08,98.89c.6,0,1.05-.2,1.34-.6.3-.4.44-.96.44-1.68s-.15-1.29-.44-1.69c-.3-.4-.74-.61-1.34-.61-.3,0-.57.05-.79.16-.22.1-.41.25-.56.45-.15.2-.26.44-.34.72-.07.29-.11.61-.11.97s.04.68.11.97c.07.28.19.52.34.72.15.19.34.34.56.45.22.1.49.16.79.16Z"/>
      <path class="cls-7" d="M17.57,99.64c-.15,0-.25-.07-.29-.22l-.1-.74c-.26.32-.56.57-.89.76-.33.19-.72.29-1.15.29-.35,0-.66-.07-.95-.2s-.53-.33-.73-.59-.35-.58-.46-.97c-.11-.39-.16-.83-.16-1.34,0-.45.06-.87.18-1.25.12-.39.29-.72.52-1.01.23-.28.5-.51.83-.67s.69-.24,1.1-.24c.37,0,.69.06.95.19.26.13.5.3.71.53v-3.37h1.07v8.84h-.64ZM15.5,98.86c.35,0,.65-.08.92-.24.26-.16.5-.39.72-.68v-2.94c-.2-.26-.41-.45-.64-.56-.23-.11-.49-.16-.78-.16-.57,0-1,.2-1.31.61-.3.4-.46.98-.46,1.73,0,.4.03.73.1,1.02.07.28.17.51.3.7.13.18.29.31.49.4.19.08.41.13.66.13Z"/>
      <path class="cls-7" d="M20,99.64v-6.08h.61c.12,0,.2.02.24.07s.07.12.09.23l.07.95c.21-.42.47-.75.77-.99s.67-.36,1.08-.36c.17,0,.32.02.46.06.14.04.26.09.38.16l-.14.8c-.03.1-.09.15-.19.15-.06,0-.14-.02-.26-.06s-.28-.06-.49-.06c-.37,0-.68.11-.93.32-.25.22-.46.53-.63.94v3.87h-1.07Z"/>
      <path class="cls-7" d="M29.08,99.64h-.47c-.1,0-.19-.02-.25-.05-.06-.03-.11-.1-.13-.2l-.12-.56c-.16.14-.32.27-.47.39-.15.11-.31.21-.48.29-.17.08-.35.14-.54.18-.19.04-.4.06-.63.06s-.46-.03-.66-.1c-.21-.07-.38-.17-.54-.3-.15-.13-.27-.3-.36-.5-.09-.2-.13-.44-.13-.72,0-.24.07-.47.2-.7s.34-.42.64-.59c.29-.17.68-.31,1.16-.42s1.06-.17,1.75-.17v-.48c0-.47-.1-.83-.3-1.08-.2-.24-.5-.37-.9-.37-.26,0-.48.03-.66.1-.18.07-.33.14-.46.22s-.24.16-.34.22c-.09.07-.19.1-.28.1-.07,0-.14-.02-.19-.06s-.1-.08-.13-.14l-.19-.34c.34-.32.7-.57,1.09-.73.39-.16.82-.24,1.29-.24.34,0,.64.06.91.17.26.11.49.27.67.47s.32.44.41.73.14.6.14.94v3.89ZM26.3,98.99c.19,0,.36-.02.52-.06s.3-.09.44-.16c.14-.07.27-.16.4-.25s.25-.21.37-.34v-1.25c-.49,0-.91.03-1.25.09-.34.06-.62.14-.84.25s-.37.22-.47.36c-.1.14-.15.29-.15.46s.03.3.08.42c.05.12.12.21.21.29s.19.13.31.16.25.05.39.05ZM28.64,90.95l-1.4,1.55c-.06.06-.11.1-.17.13-.05.03-.12.04-.21.04h-.64l.89-1.45c.06-.09.12-.16.18-.2.07-.04.16-.06.29-.06h1.04Z"/>
      <path class="cls-7" d="M34.18,94.57c-.05.09-.12.13-.22.13-.06,0-.13-.02-.2-.07s-.17-.09-.28-.15c-.11-.05-.24-.1-.39-.15s-.33-.07-.54-.07c-.18,0-.34.02-.49.07-.14.05-.27.11-.37.19-.1.08-.18.17-.23.28-.05.11-.08.22-.08.34,0,.16.04.29.13.39.09.1.21.19.36.27.15.08.32.14.5.2.19.06.38.12.58.19.2.07.39.14.58.22.19.08.36.18.5.3.15.12.27.27.36.44.09.17.13.38.13.63,0,.28-.05.54-.15.78s-.25.44-.44.62c-.2.17-.44.31-.72.41-.28.1-.61.15-.98.15-.42,0-.81-.07-1.15-.21-.34-.14-.64-.31-.88-.53l.25-.41c.03-.05.07-.09.11-.12s.1-.04.17-.04.15.03.23.08.18.12.29.19c.11.07.25.13.41.19s.37.08.61.08c.21,0,.39-.03.55-.08s.29-.13.39-.22c.1-.09.18-.2.23-.32s.08-.25.08-.38c0-.17-.04-.31-.14-.42-.09-.11-.21-.2-.36-.28-.15-.08-.32-.15-.51-.2-.19-.06-.38-.12-.58-.18-.2-.06-.39-.14-.58-.22-.19-.08-.36-.19-.51-.31-.15-.12-.27-.28-.36-.46-.09-.18-.13-.4-.13-.66,0-.23.05-.46.14-.67.1-.21.24-.4.42-.56.18-.16.41-.29.68-.39.27-.1.57-.14.92-.14.4,0,.76.06,1.08.19.32.13.59.3.82.52l-.24.39Z"/>
      <path class="cls-7" d="M42.68,99.64h-.47c-.1,0-.19-.02-.25-.05-.06-.03-.11-.1-.13-.2l-.12-.56c-.16.14-.32.27-.47.39-.15.11-.31.21-.48.29-.17.08-.35.14-.54.18-.19.04-.4.06-.63.06s-.46-.03-.66-.1c-.21-.07-.38-.17-.54-.3-.15-.13-.27-.3-.36-.5-.09-.2-.13-.44-.13-.72,0-.24.07-.47.2-.7s.34-.42.64-.59c.29-.17.68-.31,1.16-.42s1.06-.17,1.75-.17v-.48c0-.47-.1-.83-.3-1.08-.2-.24-.5-.37-.9-.37-.26,0-.48.03-.66.1-.18.07-.33.14-.46.22s-.24.16-.34.22c-.09.07-.19.1-.28.1-.07,0-.14-.02-.19-.06s-.1-.08-.13-.14l-.19-.34c.34-.32.7-.57,1.09-.73.39-.16.82-.24,1.29-.24.34,0,.64.06.91.17.26.11.49.27.67.47s.32.44.41.73.14.6.14.94v3.89ZM39.91,98.99c.19,0,.36-.02.52-.06s.3-.09.44-.16c.14-.07.27-.16.4-.25s.25-.21.37-.34v-1.25c-.49,0-.91.03-1.25.09-.34.06-.62.14-.84.25s-.37.22-.47.36c-.1.14-.15.29-.15.46s.03.3.08.42c.05.12.12.21.21.29s.19.13.31.16.25.05.39.05Z"/>
      <path class="cls-7" d="M48.45,94.65s-.06.08-.1.1c-.03.02-.08.04-.14.04s-.12-.02-.2-.07c-.07-.05-.16-.11-.27-.17-.11-.06-.24-.12-.39-.17-.15-.05-.34-.08-.57-.08-.3,0-.56.05-.79.16-.23.11-.42.26-.57.46s-.27.44-.35.73-.12.6-.12.95.04.7.13.98c.08.29.2.53.35.72.15.19.34.34.55.44.22.1.46.15.73.15s.47-.03.64-.09c.17-.06.31-.13.42-.21s.2-.14.28-.21c.07-.06.14-.09.22-.09.09,0,.16.03.2.1l.3.39c-.26.32-.59.56-.99.71-.4.15-.81.22-1.25.22-.38,0-.73-.07-1.06-.21-.33-.14-.61-.34-.85-.61-.24-.27-.43-.59-.57-.98-.14-.39-.21-.83-.21-1.33,0-.45.06-.87.19-1.25s.31-.71.55-.99c.24-.28.54-.5.9-.65.36-.16.76-.23,1.22-.23.42,0,.8.07,1.13.21.33.14.62.33.87.58l-.28.38Z"/>
      <path class="cls-7" d="M50.83,93.57v3.88c0,.46.11.82.32,1.07s.53.38.96.38c.31,0,.61-.07.88-.22.28-.15.53-.35.76-.62v-4.48h1.07v6.08h-.64c-.15,0-.25-.07-.29-.22l-.08-.65c-.26.29-.56.53-.89.71-.33.18-.7.27-1.13.27-.33,0-.62-.05-.88-.17-.25-.11-.47-.26-.64-.46s-.3-.44-.39-.73-.13-.6-.13-.94v-3.88h1.07Z"/>
      <path class="cls-7" d="M56.58,99.64v-6.08h.64c.15,0,.25.07.29.22l.08.62c.22-.28.47-.5.75-.68s.6-.26.97-.26c.41,0,.75.11,1,.34.25.23.44.54.55.92.08-.22.19-.41.33-.57.14-.16.29-.29.46-.4.17-.1.35-.18.55-.23.19-.05.39-.07.59-.07.32,0,.61.05.86.15.25.1.46.25.64.45.17.2.31.44.4.72.09.29.14.61.14.98v3.87h-1.07v-3.87c0-.48-.1-.84-.31-1.08s-.51-.37-.91-.37c-.18,0-.34.03-.5.09-.16.06-.3.15-.42.27s-.21.27-.29.45-.11.39-.11.63v3.87h-1.07v-3.87c0-.49-.1-.85-.29-1.09-.2-.24-.48-.36-.86-.36-.26,0-.51.07-.73.21-.23.14-.43.33-.62.58v4.53h-1.07Z"/>
      <path class="cls-7" d="M67.36,93.57v3.88c0,.46.11.82.32,1.07s.53.38.96.38c.31,0,.61-.07.88-.22.28-.15.53-.35.76-.62v-4.48h1.07v6.08h-.64c-.15,0-.25-.07-.29-.22l-.08-.65c-.26.29-.56.53-.89.71-.33.18-.7.27-1.13.27-.33,0-.62-.05-.88-.17-.25-.11-.47-.26-.64-.46s-.3-.44-.39-.73-.13-.6-.13-.94v-3.88h1.07Z"/>
      <path class="cls-7" d="M74.29,90.81v8.84h-1.07v-8.84h1.07Z"/>
      <path class="cls-7" d="M80.64,99.64h-.47c-.1,0-.19-.02-.25-.05-.06-.03-.11-.1-.13-.2l-.12-.56c-.16.14-.32.27-.47.39-.15.11-.31.21-.48.29-.17.08-.35.14-.54.18-.19.04-.4.06-.63.06s-.46-.03-.66-.1c-.21-.07-.38-.17-.54-.3-.15-.13-.27-.3-.36-.5-.09-.2-.13-.44-.13-.72,0-.24.07-.47.2-.7s.34-.42.64-.59c.29-.17.68-.31,1.16-.42s1.06-.17,1.75-.17v-.48c0-.47-.1-.83-.3-1.08-.2-.24-.5-.37-.9-.37-.26,0-.48.03-.66.1-.18.07-.33.14-.46.22s-.24.16-.34.22c-.09.07-.19.1-.28.1-.07,0-.14-.02-.19-.06s-.1-.08-.13-.14l-.19-.34c.34-.32.7-.57,1.09-.73.39-.16.82-.24,1.29-.24.34,0,.64.06.91.17.26.11.49.27.67.47s.32.44.41.73.14.6.14.94v3.89ZM77.87,98.99c.19,0,.36-.02.52-.06s.3-.09.44-.16c.14-.07.27-.16.4-.25s.25-.21.37-.34v-1.25c-.49,0-.91.03-1.25.09-.34.06-.62.14-.84.25s-.37.22-.47.36c-.1.14-.15.29-.15.46s.03.3.08.42c.05.12.12.21.21.29s.19.13.31.16.25.05.39.05Z"/>
      <path class="cls-7" d="M82.26,99.64v-6.08h.61c.12,0,.2.02.24.07s.07.12.09.23l.07.95c.21-.42.47-.75.77-.99s.67-.36,1.08-.36c.17,0,.32.02.46.06.14.04.26.09.38.16l-.14.8c-.03.1-.09.15-.19.15-.06,0-.14-.02-.26-.06s-.28-.06-.49-.06c-.37,0-.68.11-.93.32-.25.22-.46.53-.63.94v3.87h-1.07Z"/>
      <path class="cls-7" d="M85.96,98.98c0-.1.02-.2.06-.29s.09-.17.16-.24c.07-.07.14-.12.24-.16.09-.04.19-.06.29-.06s.2.02.29.06c.09.04.17.09.24.16s.12.15.16.24.06.19.06.29-.02.21-.06.3-.09.17-.16.24c-.07.07-.15.12-.24.16-.09.04-.19.06-.29.06s-.2-.02-.29-.06c-.09-.04-.17-.09-.24-.16-.07-.07-.12-.15-.16-.24s-.06-.19-.06-.3Z"/>
      <path class="cls-7" d="M96.63,91.05v.95h-4.13v2.86h3.34v.91h-3.34v2.93h4.13v.95h-5.3v-8.6h5.3Z"/>
      <path class="cls-7" d="M101.62,94.57c-.05.09-.12.13-.22.13-.06,0-.13-.02-.2-.07s-.17-.09-.28-.15c-.11-.05-.24-.1-.39-.15s-.33-.07-.54-.07c-.18,0-.34.02-.49.07-.14.05-.27.11-.37.19-.1.08-.18.17-.23.28-.05.11-.08.22-.08.34,0,.16.04.29.13.39.09.1.21.19.36.27.15.08.32.14.5.2.19.06.38.12.58.19.2.07.39.14.58.22.19.08.36.18.5.3.15.12.27.27.36.44.09.17.13.38.13.63,0,.28-.05.54-.15.78s-.25.44-.44.62c-.2.17-.44.31-.72.41-.28.1-.61.15-.98.15-.42,0-.81-.07-1.15-.21-.34-.14-.64-.31-.88-.53l.25-.41c.03-.05.07-.09.11-.12s.1-.04.17-.04.15.03.23.08.18.12.29.19c.11.07.25.13.41.19s.37.08.61.08c.21,0,.39-.03.55-.08s.29-.13.39-.22c.1-.09.18-.2.23-.32s.08-.25.08-.38c0-.17-.04-.31-.14-.42-.09-.11-.21-.2-.36-.28-.15-.08-.32-.15-.51-.2-.19-.06-.38-.12-.58-.18-.2-.06-.39-.14-.58-.22-.19-.08-.36-.19-.51-.31-.15-.12-.27-.28-.36-.46-.09-.18-.13-.4-.13-.66,0-.23.05-.46.14-.67.1-.21.24-.4.42-.56.18-.16.41-.29.68-.39.27-.1.57-.14.92-.14.4,0,.76.06,1.08.19.32.13.59.3.82.52l-.24.39Z"/>
      <path class="cls-7" d="M105.18,99.74c-.48,0-.85-.13-1.11-.4-.26-.27-.39-.65-.39-1.16v-3.72h-.73c-.06,0-.12-.02-.16-.06s-.07-.1-.07-.18v-.43l1-.13.25-1.88c0-.06.03-.11.08-.15s.1-.06.17-.06h.54v2.09h1.74v.77h-1.74v3.65c0,.26.06.45.19.57s.28.19.48.19c.11,0,.21-.01.29-.04s.15-.06.21-.1c.06-.04.11-.07.15-.1.04-.03.08-.04.11-.04.06,0,.11.03.15.1l.31.51c-.18.17-.41.31-.67.41-.26.1-.53.15-.8.15Z"/>
      <path class="cls-7" d="M112.28,99.64h-.47c-.1,0-.19-.02-.25-.05-.06-.03-.11-.1-.13-.2l-.12-.56c-.16.14-.32.27-.47.39-.15.11-.31.21-.48.29-.17.08-.35.14-.54.18-.19.04-.4.06-.63.06s-.46-.03-.66-.1c-.21-.07-.38-.17-.54-.3-.15-.13-.27-.3-.36-.5-.09-.2-.13-.44-.13-.72,0-.24.07-.47.2-.7s.34-.42.64-.59c.29-.17.68-.31,1.16-.42s1.06-.17,1.75-.17v-.48c0-.47-.1-.83-.3-1.08-.2-.24-.5-.37-.9-.37-.26,0-.48.03-.66.1-.18.07-.33.14-.46.22s-.24.16-.34.22c-.09.07-.19.1-.28.1-.07,0-.14-.02-.19-.06s-.1-.08-.13-.14l-.19-.34c.34-.32.7-.57,1.09-.73.39-.16.82-.24,1.29-.24.34,0,.64.06.91.17.26.11.49.27.67.47s.32.44.41.73.14.6.14.94v3.89ZM109.51,98.99c.19,0,.36-.02.52-.06s.3-.09.44-.16c.14-.07.27-.16.4-.25s.25-.21.37-.34v-1.25c-.49,0-.91.03-1.25.09-.34.06-.62.14-.84.25s-.37.22-.47.36c-.1.14-.15.29-.15.46s.03.3.08.42c.05.12.12.21.21.29s.19.13.31.16.25.05.39.05Z"/>
      <path class="cls-7" d="M117.38,94.57c-.05.09-.12.13-.22.13-.06,0-.13-.02-.2-.07s-.17-.09-.28-.15c-.11-.05-.24-.1-.39-.15s-.33-.07-.54-.07c-.18,0-.34.02-.49.07-.14.05-.27.11-.37.19-.1.08-.18.17-.23.28-.05.11-.08.22-.08.34,0,.16.04.29.13.39.09.1.21.19.36.27.15.08.32.14.5.2.19.06.38.12.58.19.2.07.39.14.58.22.19.08.36.18.5.3.15.12.27.27.36.44.09.17.13.38.13.63,0,.28-.05.54-.15.78s-.25.44-.44.62c-.2.17-.44.31-.72.41-.28.1-.61.15-.98.15-.42,0-.81-.07-1.15-.21-.34-.14-.64-.31-.88-.53l.25-.41c.03-.05.07-.09.11-.12s.1-.04.17-.04.15.03.23.08.18.12.29.19c.11.07.25.13.41.19s.37.08.61.08c.21,0,.39-.03.55-.08s.29-.13.39-.22c.1-.09.18-.2.23-.32s.08-.25.08-.38c0-.17-.04-.31-.14-.42-.09-.11-.21-.2-.36-.28-.15-.08-.32-.15-.51-.2-.19-.06-.38-.12-.58-.18-.2-.06-.39-.14-.58-.22-.19-.08-.36-.19-.51-.31-.15-.12-.27-.28-.36-.46-.09-.18-.13-.4-.13-.66,0-.23.05-.46.14-.67.1-.21.24-.4.42-.56.18-.16.41-.29.68-.39.27-.1.57-.14.92-.14.4,0,.76.06,1.08.19.32.13.59.3.82.52l-.24.39Z"/>
      <path class="cls-7" d="M121.43,99.64v-6.08h.64c.15,0,.25.07.29.22l.08.62c.22-.28.47-.5.75-.68s.6-.26.97-.26c.41,0,.75.11,1,.34.25.23.44.54.55.92.08-.22.19-.41.33-.57.14-.16.29-.29.46-.4.17-.1.35-.18.55-.23.19-.05.39-.07.59-.07.32,0,.61.05.86.15.25.1.46.25.64.45.17.2.31.44.4.72.09.29.14.61.14.98v3.87h-1.07v-3.87c0-.48-.1-.84-.31-1.08s-.51-.37-.91-.37c-.18,0-.34.03-.5.09-.16.06-.3.15-.42.27s-.21.27-.29.45-.11.39-.11.63v3.87h-1.07v-3.87c0-.49-.1-.85-.29-1.09-.2-.24-.48-.36-.86-.36-.26,0-.51.07-.73.21-.23.14-.43.33-.62.58v4.53h-1.07Z"/>
      <path class="cls-7" d="M133.74,93.47c.44,0,.84.07,1.2.22.36.15.66.36.91.63.25.27.44.6.58.99.13.39.2.82.2,1.29s-.07.91-.2,1.3c-.13.38-.33.71-.58.98-.25.27-.55.48-.91.63-.36.15-.76.22-1.2.22s-.84-.07-1.2-.22c-.36-.15-.66-.36-.92-.63-.25-.27-.45-.6-.58-.98s-.2-.82-.2-1.3.07-.91.2-1.29.33-.71.58-.99c.25-.27.56-.48.92-.63.36-.15.76-.22,1.2-.22ZM133.74,98.89c.6,0,1.05-.2,1.34-.6.3-.4.44-.96.44-1.68s-.15-1.29-.44-1.69c-.3-.4-.74-.61-1.34-.61-.3,0-.57.05-.79.16-.22.1-.41.25-.56.45-.15.2-.26.44-.34.72-.07.29-.11.61-.11.97s.04.68.11.97c.07.28.19.52.34.72.15.19.34.34.56.45.22.1.49.16.79.16Z"/>
      <path class="cls-7" d="M137.95,99.64v-6.08h.64c.15,0,.25.07.29.22l.08.66c.26-.29.56-.53.88-.71.33-.18.7-.27,1.13-.27.33,0,.62.05.88.17.25.11.47.27.64.47s.3.45.39.73c.09.28.13.6.13.94v3.87h-1.07v-3.87c0-.46-.11-.82-.32-1.07-.21-.25-.53-.38-.96-.38-.32,0-.61.08-.88.23-.27.15-.53.36-.76.62v4.48h-1.07Z"/>
      <path class="cls-7" d="M147.03,93.47c.36,0,.7.06,1.01.18s.57.3.8.53c.22.23.4.51.53.85.13.34.19.72.19,1.16,0,.17-.02.28-.05.34-.04.06-.1.08-.2.08h-4.04c0,.38.06.72.16,1,.1.28.23.52.4.71.17.19.37.33.6.43.23.09.49.14.78.14.27,0,.5-.03.69-.09.19-.06.36-.13.5-.2s.26-.14.35-.2c.09-.06.18-.09.24-.09.09,0,.16.03.2.1l.3.39c-.13.16-.29.3-.47.42-.18.12-.38.21-.59.29-.21.08-.43.13-.65.17-.22.04-.45.06-.67.06-.42,0-.81-.07-1.16-.21-.35-.14-.66-.35-.92-.62-.26-.27-.46-.61-.6-1.02-.14-.4-.22-.87-.22-1.39,0-.42.06-.82.19-1.19.13-.37.32-.69.56-.96.24-.27.54-.48.89-.64.35-.15.75-.23,1.19-.23ZM147.05,94.26c-.52,0-.92.15-1.22.45-.3.3-.48.71-.55,1.24h3.31c0-.25-.03-.47-.1-.68-.07-.21-.17-.38-.3-.53-.13-.15-.29-.27-.48-.35-.19-.08-.41-.12-.65-.12Z"/>
      <path class="cls-7" d="M155.19,99.64c-.15,0-.25-.07-.29-.22l-.1-.74c-.26.32-.56.57-.89.76-.33.19-.72.29-1.15.29-.35,0-.66-.07-.95-.2s-.53-.33-.73-.59-.35-.58-.46-.97c-.11-.39-.16-.83-.16-1.34,0-.45.06-.87.18-1.25.12-.39.29-.72.52-1.01.23-.28.5-.51.83-.67s.69-.24,1.1-.24c.37,0,.69.06.95.19.26.13.5.3.71.53v-3.37h1.07v8.84h-.64ZM153.12,98.86c.35,0,.65-.08.92-.24.26-.16.5-.39.72-.68v-2.94c-.2-.26-.41-.45-.64-.56-.23-.11-.49-.16-.78-.16-.57,0-1,.2-1.31.61-.3.4-.46.98-.46,1.73,0,.4.03.73.1,1.02.07.28.17.51.3.7.13.18.29.31.49.4.19.08.41.13.66.13Z"/>
      <path class="cls-7" d="M162.08,99.64h-.47c-.1,0-.19-.02-.25-.05-.06-.03-.11-.1-.13-.2l-.12-.56c-.16.14-.32.27-.47.39-.15.11-.31.21-.48.29-.17.08-.35.14-.54.18-.19.04-.4.06-.63.06s-.46-.03-.66-.1c-.21-.07-.38-.17-.54-.3-.15-.13-.27-.3-.36-.5-.09-.2-.13-.44-.13-.72,0-.24.07-.47.2-.7s.34-.42.64-.59c.29-.17.68-.31,1.16-.42s1.06-.17,1.75-.17v-.48c0-.47-.1-.83-.3-1.08-.2-.24-.5-.37-.9-.37-.26,0-.48.03-.66.1-.18.07-.33.14-.46.22s-.24.16-.34.22c-.09.07-.19.1-.28.1-.07,0-.14-.02-.19-.06s-.1-.08-.13-.14l-.19-.34c.34-.32.7-.57,1.09-.73.39-.16.82-.24,1.29-.24.34,0,.64.06.91.17.26.11.49.27.67.47s.32.44.41.73.14.6.14.94v3.89ZM159.31,98.99c.19,0,.36-.02.52-.06s.3-.09.44-.16c.14-.07.27-.16.4-.25s.25-.21.37-.34v-1.25c-.49,0-.91.03-1.25.09-.34.06-.62.14-.84.25s-.37.22-.47.36c-.1.14-.15.29-.15.46s.03.3.08.42c.05.12.12.21.21.29s.19.13.31.16.25.05.39.05Z"/>
      <path class="cls-7" d="M167.18,94.57c-.05.09-.12.13-.22.13-.06,0-.13-.02-.2-.07s-.17-.09-.28-.15c-.11-.05-.24-.1-.39-.15s-.33-.07-.54-.07c-.18,0-.34.02-.49.07-.14.05-.27.11-.37.19-.1.08-.18.17-.23.28-.05.11-.08.22-.08.34,0,.16.04.29.13.39.09.1.21.19.36.27.15.08.32.14.5.2.19.06.38.12.58.19.2.07.39.14.58.22.19.08.36.18.5.3.15.12.27.27.36.44.09.17.13.38.13.63,0,.28-.05.54-.15.78s-.25.44-.44.62c-.2.17-.44.31-.72.41-.28.1-.61.15-.98.15-.42,0-.81-.07-1.15-.21-.34-.14-.64-.31-.88-.53l.25-.41c.03-.05.07-.09.11-.12s.1-.04.17-.04.15.03.23.08.18.12.29.19c.11.07.25.13.41.19s.37.08.61.08c.21,0,.39-.03.55-.08s.29-.13.39-.22c.1-.09.18-.2.23-.32s.08-.25.08-.38c0-.17-.04-.31-.14-.42-.09-.11-.21-.2-.36-.28-.15-.08-.32-.15-.51-.2-.19-.06-.38-.12-.58-.18-.2-.06-.39-.14-.58-.22-.19-.08-.36-.19-.51-.31-.15-.12-.27-.28-.36-.46-.09-.18-.13-.4-.13-.66,0-.23.05-.46.14-.67.1-.21.24-.4.42-.56.18-.16.41-.29.68-.39.27-.1.57-.14.92-.14.4,0,.76.06,1.08.19.32.13.59.3.82.52l-.24.39Z"/>
      <path class="cls-7" d="M173.07,99.74c-.48,0-.85-.13-1.11-.4-.26-.27-.39-.65-.39-1.16v-3.72h-.73c-.06,0-.12-.02-.16-.06s-.07-.1-.07-.18v-.43l1-.13.25-1.88c0-.06.03-.11.08-.15s.1-.06.17-.06h.54v2.09h1.74v.77h-1.74v3.65c0,.26.06.45.19.57s.28.19.48.19c.11,0,.21-.01.29-.04s.15-.06.21-.1c.06-.04.11-.07.15-.1.04-.03.08-.04.11-.04.06,0,.11.03.15.1l.31.51c-.18.17-.41.31-.67.41-.26.1-.53.15-.8.15Z"/>
      <path class="cls-7" d="M178.11,93.47c.36,0,.7.06,1.01.18s.57.3.8.53c.22.23.4.51.53.85.13.34.19.72.19,1.16,0,.17-.02.28-.05.34-.04.06-.1.08-.2.08h-4.04c0,.38.06.72.16,1,.1.28.23.52.4.71.17.19.37.33.6.43.23.09.49.14.78.14.27,0,.5-.03.69-.09.19-.06.36-.13.5-.2s.26-.14.35-.2c.09-.06.18-.09.24-.09.09,0,.16.03.2.1l.3.39c-.13.16-.29.3-.47.42-.18.12-.38.21-.59.29-.21.08-.43.13-.65.17-.22.04-.45.06-.67.06-.42,0-.81-.07-1.16-.21-.35-.14-.66-.35-.92-.62-.26-.27-.46-.61-.6-1.02-.14-.4-.22-.87-.22-1.39,0-.42.06-.82.19-1.19.13-.37.32-.69.56-.96.24-.27.54-.48.89-.64.35-.15.75-.23,1.19-.23ZM178.13,94.26c-.52,0-.92.15-1.22.45-.3.3-.48.71-.55,1.24h3.31c0-.25-.03-.47-.1-.68-.07-.21-.17-.38-.3-.53-.13-.15-.29-.27-.48-.35-.19-.08-.41-.12-.65-.12Z"/>
      <path class="cls-7" d="M187.79,94.57c-.05.09-.12.13-.22.13-.06,0-.13-.02-.2-.07s-.17-.09-.28-.15c-.11-.05-.24-.1-.39-.15s-.33-.07-.54-.07c-.18,0-.34.02-.49.07-.14.05-.27.11-.37.19-.1.08-.18.17-.23.28-.05.11-.08.22-.08.34,0,.16.04.29.13.39.09.1.21.19.36.27.15.08.32.14.5.2.19.06.38.12.58.19.2.07.39.14.58.22.19.08.36.18.5.3.15.12.27.27.36.44.09.17.13.38.13.63,0,.28-.05.54-.15.78s-.25.44-.44.62c-.2.17-.44.31-.72.41-.28.1-.61.15-.98.15-.42,0-.81-.07-1.15-.21-.34-.14-.64-.31-.88-.53l.25-.41c.03-.05.07-.09.11-.12s.1-.04.17-.04.15.03.23.08.18.12.29.19c.11.07.25.13.41.19s.37.08.61.08c.21,0,.39-.03.55-.08s.29-.13.39-.22c.1-.09.18-.2.23-.32s.08-.25.08-.38c0-.17-.04-.31-.14-.42-.09-.11-.21-.2-.36-.28-.15-.08-.32-.15-.51-.2-.19-.06-.38-.12-.58-.18-.2-.06-.39-.14-.58-.22-.19-.08-.36-.19-.51-.31-.15-.12-.27-.28-.36-.46-.09-.18-.13-.4-.13-.66,0-.23.05-.46.14-.67.1-.21.24-.4.42-.56.18-.16.41-.29.68-.39.27-.1.57-.14.92-.14.4,0,.76.06,1.08.19.32.13.59.3.82.52l-.24.39Z"/>
      <path class="cls-7" d="M191.92,93.47c.36,0,.7.06,1.01.18s.57.3.8.53c.22.23.4.51.53.85.13.34.19.72.19,1.16,0,.17-.02.28-.05.34-.04.06-.1.08-.2.08h-4.04c0,.38.06.72.16,1,.1.28.23.52.4.71.17.19.37.33.6.43.23.09.49.14.78.14.27,0,.5-.03.69-.09.19-.06.36-.13.5-.2s.26-.14.35-.2c.09-.06.18-.09.24-.09.09,0,.16.03.2.1l.3.39c-.13.16-.29.3-.47.42-.18.12-.38.21-.59.29-.21.08-.43.13-.65.17-.22.04-.45.06-.67.06-.42,0-.81-.07-1.16-.21-.35-.14-.66-.35-.92-.62-.26-.27-.46-.61-.6-1.02-.14-.4-.22-.87-.22-1.39,0-.42.06-.82.19-1.19.13-.37.32-.69.56-.96.24-.27.54-.48.89-.64.35-.15.75-.23,1.19-.23ZM191.94,94.26c-.52,0-.92.15-1.22.45-.3.3-.48.71-.55,1.24h3.31c0-.25-.03-.47-.1-.68-.07-.21-.17-.38-.3-.53-.13-.15-.29-.27-.48-.35-.19-.08-.41-.12-.65-.12Z"/>
      <path class="cls-7" d="M195.8,99.64v-6.08h.61c.12,0,.2.02.24.07s.07.12.09.23l.07.95c.21-.42.47-.75.77-.99s.67-.36,1.08-.36c.17,0,.32.02.46.06.14.04.26.09.38.16l-.14.8c-.03.1-.09.15-.19.15-.06,0-.14-.02-.26-.06s-.28-.06-.49-.06c-.37,0-.68.11-.93.32-.25.22-.46.53-.63.94v3.87h-1.07Z"/>
      <path class="cls-7" d="M199.87,93.57h.88c.08,0,.15.02.21.07.06.04.1.1.12.16l1.54,3.91c.06.14.1.29.13.43.03.14.06.29.09.43.03-.14.07-.28.1-.43.04-.14.08-.29.14-.43l1.56-3.91c.02-.06.06-.12.12-.16s.12-.06.2-.06h.83l-2.48,6.08h-.97l-2.48-6.08Z"/>
      <path class="cls-7" d="M208.21,91.66c0,.1-.02.2-.06.29s-.1.17-.17.24c-.07.07-.15.12-.24.17s-.19.06-.29.06-.2-.02-.29-.06-.17-.09-.24-.17-.12-.15-.17-.24-.06-.19-.06-.29.02-.2.06-.3.09-.18.17-.25c.07-.07.15-.12.24-.17s.19-.06.29-.06.2.02.29.06.17.1.24.17c.07.07.13.15.17.25s.06.19.06.3ZM207.97,93.57v6.08h-1.07v-6.08h1.07Z"/>
      <path class="cls-7" d="M209.85,99.64v-6.08h.61c.12,0,.2.02.24.07s.07.12.09.23l.07.95c.21-.42.47-.75.77-.99s.67-.36,1.08-.36c.17,0,.32.02.46.06.14.04.26.09.38.16l-.14.8c-.03.1-.09.15-.19.15-.06,0-.14-.02-.26-.06s-.28-.06-.49-.06c-.37,0-.68.11-.93.32-.25.22-.46.53-.63.94v3.87h-1.07Z"/>
      <path class="cls-7" d="M218.92,99.64h-.47c-.1,0-.19-.02-.25-.05-.06-.03-.11-.1-.13-.2l-.12-.56c-.16.14-.32.27-.47.39-.15.11-.31.21-.48.29-.17.08-.35.14-.54.18-.19.04-.4.06-.63.06s-.46-.03-.66-.1c-.21-.07-.38-.17-.54-.3-.15-.13-.27-.3-.36-.5-.09-.2-.13-.44-.13-.72,0-.24.07-.47.2-.7s.34-.42.64-.59c.29-.17.68-.31,1.16-.42s1.06-.17,1.75-.17v-.48c0-.47-.1-.83-.3-1.08-.2-.24-.5-.37-.9-.37-.26,0-.48.03-.66.1-.18.07-.33.14-.46.22s-.24.16-.34.22c-.09.07-.19.1-.28.1-.07,0-.14-.02-.19-.06s-.1-.08-.13-.14l-.19-.34c.34-.32.7-.57,1.09-.73.39-.16.82-.24,1.29-.24.34,0,.64.06.91.17.26.11.49.27.67.47s.32.44.41.73.14.6.14.94v3.89ZM216.15,98.99c.19,0,.36-.02.52-.06s.3-.09.44-.16c.14-.07.27-.16.4-.25s.25-.21.37-.34v-1.25c-.49,0-.91.03-1.25.09-.34.06-.62.14-.84.25s-.37.22-.47.36c-.1.14-.15.29-.15.46s.03.3.08.42c.05.12.12.21.21.29s.19.13.31.16.25.05.39.05ZM218.49,90.95l-1.4,1.55c-.06.06-.11.1-.17.13-.05.03-.12.04-.21.04h-.64l.89-1.45c.06-.09.12-.16.18-.2.07-.04.16-.06.29-.06h1.04Z"/>
      <path class="cls-7" d="M220.54,99.64v-6.08h.64c.15,0,.25.07.29.22l.08.66c.26-.29.56-.53.88-.71.33-.18.7-.27,1.13-.27.33,0,.62.05.88.17.25.11.47.27.64.47s.3.45.39.73c.09.28.13.6.13.94v3.87h-1.07v-3.87c0-.46-.11-.82-.32-1.07-.21-.25-.53-.38-.96-.38-.32,0-.61.08-.88.23-.27.15-.53.36-.76.62v4.48h-1.07Z"/>
      <path class="cls-7" d="M229.53,101.7v-8.14h.64c.15,0,.25.07.29.22l.09.72c.26-.32.56-.57.89-.76.33-.19.72-.29,1.15-.29.35,0,.66.07.95.2.28.13.53.33.73.59.2.26.35.59.46.97.11.39.16.83.16,1.34,0,.45-.06.87-.18,1.25s-.29.72-.52,1c-.22.28-.5.5-.83.67s-.69.24-1.1.24c-.38,0-.7-.06-.96-.19-.27-.12-.5-.3-.71-.53v2.69h-1.07ZM232.24,94.32c-.35,0-.65.08-.92.24s-.5.39-.72.68v2.94c.2.26.41.45.64.56.23.11.5.16.78.16.56,0,1-.2,1.3-.61.3-.4.46-.98.46-1.73,0-.4-.04-.74-.1-1.02-.07-.28-.17-.52-.3-.7s-.29-.32-.49-.4c-.19-.08-.41-.13-.65-.13Z"/>
      <path class="cls-7" d="M240.62,99.64h-.47c-.1,0-.19-.02-.25-.05-.06-.03-.11-.1-.13-.2l-.12-.56c-.16.14-.32.27-.47.39-.15.11-.31.21-.48.29-.17.08-.35.14-.54.18-.19.04-.4.06-.63.06s-.46-.03-.66-.1c-.21-.07-.38-.17-.54-.3-.15-.13-.27-.3-.36-.5-.09-.2-.13-.44-.13-.72,0-.24.07-.47.2-.7s.34-.42.64-.59c.29-.17.68-.31,1.16-.42s1.06-.17,1.75-.17v-.48c0-.47-.1-.83-.3-1.08-.2-.24-.5-.37-.9-.37-.26,0-.48.03-.66.1-.18.07-.33.14-.46.22s-.24.16-.34.22c-.09.07-.19.1-.28.1-.07,0-.14-.02-.19-.06s-.1-.08-.13-.14l-.19-.34c.34-.32.7-.57,1.09-.73.39-.16.82-.24,1.29-.24.34,0,.64.06.91.17.26.11.49.27.67.47s.32.44.41.73.14.6.14.94v3.89ZM237.85,98.99c.19,0,.36-.02.52-.06s.3-.09.44-.16c.14-.07.27-.16.4-.25s.25-.21.37-.34v-1.25c-.49,0-.91.03-1.25.09-.34.06-.62.14-.84.25s-.37.22-.47.36c-.1.14-.15.29-.15.46s.03.3.08.42c.05.12.12.21.21.29s.19.13.31.16.25.05.39.05Z"/>
      <path class="cls-7" d="M242.24,99.64v-6.08h.61c.12,0,.2.02.24.07s.07.12.09.23l.07.95c.21-.42.47-.75.77-.99s.67-.36,1.08-.36c.17,0,.32.02.46.06.14.04.26.09.38.16l-.14.8c-.03.1-.09.15-.19.15-.06,0-.14-.02-.26-.06s-.28-.06-.49-.06c-.37,0-.68.11-.93.32-.25.22-.46.53-.63.94v3.87h-1.07Z"/>
      <path class="cls-7" d="M251.31,99.64h-.47c-.1,0-.19-.02-.25-.05-.06-.03-.11-.1-.13-.2l-.12-.56c-.16.14-.32.27-.47.39-.15.11-.31.21-.48.29-.17.08-.35.14-.54.18-.19.04-.4.06-.63.06s-.46-.03-.66-.1c-.21-.07-.38-.17-.54-.3-.15-.13-.27-.3-.36-.5-.09-.2-.13-.44-.13-.72,0-.24.07-.47.2-.7s.34-.42.64-.59c.29-.17.68-.31,1.16-.42s1.06-.17,1.75-.17v-.48c0-.47-.1-.83-.3-1.08-.2-.24-.5-.37-.9-.37-.26,0-.48.03-.66.1-.18.07-.33.14-.46.22s-.24.16-.34.22c-.09.07-.19.1-.28.1-.07,0-.14-.02-.19-.06s-.1-.08-.13-.14l-.19-.34c.34-.32.7-.57,1.09-.73.39-.16.82-.24,1.29-.24.34,0,.64.06.91.17.26.11.49.27.67.47s.32.44.41.73.14.6.14.94v3.89ZM248.54,98.99c.19,0,.36-.02.52-.06s.3-.09.44-.16c.14-.07.27-.16.4-.25s.25-.21.37-.34v-1.25c-.49,0-.91.03-1.25.09-.34.06-.62.14-.84.25s-.37.22-.47.36c-.1.14-.15.29-.15.46s.03.3.08.42c.05.12.12.21.21.29s.19.13.31.16.25.05.39.05Z"/>
      <path class="cls-7" d="M34.47,111.05s-.06.08-.1.1c-.03.02-.08.04-.14.04s-.12-.02-.2-.07c-.07-.05-.16-.11-.27-.17-.11-.06-.24-.12-.39-.17-.15-.05-.34-.08-.57-.08-.3,0-.56.05-.79.16-.23.11-.42.26-.57.46s-.27.44-.35.73-.12.6-.12.95.04.7.13.98c.08.29.2.53.35.72.15.19.34.34.55.44.22.1.46.15.73.15s.47-.03.64-.09c.17-.06.31-.13.42-.21s.2-.14.28-.21c.07-.06.14-.09.22-.09.09,0,.16.03.2.1l.3.39c-.26.32-.59.56-.99.71-.4.15-.81.22-1.25.22-.38,0-.73-.07-1.06-.21-.33-.14-.61-.34-.85-.61-.24-.27-.43-.59-.57-.98-.14-.39-.21-.83-.21-1.33,0-.45.06-.87.19-1.25s.31-.71.55-.99c.24-.28.54-.5.9-.65.36-.16.76-.23,1.22-.23.42,0,.8.07,1.13.21.33.14.62.33.87.58l-.28.38Z"/>
      <path class="cls-7" d="M40.39,116.04h-.47c-.1,0-.19-.02-.25-.05-.06-.03-.11-.1-.13-.2l-.12-.56c-.16.14-.32.27-.47.39-.15.11-.31.21-.48.29-.17.08-.35.14-.54.18-.19.04-.4.06-.63.06s-.46-.03-.66-.1c-.21-.07-.38-.17-.54-.3-.15-.13-.27-.3-.36-.5-.09-.2-.13-.44-.13-.72,0-.24.07-.47.2-.7s.34-.42.64-.59c.29-.17.68-.31,1.16-.42s1.06-.17,1.75-.17v-.48c0-.47-.1-.83-.3-1.08-.2-.24-.5-.37-.9-.37-.26,0-.48.03-.66.1-.18.07-.33.14-.46.22s-.24.16-.34.22c-.09.07-.19.1-.28.1-.07,0-.14-.02-.19-.06s-.1-.08-.13-.14l-.19-.34c.34-.32.7-.57,1.09-.73.39-.16.82-.24,1.29-.24.34,0,.64.06.91.17.26.11.49.27.67.47s.32.44.41.73.14.6.14.94v3.89ZM37.62,115.39c.19,0,.36-.02.52-.06s.3-.09.44-.16c.14-.07.27-.16.4-.25s.25-.21.37-.34v-1.25c-.49,0-.91.03-1.25.09-.34.06-.62.14-.84.25s-.37.22-.47.36c-.1.14-.15.29-.15.46s.03.3.08.42c.05.12.12.21.21.29s.19.13.31.16.25.05.39.05Z"/>
      <path class="cls-7" d="M42.01,116.04v-6.08h.64c.15,0,.25.07.29.22l.08.66c.26-.29.56-.53.88-.71.33-.18.7-.27,1.13-.27.33,0,.62.05.88.17.25.11.47.27.64.47s.3.45.39.73c.09.28.13.6.13.94v3.87h-1.07v-3.87c0-.46-.11-.82-.32-1.07-.21-.25-.53-.38-.96-.38-.32,0-.61.08-.88.23-.27.15-.53.36-.76.62v4.48h-1.07Z"/>
      <path class="cls-7" d="M49.87,109.97v6.53c0,.24-.03.47-.1.68-.06.21-.17.39-.3.55s-.32.28-.53.37-.48.13-.78.13c-.13,0-.25,0-.36-.03-.11-.02-.22-.05-.32-.09l.05-.58c0-.05.03-.08.05-.1.03-.01.07-.02.13-.02h.23c.31,0,.53-.07.67-.22.13-.15.2-.38.2-.71v-6.52h1.07ZM50.11,108.06c0,.1-.02.2-.06.29s-.1.17-.17.24c-.07.07-.15.12-.24.17s-.19.06-.29.06-.2-.02-.29-.06-.17-.09-.24-.17-.12-.15-.17-.24-.06-.19-.06-.29.02-.2.06-.3.09-.18.17-.25c.07-.07.15-.12.24-.17s.19-.06.29-.06.2.02.29.06.17.1.24.17c.07.07.13.15.17.25s.06.19.06.3Z"/>
      <path class="cls-7" d="M54.14,109.87c.36,0,.7.06,1.01.18s.57.3.8.53c.22.23.4.51.53.85.13.34.19.72.19,1.16,0,.17-.02.28-.05.34-.04.06-.1.08-.2.08h-4.04c0,.38.06.72.16,1,.1.28.23.52.4.71.17.19.37.33.6.43.23.09.49.14.78.14.27,0,.5-.03.69-.09.19-.06.36-.13.5-.2s.26-.14.35-.2c.09-.06.18-.09.24-.09.09,0,.16.03.2.1l.3.39c-.13.16-.29.3-.47.42-.18.12-.38.21-.59.29-.21.08-.43.13-.65.17-.22.04-.45.06-.67.06-.42,0-.81-.07-1.16-.21-.35-.14-.66-.35-.92-.62-.26-.27-.46-.61-.6-1.02-.14-.4-.22-.87-.22-1.39,0-.42.06-.82.19-1.19.13-.37.32-.69.56-.96.24-.27.54-.48.89-.64.35-.15.75-.23,1.19-.23ZM54.16,110.66c-.52,0-.92.15-1.22.45-.3.3-.48.71-.55,1.24h3.31c0-.25-.03-.47-.1-.68-.07-.21-.17-.38-.3-.53-.13-.15-.29-.27-.48-.35-.19-.08-.41-.12-.65-.12Z"/>
      <path class="cls-7" d="M62.48,116.04h-.47c-.1,0-.19-.02-.25-.05-.06-.03-.11-.1-.13-.2l-.12-.56c-.16.14-.32.27-.47.39-.15.11-.31.21-.48.29-.17.08-.35.14-.54.18-.19.04-.4.06-.63.06s-.46-.03-.66-.1c-.21-.07-.38-.17-.54-.3-.15-.13-.27-.3-.36-.5-.09-.2-.13-.44-.13-.72,0-.24.07-.47.2-.7s.34-.42.64-.59c.29-.17.68-.31,1.16-.42s1.06-.17,1.75-.17v-.48c0-.47-.1-.83-.3-1.08-.2-.24-.5-.37-.9-.37-.26,0-.48.03-.66.1-.18.07-.33.14-.46.22s-.24.16-.34.22c-.09.07-.19.1-.28.1-.07,0-.14-.02-.19-.06s-.1-.08-.13-.14l-.19-.34c.34-.32.7-.57,1.09-.73.39-.16.82-.24,1.29-.24.34,0,.64.06.91.17.26.11.49.27.67.47s.32.44.41.73.14.6.14.94v3.89ZM59.71,115.39c.19,0,.36-.02.52-.06s.3-.09.44-.16c.14-.07.27-.16.4-.25s.25-.21.37-.34v-1.25c-.49,0-.91.03-1.25.09-.34.06-.62.14-.84.25s-.37.22-.47.36c-.1.14-.15.29-.15.46s.03.3.08.42c.05.12.12.21.21.29s.19.13.31.16.25.05.39.05Z"/>
      <path class="cls-7" d="M64.1,116.04v-6.08h.61c.12,0,.2.02.24.07s.07.12.09.23l.07.95c.21-.42.47-.75.77-.99s.67-.36,1.08-.36c.17,0,.32.02.46.06.14.04.26.09.38.16l-.14.8c-.03.1-.09.15-.19.15-.06,0-.14-.02-.26-.06s-.28-.06-.49-.06c-.37,0-.68.11-.93.32-.25.22-.46.53-.63.94v3.87h-1.07Z"/>
      <path class="cls-7" d="M70.13,107.21v8.84h-1.07v-8.84h1.07Z"/>
      <path class="cls-7" d="M76.47,116.04h-.47c-.1,0-.19-.02-.25-.05-.06-.03-.11-.1-.13-.2l-.12-.56c-.16.14-.32.27-.47.39-.15.11-.31.21-.48.29-.17.08-.35.14-.54.18-.19.04-.4.06-.63.06s-.46-.03-.66-.1c-.21-.07-.38-.17-.54-.3-.15-.13-.27-.3-.36-.5-.09-.2-.13-.44-.13-.72,0-.24.07-.47.2-.7s.34-.42.64-.59c.29-.17.68-.31,1.16-.42s1.06-.17,1.75-.17v-.48c0-.47-.1-.83-.3-1.08-.2-.24-.5-.37-.9-.37-.26,0-.48.03-.66.1-.18.07-.33.14-.46.22s-.24.16-.34.22c-.09.07-.19.1-.28.1-.07,0-.14-.02-.19-.06s-.1-.08-.13-.14l-.19-.34c.34-.32.7-.57,1.09-.73.39-.16.82-.24,1.29-.24.34,0,.64.06.91.17.26.11.49.27.67.47s.32.44.41.73.14.6.14.94v3.89ZM73.7,115.39c.19,0,.36-.02.52-.06s.3-.09.44-.16c.14-.07.27-.16.4-.25s.25-.21.37-.34v-1.25c-.49,0-.91.03-1.25.09-.34.06-.62.14-.84.25s-.37.22-.47.36c-.1.14-.15.29-.15.46s.03.3.08.42c.05.12.12.21.21.29s.19.13.31.16.25.05.39.05Z"/>
      <path class="cls-7" d="M81.58,110.97c-.05.09-.12.13-.22.13-.06,0-.13-.02-.2-.07s-.17-.09-.28-.15c-.11-.05-.24-.1-.39-.15s-.33-.07-.54-.07c-.18,0-.34.02-.49.07-.14.05-.27.11-.37.19-.1.08-.18.17-.23.28-.05.11-.08.22-.08.34,0,.16.04.29.13.39.09.1.21.19.36.27.15.08.32.14.5.2.19.06.38.12.58.19.2.07.39.14.58.22.19.08.36.18.5.3.15.12.27.27.36.44.09.17.13.38.13.63,0,.28-.05.54-.15.78s-.25.44-.44.62c-.2.17-.44.31-.72.41-.28.1-.61.15-.98.15-.42,0-.81-.07-1.15-.21-.34-.14-.64-.31-.88-.53l.25-.41c.03-.05.07-.09.11-.12s.1-.04.17-.04.15.03.23.08.18.12.29.19c.11.07.25.13.41.19s.37.08.61.08c.21,0,.39-.03.55-.08s.29-.13.39-.22c.1-.09.18-.2.23-.32s.08-.25.08-.38c0-.17-.04-.31-.14-.42-.09-.11-.21-.2-.36-.28-.15-.08-.32-.15-.51-.2-.19-.06-.38-.12-.58-.18-.2-.06-.39-.14-.58-.22-.19-.08-.36-.19-.51-.31-.15-.12-.27-.28-.36-.46-.09-.18-.13-.4-.13-.66,0-.23.05-.46.14-.67.1-.21.24-.4.42-.56.18-.16.41-.29.68-.39.27-.1.57-.14.92-.14.4,0,.76.06,1.08.19.32.13.59.3.82.52l-.24.39Z"/>
      <path class="cls-7" d="M85.62,118.1v-8.14h.64c.15,0,.25.07.29.22l.09.72c.26-.32.56-.57.89-.76.33-.19.72-.29,1.15-.29.35,0,.66.07.95.2.28.13.53.33.73.59.2.26.35.59.46.97.11.39.16.83.16,1.34,0,.45-.06.87-.18,1.25s-.29.72-.52,1c-.22.28-.5.5-.83.67s-.69.24-1.1.24c-.38,0-.7-.06-.96-.19-.27-.12-.5-.3-.71-.53v2.69h-1.07ZM88.32,110.72c-.35,0-.65.08-.92.24s-.5.39-.72.68v2.94c.2.26.41.45.64.56.23.11.5.16.78.16.56,0,1-.2,1.3-.61.3-.4.46-.98.46-1.73,0-.4-.04-.74-.1-1.02-.07-.28-.17-.52-.3-.7s-.29-.32-.49-.4c-.19-.08-.41-.13-.65-.13Z"/>
      <path class="cls-7" d="M94.7,109.87c.44,0,.84.07,1.2.22.36.15.66.36.91.63.25.27.44.6.58.99.13.39.2.82.2,1.29s-.07.91-.2,1.3c-.13.38-.33.71-.58.98-.25.27-.55.48-.91.63-.36.15-.76.22-1.2.22s-.84-.07-1.2-.22c-.36-.15-.66-.36-.92-.63-.25-.27-.45-.6-.58-.98s-.2-.82-.2-1.3.07-.91.2-1.29.33-.71.58-.99c.25-.27.56-.48.92-.63.36-.15.76-.22,1.2-.22ZM94.7,115.29c.6,0,1.05-.2,1.34-.6.3-.4.44-.96.44-1.68s-.15-1.29-.44-1.69c-.3-.4-.74-.61-1.34-.61-.3,0-.57.05-.79.16-.22.1-.41.25-.56.45-.15.2-.26.44-.34.72-.07.29-.11.61-.11.97s.04.68.11.97c.07.28.19.52.34.72.15.19.34.34.56.45.22.1.49.16.79.16Z"/>
      <path class="cls-7" d="M98.91,116.04v-6.08h.61c.12,0,.2.02.24.07s.07.12.09.23l.07.95c.21-.42.47-.75.77-.99s.67-.36,1.08-.36c.17,0,.32.02.46.06.14.04.26.09.38.16l-.14.8c-.03.1-.09.15-.19.15-.06,0-.14-.02-.26-.06s-.28-.06-.49-.06c-.37,0-.68.11-.93.32-.25.22-.46.53-.63.94v3.87h-1.07Z"/>
      <path class="cls-7" d="M106.07,118.1v-8.14h.64c.15,0,.25.07.29.22l.09.72c.26-.32.56-.57.89-.76.33-.19.72-.29,1.15-.29.35,0,.66.07.95.2.28.13.53.33.73.59.2.26.35.59.46.97.11.39.16.83.16,1.34,0,.45-.06.87-.18,1.25s-.29.72-.52,1c-.22.28-.5.5-.83.67s-.69.24-1.1.24c-.38,0-.7-.06-.96-.19-.27-.12-.5-.3-.71-.53v2.69h-1.07ZM108.77,110.72c-.35,0-.65.08-.92.24s-.5.39-.72.68v2.94c.2.26.41.45.64.56.23.11.5.16.78.16.56,0,1-.2,1.3-.61.3-.4.46-.98.46-1.73,0-.4-.04-.74-.1-1.02-.07-.28-.17-.52-.3-.7s-.29-.32-.49-.4c-.19-.08-.41-.13-.65-.13Z"/>
      <path class="cls-7" d="M112.69,116.04v-6.08h.61c.12,0,.2.02.24.07s.07.12.09.23l.07.95c.21-.42.47-.75.77-.99s.67-.36,1.08-.36c.17,0,.32.02.46.06.14.04.26.09.38.16l-.14.8c-.03.1-.09.15-.19.15-.06,0-.14-.02-.26-.06s-.28-.06-.49-.06c-.37,0-.68.11-.93.32-.25.22-.46.53-.63.94v3.87h-1.07Z"/>
      <path class="cls-7" d="M119.93,109.87c.36,0,.7.06,1.01.18s.57.3.8.53c.22.23.4.51.53.85.13.34.19.72.19,1.16,0,.17-.02.28-.05.34-.04.06-.1.08-.2.08h-4.04c0,.38.06.72.16,1,.1.28.23.52.4.71.17.19.37.33.6.43.23.09.49.14.78.14.27,0,.5-.03.69-.09.19-.06.36-.13.5-.2s.26-.14.35-.2c.09-.06.18-.09.24-.09.09,0,.16.03.2.1l.3.39c-.13.16-.29.3-.47.42-.18.12-.38.21-.59.29-.21.08-.43.13-.65.17-.22.04-.45.06-.67.06-.42,0-.81-.07-1.16-.21-.35-.14-.66-.35-.92-.62-.26-.27-.46-.61-.6-1.02-.14-.4-.22-.87-.22-1.39,0-.42.06-.82.19-1.19.13-.37.32-.69.56-.96.24-.27.54-.48.89-.64.35-.15.75-.23,1.19-.23ZM119.96,110.66c-.52,0-.92.15-1.22.45-.3.3-.48.71-.55,1.24h3.31c0-.25-.03-.47-.1-.68-.07-.21-.17-.38-.3-.53-.13-.15-.29-.27-.48-.35-.19-.08-.41-.12-.65-.12Z"/>
      <path class="cls-7" d="M123.81,116.04v-6.08h.64c.15,0,.25.07.29.22l.08.62c.22-.28.47-.5.75-.68s.6-.26.97-.26c.41,0,.75.11,1,.34.25.23.44.54.55.92.08-.22.19-.41.33-.57.14-.16.29-.29.46-.4.17-.1.35-.18.55-.23.19-.05.39-.07.59-.07.32,0,.61.05.86.15.25.1.46.25.64.45.17.2.31.44.4.72.09.29.14.61.14.98v3.87h-1.07v-3.87c0-.48-.1-.84-.31-1.08s-.51-.37-.91-.37c-.18,0-.34.03-.5.09-.16.06-.3.15-.42.27s-.21.27-.29.45-.11.39-.11.63v3.87h-1.07v-3.87c0-.49-.1-.85-.29-1.09-.2-.24-.48-.36-.86-.36-.26,0-.51.07-.73.21-.23.14-.43.33-.62.58v4.53h-1.07Z"/>
      <path class="cls-7" d="M135.09,108.06c0,.1-.02.2-.06.29s-.1.17-.17.24c-.07.07-.15.12-.24.17s-.19.06-.29.06-.2-.02-.29-.06-.17-.09-.24-.17-.12-.15-.17-.24-.06-.19-.06-.29.02-.2.06-.3.09-.18.17-.25c.07-.07.15-.12.24-.17s.19-.06.29-.06.2.02.29.06.17.1.24.17c.07.07.13.15.17.25s.06.19.06.3ZM134.85,109.97v6.08h-1.07v-6.08h1.07Z"/>
      <path class="cls-7" d="M139.2,109.87c.44,0,.84.07,1.2.22.36.15.66.36.91.63.25.27.44.6.58.99.13.39.2.82.2,1.29s-.07.91-.2,1.3c-.13.38-.33.71-.58.98-.25.27-.55.48-.91.63-.36.15-.76.22-1.2.22s-.84-.07-1.2-.22c-.36-.15-.66-.36-.92-.63-.25-.27-.45-.6-.58-.98s-.2-.82-.2-1.3.07-.91.2-1.29.33-.71.58-.99c.25-.27.56-.48.92-.63.36-.15.76-.22,1.2-.22ZM139.2,115.29c.6,0,1.05-.2,1.34-.6.3-.4.44-.96.44-1.68s-.15-1.29-.44-1.69c-.3-.4-.74-.61-1.34-.61-.3,0-.57.05-.79.16-.22.1-.41.25-.56.45-.15.2-.26.44-.34.72-.07.29-.11.61-.11.97s.04.68.11.97c.07.28.19.52.34.72.15.19.34.34.56.45.22.1.49.16.79.16Z"/>
      <path class="cls-7" d="M146.89,110.97c-.05.09-.12.13-.22.13-.06,0-.13-.02-.2-.07s-.17-.09-.28-.15c-.11-.05-.24-.1-.39-.15s-.33-.07-.54-.07c-.18,0-.34.02-.49.07-.14.05-.27.11-.37.19-.1.08-.18.17-.23.28-.05.11-.08.22-.08.34,0,.16.04.29.13.39.09.1.21.19.36.27.15.08.32.14.5.2.19.06.38.12.58.19.2.07.39.14.58.22.19.08.36.18.5.3.15.12.27.27.36.44.09.17.13.38.13.63,0,.28-.05.54-.15.78s-.25.44-.44.62c-.2.17-.44.31-.72.41-.28.1-.61.15-.98.15-.42,0-.81-.07-1.15-.21-.34-.14-.64-.31-.88-.53l.25-.41c.03-.05.07-.09.11-.12s.1-.04.17-.04.15.03.23.08.18.12.29.19c.11.07.25.13.41.19s.37.08.61.08c.21,0,.39-.03.55-.08s.29-.13.39-.22c.1-.09.18-.2.23-.32s.08-.25.08-.38c0-.17-.04-.31-.14-.42-.09-.11-.21-.2-.36-.28-.15-.08-.32-.15-.51-.2-.19-.06-.38-.12-.58-.18-.2-.06-.39-.14-.58-.22-.19-.08-.36-.19-.51-.31-.15-.12-.27-.28-.36-.46-.09-.18-.13-.4-.13-.66,0-.23.05-.46.14-.67.1-.21.24-.4.42-.56.18-.16.41-.29.68-.39.27-.1.57-.14.92-.14.4,0,.76.06,1.08.19.32.13.59.3.82.52l-.24.39Z"/>
      <path class="cls-7" d="M150.93,116.04v-6.08h.64c.15,0,.25.07.29.22l.08.62c.22-.28.47-.5.75-.68s.6-.26.97-.26c.41,0,.75.11,1,.34.25.23.44.54.55.92.08-.22.19-.41.33-.57.14-.16.29-.29.46-.4.17-.1.35-.18.55-.23.19-.05.39-.07.59-.07.32,0,.61.05.86.15.25.1.46.25.64.45.17.2.31.44.4.72.09.29.14.61.14.98v3.87h-1.07v-3.87c0-.48-.1-.84-.31-1.08s-.51-.37-.91-.37c-.18,0-.34.03-.5.09-.16.06-.3.15-.42.27s-.21.27-.29.45-.11.39-.11.63v3.87h-1.07v-3.87c0-.49-.1-.85-.29-1.09-.2-.24-.48-.36-.86-.36-.26,0-.51.07-.73.21-.23.14-.43.33-.62.58v4.53h-1.07Z"/>
      <path class="cls-7" d="M165.25,116.04h-.47c-.1,0-.19-.02-.25-.05-.06-.03-.11-.1-.13-.2l-.12-.56c-.16.14-.32.27-.47.39-.15.11-.31.21-.48.29-.17.08-.35.14-.54.18-.19.04-.4.06-.63.06s-.46-.03-.66-.1c-.21-.07-.38-.17-.54-.3-.15-.13-.27-.3-.36-.5-.09-.2-.13-.44-.13-.72,0-.24.07-.47.2-.7s.34-.42.64-.59c.29-.17.68-.31,1.16-.42s1.06-.17,1.75-.17v-.48c0-.47-.1-.83-.3-1.08-.2-.24-.5-.37-.9-.37-.26,0-.48.03-.66.1-.18.07-.33.14-.46.22s-.24.16-.34.22c-.09.07-.19.1-.28.1-.07,0-.14-.02-.19-.06s-.1-.08-.13-.14l-.19-.34c.34-.32.7-.57,1.09-.73.39-.16.82-.24,1.29-.24.34,0,.64.06.91.17.26.11.49.27.67.47s.32.44.41.73.14.6.14.94v3.89ZM162.48,115.39c.19,0,.36-.02.52-.06s.3-.09.44-.16c.14-.07.27-.16.4-.25s.25-.21.37-.34v-1.25c-.49,0-.91.03-1.25.09-.34.06-.62.14-.84.25s-.37.22-.47.36c-.1.14-.15.29-.15.46s.03.3.08.42c.05.12.12.21.21.29s.19.13.31.16.25.05.39.05ZM164.82,107.35l-1.4,1.55c-.06.06-.11.1-.17.13-.05.03-.12.04-.21.04h-.64l.89-1.45c.06-.09.12-.16.18-.2.07-.04.16-.06.29-.06h1.04Z"/>
      <path class="cls-7" d="M170.35,110.97c-.05.09-.12.13-.22.13-.06,0-.13-.02-.2-.07s-.17-.09-.28-.15c-.11-.05-.24-.1-.39-.15s-.33-.07-.54-.07c-.18,0-.34.02-.49.07-.14.05-.27.11-.37.19-.1.08-.18.17-.23.28-.05.11-.08.22-.08.34,0,.16.04.29.13.39.09.1.21.19.36.27.15.08.32.14.5.2.19.06.38.12.58.19.2.07.39.14.58.22.19.08.36.18.5.3.15.12.27.27.36.44.09.17.13.38.13.63,0,.28-.05.54-.15.78s-.25.44-.44.62c-.2.17-.44.31-.72.41-.28.1-.61.15-.98.15-.42,0-.81-.07-1.15-.21-.34-.14-.64-.31-.88-.53l.25-.41c.03-.05.07-.09.11-.12s.1-.04.17-.04.15.03.23.08.18.12.29.19c.11.07.25.13.41.19s.37.08.61.08c.21,0,.39-.03.55-.08s.29-.13.39-.22c.1-.09.18-.2.23-.32s.08-.25.08-.38c0-.17-.04-.31-.14-.42-.09-.11-.21-.2-.36-.28-.15-.08-.32-.15-.51-.2-.19-.06-.38-.12-.58-.18-.2-.06-.39-.14-.58-.22-.19-.08-.36-.19-.51-.31-.15-.12-.27-.28-.36-.46-.09-.18-.13-.4-.13-.66,0-.23.05-.46.14-.67.1-.21.24-.4.42-.56.18-.16.41-.29.68-.39.27-.1.57-.14.92-.14.4,0,.76.06,1.08.19.32.13.59.3.82.52l-.24.39Z"/>
      <path class="cls-7" d="M178.86,116.04h-.47c-.1,0-.19-.02-.25-.05-.06-.03-.11-.1-.13-.2l-.12-.56c-.16.14-.32.27-.47.39-.15.11-.31.21-.48.29-.17.08-.35.14-.54.18-.19.04-.4.06-.63.06s-.46-.03-.66-.1c-.21-.07-.38-.17-.54-.3-.15-.13-.27-.3-.36-.5-.09-.2-.13-.44-.13-.72,0-.24.07-.47.2-.7s.34-.42.64-.59c.29-.17.68-.31,1.16-.42s1.06-.17,1.75-.17v-.48c0-.47-.1-.83-.3-1.08-.2-.24-.5-.37-.9-.37-.26,0-.48.03-.66.1-.18.07-.33.14-.46.22s-.24.16-.34.22c-.09.07-.19.1-.28.1-.07,0-.14-.02-.19-.06s-.1-.08-.13-.14l-.19-.34c.34-.32.7-.57,1.09-.73.39-.16.82-.24,1.29-.24.34,0,.64.06.91.17.26.11.49.27.67.47s.32.44.41.73.14.6.14.94v3.89ZM176.08,115.39c.19,0,.36-.02.52-.06s.3-.09.44-.16c.14-.07.27-.16.4-.25s.25-.21.37-.34v-1.25c-.49,0-.91.03-1.25.09-.34.06-.62.14-.84.25s-.37.22-.47.36c-.1.14-.15.29-.15.46s.03.3.08.42c.05.12.12.21.21.29s.19.13.31.16.25.05.39.05Z"/>
      <path class="cls-7" d="M184.75,116.04c-.15,0-.25-.07-.29-.22l-.1-.74c-.26.32-.56.57-.89.76-.33.19-.72.29-1.15.29-.35,0-.66-.07-.95-.2s-.53-.33-.73-.59-.35-.58-.46-.97c-.11-.39-.16-.83-.16-1.34,0-.45.06-.87.18-1.25.12-.39.29-.72.52-1.01.23-.28.5-.51.83-.67s.69-.24,1.1-.24c.37,0,.69.06.95.19.26.13.5.3.71.53v-3.37h1.07v8.84h-.64ZM182.68,115.26c.35,0,.65-.08.92-.24.26-.16.5-.39.72-.68v-2.94c-.2-.26-.41-.45-.64-.56-.23-.11-.49-.16-.78-.16-.57,0-1,.2-1.31.61-.3.4-.46.98-.46,1.73,0,.4.03.73.1,1.02.07.28.17.51.3.7.13.18.29.31.49.4.19.08.41.13.66.13Z"/>
      <path class="cls-7" d="M189.59,109.87c.36,0,.7.06,1.01.18s.57.3.8.53c.22.23.4.51.53.85.13.34.19.72.19,1.16,0,.17-.02.28-.05.34-.04.06-.1.08-.2.08h-4.04c0,.38.06.72.16,1,.1.28.23.52.4.71.17.19.37.33.6.43.23.09.49.14.78.14.27,0,.5-.03.69-.09.19-.06.36-.13.5-.2s.26-.14.35-.2c.09-.06.18-.09.24-.09.09,0,.16.03.2.1l.3.39c-.13.16-.29.3-.47.42-.18.12-.38.21-.59.29-.21.08-.43.13-.65.17-.22.04-.45.06-.67.06-.42,0-.81-.07-1.16-.21-.35-.14-.66-.35-.92-.62-.26-.27-.46-.61-.6-1.02-.14-.4-.22-.87-.22-1.39,0-.42.06-.82.19-1.19.13-.37.32-.69.56-.96.24-.27.54-.48.89-.64.35-.15.75-.23,1.19-.23ZM189.61,110.66c-.52,0-.92.15-1.22.45-.3.3-.48.71-.55,1.24h3.31c0-.25-.03-.47-.1-.68-.07-.21-.17-.38-.3-.53-.13-.15-.29-.27-.48-.35-.19-.08-.41-.12-.65-.12Z"/>
      <path class="cls-7" d="M194.66,107.21v8.84h-1.07v-8.84h1.07Z"/>
      <path class="cls-7" d="M201.01,116.04h-.47c-.1,0-.19-.02-.25-.05-.06-.03-.11-.1-.13-.2l-.12-.56c-.16.14-.32.27-.47.39-.15.11-.31.21-.48.29-.17.08-.35.14-.54.18-.19.04-.4.06-.63.06s-.46-.03-.66-.1c-.21-.07-.38-.17-.54-.3-.15-.13-.27-.3-.36-.5-.09-.2-.13-.44-.13-.72,0-.24.07-.47.2-.7s.34-.42.64-.59c.29-.17.68-.31,1.16-.42s1.06-.17,1.75-.17v-.48c0-.47-.1-.83-.3-1.08-.2-.24-.5-.37-.9-.37-.26,0-.48.03-.66.1-.18.07-.33.14-.46.22s-.24.16-.34.22c-.09.07-.19.1-.28.1-.07,0-.14-.02-.19-.06s-.1-.08-.13-.14l-.19-.34c.34-.32.7-.57,1.09-.73.39-.16.82-.24,1.29-.24.34,0,.64.06.91.17.26.11.49.27.67.47s.32.44.41.73.14.6.14.94v3.89ZM198.24,115.39c.19,0,.36-.02.52-.06s.3-.09.44-.16c.14-.07.27-.16.4-.25s.25-.21.37-.34v-1.25c-.49,0-.91.03-1.25.09-.34.06-.62.14-.84.25s-.37.22-.47.36c-.1.14-.15.29-.15.46s.03.3.08.42c.05.12.12.21.21.29s.19.13.31.16.25.05.39.05Z"/>
      <path class="cls-7" d="M202.63,116.04v-6.08h.64c.15,0,.25.07.29.22l.08.66c.26-.29.56-.53.88-.71.33-.18.7-.27,1.13-.27.33,0,.62.05.88.17.25.11.47.27.64.47s.3.45.39.73c.09.28.13.6.13.94v3.87h-1.07v-3.87c0-.46-.11-.82-.32-1.07-.21-.25-.53-.38-.96-.38-.32,0-.61.08-.88.23-.27.15-.53.36-.76.62v4.48h-1.07Z"/>
      <path class="cls-7" d="M211.14,116.14c-.48,0-.85-.13-1.11-.4-.26-.27-.39-.65-.39-1.16v-3.72h-.73c-.06,0-.12-.02-.16-.06s-.07-.1-.07-.18v-.43l1-.13.25-1.88c0-.06.03-.11.08-.15s.1-.06.17-.06h.54v2.09h1.74v.77h-1.74v3.65c0,.26.06.45.19.57s.28.19.48.19c.11,0,.21-.01.29-.04s.15-.06.21-.1c.06-.04.11-.07.15-.1.04-.03.08-.04.11-.04.06,0,.11.03.15.1l.31.51c-.18.17-.41.31-.67.41-.26.1-.53.15-.8.15Z"/>
      <path class="cls-7" d="M216.18,109.87c.36,0,.7.06,1.01.18s.57.3.8.53c.22.23.4.51.53.85.13.34.19.72.19,1.16,0,.17-.02.28-.05.34-.04.06-.1.08-.2.08h-4.04c0,.38.06.72.16,1,.1.28.23.52.4.71.17.19.37.33.6.43.23.09.49.14.78.14.27,0,.5-.03.69-.09.19-.06.36-.13.5-.2s.26-.14.35-.2c.09-.06.18-.09.24-.09.09,0,.16.03.2.1l.3.39c-.13.16-.29.3-.47.42-.18.12-.38.21-.59.29-.21.08-.43.13-.65.17-.22.04-.45.06-.67.06-.42,0-.81-.07-1.16-.21-.35-.14-.66-.35-.92-.62-.26-.27-.46-.61-.6-1.02-.14-.4-.22-.87-.22-1.39,0-.42.06-.82.19-1.19.13-.37.32-.69.56-.96.24-.27.54-.48.89-.64.35-.15.75-.23,1.19-.23ZM216.21,110.66c-.52,0-.92.15-1.22.45-.3.3-.48.71-.55,1.24h3.31c0-.25-.03-.47-.1-.68-.07-.21-.17-.38-.3-.53-.13-.15-.29-.27-.48-.35-.19-.08-.41-.12-.65-.12Z"/>
      <path class="cls-7" d="M219.72,115.38c0-.1.02-.2.06-.29s.09-.17.16-.24c.07-.07.14-.12.24-.16.09-.04.19-.06.29-.06s.2.02.29.06c.09.04.17.09.24.16s.12.15.16.24.06.19.06.29-.02.21-.06.3-.09.17-.16.24c-.07.07-.15.12-.24.16-.09.04-.19.06-.29.06s-.2-.02-.29-.06c-.09-.04-.17-.09-.24-.16-.07-.07-.12-.15-.16-.24s-.06-.19-.06-.3Z"/>
    </g>
    <path class="cls-7" d="M281.12,5.49l-1.65,3.41h-2.46l2.72-4.67-2.66-4.22h2.7l1.82,3.46,1.54-3.46h2.46l-2.64,4.67,2.7,4.22h-2.7l-1.84-3.41Z"/>
    <g>
      <polygon class="cls-6" points="61.42 162.6 179.54 162.6 179.54 155.61 182.5 155.61 182.5 148.63 182.5 148.43 182.5 141.44 179.54 141.44 179.54 134.25 61.42 134.25 61.42 141.44 58.46 141.44 58.46 148.43 58.46 148.63 58.46 155.61 61.42 155.61 61.42 162.6"/>
      <polygon class="cls-4" points="63.94 159.07 177.02 159.07 177.02 153.64 179.86 153.64 179.86 148.21 179.86 148.06 179.86 142.63 177.02 142.63 177.02 137.05 63.94 137.05 63.94 142.63 61.1 142.63 61.1 148.06 61.1 148.21 61.1 153.64 63.94 153.64 63.94 159.07"/>
      <polygon class="cls-5" points="63.94 161.83 177.02 161.83 177.02 156.4 179.86 156.4 179.86 150.97 179.86 150.82 179.86 145.39 177.02 145.39 177.02 139.8 63.94 139.8 63.94 145.39 61.1 145.39 61.1 150.82 61.1 150.97 61.1 156.4 63.94 156.4 63.94 161.83"/>
      <g>
        <path class="cls-3" d="M82.35,150.65v-4.08h8v1.17h-5.71v2.33h4.57v1.17h-4.57v2.33h5.71v1.17h-8v-4.08Z"/>
        <path class="cls-3" d="M91.12,151.81v-2.92h6.85v1.17h1.14v4.67h-2.29v-4.67h-3.43v4.67h-2.28v-2.92Z"/>
        <path class="cls-3" d="M103.32,147.73v-1.17h2.28v2.33h2.29v1.17h-2.29v4.67h-2.28v-4.67h-2.28v-1.17h2.28v-1.17Z"/>
        <path class="cls-3" d="M109.81,149.48v-.58h5.71v1.17h1.14v2.33h-5.71v1.17h4.57v1.17h-5.71v-1.17h-1.14v-3.5h1.14v-.58ZM114.37,150.65v-.58h-3.43v1.17h3.43v-.58Z"/>
        <path class="cls-3" d="M117.44,151.81v-2.92h6.85v1.17h1.14v4.67h-2.29v-4.67h-3.43v4.67h-2.28v-2.92Z"/>
        <path class="cls-3" d="M131.92,147.73v-1.17h2.29v8.17h-6.85v-1.17h-1.14v-3.5h1.14v-1.17h4.57v-1.17ZM131.92,151.81v-1.75h-3.43v3.5h3.43v-1.75Z"/>
        <path class="cls-3" d="M137.26,149.48v-.58h3.43v4.67h2.29v1.17h-6.85v-1.17h2.28v-3.5h-1.14v-.58ZM138.41,147.14v-.58h2.28v1.17h-2.28v-.58Z"/>
        <path class="cls-3" d="M149.46,147.73v-1.17h2.29v8.17h-6.85v-1.17h-1.14v-3.5h1.14v-1.17h4.57v-1.17ZM149.46,151.81v-1.75h-3.43v3.5h3.43v-1.75Z"/>
        <path class="cls-3" d="M153.67,149.48v-.58h5.71v1.17h1.14v3.5h-1.14v1.17h-5.71v-1.17h-1.14v-3.5h1.14v-.58ZM158.24,151.81v-1.75h-3.43v3.5h3.43v-1.75Z"/>
      </g>
    </g>
  </g>
</svg>