<?xml version="1.0" encoding="UTF-8"?>
<svg id="Capa_2" data-name="Capa 2" xmlns="http://www.w3.org/2000/svg" viewBox="0 0 440.55 278.74">
  <defs>
    <style>
      .cls-1 {
        fill: #f4b117;
      }

      .cls-1, .cls-2, .cls-3, .cls-4, .cls-5 {
        stroke-width: 0px;
      }

      .cls-2 {
        fill: #183861;
      }

      .cls-3 {
        fill: #14395f;
      }

      .cls-4 {
        fill: #1fb8d0;
      }

      .cls-5 {
        fill: #fff;
      }
    </style>
  </defs>
  <g id="Capa_1-2" data-name="Capa 1">
    <g>
      <path class="cls-3" d="M87.33,77.21h307.15v89.9c0,19.05-15.47,34.52-34.52,34.52H52.81v-89.9c0-19.05,15.47-34.52,34.52-34.52Z"/>
      <path class="cls-4" d="M86.06,77.21h301.75v84.52c0,18.35-14.9,33.25-33.25,33.25H52.81v-84.52c0-18.35,14.9-33.25,33.25-33.25Z"/>
      <g>
        <g>
          <path class="cls-3" d="M152.52,171.54v-25.41h23.01c.04.79.07,1.58.11,2.45h2.44v7.65h-2.42v5.18h2.42v7.64h-2.45v2.49h-23.11ZM167.85,151.25h-5.04v4.92h5.04v-4.92ZM167.82,166.47v-5h-5v5h5Z"/>
          <path class="cls-3" d="M295.57,148.67v22.86h-10.22v-10.07h-5.13v10.11h-10.25v-22.95h2.42c.04-.91.08-1.67.11-2.5h20.53v2.41c.89.05,1.68.09,2.54.13ZM285.22,156.2v-4.96h-4.94v4.96h4.94Z"/>
          <path class="cls-3" d="M181.87,148.62h2.41c.05-.85.09-1.64.14-2.49h20.52v2.43c.89.04,1.69.08,2.54.12v22.87h-10.24v-10.08h-5.1v10.07h-10.28v-22.92ZM192.2,151.21v4.98h4.93v-4.98h-4.93Z"/>
          <path class="cls-3" d="M236.79,148.56v23h-10.17v-20.32h-5.17v20.31h-10.24v-22.9h2.49v-2.5h20.58v2.41h2.51Z"/>
          <path class="cls-3" d="M250.91,166.55h15.27v5h-23.03v-2.42h-2.53v-20.46c.75-.03,1.55-.07,2.43-.11v-2.41h23.12v4.98h-15.25v15.42Z"/>
        </g>
        <g>
          <path class="cls-3" d="M271.38,109.82v2.4h2.49v23.02h-10.18v-20.36h-5.13v20.33h-10.25v-20.31h-5.21v20.33h-10.19v-22.94h2.44v-2.47h36.03Z"/>
          <path class="cls-3" d="M346.64,135.26h-10.21v-22.96h2.46v-2.49h20.55v2.41h2.48v22.99h-10.12v-10.05h-5.17v10.11ZM351.69,119.85v-4.96h-4.99v4.96h4.99Z"/>
          <path class="cls-3" d="M322.39,135.2v-10.02h-5.1v10.05h-10.26v-25.44h23.07c.03.78.07,1.54.11,2.42h2.41v7.64c-.8.04-1.56.07-2.39.11v5.11h2.41v10.14h-10.25ZM322.29,119.91v-5.01h-4.94v5.01h4.94Z"/>
          <path class="cls-3" d="M215.2,119.89h-2.43v5.17h2.44v10.15h-10.19v-10.03h-5.11v10.04h-10.3v-25.41h23.02v2.39h2.56v7.68ZM204.94,114.88h-5.02v4.99h5.02v-4.99Z"/>
          <path class="cls-3" d="M160.25,109.77h23.02v2.44h2.48v10.24c-.75.03-1.54.07-2.42.11v2.46h-12.88v10.21h-10.2v-25.45ZM175.51,119.86v-4.95h-5.02v4.95h5.02Z"/>
          <path class="cls-3" d="M303.33,109.78v4.98h-15.28v5.13h7.5v5.14h-7.52v5.13h15.25v5.07h-23.07v-2.44h-2.48v-20.48h2.42v-2.53h23.17Z"/>
          <path class="cls-3" d="M218.96,116.74h10.17v18.5h-10.17v-18.5Z"/>
          <path class="cls-3" d="M218.91,114.72v-4.91h10.2v4.91h-10.2Z"/>
        </g>
        <g>
          <path class="cls-3" d="M98.93,114.92v20.28h-10.26v-22.9h2.41c.05-.89.09-1.68.13-2.52h35.95v2.47h2.54v22.95h-10.21v-20.3h-5.11v20.32h-10.32v-20.3h-5.11Z"/>
          <path class="cls-3" d="M143.54,135.23h-10.15v-18.44h10.15v18.44Z"/>
          <path class="cls-3" d="M143.54,114.75h-10.12v-4.97h10.12v4.97Z"/>
        </g>
      </g>
      <g>
        <g>
          <path class="cls-5" d="M149.21,168.92v-25.41h23.01c.04.79.07,1.58.11,2.45h2.44v7.65h-2.42v5.18h2.42v7.64h-2.45v2.49h-23.11ZM164.54,148.64h-5.04v4.92h5.04v-4.92ZM164.51,163.86v-5h-5v5h5Z"/>
          <path class="cls-5" d="M292.26,146.06v22.86h-10.22v-10.07h-5.13v10.11h-10.25v-22.95h2.42c.04-.91.08-1.67.11-2.5h20.53v2.41c.89.05,1.68.09,2.54.13ZM281.91,153.58v-4.96h-4.94v4.96h4.94Z"/>
          <path class="cls-5" d="M178.56,146h2.41c.05-.85.09-1.64.14-2.49h20.52v2.43c.89.04,1.69.08,2.54.12v22.87h-10.24v-10.08h-5.1v10.07h-10.28v-22.92ZM188.89,148.6v4.98h4.93v-4.98h-4.93Z"/>
          <path class="cls-5" d="M233.48,145.94v23h-10.17v-20.32h-5.17v20.31h-10.24v-22.9h2.49v-2.5h20.58v2.41h2.51Z"/>
          <path class="cls-5" d="M247.6,163.94h15.27v5h-23.03v-2.42h-2.53v-20.46c.75-.03,1.55-.07,2.43-.11v-2.41h23.12v4.98h-15.25v15.42Z"/>
        </g>
        <g>
          <path class="cls-5" d="M268.07,107.2v2.4h2.49v23.02h-10.18v-20.36h-5.13v20.33h-10.25v-20.31h-5.21v20.33h-10.19v-22.94h2.44v-2.47h36.03Z"/>
          <path class="cls-5" d="M343.33,132.64h-10.21v-22.96h2.46v-2.49h20.55v2.41h2.48v22.99h-10.12v-10.05h-5.17v10.11ZM348.38,117.24v-4.96h-4.99v4.96h4.99Z"/>
          <path class="cls-5" d="M319.08,132.59v-10.02h-5.1v10.05h-10.26v-25.44h23.07c.03.78.07,1.54.11,2.42h2.41v7.64c-.8.04-1.56.07-2.39.11v5.11h2.41v10.14h-10.25ZM318.98,117.3v-5.01h-4.94v5.01h4.94Z"/>
          <path class="cls-5" d="M211.89,117.27h-2.43v5.17h2.44v10.15h-10.19v-10.03h-5.11v10.04h-10.3v-25.41h23.02v2.39h2.56v7.68ZM201.63,112.26h-5.02v4.99h5.02v-4.99Z"/>
          <path class="cls-5" d="M156.95,107.16h23.02v2.44h2.48v10.24c-.75.03-1.54.07-2.42.11v2.46h-12.88v10.21h-10.2v-25.45ZM172.2,117.24v-4.95h-5.02v4.95h5.02Z"/>
          <path class="cls-5" d="M300.02,107.17v4.98h-15.28v5.13h7.5v5.14h-7.52v5.13h15.25v5.07h-23.07v-2.44h-2.48v-20.48h2.42v-2.53h23.17Z"/>
          <path class="cls-5" d="M215.65,114.12h10.17v18.5h-10.17v-18.5Z"/>
          <path class="cls-5" d="M215.6,112.1v-4.91h10.2v4.91h-10.2Z"/>
        </g>
        <g>
          <path class="cls-5" d="M95.62,112.31v20.28h-10.26v-22.9h2.41c.05-.89.09-1.68.13-2.52h35.95v2.47h2.54v22.95h-10.21v-20.3h-5.11v20.32h-10.32v-20.3h-5.11Z"/>
          <path class="cls-5" d="M140.23,132.62h-10.15v-18.44h10.15v18.44Z"/>
          <path class="cls-5" d="M140.23,112.13h-10.12v-4.97h10.12v4.97Z"/>
        </g>
      </g>
      <path class="cls-2" d="M440.55,77.89h-53.42V17.19c0-9.48,9.05-17.19,20.17-17.19h28.56v1.36h-28.56c-10.37,0-18.81,7.1-18.81,15.83v59.35h52.06v1.36Z"/>
      <path class="cls-1" d="M35.61,278.74H1.99v-1.36h33.62c9.11,0,16.52-7.41,16.52-16.52v-65.2H0v-1.36h53.49v66.55c0,9.86-8.02,17.88-17.88,17.88Z"/>
    </g>
  </g>
</svg>