<?xml version="1.0" encoding="UTF-8"?>
<svg id="Capa_2" data-name="Capa 2" xmlns="http://www.w3.org/2000/svg" viewBox="0 0 154.51 35.32">
  <defs>
    <style>
      .cls-1 {
        fill: #010101;
      }

      .cls-1, .cls-2, .cls-3, .cls-4 {
        stroke-width: 0px;
      }

      .cls-2 {
        fill: #f4b117;
      }

      .cls-3 {
        fill: #fff1c2;
      }

      .cls-4 {
        fill: #312614;
      }
    </style>
  </defs>
  <g id="Capa_1-2" data-name="Capa 1">
    <g>
      <polygon class="cls-4" points="3.69 35.32 150.83 35.32 150.83 26.61 154.51 26.61 154.51 17.91 154.51 17.66 154.51 8.95 150.83 8.95 150.83 0 3.69 0 3.69 8.95 0 8.95 0 17.66 0 17.91 0 26.61 3.69 26.61 3.69 35.32"/>
      <polygon class="cls-2" points="6.82 30.92 147.69 30.92 147.69 24.16 151.23 24.16 151.23 17.39 151.23 17.2 151.23 10.44 147.69 10.44 147.69 3.48 6.82 3.48 6.82 10.44 3.29 10.44 3.29 17.2 3.29 17.39 3.29 24.16 6.82 24.16 6.82 30.92"/>
      <polygon class="cls-3" points="6.82 34.36 147.69 34.36 147.69 27.59 151.23 27.59 151.23 20.83 151.23 20.64 151.23 13.87 147.69 13.87 147.69 6.92 6.82 6.92 6.82 13.87 3.29 13.87 3.29 20.64 3.29 20.83 3.29 27.59 6.82 27.59 6.82 34.36"/>
      <g>
        <path class="cls-1" d="M24.29,18.24v-2.91h2.85v4.36h1.42v1.45h1.42v-1.45h1.42v-4.36h2.85v5.82h-1.42v1.45h-1.42v1.45h-1.42v1.45h-1.42v-1.45h-1.42v-1.45h-1.42v-1.45h-1.42v-2.91Z"/>
        <path class="cls-1" d="M36.64,18.97v-.73h7.11v1.45h1.42v2.91h-7.11v1.45h5.69v1.45h-7.11v-1.45h-1.42v-4.36h1.42v-.73ZM42.33,20.42v-.73h-4.27v1.45h4.27v-.73Z"/>
        <path class="cls-1" d="M47.57,21.88v-3.63h2.85v1.45h1.42v-1.45h4.27v1.45h-4.27v1.45h-1.42v4.36h-2.85v-3.63Z"/>
        <path class="cls-1" d="M68,22.6v-4.36h8.54v1.45h1.42v2.91h-1.42v1.45h-5.69v2.91h-2.85v-4.36ZM75.12,21.15v-1.45h-4.27v2.91h4.27v-1.45Z"/>
        <path class="cls-1" d="M78.93,21.15v-2.91h2.85v5.82h4.27v-5.82h2.85v7.27h-8.54v-1.45h-1.42v-2.91Z"/>
        <path class="cls-1" d="M89.86,21.88v-3.63h8.54v1.45h1.42v5.82h-2.85v-5.82h-4.27v5.82h-2.85v-3.63Z"/>
        <path class="cls-1" d="M105.05,16.79v-1.45h2.85v2.91h2.85v1.45h-2.85v5.82h-2.85v-5.82h-2.85v-1.45h2.85v-1.45Z"/>
        <path class="cls-1" d="M113.14,18.97v-.73h7.11v1.45h1.42v4.36h-1.42v1.45h-7.11v-1.45h-1.42v-4.36h1.42v-.73ZM118.83,21.88v-2.18h-4.27v4.36h4.27v-2.18Z"/>
        <path class="cls-1" d="M124.06,18.97v-.73h7.11v1.45h-5.69v1.45h5.69v1.45h1.42v1.45h-1.42v1.45h-8.54v-1.45h7.11v-1.45h-5.69v-1.45h-1.42v-1.45h1.42v-.73Z"/>
      </g>
    </g>
  </g>
</svg>