<svg width="104" height="43" viewBox="0 0 104 43" fill="none" xmlns="http://www.w3.org/2000/svg">
<path d="M21.7761 24.9624C21.7761 24.9624 25.6878 23.7295 25.6878 18.6076C25.6888 13.0062 21.7939 10.299 14.4967 10.299H-0.00012207V33.8655C0.0032395 34.5971 0.296791 35.2975 0.816083 35.8129C1.33538 36.3283 2.03796 36.6165 2.76959 36.6144H6.92518V28.3052H15.2475C18.6193 28.3052 20.7738 29.5062 20.7738 32.4588C20.7738 35.2762 18.6193 36.6139 15.2475 36.6139H6.92468V42.1512H16.2011C22.2201 42.1512 27.9754 39.9449 27.9754 32.4577C27.9754 27.7022 24.6164 25.4369 21.7776 24.9594M12.9254 22.7658H6.92468V15.8405H12.9254C16.3916 15.8405 18.4064 16.6579 18.4064 19.2478C18.4064 22.0652 16.3916 22.7658 12.9254 22.7658Z" fill="#022A4B"/>
<path d="M33.2385 19.9951C32.5046 19.9975 31.8015 20.29 31.2825 20.8089C30.7635 21.3278 30.4708 22.0309 30.4683 22.7648V42.1538H37.3931V19.9951H33.2385Z" fill="#022A4B"/>
<path d="M31.8531 10.2984C31.4862 10.2996 31.1347 10.4459 30.8752 10.7053C30.6158 10.9648 30.4695 11.3163 30.4683 11.6833V15.8383H36.0057C36.3727 15.837 36.7243 15.6906 36.9838 15.4311C37.2433 15.1716 37.3897 14.82 37.391 14.453V10.2984H31.8531Z" fill="#3AB3C9"/>
<path d="M48.4737 0.605469H40.1635C39.4297 0.608013 38.7268 0.900655 38.208 1.41954C37.6892 1.93843 37.3967 2.64144 37.3943 3.37518V10.3005H45.7039C46.4377 10.2982 47.1408 10.0057 47.6597 9.48692C48.1786 8.9681 48.4712 8.26507 48.4737 7.53128V0.605469Z" fill="#FFB200"/>
<path d="M48.4615 25.0726V20.0392H50.4123C51.7566 20.0392 52.3555 20.4151 52.3555 21.2584C52.38 21.4654 52.3379 21.6748 52.2353 21.8562C52.1327 22.0376 51.975 22.1817 51.785 22.2674L51.5742 22.3563L51.7941 22.4198C52.0732 22.4659 52.3238 22.6176 52.494 22.8434C52.6642 23.0693 52.7411 23.352 52.7086 23.6329C52.7086 24.5885 52.0573 25.0736 50.7735 25.0736L48.4615 25.0726ZM49.438 24.3137H50.774C51.3786 24.3137 51.7251 24.0383 51.7251 23.5577C51.7251 23.0553 51.3872 22.7789 50.774 22.7789H49.438V24.3137ZM49.438 22.0728H50.4189C50.9097 22.0728 51.3634 21.9945 51.3634 21.4276C51.3634 20.8688 50.8589 20.7977 50.4189 20.7977H49.438V22.0728Z" fill="#022A4B"/>
<path d="M58.542 25.0721L57.9887 23.8259H55.692L55.123 25.0721H54.1252L56.3636 20.0392H57.3893L59.5773 25.0721H58.542ZM55.9841 23.1188H57.687L56.8431 21.0446L55.9841 23.1188Z" fill="#022A4B"/>
<path d="M64.7852 25.0726L62.2914 21.4113V25.0726H61.3149V20.0392H62.3742L64.8579 23.6852V20.0392H65.8338V25.0726H64.7852Z" fill="#022A4B"/>
<path d="M70.4425 25.161C69.8837 25.161 68.0548 24.975 68.0548 22.5848C68.0548 20.2063 69.8578 19.9497 70.6335 19.9497C71.2197 19.9504 71.7978 20.0865 72.3227 20.3475L72.0443 21.0176C71.5939 20.8315 71.1126 20.7316 70.6254 20.7229C70.2535 20.7229 69.0388 20.857 69.0388 22.5848C69.0388 24.3004 70.2312 24.3872 70.4699 24.3872C71.0407 24.365 71.5967 24.1992 72.0864 23.9051L72.4807 24.5986C71.8644 24.9685 71.1587 25.163 70.4399 25.161" fill="#022A4B"/>
<path d="M76.639 25.1611C75.627 25.1611 73.9287 24.8227 73.9287 22.5559C73.9287 20.2892 75.627 19.9503 76.639 19.9503C77.651 19.9503 79.364 20.2887 79.364 22.5559C79.364 24.8232 77.6565 25.1611 76.639 25.1611ZM76.639 20.7235C75.4924 20.7235 74.9117 21.3403 74.9117 22.5559C74.9117 23.7716 75.4929 24.3873 76.639 24.3873C77.7851 24.3873 78.38 23.7538 78.38 22.5559C78.38 21.358 77.778 20.7235 76.639 20.7235Z" fill="#022A4B"/>
<path d="M49.4518 28.1645H48.4753V33.1979H49.4518V28.1645Z" fill="#022A4B"/>
<path d="M55.4299 33.1976L52.936 29.5363V33.1976H51.9596V28.1641H53.0173L55.5025 31.8102V28.1641H56.4789V33.1976H55.4299Z" fill="#022A4B"/>
<path d="M58.9883 33.1979V28.1645H60.7694C62.046 28.1645 63.5686 28.6014 63.5686 30.6812C63.5686 32.761 62.0445 33.1979 60.7694 33.1979H58.9883ZM59.9647 32.439H60.7841C61.4537 32.439 62.5774 32.2109 62.5774 30.6812C62.5774 29.1516 61.4537 28.923 60.7841 28.923H59.9647V32.439Z" fill="#022A4B"/>
<path d="M67.8864 33.2868C66.3385 33.2868 65.707 32.7148 65.707 31.3116V28.1619H66.6834V31.3467C66.6834 32.19 67.0208 32.5187 67.8864 32.5187C68.7729 32.5187 69.1336 32.1793 69.1336 31.3467V28.1619H70.0511V31.3116C70.0511 32.7143 69.4237 33.2868 67.8864 33.2868Z" fill="#022A4B"/>
<path d="M74.0813 33.2844C73.3117 33.2976 72.5542 33.092 71.8969 32.6915L72.3302 31.9803C72.8396 32.3051 73.4267 32.4876 74.0305 32.5086C74.6442 32.5086 75.3006 32.3161 75.3006 31.775C75.3006 31.2787 74.7483 31.1324 74.2144 30.9912C72.7767 30.6096 72.1412 30.4024 72.1412 29.4966C72.1412 28.3185 73.2538 28.0711 74.187 28.0711C74.8358 28.0637 75.4775 28.207 76.0616 28.4897L75.7746 29.2009C75.259 28.9689 74.7005 28.8478 74.1352 28.8453C73.7008 28.8453 73.1242 28.8961 73.1242 29.3492C73.1242 29.7145 73.1791 29.8786 74.5558 30.2804L74.7082 30.3251C75.5566 30.5685 76.2902 30.7793 76.2902 31.7684C76.2902 33.0202 75.0887 33.2828 74.0808 33.2828" fill="#022A4B"/>
<path d="M79.5144 33.1976V28.8855H77.8536V28.1641H82.1154V28.8855H80.4836V33.1976H79.5144Z" fill="#022A4B"/>
<path d="M88.2647 33.2964C88.0533 33.3255 87.8381 33.2909 87.6465 33.1969C87.4549 33.103 87.2957 32.954 87.1892 32.7691L86.2575 31.1638H85.0891V33.1959H84.1127V28.1624H86.321C87.7135 28.1624 88.2561 28.5831 88.2561 29.6626C88.2898 29.9596 88.2205 30.2592 88.0598 30.5113C87.899 30.7634 87.6567 30.9527 87.3731 31.0475L87.2802 31.0789L87.8898 32.1458C87.9569 32.2825 88.0631 32.3961 88.1948 32.4725C88.3266 32.5488 88.478 32.5843 88.63 32.5746C88.6594 32.5746 88.6894 32.5746 88.7209 32.5715V33.2695L88.4034 33.2934L88.2647 33.2964ZM85.0906 30.3977H86.3226C86.8174 30.3977 87.2746 30.3078 87.2746 29.6565C87.2746 29.0052 86.7935 28.9224 86.3226 28.9224H85.0906V30.3977Z" fill="#022A4B"/>
<path d="M91.6248 28.1645H90.6484V33.1979H91.6248V28.1645Z" fill="#022A4B"/>
<path d="M97.7828 33.1974L97.2296 31.9513H94.9328L94.3638 33.1974H93.3661L95.6044 28.1645H96.6301L98.8181 33.1974H97.7828ZM95.2249 31.2441H96.9278L96.084 29.1699L95.2249 31.2441Z" fill="#022A4B"/>
<path d="M100.556 33.1976V28.1641H101.533V32.4391H104V33.1981L100.556 33.1976Z" fill="#022A4B"/>
</svg>
